<?xml version="1.0" standalone="no"?>
<!DOCTYPE svg PUBLIC "-//W3C//DTD SVG 20010904//EN"
 "http://www.w3.org/TR/2001/REC-SVG-20010904/DTD/svg10.dtd">
<svg version="1.0" xmlns="http://www.w3.org/2000/svg"
 width="242.000000pt" height="345.000000pt" viewBox="0 0 242.000000 345.000000"
 preserveAspectRatio="xMidYMid meet">

<g transform="translate(0.000000,345.000000) scale(0.100000,-0.100000)"
fill="#000000" stroke="none">
<path d="M0 1725 l0 -1725 1210 0 1210 0 0 1725 0 1725 -1210 0 -1210 0 0
-1725z m711 1611 c16 -8 32 -10 40 -5 27 17 77 10 93 -13 31 -44 21 -76 -46
-140 l-61 -59 -64 63 c-64 64 -74 88 -52 129 9 17 38 36 59 38 3 1 17 -5 31
-13z m944 0 c21 -9 37 -11 40 -5 7 11 65 12 82 1 20 -13 33 -60 24 -84 -5 -13
-34 -47 -64 -76 l-54 -54 -58 54 c-31 29 -61 63 -65 75 -16 39 14 92 58 102 1
1 18 -5 37 -13z m470 0 c21 -9 37 -11 40 -5 7 11 65 12 82 1 20 -13 33 -60 24
-84 -5 -13 -34 -47 -64 -76 l-54 -53 -60 58 c-33 32 -63 66 -66 75 -12 35 20
88 61 97 1 1 18 -5 37 -13z m-1889 -10 c17 -12 22 -12 39 0 28 20 53 17 80
-11 41 -41 33 -71 -37 -142 l-62 -63 -63 62 c-70 70 -80 104 -41 145 24 26 54
29 84 9z m961 3 c8 -8 17 -8 31 0 54 29 107 -3 105 -64 -1 -29 -11 -44 -59
-87 -31 -29 -60 -53 -64 -53 -15 0 -111 98 -120 121 -18 45 16 94 65 94 17 0
36 -5 42 -11z m311 -819 c36 -22 67 -27 56 -8 -4 7 -3 8 5 4 6 -4 9 -12 6 -17
-4 -5 -1 -10 4 -10 6 -1 17 -2 24 -3 6 -1 11 -8 9 -15 -1 -7 2 -10 7 -7 10 6
79 -72 101 -113 11 -22 10 -27 -19 -50 -17 -14 -31 -30 -31 -35 0 -19 -34 -46
-56 -46 -13 0 -52 -14 -87 -31 -63 -32 -64 -32 -65 -75 0 -59 -11 -74 -29 -40
-13 24 -13 30 1 45 23 26 20 50 -9 57 -16 4 -25 13 -25 26 0 14 -5 18 -16 14
-12 -4 -14 -1 -9 14 3 11 3 25 -1 32 -10 16 -11 118 -1 118 4 0 7 -5 7 -12 0
-6 3 -9 6 -5 4 3 -3 26 -15 50 -20 42 -28 107 -14 120 15 16 118 7 151 -13z
m-599 -1 c25 1 63 4 83 5 36 4 37 3 31 -27 -5 -22 -3 -28 6 -23 9 6 11 -7 5
-56 -4 -34 -10 -70 -14 -78 -4 -8 -15 -48 -25 -88 -9 -40 -21 -75 -26 -78 -14
-8 -10 -44 5 -50 8 -3 12 -12 9 -20 -6 -16 22 -7 109 36 36 17 38 17 54 -1 9
-10 19 -33 23 -51 7 -32 28 -39 24 -8 -1 8 9 29 23 47 l24 31 42 -15 c83 -29
108 -45 108 -69 0 -32 -19 -40 -36 -15 -8 11 -24 26 -34 31 -18 10 -19 8 -10
-15 19 -50 13 -62 -32 -68 -22 -3 -53 -14 -67 -25 -26 -19 -26 -19 -53 1 -17
13 -44 20 -73 21 -45 1 -46 2 -42 29 2 18 -1 27 -10 27 -7 0 -15 -12 -19 -27
-3 -16 -10 -43 -16 -61 -5 -18 -7 -36 -4 -39 3 -4 6 2 6 13 1 17 2 17 10 3 7
-11 5 -26 -6 -47 -20 -40 -5 -96 35 -135 25 -24 30 -26 41 -12 7 8 26 15 42
15 17 0 27 4 23 10 -3 6 -2 10 3 10 6 0 10 -10 11 -22 0 -13 3 -43 7 -68 l6
-45 -31 32 c-42 44 -76 52 -105 24 -18 -17 -33 -21 -66 -19 l-42 3 6 48 c5 44
4 48 -11 35 -15 -12 -15 -11 -3 9 8 12 18 19 24 16 5 -4 7 1 3 11 -4 10 -7 30
-8 44 -1 28 -4 24 -13 -19 -3 -14 -15 -36 -26 -49 -11 -13 -18 -30 -16 -37 17
-44 -110 25 -200 109 -59 56 -134 146 -134 163 0 4 22 -12 49 -34 30 -26 55
-39 65 -35 10 4 26 -7 47 -30 19 -22 40 -36 54 -36 13 0 27 -4 30 -10 3 -5 32
-10 64 -10 55 0 59 2 69 28 18 46 31 102 24 106 -4 2 -32 7 -62 11 -44 5 -67
16 -112 51 -31 24 -62 44 -69 44 -6 0 -31 18 -55 40 -24 22 -48 40 -53 40 -6
0 -8 6 -5 14 4 11 26 -1 86 -45 83 -61 94 -67 100 -48 5 16 128 -47 128 -66 0
-8 8 -15 18 -15 16 0 18 8 16 62 l-1 62 -69 33 c-38 18 -78 33 -89 33 -26 0
-65 27 -65 45 0 7 -14 25 -32 38 l-31 25 40 58 c43 64 138 148 155 138 6 -4
31 -6 57 -5z m282 -111 c-9 -14 -8 -18 4 -18 8 0 15 5 15 10 0 16 20 12 27 -6
8 -21 -14 -34 -59 -34 -45 0 -48 -11 -11 -39 14 -12 24 -24 20 -27 -9 -10 -46
15 -64 44 -9 15 -25 35 -35 45 -10 10 -18 25 -18 34 0 14 2 14 20 -2 17 -15
24 -16 46 -6 14 6 31 25 37 42 l12 30 9 -27 c6 -18 5 -33 -3 -46z m-38 55 c3
-5 -10 -8 -28 -8 -18 0 -31 3 -28 8 2 4 15 7 28 7 13 0 26 -3 28 -7z m107 3
c0 -2 -9 -6 -20 -9 -11 -3 -18 -1 -14 4 5 9 34 13 34 5z m-224 -188 c-4 -30
-3 -39 4 -28 6 9 10 10 10 3 0 -6 -4 -14 -9 -17 -4 -3 -11 -19 -15 -36 -3 -18
-10 -29 -16 -25 -6 3 -7 18 -4 33 10 51 28 112 32 112 3 0 2 -19 -2 -42z
m-386 1 c0 -5 -4 -9 -10 -9 -5 0 -10 7 -10 16 0 8 5 12 10 9 6 -3 10 -10 10
-16z m1115 1 c3 -5 1 -10 -4 -10 -6 0 -11 5 -11 10 0 6 2 10 4 10 3 0 8 -4 11
-10z m-1008 -104 c-6 -17 -21 -16 -46 3 -35 27 -18 46 20 24 16 -10 28 -22 26
-27z m943 25 c0 -14 -42 -41 -52 -35 -12 8 21 44 39 44 7 0 13 -4 13 -9z m43
-46 c-26 -24 -53 -44 -60 -45 -6 0 -37 -21 -68 -46 -45 -37 -62 -45 -86 -42
-20 3 -29 0 -29 -9 0 -7 -4 -13 -9 -13 -4 0 -3 15 3 34 8 27 21 39 61 59 36
18 54 22 66 14 12 -8 31 2 85 41 85 63 102 66 37 7z m-871 -6 c54 -27 38 -47
-20 -24 -27 11 -39 21 -35 31 7 18 6 18 55 -7z m708 2 c0 -8 -64 -41 -80 -41
-25 0 -6 29 28 43 36 14 52 14 52 -2z m-947 -88 c-24 -20 -30 -21 -42 -8 -13
13 -12 18 9 40 22 24 24 24 43 8 18 -17 18 -18 -10 -40z m1138 34 c-6 -8 -8
-17 -4 -21 4 -4 -1 -4 -11 0 -18 7 -18 8 0 21 23 17 30 17 15 0z m-1004 -79
c22 -21 30 -57 16 -72 -4 -3 -21 8 -39 25 -27 26 -31 36 -23 51 12 23 18 23
46 -4z m913 -8 c0 -16 -52 -70 -61 -64 -16 10 -10 47 13 71 16 17 24 20 35 12
7 -6 13 -15 13 -19z m-210 -10 c0 -5 -7 -7 -15 -4 -8 4 -15 8 -15 10 0 2 7 4
15 4 8 0 15 -4 15 -10z m-560 -32 c0 -7 3 -23 6 -35 6 -21 3 -23 -40 -23 -48
0 -57 9 -31 30 8 7 15 19 15 26 0 8 10 14 25 14 14 0 25 -6 25 -12z m230 -14
c13 -34 14 -31 -21 -39 -23 -5 -34 -3 -45 12 -13 17 -14 17 -8 -2 5 -18 3 -17
-15 4 -35 39 -27 51 29 51 45 0 52 -3 60 -26z m180 22 c0 -2 3 -13 6 -23 5
-15 4 -15 -5 -3 -9 13 -11 13 -11 -1 0 -9 -6 -22 -14 -28 -19 -16 -96 -3 -96
15 0 8 7 14 15 14 9 0 18 7 21 15 4 10 20 15 45 15 21 0 39 -2 39 -4z m237
-39 c25 -15 13 -27 -27 -27 -38 0 -40 1 -40 32 0 30 1 31 15 12 14 -18 14 -18
15 6 1 24 1 24 12 5 6 -11 17 -24 25 -28z m203 -6 c-43 -56 -118 -120 -181
-158 -55 -33 -100 -52 -87 -39 4 5 2 19 -3 33 -7 19 -5 36 8 64 16 36 20 39
59 39 24 0 45 4 48 9 3 5 14 7 24 5 11 -3 31 10 56 35 27 28 43 37 51 31 8 -6
18 -5 31 5 29 22 28 18 -6 -24z m-300 -7 c0 -13 -4 -24 -10 -24 -5 0 -10 14
-10 31 0 17 4 28 10 24 6 -3 10 -17 10 -31z m-50 0 c0 -28 -15 -25 -23 6 -3
13 0 20 9 20 8 0 14 -10 14 -26z m67 -21 c-3 -10 -5 -4 -5 12 0 17 2 24 5 18
2 -7 2 -21 0 -30z m-456 -66 c-8 -8 -11 -7 -11 4 0 20 13 34 18 19 3 -7 -1
-17 -7 -23z m358 16 c-1 -10 -5 -29 -9 -43 -7 -21 -8 -19 -9 18 -1 23 4 42 9
42 6 0 10 -8 9 -17z m103 -25 c-8 -8 -9 -4 -5 13 4 13 8 18 11 10 2 -7 -1 -18
-6 -23z m-65 -76 c-3 -30 -11 -60 -18 -66 -9 -8 -10 2 -5 44 3 30 6 63 6 73 0
11 5 15 11 11 8 -4 10 -26 6 -62z m-296 35 c-10 -9 -11 -8 -5 6 3 10 9 15 12
12 3 -3 0 -11 -7 -18z m158 -31 l23 -24 -29 -15 c-26 -14 -30 -13 -51 3 -12
10 -22 24 -22 32 1 8 4 7 11 -4 12 -21 32 -23 48 -5 8 10 7 17 -1 25 -7 7 -10
12 -7 12 3 0 16 -11 28 -24z m-29 -7 c0 -4 -7 -6 -15 -3 -8 4 -15 10 -15 15 0
4 7 6 15 3 8 -4 15 -10 15 -15z m193 -14 c-3 -9 -8 -14 -10 -11 -3 3 -2 9 2
15 9 16 15 13 8 -4z m-226 -62 c-16 -16 -17 -15 -17 17 0 32 1 33 17 17 16
-16 16 -18 0 -34z m233 27 c0 -5 -4 -10 -10 -10 -5 0 -10 5 -10 10 0 6 5 10
10 10 6 0 10 -4 10 -10z m-332 -46 c36 -43 46 -80 23 -80 -73 -1 -68 6 -76
-106 -6 -99 -25 -168 -45 -168 -6 0 -10 6 -10 13 -1 6 -6 3 -13 -8 -7 -11 -20
-21 -31 -22 -18 -1 -18 5 -13 110 5 104 31 229 58 278 6 13 21 19 44 19 26 0
40 -8 63 -36z m142 -8 c0 -2 -8 -10 -17 -17 -16 -13 -17 -12 -4 4 13 16 21 21
21 13z m72 -133 c-12 -8 -13 -12 -4 -13 7 0 10 -5 7 -11 -5 -6 -12 -4 -21 8
-18 25 -17 41 4 45 24 5 34 -13 14 -29z m-662 -143 c6 -11 8 -20 6 -20 -3 0
-10 9 -16 20 -6 11 -8 20 -6 20 3 0 10 -9 16 -20z m260 -180 c0 -11 -11 -13
-92 -14 -59 -1 -80 10 -30 16 67 8 122 8 122 -2z m272 -12 c-7 -7 -12 -8 -12
-2 0 14 12 26 19 19 2 -3 -1 -11 -7 -17z m447 6 c2 -2 -37 -4 -87 -4 -58 0
-92 4 -92 11 0 9 168 3 179 -7z m-469 -444 c0 -5 -2 -10 -4 -10 -3 0 -8 5 -11
10 -3 6 -1 10 4 10 6 0 11 -4 11 -10z m-335 -17 c-20 -54 -41 -304 -25 -303 3
0 12 15 21 32 20 41 32 44 49 13 7 -14 20 -25 27 -25 11 0 13 -13 7 -62 -9
-83 -14 -86 -14 -10 0 35 -4 62 -10 62 -5 0 -10 -8 -10 -19 0 -10 -7 -36 -16
-57 -15 -36 -17 -37 -30 -19 -8 10 -14 27 -14 37 0 10 -5 18 -11 18 -13 0 -7
-127 7 -165 5 -13 4 -17 -3 -10 -14 13 -38 92 -59 190 -9 44 -19 85 -22 90
-10 15 -21 -61 -21 -144 -1 -41 -4 -71 -8 -68 -3 4 -6 74 -5 157 1 105 -3 164
-13 197 -8 27 -15 49 -15 49 0 1 11 -1 23 -3 20 -4 24 -11 25 -41 2 -47 9 -80
35 -167 l21 -70 12 120 c13 121 11 162 -7 196 -9 17 -6 19 27 19 30 0 35 -3
29 -17z m113 -3 c-7 -10 -14 -18 -15 -16 -6 6 9 36 18 36 5 0 4 -9 -3 -20z
m77 10 c5 -8 11 -7 21 1 8 6 18 9 22 5 4 -4 -1 -12 -11 -17 -26 -15 -23 -67 6
-79 22 -9 22 -9 1 -9 -24 -1 -34 16 -34 57 -1 25 -2 25 -14 10 -18 -25 -43
-22 -49 5 -5 19 -4 20 6 6 15 -19 37 -14 37 9 0 15 -2 15 -10 2 -8 -13 -10
-12 -10 3 0 19 25 23 35 7z m133 -42 c14 2 14 -5 2 -33 -8 -19 -9 -19 -9 2 -1
12 -5 25 -11 28 -5 3 -10 16 -9 28 1 20 2 20 8 -3 4 -14 13 -24 19 -22z m49
20 c1 -13 5 -34 8 -48 4 -17 3 -20 -3 -10 -13 22 -23 80 -14 80 4 0 9 -10 9
-22z m298 -303 c25 42 32 75 15 75 -5 0 -10 -7 -10 -15 0 -8 -5 -15 -10 -15
-7 0 -7 6 0 20 18 34 44 19 53 -30 4 -21 4 -20 6 8 0 17 5 32 9 32 4 0 4 -29
-2 -65 -7 -50 -6 -69 3 -78 10 -10 11 -4 7 28 -6 36 -5 37 5 15 11 -24 12 -23
25 25 8 28 13 62 11 78 -2 15 -2 27 -1 27 1 0 10 3 18 6 14 5 15 2 6 -21 -13
-35 -14 -34 15 -30 14 1 25 -2 25 -6 0 -5 -6 -9 -14 -9 -18 0 -27 -47 -15 -79
l9 -26 -19 23 c-11 12 -21 22 -24 22 -3 0 -8 -17 -12 -38 -7 -43 -25 -79 -25
-51 0 9 -8 23 -18 33 -17 14 -22 15 -45 3 -15 -8 -23 -18 -19 -23 4 -4 -1 -2
-10 5 -10 7 -18 20 -18 28 0 8 -4 12 -8 9 -5 -3 -7 18 -4 46 4 38 2 49 -7 43
-8 -4 -11 -26 -10 -54 3 -52 -6 -75 -27 -67 -9 3 -17 -7 -24 -33 -8 -29 -18
-42 -42 -52 -29 -12 -32 -11 -55 17 -35 44 -46 96 -33 160 6 29 9 62 6 72 -4
10 0 36 7 58 8 25 10 59 6 94 -3 30 -5 56 -3 58 1 2 18 0 38 -4 30 -5 41 -14
57 -46 17 -34 18 -43 7 -74 -12 -34 -37 -43 -46 -16 -2 8 3 10 15 6 17 -5 17
-5 1 9 -20 16 -23 33 -8 42 6 4 7 -1 3 -11 -4 -12 -2 -15 8 -12 24 8 22 45 -3
62 -44 31 -53 22 -54 -51 -1 -38 -2 -111 -4 -164 -1 -76 2 -103 17 -135 24
-51 50 -52 70 -1 18 44 13 54 -16 35 -17 -10 -23 -10 -33 0 -11 11 -8 22 15
63 28 51 34 79 17 79 -5 0 -10 -7 -10 -15 0 -8 -5 -15 -10 -15 -7 0 -7 6 0 20
6 11 17 20 25 20 16 0 35 -58 35 -107 0 -17 5 -35 11 -38 6 -4 9 -1 8 6 -5 23
12 83 28 101 17 19 32 238 16 238 -15 0 -33 -23 -33 -42 0 -10 -4 -18 -10 -18
-5 0 -10 3 -10 6 0 11 23 50 44 72 l21 24 3 -183 2 -184 25 40z m-589 299 c-3
-8 -2 -14 3 -14 4 0 8 -13 7 -30 -1 -37 -16 -40 -16 -3 0 29 -15 22 -23 -12
-2 -11 -4 0 -4 26 1 37 5 45 20 46 12 1 17 -3 13 -13z m181 -26 c-3 -8 -6 -5
-6 6 -1 11 2 17 5 13 3 -3 4 -12 1 -19z m27 -13 c5 -22 4 -26 -4 -15 -5 8 -10
24 -10 34 0 26 6 18 14 -19z m62 0 c-3 -20 -16 -31 -16 -13 0 13 8 28 16 28 1
0 1 -7 0 -15z m-216 -20 c-16 -19 -26 -19 -34 1 -5 14 -4 15 9 4 12 -10 16 -9
21 4 4 9 9 15 12 12 3 -3 -1 -12 -8 -21z m27 3 c-3 -8 -6 -5 -6 6 -1 11 2 17
5 13 3 -3 4 -12 1 -19z m72 -64 c-6 -7 -16 -11 -23 -7 -7 5 -5 9 7 11 9 2 14
8 11 14 -4 7 -2 8 5 4 9 -6 9 -11 0 -22z m512 -1 c-6 -10 -22 -29 -37 -43
l-27 -25 13 25 c16 32 41 60 52 60 5 0 4 -8 -1 -17z m-670 -77 c-9 -11 -6 -15
14 -20 22 -6 25 -12 26 -49 0 -23 4 -51 8 -62 7 -17 10 -14 20 20 6 22 11 56
11 76 0 25 5 39 16 43 9 4 17 5 18 4 1 -2 -13 -59 -30 -127 l-31 -125 -12 80
c-14 90 -29 134 -43 134 -6 0 -4 -7 3 -17 12 -14 12 -16 -1 -11 -26 8 -26 68
1 68 9 0 9 -3 0 -14z m186 -57 c7 -19 12 -49 12 -67 1 -18 6 -43 12 -55 12
-22 12 -22 -9 -3 -18 15 -24 16 -37 6 -20 -16 -45 -6 -45 20 0 11 12 38 26 60
17 25 24 46 20 57 -6 15 -9 15 -16 3 -5 -8 -6 -19 -3 -25 3 -5 0 -5 -7 2 -11
10 -11 15 0 28 18 22 33 14 47 -26z m653 20 c0 -5 -7 -9 -15 -9 -9 0 -12 6 -9
15 6 15 24 11 24 -6z m-38 -1 c3 -7 2 -38 -2 -68 l-7 -55 -2 52 c0 28 -4 58
-7 67 -3 9 -2 16 4 16 5 0 12 -6 14 -12z"/>
<path d="M1630 2430 c0 -5 5 -10 11 -10 5 0 7 5 4 10 -3 6 -8 10 -11 10 -2 0
-4 -4 -4 -10z"/>
<path d="M1442 2215 c0 -16 2 -22 5 -12 2 9 2 23 0 30 -3 6 -5 -1 -5 -18z"/>
<path d="M961 1863 c-1 -6 -4 -20 -7 -30 -5 -17 -5 -17 6 0 6 10 9 23 6 30 -3
9 -5 9 -5 0z"/>
<path d="M848 439 c-6 -18 3 -79 12 -79 9 0 21 70 14 82 -7 11 -22 10 -26 -3z"/>
<path d="M1361 379 c-6 -17 -8 -35 -5 -41 7 -11 34 9 34 26 0 6 -5 4 -10 -4
-8 -13 -10 -13 -10 2 0 9 5 20 10 23 12 8 13 25 1 25 -5 0 -14 -14 -20 -31z"/>
<path d="M1521 379 c-6 -17 -8 -35 -5 -41 7 -11 34 9 34 26 0 6 -5 4 -10 -4
-8 -13 -10 -13 -10 2 0 9 5 20 10 23 12 8 13 25 1 25 -5 0 -14 -14 -20 -31z"/>
<path d="M1070 374 c-7 -19 -9 -38 -6 -41 8 -8 36 5 36 16 0 6 -7 8 -15 5 -11
-5 -13 -2 -9 10 3 9 10 16 15 16 5 0 9 7 9 15 0 28 -18 15 -30 -21z"/>
</g>
</svg>
