<?xml version="1.0" standalone="no"?>
<!DOCTYPE svg PUBLIC "-//W3C//DTD SVG 20010904//EN"
 "http://www.w3.org/TR/2001/REC-SVG-20010904/DTD/svg10.dtd">
<svg version="1.0" xmlns="http://www.w3.org/2000/svg"
 width="162.000000pt" height="168.000000pt" viewBox="0 0 162.000000 168.000000"
 preserveAspectRatio="xMidYMid meet">

<g transform="translate(0.000000,168.000000) scale(0.100000,-0.100000)"
fill="#000000" stroke="none">
<path d="M202 1646 c2 -16 -3 -31 -10 -34 -6 -2 -12 -8 -12 -13 0 -6 4 -8 9
-4 6 3 26 -4 46 -15 45 -26 117 -27 136 -2 11 14 11 15 -1 5 -18 -16 -81 -17
-115 -1 -24 11 -26 17 -23 54 2 35 0 42 -14 41 -13 -1 -17 -9 -16 -31z"/>
<path d="M487 1641 c4 -28 0 -40 -16 -55 -12 -11 -21 -26 -21 -35 -1 -11 -8
-7 -25 14 -32 39 -32 22 0 -30 30 -48 31 -76 7 -98 -22 -20 -101 -23 -122 -4
-12 10 -12 9 -1 -5 18 -24 107 -25 133 -1 31 28 40 3 46 -135 l5 -131 -34 -9
c-30 -9 -27 -10 25 -7 32 2 63 8 69 14 8 8 6 11 -6 11 -31 0 -40 38 -34 139 3
53 2 87 -3 76 -6 -17 -9 -14 -15 17 -4 21 -13 42 -21 49 -9 7 -14 31 -14 64 0
61 16 82 45 61 22 -16 100 -10 130 10 11 8 14 14 8 14 -7 0 -15 -4 -18 -10
-10 -17 -25 -11 -25 9 0 11 12 23 30 31 17 7 35 22 41 34 9 18 8 19 -3 5 -37
-45 -120 -53 -160 -16 l-26 24 5 -36z m73 -21 c15 0 20 -5 18 -17 -2 -13 -13
-18 -38 -18 -31 0 -35 3 -38 28 -3 26 -2 27 17 18 11 -6 29 -11 41 -11z"/>
<path d="M1258 1669 c0 -8 -2 -18 -3 -24 -2 -5 -3 -15 -4 -22 0 -6 -9 -14 -18
-16 -10 -3 -4 -5 14 -6 31 -1 32 0 26 37 -6 41 -12 53 -15 31z"/>
<path d="M1422 1658 c-2 -87 -12 -108 -42 -85 -13 10 -13 10 -2 -5 11 -14 58
-18 101 -9 3 1 -3 7 -14 14 -13 10 -18 28 -19 60 -1 47 -23 69 -24 25z"/>
<path d="M40 1655 c0 -8 7 -15 15 -15 8 0 15 7 15 15 0 8 -7 15 -15 15 -8 0
-15 -7 -15 -15z"/>
<path d="M150 1660 c0 -5 7 -10 15 -10 8 0 15 5 15 10 0 6 -7 10 -15 10 -8 0
-15 -4 -15 -10z"/>
<path d="M1298 1663 c7 -3 16 -2 19 1 4 3 -2 6 -13 5 -11 0 -14 -3 -6 -6z"/>
<path d="M1493 1663 c-20 -7 -15 -23 7 -23 11 0 20 4 20 9 0 13 -12 19 -27 14z"/>
<path d="M1600 1655 c-10 -12 -10 -15 4 -15 9 0 16 7 16 15 0 8 -2 15 -4 15
-2 0 -9 -7 -16 -15z"/>
<path d="M278 1653 c7 -3 16 -2 19 1 4 3 -2 6 -13 5 -11 0 -14 -3 -6 -6z"/>
<path d="M952 1608 c-2 -64 -17 -75 -45 -35 -25 35 -28 28 -72 -195 -2 -14 4
-18 28 -17 18 0 26 3 20 6 -8 3 -13 22 -13 47 0 52 14 72 60 84 58 15 135 -2
147 -33 3 -9 2 -58 -3 -108 -8 -77 -12 -92 -27 -95 -11 -2 -29 6 -42 18 -21
20 -26 21 -44 8 -12 -8 -18 -18 -14 -21 11 -12 21 -8 25 11 3 15 6 14 23 -5
26 -31 113 -33 140 -3 21 24 35 18 35 -16 0 -14 5 -35 12 -47 6 -12 16 -42 22
-67 l11 -46 34 45 c33 43 33 44 5 24 l-28 -21 -23 50 c-13 28 -23 57 -23 66 0
10 -4 23 -9 31 -7 12 -14 10 -37 -8 -27 -21 -29 -22 -42 -4 -7 10 -11 27 -8
38 3 12 8 47 12 78 4 32 10 60 14 62 4 3 15 -4 25 -15 23 -25 125 -29 145 -5
7 8 16 15 19 15 4 0 13 -35 21 -78 12 -74 14 -78 30 -63 13 12 14 20 6 30 -6
8 -11 57 -11 112 0 71 -4 100 -13 104 -9 3 -11 -6 -6 -40 5 -43 5 -44 -33 -61
-59 -27 -121 -25 -164 3 -32 21 -37 31 -43 75 -9 68 -14 74 -42 47 -13 -12
-37 -23 -53 -24 -30 -3 -30 -2 -34 54 l-3 56 -2 -57z"/>
<path d="M722 1615 c0 -16 2 -22 5 -12 2 9 2 23 0 30 -3 6 -5 -1 -5 -18z"/>
<path d="M684 1556 c20 -42 36 -51 36 -20 0 8 -4 13 -9 10 -5 -3 -14 8 -20 24
-5 17 -14 30 -19 30 -6 0 0 -20 12 -44z"/>
<path d="M93 1583 c9 -2 23 -2 30 0 6 3 -1 5 -18 5 -16 0 -22 -2 -12 -5z"/>
<path d="M1511 1526 c-1 -26 2 -37 9 -30 6 6 6 21 1 39 -9 30 -9 30 -10 -9z"/>
<path d="M50 1541 c0 -7 -6 -9 -12 -6 -7 4 0 -5 15 -19 18 -16 40 -26 59 -26
34 0 31 12 -5 17 -12 2 -30 13 -39 24 -10 12 -18 16 -18 10z"/>
<path d="M211 1527 c-1 -10 -11 -22 -23 -27 l-23 -9 23 0 c24 -1 38 19 29 41
-3 8 -6 6 -6 -5z"/>
<path d="M2 1475 c0 -53 1 -57 10 -32 7 20 7 39 0 60 -9 29 -10 27 -10 -28z"/>
<path d="M1562 1490 c-13 -11 -22 -26 -20 -34 2 -10 11 -4 26 19 26 40 25 41
-6 15z"/>
<path d="M508 1493 c6 -2 18 -2 25 0 6 3 1 5 -13 5 -14 0 -19 -2 -12 -5z"/>
<path d="M906 1454 c-9 -23 -8 -24 14 -24 11 0 20 6 20 14 0 20 -27 28 -34 10z"/>
<path d="M1021 1456 c-9 -10 -9 -16 -1 -21 13 -8 23 0 26 20 3 19 -10 19 -25
1z"/>
<path d="M684 1439 c-10 -12 -28 -25 -39 -30 -15 -6 -16 -8 -4 -8 9 -1 22 6
29 14 21 25 40 18 40 -15 0 -16 4 -39 9 -52 5 -13 12 -32 16 -43 7 -20 7 -20
15 0 4 12 2 25 -7 33 -7 7 -14 29 -14 48 -2 48 -3 52 -15 64 -7 7 -16 4 -30
-11z"/>
<path d="M85 1430 c3 -5 11 -10 16 -10 6 0 7 5 4 10 -3 6 -11 10 -16 10 -6 0
-7 -4 -4 -10z"/>
<path d="M185 1430 c3 -5 8 -10 11 -10 2 0 4 5 4 10 0 6 -5 10 -11 10 -5 0 -7
-4 -4 -10z"/>
<path d="M763 1433 c9 -2 25 -2 35 0 9 3 1 5 -18 5 -19 0 -27 -2 -17 -5z"/>
<path d="M1521 1399 c-1 -28 -7 -52 -16 -59 -8 -7 -15 -29 -15 -48 l0 -36 -30
34 -30 35 25 -39 c24 -38 35 -93 15 -81 -5 3 -10 -4 -10 -16 0 -18 2 -19 15
-9 8 7 15 23 15 36 0 28 -1 27 37 14 l28 -10 -27 21 c-32 24 -36 57 -12 94 13
20 25 25 58 26 27 1 34 3 21 7 -33 11 -62 36 -68 57 -2 11 -5 -1 -6 -26z"/>
<path d="M271 1414 c0 -11 3 -14 6 -6 3 7 2 16 -1 19 -3 4 -6 -2 -5 -13z"/>
<path d="M567 1409 c7 -7 15 -10 18 -7 3 3 -2 9 -12 12 -14 6 -15 5 -6 -5z"/>
<path d="M235 1384 c-11 -49 -14 -55 -26 -48 -8 5 -8 1 0 -14 6 -11 11 -30 11
-41 0 -12 4 -21 9 -21 4 0 11 32 15 71 7 74 2 103 -9 53z"/>
<path d="M1136 1355 c-4 -10 1 -15 14 -15 11 0 20 7 20 15 0 8 -6 15 -14 15
-8 0 -16 -7 -20 -15z"/>
<path d="M1260 1359 c0 -5 -6 -7 -12 -3 -10 5 -10 4 -1 -6 13 -14 48 -6 38 10
-8 13 -25 13 -25 -1z"/>
<path d="M307 1343 c5 -12 2 -15 -10 -10 -9 3 -17 2 -17 -3 0 -14 41 -23 53
-11 7 7 6 15 -3 26 -17 20 -31 19 -23 -2z"/>
<path d="M402 1348 c-7 -7 -12 -18 -12 -25 0 -16 42 -17 58 -1 14 14 16 38 2
38 -5 0 -7 -7 -4 -15 4 -10 0 -15 -11 -15 -11 0 -15 5 -11 15 7 18 -5 20 -22
3z"/>
<path d="M11 1341 c-7 -5 -12 -14 -10 -20 2 -6 10 -2 17 9 14 22 13 23 -7 11z"/>
<path d="M955 1330 c10 -11 20 -20 23 -20 3 0 -3 9 -13 20 -10 11 -20 20 -23
20 -3 0 3 -9 13 -20z"/>
<path d="M563 1315 c-9 -10 -10 -16 -2 -21 15 -9 36 13 24 25 -6 6 -15 4 -22
-4z"/>
<path d="M663 1305 c2 -5 10 -10 17 -10 7 0 15 5 17 10 2 6 -6 11 -17 11 -11
0 -19 -5 -17 -11z"/>
<path d="M811 1292 c-1 -8 -6 -10 -13 -6 -10 5 -10 4 -1 -6 15 -16 28 -8 20
12 -4 11 -6 11 -6 0z"/>
<path d="M846 1278 c3 -4 9 -8 15 -8 5 0 9 4 9 8 0 5 -7 9 -15 9 -8 0 -12 -4
-9 -9z"/>
<path d="M60 1260 c0 -19 3 -21 12 -12 9 9 9 15 0 24 -9 9 -12 7 -12 -12z"/>
<path d="M130 1262 c0 -12 19 -26 26 -19 2 2 -2 10 -11 17 -9 8 -15 8 -15 2z"/>
<path d="M170 1259 c0 -5 5 -7 10 -4 6 3 10 8 10 11 0 2 -4 4 -10 4 -5 0 -10
-5 -10 -11z"/>
<path d="M742 1243 c-1 -17 -5 -39 -8 -48 -6 -14 -10 -13 -30 12 l-23 28 -15
-37 c-9 -21 -16 -45 -16 -53 0 -9 -5 -25 -11 -37 l-11 -20 -19 21 c-10 11 -19
27 -19 35 0 8 -4 17 -9 20 -13 9 0 -34 21 -69 10 -16 18 -41 18 -55 0 -33 -28
-73 -47 -66 -8 3 -11 1 -8 -4 3 -6 11 -10 17 -10 6 0 17 -8 25 -17 13 -17 14
-17 8 3 -6 23 2 54 15 54 12 0 17 -89 5 -93 -5 -2 -13 -39 -16 -83 -5 -67 -7
-74 -13 -46 -10 40 -20 46 -45 30 -27 -17 -41 -2 -48 49 -4 28 -1 42 11 52 9
7 15 25 15 40 -1 26 -1 26 -8 -3 -9 -44 -31 -45 -31 -2 0 19 -3 37 -7 39 -5 3
-7 -27 -5 -66 2 -60 -10 -127 -25 -127 -2 0 -15 7 -28 16 -23 15 -25 15 -32
-2 -6 -16 -7 -16 -14 2 -5 11 -8 -7 -7 -46 l0 -65 13 48 c17 60 20 64 43 44
24 -21 95 -22 112 -2 24 28 37 16 44 -39 8 -68 -1 -116 -20 -109 -8 3 -18 -6
-25 -21 -11 -23 -18 -26 -61 -26 -34 0 -48 4 -48 14 0 22 -24 38 -38 24 -9 -9
-12 -8 -12 4 0 9 -4 19 -9 23 -6 3 -6 -6 -1 -25 9 -32 -5 -163 -21 -192 -7
-14 -5 -18 6 -18 19 0 45 -51 45 -90 0 -33 -6 -36 -34 -15 -45 34 -76 -1 -76
-84 0 -20 -3 -53 -7 -74 -5 -33 -9 -38 -26 -33 -20 5 -20 5 1 -16 18 -18 31
-21 88 -19 49 2 75 8 92 22 32 25 42 17 42 -36 0 -61 7 -75 41 -75 16 0 29 4
29 9 0 5 -8 8 -17 7 -20 -1 -43 38 -43 74 0 43 -19 53 -55 30 -25 -15 -42 -18
-83 -13 -28 3 -53 11 -55 17 -6 15 9 172 18 186 9 15 31 12 45 -5 18 -21 152
-21 170 0 22 26 39 16 50 -27 6 -24 15 -56 20 -73 5 -16 11 -49 12 -72 3 -36
7 -43 36 -56 17 -8 32 -11 32 -6 0 4 -9 10 -19 14 -21 6 -41 53 -41 95 0 15
12 45 26 66 l26 39 -31 -29 -30 -29 -11 27 c-5 15 -10 33 -10 40 0 21 -27 38
-50 31 -21 -7 -25 1 -12 22 12 19 95 28 121 14 12 -7 19 -16 16 -22 -4 -5 -1
-9 4 -9 6 0 11 -12 11 -26 0 -20 4 -25 16 -20 9 3 24 6 35 6 10 0 19 4 19 9 0
5 -9 7 -19 4 -29 -7 -54 37 -49 86 2 22 0 37 -4 35 -3 -2 -10 0 -13 6 -4 6
-15 8 -25 5 -20 -6 -20 -5 -40 120 -8 50 -8 84 0 120 6 28 15 86 20 130 5 44
9 81 9 83 4 13 34 -5 54 -31 l25 -33 92 3 c91 2 93 3 111 33 28 45 46 38 63
-22 28 -102 48 -196 44 -213 -3 -16 -7 -15 -34 9 -38 32 -60 33 -75 5 -6 -12
-7 -19 -2 -16 21 13 40 -19 39 -68 -5 -183 -3 -174 -33 -172 -24 2 -28 -2 -31
-28 -4 -34 -20 -57 -33 -49 -5 3 -9 1 -9 -5 0 -6 9 -15 20 -21 15 -8 21 -6 30
10 14 27 68 60 98 60 23 0 53 -14 85 -39 19 -15 24 -85 7 -96 -5 -3 -24 2 -40
12 -37 22 -45 13 -55 -57 -13 -92 -38 -92 -59 1 l-12 54 1 -77 c0 -47 5 -82
13 -90 6 -6 12 -22 12 -35 0 -13 3 -23 8 -23 11 1 52 133 52 171 0 54 12 63
45 37 23 -18 42 -22 109 -23 72 -2 84 0 110 22 35 29 46 19 46 -44 0 -48 19
-143 32 -158 4 -5 8 9 8 30 0 90 45 171 73 135 8 -10 29 -15 62 -15 45 0 50 2
59 28 15 41 -3 54 -53 39 -21 -7 -46 -9 -55 -6 -21 8 -30 46 -21 82 5 15 7 39
6 54 -1 14 2 29 8 33 6 3 11 12 11 18 0 7 -9 -1 -19 -16 -24 -37 -35 -38 -41
-1 -5 25 -10 29 -39 29 -31 0 -35 4 -48 42 -13 39 -13 46 6 89 20 44 20 48 5
66 -10 10 -12 18 -6 18 6 0 14 -4 17 -10 3 -5 29 -10 56 -10 42 0 55 -5 84
-32 30 -26 35 -38 35 -74 0 -48 -8 -76 -20 -69 -4 3 -11 -2 -14 -11 -5 -13 -2
-15 16 -10 13 3 37 6 53 6 17 0 25 4 19 8 -6 4 -14 17 -18 29 -9 28 24 63 59
63 20 0 25 5 25 25 0 18 -5 25 -18 25 -44 0 -65 64 -42 125 7 19 7 24 -1 19
-16 -10 -29 15 -29 57 0 19 -6 43 -13 53 -12 16 -14 15 -36 -8 -30 -32 -59
-33 -71 -3 l-9 22 -7 -22 c-7 -26 -30 -29 -58 -8 -32 24 -42 18 -52 -32 -9
-45 -10 -47 -22 -26 -9 17 -9 28 0 47 15 34 6 42 -31 27 -44 -19 -85 -11 -89
18 -5 35 5 65 32 92 l25 25 -21 13 c-18 11 -20 11 -15 -2 7 -19 -18 -30 -31
-14 -6 7 -12 23 -15 37 -6 31 3 -42 10 -87 3 -18 2 -44 -1 -58 -5 -21 -12 -25
-33 -23 -24 3 -27 -1 -29 -30 -1 -18 -4 -36 -8 -39 -12 -12 -34 19 -46 65 -16
65 -36 95 -61 87 -17 -6 -19 -1 -19 56 0 55 2 60 16 48 9 -7 36 -12 67 -10 68
2 87 9 87 29 -1 16 -1 16 -11 0 -13 -23 -116 -23 -141 -1 -21 19 -24 63 -5 83
10 12 9 12 -5 1 -16 -12 -18 -11 -18 11 0 14 11 46 25 72 14 26 21 44 15 41
-6 -3 -19 -23 -30 -43 -10 -20 -19 -30 -20 -22 0 8 -9 28 -19 44 l-19 29 -16
-32 c-15 -28 -21 -31 -61 -31 l-44 0 -4 48 c-2 30 -4 35 -5 15z m132 -114 c33
-15 36 -26 43 -141 7 -139 1 -148 -111 -148 l-83 0 -31 39 c-26 32 -33 52 -38
105 -8 85 0 112 39 136 37 23 140 28 181 9z m652 -453 c6 -91 4 -116 -6 -116
-9 0 -11 12 -8 45 3 25 3 47 -1 49 -9 6 -50 -17 -50 -29 0 -5 -5 -11 -12 -14
-6 -2 -9 0 -6 5 3 5 -19 7 -48 6 -38 -3 -61 1 -80 14 -23 15 -28 15 -36 3 -16
-25 -10 43 6 75 8 15 15 44 15 62 0 38 5 41 31 18 28 -25 111 -22 145 5 38 30
42 19 50 -123z m-301 89 c43 -42 33 -102 -21 -135 -94 -59 -183 52 -105 131
38 38 91 40 126 4z m25 -176 c0 -22 5 -49 11 -60 24 -45 27 -107 6 -121 -11
-8 -43 -7 -102 4 -13 2 -20 -3 -22 -17 -1 -15 -1 -16 3 -2 6 20 9 21 36 6 28
-15 129 -14 157 1 28 15 32 10 48 -48 18 -69 17 -112 -4 -118 -10 -3 -26 -10
-36 -15 -13 -7 -19 -5 -23 6 -8 20 -26 19 -57 -5 -28 -22 -80 -26 -123 -10
-25 10 -26 13 -21 58 4 26 9 61 12 77 5 26 4 27 -4 8 -15 -32 -28 -28 -41 12
-13 39 -21 43 -40 20 -15 -18 -69 -11 -82 9 -7 10 0 216 7 224 2 2 16 -3 32
-11 35 -18 178 -11 208 9 30 21 35 17 35 -27z m-666 -68 c22 -18 22 -99 0
-108 -8 -3 -20 -1 -27 6 -18 18 -27 13 -27 -18 0 -15 -5 -42 -11 -60 -10 -27
-15 -31 -49 -31 -36 0 -38 2 -55 48 -10 26 -18 69 -19 97 -1 47 1 51 34 67 40
21 129 20 154 -1z"/>
<path d="M702 1048 c-18 -18 -14 -38 7 -38 23 0 34 25 17 39 -9 7 -16 7 -24
-1z"/>
<path d="M843 1053 c-23 -9 -15 -35 10 -31 12 2 22 9 22 17 0 16 -14 22 -32
14z"/>
<path d="M1481 787 c-6 -8 -8 -17 -4 -20 11 -12 19 -7 20 13 2 24 -1 25 -16 7z"/>
<path d="M1315 770 c-3 -5 -1 -10 4 -10 6 0 11 5 11 10 0 6 -2 10 -4 10 -3 0
-8 -4 -11 -10z"/>
<path d="M1317 674 c-10 -11 3 -24 24 -24 23 0 25 15 3 24 -19 7 -19 7 -27 0z"/>
<path d="M1437 674 c-9 -10 2 -24 19 -24 8 0 14 7 14 15 0 15 -21 21 -33 9z"/>
<path d="M1105 731 c-3 -5 -1 -12 5 -16 12 -7 30 2 30 16 0 12 -27 12 -35 0z"/>
<path d="M1180 730 c0 -5 9 -10 21 -10 11 0 17 5 14 10 -3 6 -13 10 -21 10 -8
0 -14 -4 -14 -10z"/>
<path d="M1211 596 c-9 -11 -8 -15 5 -20 23 -9 24 -8 24 14 0 23 -13 26 -29 6z"/>
<path d="M993 588 c3 -9 1 -19 -6 -22 -9 -3 -9 -5 0 -5 18 -1 27 19 13 32 -10
9 -12 8 -7 -5z"/>
<path d="M1023 513 c-17 -6 -16 -40 1 -46 8 -3 22 0 33 8 13 10 14 13 3 12 -8
-1 -15 3 -15 8 0 6 4 9 8 7 5 -1 6 2 2 8 -7 11 -13 11 -32 3z"/>
<path d="M1177 500 c4 -16 2 -19 -12 -13 -13 4 -16 3 -11 -5 9 -15 43 -16 51
-2 7 11 -12 40 -25 40 -5 0 -6 -9 -3 -20z"/>
<path d="M1350 380 c0 -5 5 -10 11 -10 5 0 7 5 4 10 -3 6 -8 10 -11 10 -2 0
-4 -4 -4 -10z"/>
<path d="M1170 300 c0 -5 7 -10 15 -10 8 0 15 5 15 10 0 6 -7 10 -15 10 -8 0
-15 -4 -15 -10z"/>
<path d="M1300 300 c0 -5 9 -10 21 -10 11 0 17 5 14 10 -3 6 -13 10 -21 10 -8
0 -14 -4 -14 -10z"/>
<path d="M432 494 c-11 -12 -10 -15 3 -20 19 -8 40 10 31 25 -9 15 -18 13 -34
-5z"/>
<path d="M546 495 c-4 -12 -1 -16 11 -13 18 3 21 20 5 26 -5 1 -12 -4 -16 -13z"/>
<path d="M126 1203 c-15 -21 -25 -24 -61 -21 -24 1 -41 0 -38 -4 2 -5 21 -8
42 -8 27 0 44 7 61 25 13 14 22 27 19 29 -2 2 -12 -7 -23 -21z"/>
<path d="M980 1195 c-15 -18 -5 -35 23 -35 15 0 18 3 10 11 -6 6 -9 18 -6 25
7 18 -11 18 -27 -1z"/>
<path d="M1105 1197 c-22 -16 -12 -37 17 -37 16 0 18 3 9 13 -8 10 -7 17 1 25
17 17 -4 15 -27 -1z"/>
<path d="M156 1163 c8 -35 7 -33 19 -19 7 8 5 16 -7 29 -18 17 -18 16 -12 -10z"/>
<path d="M1046 1152 c-2 -4 4 -8 14 -8 10 0 16 4 14 8 -3 4 -9 8 -14 8 -5 0
-11 -4 -14 -8z"/>
<path d="M201 1146 c2 -2 33 -6 69 -9 38 -3 57 -1 45 3 -19 8 -123 14 -114 6z"/>
<path d="M360 1109 c0 -19 4 -50 10 -69 12 -41 5 -70 -17 -70 -9 0 -13 -3 -9
-7 9 -9 96 -4 115 7 11 7 6 8 -16 4 -41 -8 -58 20 -49 86 5 39 3 50 -14 65
-20 18 -20 18 -20 -16z m22 -21 c-9 -9 -12 -7 -12 12 0 19 3 21 12 12 9 -9 9
-15 0 -24z"/>
<path d="M1471 1114 c0 -11 3 -14 6 -6 3 7 2 16 -1 19 -3 4 -6 -2 -5 -13z"/>
<path d="M152 1085 c0 -16 2 -22 5 -12 2 9 2 23 0 30 -3 6 -5 -1 -5 -18z"/>
<path d="M1425 1100 c-3 -5 -1 -10 4 -10 6 0 11 5 11 10 0 6 -2 10 -4 10 -3 0
-8 -4 -11 -10z"/>
<path d="M0 1076 c0 -9 5 -16 10 -16 6 0 10 4 10 9 0 6 -4 13 -10 16 -5 3 -10
-1 -10 -9z"/>
<path d="M100 1075 c0 -16 16 -20 24 -6 3 5 -1 11 -9 15 -9 3 -15 0 -15 -9z"/>
<path d="M201 1071 c-10 -6 -10 -10 -1 -16 13 -8 24 -1 19 14 -3 6 -10 7 -18
2z"/>
<path d="M310 1070 c-8 -5 -11 -12 -7 -16 4 -4 13 -2 19 4 15 15 7 24 -12 12z"/>
<path d="M490 1056 c0 -2 8 -10 18 -17 15 -13 16 -12 3 4 -13 16 -21 21 -21
13z"/>
<path d="M1460 1030 c0 -5 5 -10 10 -10 6 0 10 5 10 10 0 6 -4 10 -10 10 -5 0
-10 -4 -10 -10z"/>
<path d="M1560 1030 c0 -5 5 -10 11 -10 5 0 7 5 4 10 -3 6 -8 10 -11 10 -2 0
-4 -4 -4 -10z"/>
<path d="M1427 1023 c-4 -3 -7 -11 -7 -17 0 -6 5 -5 12 2 6 6 9 14 7 17 -3 3
-9 2 -12 -2z"/>
<path d="M1350 985 c-11 -13 -10 -14 2 -10 11 4 17 -2 21 -22 15 -73 25 -107
27 -93 6 43 4 66 -7 78 -7 7 -13 22 -13 32 0 26 -15 33 -30 15z"/>
<path d="M231 966 c-12 -14 -71 -20 -71 -7 0 3 -11 7 -25 7 -23 2 -25 -1 -25
-42 l0 -44 21 21 c16 16 30 19 67 17 43 -3 47 -5 50 -31 4 -36 -15 -62 -35
-46 -11 10 -12 9 -7 -5 8 -22 110 -22 142 0 12 8 27 12 32 9 6 -3 10 -1 10 4
0 15 -17 14 -45 -5 -36 -24 -48 -10 -41 50 l6 51 -17 -35 -16 -35 -10 53 c-10
55 -17 61 -36 38z"/>
<path d="M1416 955 c-3 -10 3 -17 20 -21 34 -9 37 -3 9 18 -20 15 -24 15 -29
3z"/>
<path d="M320 944 c0 -8 5 -12 10 -9 6 4 8 11 5 16 -9 14 -15 11 -15 -7z"/>
<path d="M1585 945 c-16 -8 -23 -14 -14 -15 8 0 24 7 35 15 23 18 18 18 -21 0z"/>
<path d="M971 931 c-10 -7 -10 -10 -1 -16 6 -4 16 -3 22 3 13 13 -4 23 -21 13z"/>
<path d="M1070 929 c0 -5 -4 -7 -10 -4 -5 3 -10 1 -10 -4 0 -6 7 -11 15 -11 8
0 15 7 15 15 0 8 -2 15 -5 15 -3 0 -5 -5 -5 -11z"/>
<path d="M1498 923 c12 -2 30 -2 40 0 9 3 -1 5 -23 4 -22 0 -30 -2 -17 -4z"/>
<path d="M455 911 c-3 -6 -12 -8 -18 -5 -8 5 -8 3 1 -7 9 -10 15 -10 24 -1 6
6 9 14 6 17 -3 4 -9 1 -13 -4z"/>
<path d="M341 901 c-10 -6 -10 -10 -1 -16 13 -8 24 -1 19 14 -3 6 -10 7 -18 2z"/>
<path d="M1220 890 c0 -5 4 -10 9 -10 6 0 13 5 16 10 3 6 -1 10 -9 10 -9 0
-16 -4 -16 -10z"/>
<path d="M1305 890 c3 -5 13 -10 21 -10 8 0 12 5 9 10 -3 6 -13 10 -21 10 -8
0 -12 -4 -9 -10z"/>
<path d="M657 848 c-16 -58 -3 -85 24 -51 12 14 12 16 0 8 -11 -6 -13 -2 -9
18 7 34 -7 57 -15 25z"/>
<path d="M940 845 c-14 -17 -5 -35 18 -34 15 1 15 2 0 6 -21 5 -23 14 -6 31 7
7 9 12 6 12 -3 0 -11 -7 -18 -15z"/>
<path d="M121 834 c0 -11 3 -14 6 -6 3 7 2 16 -1 19 -3 4 -6 -2 -5 -13z"/>
<path d="M157 810 c-6 -21 -9 -22 -17 -10 -7 11 -10 -1 -10 -41 0 -59 -6 -75
-24 -59 -7 5 -31 5 -61 0 l-50 -9 45 3 c38 3 48 -1 64 -21 10 -13 16 -33 13
-44 -4 -13 0 -19 12 -19 9 0 26 -7 37 -15 18 -14 18 -14 -10 -15 l-28 0 22
-18 c19 -16 22 -24 16 -55 -6 -33 -10 -37 -36 -37 -16 0 -32 5 -35 10 -5 8
-11 8 -19 1 -7 -6 -17 -7 -21 -3 -5 4 -5 1 -1 -5 9 -16 124 -17 146 -3 12 8
12 10 1 10 -11 0 -12 13 -7 66 4 43 3 63 -3 59 -6 -3 -19 0 -31 7 -25 16 -27
71 -4 147 8 29 13 58 11 64 -2 6 -7 0 -10 -13z"/>
<path d="M60 775 c0 -8 5 -15 10 -15 6 0 10 7 10 15 0 8 -4 15 -10 15 -5 0
-10 -7 -10 -15z"/>
<path d="M200 740 c0 -11 7 -20 15 -20 8 0 15 9 15 20 0 11 -7 20 -15 20 -8 0
-15 -9 -15 -20z"/>
<path d="M320 745 c0 -8 9 -15 20 -15 11 0 20 7 20 15 0 8 -9 15 -20 15 -11 0
-20 -7 -20 -15z"/>
<path d="M437 705 c-8 -18 11 -31 25 -17 11 11 3 32 -12 32 -4 0 -10 -7 -13
-15z"/>
<path d="M537 713 c-12 -11 -8 -23 8 -23 8 0 15 7 15 15 0 16 -12 20 -23 8z"/>
<path d="M1600 685 c0 -8 5 -15 10 -15 6 0 10 7 10 15 0 8 -4 15 -10 15 -5 0
-10 -7 -10 -15z"/>
<path d="M662 648 c-17 -17 -15 -33 6 -49 14 -11 15 -11 5 1 -18 19 -16 35 2
20 8 -6 19 -9 25 -5 5 3 10 2 10 -4 0 -5 -5 -12 -10 -14 -6 -3 -5 -4 2 -3 7 2
13 16 13 32 0 21 -5 30 -20 32 -11 1 -26 -3 -33 -10z"/>
<path d="M222 625 c11 -12 98 -23 104 -13 3 4 -13 8 -35 8 -21 0 -48 3 -58 7
-10 3 -15 3 -11 -2z"/>
<path d="M100 530 c0 -5 5 -10 11 -10 5 0 7 5 4 10 -3 6 -8 10 -11 10 -2 0 -4
-4 -4 -10z"/>
<path d="M1326 525 c-4 -12 -1 -16 11 -13 18 3 21 20 5 26 -5 1 -12 -4 -16
-13z"/>
<path d="M1427 534 c-9 -10 2 -24 19 -24 8 0 14 7 14 15 0 15 -21 21 -33 9z"/>
<path d="M232 440 c-1 -58 9 -69 36 -42 l23 23 -23 -3 c-18 -2 -24 3 -29 27
l-7 30 0 -35z"/>
<path d="M7 421 c-4 -18 -6 -52 -6 -75 1 -34 3 -29 10 24 9 71 7 105 -4 51z"/>
<path d="M1590 410 c20 -13 33 -13 25 0 -3 6 -14 10 -23 10 -15 0 -15 -2 -2
-10z"/>
<path d="M65 399 c-10 -15 3 -25 16 -12 7 7 7 13 1 17 -6 3 -14 1 -17 -5z"/>
<path d="M167 404 c-8 -8 1 -24 14 -24 5 0 9 7 9 15 0 15 -12 20 -23 9z"/>
<path d="M227 319 c-3 -23 -11 -45 -17 -49 -14 -8 5 -25 38 -33 18 -4 21 -3
12 8 -6 7 -10 17 -9 21 1 5 -1 17 -6 27 -4 9 -5 29 -3 42 3 14 2 25 -2 25 -4
0 -10 -19 -13 -41z"/>
<path d="M1450 350 c0 -5 5 -10 10 -10 6 0 10 5 10 10 0 6 -4 10 -10 10 -5 0
-10 -4 -10 -10z"/>
<path d="M1530 301 c0 -6 4 -13 10 -16 6 -3 7 1 4 9 -7 18 -14 21 -14 7z"/>
<path d="M546 291 c-3 -5 0 -11 7 -14 8 -3 14 1 14 9 0 16 -13 19 -21 5z"/>
<path d="M936 275 c-3 -9 0 -15 9 -15 8 0 15 7 15 15 0 8 -4 15 -9 15 -5 0
-11 -7 -15 -15z"/>
<path d="M1030 276 c0 -9 7 -16 16 -16 17 0 14 22 -4 28 -7 2 -12 -3 -12 -12z"/>
<path d="M348 273 c-10 -2 -18 -9 -18 -14 0 -14 16 -11 30 6 7 8 11 14 9 14
-2 -1 -12 -3 -21 -6z"/>
<path d="M31 204 c0 -11 3 -14 6 -6 3 7 2 16 -1 19 -3 4 -6 -2 -5 -13z"/>
<path d="M500 210 c0 -5 7 -10 15 -10 8 0 15 5 15 10 0 6 -7 10 -15 10 -8 0
-15 -4 -15 -10z"/>
<path d="M365 200 c3 -5 15 -10 26 -10 10 0 19 5 19 10 0 6 -12 10 -26 10 -14
0 -23 -4 -19 -10z"/>
<path d="M200 190 c0 -5 5 -10 10 -10 6 0 10 5 10 10 0 6 -4 10 -10 10 -5 0
-10 -4 -10 -10z"/>
<path d="M1030 173 c0 -25 1 -26 16 -11 9 9 13 21 10 27 -13 20 -26 11 -26
-16z"/>
<path d="M1280 185 c-10 -12 -10 -19 -2 -27 7 -7 15 -8 19 -3 5 4 2 10 -5 12
-10 4 -10 8 -1 19 6 8 9 14 6 14 -2 0 -10 -7 -17 -15z"/>
<path d="M5 139 c-4 -6 -5 -12 -2 -15 2 -3 7 2 10 11 7 17 1 20 -8 4z"/>
<path d="M128 143 c-10 -2 -18 -9 -18 -14 0 -13 24 -11 38 3 9 9 12 8 12 -5 0
-27 -25 -31 -77 -14 -50 17 -63 15 -63 -9 0 -8 -3 -13 -7 -11 -5 3 -6 -18 -4
-46 3 -42 6 -47 12 -27 4 14 7 42 8 63 1 39 11 46 30 23 19 -23 90 -29 118
-11 l24 16 -22 20 c-12 10 -25 18 -28 18 -3 -1 -14 -3 -23 -6z"/>
<path d="M216 93 c-9 -56 -7 -93 4 -93 6 0 8 10 5 23 -3 12 -2 42 3 65 6 23 6
42 2 42 -4 0 -10 -17 -14 -37z"/>
<path d="M240 87 c0 -19 4 -25 15 -21 8 4 15 10 15 14 0 4 -7 13 -15 20 -13
11 -15 8 -15 -13z"/>
<path d="M40 84 c0 -8 5 -12 10 -9 6 4 8 11 5 16 -9 14 -15 11 -15 -7z"/>
<path d="M193 93 c-15 -5 -17 -23 -4 -23 5 0 11 7 15 15 3 8 4 15 3 14 -1 0
-8 -3 -14 -6z"/>
<path d="M455 91 c-6 -11 13 -26 22 -17 4 3 1 6 -6 6 -7 0 -9 5 -6 10 3 6 4
10 1 10 -3 0 -7 -4 -11 -9z"/>
<path d="M1390 82 c0 -7 7 -15 16 -19 17 -6 42 13 30 24 -4 4 -11 1 -17 -7 -8
-13 -10 -13 -19 0 -7 11 -10 11 -10 2z"/>
<path d="M1507 84 c-8 -8 1 -24 12 -24 4 0 8 7 8 15 0 16 -9 20 -20 9z"/>
<path d="M1053 61 c0 -11 9 -22 20 -25 14 -3 17 0 15 17 -4 29 -37 36 -35 8z"/>
<path d="M1224 55 c-7 -18 4 -37 19 -32 16 5 16 47 0 47 -7 0 -16 -7 -19 -15z"/>
<path d="M750 45 c-7 -8 -16 -12 -21 -9 -5 3 -9 -4 -9 -15 0 -12 5 -21 10 -21
6 0 10 5 10 12 0 6 7 20 17 30 9 10 14 18 11 18 -3 0 -11 -7 -18 -15z"/>
<path d="M1466 51 c-3 -5 1 -11 9 -14 9 -4 12 -1 8 9 -6 16 -10 17 -17 5z"/>
<path d="M1612 30 c0 -19 2 -27 5 -17 2 9 2 25 0 35 -3 9 -5 1 -5 -18z"/>
<path d="M65 31 c-7 -12 12 -24 25 -16 11 7 4 25 -10 25 -5 0 -11 -4 -15 -9z"/>
<path d="M146 32 c-3 -6 -1 -14 5 -17 15 -10 25 3 12 16 -7 7 -13 7 -17 1z"/>
<path d="M820 29 c0 -5 5 -7 10 -4 6 3 10 8 10 11 0 2 -4 4 -10 4 -5 0 -10 -5
-10 -11z"/>
<path d="M885 30 c-3 -5 -1 -10 4 -10 6 0 11 5 11 10 0 6 -2 10 -4 10 -3 0 -8
-4 -11 -10z"/>
<path d="M1138 33 c7 -3 16 -2 19 1 4 3 -2 6 -13 5 -11 0 -14 -3 -6 -6z"/>
</g>
</svg>
