<?xml version="1.0" standalone="no"?>
<!DOCTYPE svg PUBLIC "-//W3C//DTD SVG 20010904//EN"
 "http://www.w3.org/TR/2001/REC-SVG-20010904/DTD/svg10.dtd">
<svg version="1.0" xmlns="http://www.w3.org/2000/svg"
 width="246.000000pt" height="345.000000pt" viewBox="0 0 246.000000 345.000000"
 preserveAspectRatio="xMidYMid meet">

<g transform="translate(0.000000,345.000000) scale(0.100000,-0.100000)"
fill="#000000" stroke="none">
<path d="M0 1725 l0 -1725 538 1 c295 1 521 4 502 8 -48 10 -60 18 -60 45 0
38 -53 130 -87 151 -55 34 -39 50 55 53 l82 3 0 -36 c0 -28 4 -35 20 -35 16 0
20 7 20 35 l0 35 47 0 c43 0 51 -4 98 -52 34 -36 60 -77 82 -128 l31 -75 566
-3 566 -2 0 95 c0 78 -3 95 -15 95 -8 0 -15 4 -15 10 0 5 7 7 15 4 13 -5 15
179 15 1620 l0 1626 -1230 0 -1230 0 0 -1725z m1092 1453 c44 -25 72 -69 63
-98 -7 -21 -25 -30 -82 -40 -44 -7 -53 0 -53 40 0 11 -9 20 -22 23 -22 3 -22
4 5 15 15 6 27 19 28 29 0 14 2 13 9 -4 6 -15 18 -23 34 -23 14 0 28 -5 31
-11 11 -17 -3 -23 -20 -9 -20 16 -45 6 -45 -20 0 -17 6 -20 38 -20 70 0 82 42
26 88 -39 33 -112 56 -140 45 -12 -5 -15 -3 -9 6 11 19 87 7 137 -21z m112 6
c22 -9 20 -31 -5 -44 -40 -22 -71 16 -31 39 21 13 17 12 36 5z m126 -101 c0
-27 -18 -30 -36 -5 -13 16 -13 16 -14 -3 0 -16 -8 -21 -35 -23 -30 -2 -37 2
-45 24 -13 34 -5 44 33 43 l32 -1 -29 -7 -28 -6 30 -11 c27 -10 31 -9 36 9 5
20 6 20 25 -4 l19 -24 -5 30 c-3 23 -2 27 6 15 6 -8 11 -25 11 -37z m-153 -15
c-2 -13 -4 -5 -4 17 -1 22 1 32 4 23 2 -10 2 -28 0 -40z m211 38 c-10 -7 -15
-16 -11 -19 3 -4 1 -7 -5 -7 -7 0 -12 -5 -12 -11 0 -5 4 -8 9 -4 5 3 12 1 15
-4 7 -10 -32 -26 -41 -17 -3 3 -2 21 1 41 6 30 11 35 34 35 24 -1 25 -2 10
-14z m31 -8 c-12 -22 -11 -22 8 -5 11 9 25 17 31 17 23 0 11 -39 -18 -60 -16
-12 -30 -30 -30 -41 0 -10 -5 -19 -11 -19 -7 0 -8 16 -3 48 6 46 20 82 30 82
2 0 -1 -10 -7 -22z m-494 -148 c11 -5 14 -9 7 -9 -11 -1 -12 -14 -7 -61 5 -41
4 -60 -4 -60 -7 0 -11 24 -11 64 0 63 -1 65 -27 69 -26 4 -26 4 -3 5 14 0 34
-3 45 -8z m225 -60 c0 -33 -4 -60 -9 -60 -12 0 -17 43 -12 88 6 55 21 35 21
-28z m30 25 c-7 -8 -8 -15 -2 -15 18 0 22 -31 7 -58 l-14 -27 6 36 c3 20 1 39
-5 42 -5 4 -7 18 -4 32 3 18 8 23 15 16 7 -7 6 -15 -3 -26z m411 5 c6 0 7 -4
4 -10 -3 -5 3 -15 15 -22 11 -7 20 -22 19 -33 0 -14 -2 -16 -6 -5 -3 8 -17 28
-29 43 -13 16 -23 36 -23 45 1 15 2 15 6 0 2 -10 9 -18 14 -18z m-206 -35 c0
-30 -3 -55 -7 -55 -5 0 -8 25 -8 55 0 30 3 55 8 55 4 0 7 -25 7 -55z m-119 29
c-3 -9 -6 -31 -6 -50 0 -37 -25 -58 -41 -33 -11 17 -12 89 -1 89 4 0 7 -19 7
-42 0 -24 5 -43 13 -45 8 -3 12 10 12 46 0 31 4 51 11 51 6 0 8 -7 5 -16z
m284 -28 c0 -53 -12 -66 -29 -30 -15 34 -14 39 5 23 15 -13 17 -11 12 19 -2
17 -1 32 4 32 4 0 8 -20 8 -44z m-572 -11 c1 -25 -2 -45 -8 -45 -5 0 -10 20
-10 45 0 25 4 45 8 45 5 0 10 -20 10 -45z m94 -17 c2 -21 1 -38 -3 -38 -9 0
-17 71 -10 90 6 17 7 14 13 -52z m241 25 c7 2 11 12 11 21 -1 9 3 16 8 16 6 0
8 -14 4 -35 -4 -19 -2 -44 4 -55 7 -14 8 -20 0 -20 -6 0 -13 14 -16 30 -8 35
-21 39 -27 8 -2 -13 -4 0 -4 27 0 28 2 40 4 27 3 -13 10 -21 16 -19z m122 -8
c0 -39 -2 -43 -12 -28 -7 9 -13 21 -13 26 0 8 19 47 23 47 1 0 2 -20 2 -45z
m35 5 c0 -16 -3 -31 -7 -33 -5 -3 -8 12 -8 33 -1 21 3 36 7 34 4 -3 8 -18 8
-34z m34 -2 c-9 -59 -14 -60 -14 -5 0 26 5 47 10 47 6 0 8 -16 4 -42z m-461
-21 c-3 -4 -13 2 -24 14 -10 12 -16 26 -13 31 3 4 14 -2 24 -14 10 -13 16 -27
13 -31z m-23 -17 c0 -11 -4 -20 -9 -20 -5 0 -7 9 -4 20 3 11 7 20 9 20 2 0 4
-9 4 -20z m143 -112 c67 -19 70 -19 89 -1 15 13 20 14 16 4 -9 -28 -35 -36
-87 -25 l-51 11 0 -122 c0 -93 4 -126 16 -143 19 -28 6 -28 -26 1 -24 21 -25
26 -25 152 l0 130 -28 3 c-16 2 -34 -1 -40 -6 -8 -7 -18 -6 -29 2 -45 33 43
30 165 -6z m405 12 c4 0 7 -58 7 -130 l0 -130 -24 0 c-20 0 -22 3 -13 12 7 7
12 20 12 31 0 21 -41 97 -52 97 -5 0 -8 -27 -8 -60 0 -33 4 -60 10 -60 6 0 10
5 10 10 0 6 5 10 12 10 6 0 3 -9 -7 -20 -10 -11 -13 -20 -7 -20 7 0 12 -4 12
-10 0 -5 -13 -10 -30 -10 -21 0 -28 4 -24 14 4 11 -4 17 -29 21 -26 5 -34 11
-30 24 2 9 -1 29 -7 45 -10 28 -11 28 -30 11 -21 -19 -26 -50 -10 -60 20 -12
10 -25 -19 -25 -33 0 -49 15 -26 24 13 5 15 23 13 98 -3 93 -3 93 -28 90 -22
-2 -23 -1 -10 12 11 10 28 13 61 9 39 -4 46 -8 42 -24 -7 -24 5 -69 17 -69 6
0 10 7 10 15 0 8 5 15 10 15 15 0 12 -36 -4 -50 -12 -9 -13 -18 -5 -38 12 -30
38 -62 51 -62 11 0 10 137 -2 160 -8 15 -5 19 15 22 20 4 25 1 25 -14 0 -10 8
-33 18 -51 l17 -32 3 57 c2 32 -2 67 -9 79 -10 19 -9 21 6 16 9 -4 20 -7 23
-7z m94 -97 c-5 -56 -3 -59 30 -42 17 9 19 17 14 50 -3 22 -2 39 3 39 5 0 17
3 26 7 15 5 16 3 5 -17 -16 -30 -10 -182 8 -188 26 -8 10 -18 -24 -14 -25 3
-33 7 -25 15 13 13 15 87 2 87 -28 0 -41 -14 -41 -45 0 -19 5 -37 12 -41 8 -5
6 -10 -8 -15 -37 -15 -42 -11 -36 36 3 30 1 45 -7 45 -6 0 -11 -7 -11 -15 0
-8 -4 -15 -10 -15 -19 0 -10 42 10 47 17 5 20 14 20 62 0 31 -5 62 -12 69 -9
9 -5 9 18 0 29 -11 30 -13 26 -65z m-612 58 c0 -5 -7 -14 -15 -21 -27 -22 -29
-52 -5 -70 51 -39 16 -120 -51 -120 -17 0 -32 -6 -35 -15 -4 -8 -10 -15 -15
-15 -6 0 -5 9 1 20 7 12 25 22 50 26 45 7 61 36 40 73 -15 29 -29 26 -44 -9
-9 -22 -15 -27 -23 -19 -8 8 -6 16 8 30 24 24 24 36 -1 49 -22 12 -27 49 -8
68 14 14 98 17 98 3z m-130 -29 c0 -4 -18 -6 -40 -4 -39 4 -40 3 -40 -27 0
-28 3 -31 30 -31 29 0 38 -9 23 -23 -3 -4 -12 -2 -20 5 -23 19 -34 -5 -31 -63
l3 -54 44 -14 c35 -11 48 -11 64 -2 15 10 18 10 15 0 -10 -29 -35 -32 -95 -13
l-59 19 -1 99 c-1 70 -5 101 -15 107 -8 5 14 9 55 9 37 0 67 -3 67 -8z m358
-32 c3 -24 -2 -38 -14 -47 -15 -11 -16 -18 -5 -52 16 -55 56 -101 89 -102 26
-2 26 -2 3 -6 -26 -5 -103 25 -96 37 6 10 -27 100 -37 100 -13 0 -9 -88 5 -93
6 -3 -1 -6 -18 -6 l-30 -1 3 91 c2 61 -1 95 -9 105 -11 13 -5 15 47 12 l59 -3
3 -35z m-582 5 c38 -59 25 -169 -23 -181 -18 -5 -31 -1 -46 15 -18 18 -22 33
-22 90 0 43 5 74 14 84 20 25 58 21 77 -8z m1168 3 c22 -34 30 -101 16 -142
-15 -46 -52 -59 -83 -28 -28 29 -37 131 -13 167 21 32 60 33 80 3z m90 -233
c-15 -23 -18 -24 -29 -8 -12 15 -15 14 -45 -15 -31 -32 -32 -35 -28 -103 3
-64 6 -72 41 -106 28 -29 47 -39 84 -44 l48 -6 -46 -2 c-54 -1 -101 26 -136
78 -71 106 -15 220 115 230 9 1 8 -6 -4 -24z m-1229 -107 c0 -62 4 -121 9
-130 7 -15 3 -18 -25 -18 -30 0 -31 1 -15 13 16 12 17 18 7 48 -6 19 -20 45
-31 59 l-20 25 0 -58 c0 -32 5 -67 10 -78 9 -16 7 -19 -12 -19 -23 0 -23 2
-23 110 0 61 3 110 7 110 3 0 13 3 22 6 12 5 16 0 16 -19 0 -30 19 -77 32 -77
11 0 10 83 -2 114 -8 22 -7 26 8 26 15 0 17 -13 17 -112z m496 73 c18 -14 23
-30 26 -77 5 -72 -17 -113 -77 -144 -38 -19 -42 -19 -65 -4 -33 21 -32 24 10
17 29 -5 39 -1 66 26 31 31 31 34 26 97 -9 123 -49 110 -46 -14 2 -54 -2 -76
-12 -83 -23 -14 -30 -10 -19 10 14 27 13 164 -2 179 -21 21 66 15 93 -7z m159
-11 c0 -5 -4 -12 -10 -15 -5 -3 -10 -1 -10 4 0 6 -11 11 -24 11 -17 0 -25 -7
-28 -25 -6 -30 -2 -35 34 -35 15 0 28 -4 28 -9 0 -15 -18 -23 -25 -11 -3 5
-13 10 -21 10 -10 0 -14 -12 -14 -44 0 -43 1 -44 51 -65 30 -13 58 -19 71 -15
14 4 18 2 14 -5 -11 -18 -73 -13 -116 9 -22 11 -46 20 -55 20 -12 0 -14 4 -5
19 13 25 13 151 0 151 -5 0 -10 3 -10 8 0 4 27 5 60 4 33 -2 60 -8 60 -12z
m247 -5 c-13 -10 -17 -28 -17 -86 0 -51 -6 -87 -19 -116 -21 -45 -38 -58 -93
-68 l-38 -7 16 31 c16 32 28 43 18 16 -7 -16 22 -21 42 -7 34 23 44 58 44 149
0 86 -1 93 -20 93 -11 0 -20 -5 -20 -11 0 -8 -5 -8 -15 1 -24 20 -11 25 56 21
54 -2 61 -5 46 -16z m-1204 10 c11 -5 13 -23 9 -84 -3 -58 0 -87 11 -110 l15
-30 -31 6 c-40 7 -44 10 -29 25 7 7 12 35 12 62 0 56 -11 53 -32 -8 -14 -42
-41 -64 -31 -26 6 23 -14 70 -30 70 -11 0 1 -90 14 -106 7 -8 -1 -13 -25 -16
-33 -4 -33 -3 -19 19 12 18 13 36 6 92 -9 67 -8 70 14 80 20 9 23 8 23 -10 0
-21 27 -69 39 -69 8 0 31 60 31 82 0 9 -6 19 -12 21 -8 4 -7 6 4 6 9 1 23 -1
31 -4z m582 -15 c27 -30 33 -131 11 -166 -42 -63 -111 4 -103 99 7 77 53 110
92 67z m-164 0 c49 -27 63 -127 25 -185 -25 -38 -85 -65 -116 -52 l-25 10 25
4 c58 8 70 15 86 45 25 48 9 168 -23 168 -11 0 -14 -16 -12 -86 1 -65 -2 -88
-12 -94 -12 -7 -13 6 -10 76 2 54 -1 89 -9 98 -11 14 -8 16 43 25 5 0 17 -4
28 -9z m1159 0 c14 -4 19 -8 13 -9 -15 -1 -18 -71 -3 -71 5 0 20 18 32 40 20
35 27 40 58 39 30 0 32 -2 14 -9 -23 -9 -74 -70 -74 -87 0 -13 144 -143 159
-143 6 0 11 -4 11 -9 0 -12 -57 6 -66 20 -3 5 -16 9 -30 9 -13 0 -24 6 -24 13
0 7 -17 30 -37 51 l-38 39 -3 -27 c-2 -15 1 -33 7 -40 8 -9 2 -12 -22 -13
l-32 -1 0 92 c0 88 -1 91 -22 90 -25 -1 -31 11 -10 19 17 7 38 6 67 -3z m-299
-6 c28 -5 35 -10 32 -23 -2 -9 1 -30 8 -46 12 -28 13 -29 16 -7 6 30 23 28 23
-3 0 -14 -5 -25 -11 -25 -18 0 -2 -61 23 -87 24 -25 48 -29 66 -11 8 8 12 8
12 1 0 -27 -29 -35 -80 -23 -27 7 -47 16 -44 21 9 16 -7 69 -21 69 -26 0 -40
-30 -28 -61 11 -28 10 -29 -17 -29 -16 0 -32 5 -36 12 -4 6 -3 8 3 5 6 -4 14
0 17 9 8 21 8 179 0 187 -4 3 -16 1 -28 -5 -19 -10 -20 -10 -7 5 15 19 20 19
72 11z m-1201 -22 c12 -6 15 -27 15 -97 0 -83 1 -90 20 -90 18 0 20 8 23 78 2
50 -1 84 -9 93 -9 11 -8 14 4 14 8 0 24 3 34 6 15 6 16 4 6 -7 -16 -17 -17
-182 -2 -211 10 -19 9 -20 -7 -13 -11 4 -33 8 -51 9 -18 1 -35 5 -39 9 -5 4
-10 49 -12 100 -2 50 -9 98 -14 105 -12 13 6 16 32 4z m990 -465 c302 -78 553
-293 666 -570 51 -126 86 -330 69 -406 -6 -30 -8 -31 -60 -31 -31 0 -73 -8
-100 -20 -26 -11 -50 -20 -54 -20 -3 0 -31 21 -61 48 -53 46 -54 47 -35 13 11
-19 34 -49 52 -67 21 -21 28 -34 20 -38 -7 -2 -4 -5 6 -5 23 -1 22 -22 -3 -28
-11 -3 -20 -8 -20 -12 0 -4 9 -7 20 -7 11 0 20 4 20 9 0 5 13 -2 28 -15 l29
-23 -35 -5 c-22 -3 -41 -14 -51 -29 l-16 -25 25 16 c14 8 39 15 55 14 25 -1
31 -6 33 -27 3 -23 0 -26 -23 -24 -20 3 -24 1 -15 -10 8 -10 5 -14 -14 -17
-14 -3 -30 0 -35 5 -16 16 -14 -16 2 -32 10 -11 8 -11 -10 0 -20 12 -24 11
-37 -6 -9 -11 -16 -15 -16 -8 0 20 -56 26 -82 9 -22 -14 -25 -14 -41 4 -23 27
-22 31 18 70 33 32 34 33 60 16 15 -10 24 -23 21 -31 -6 -16 19 -40 28 -27 12
20 -15 80 -48 103 -37 25 -57 71 -48 114 4 22 2 26 -14 23 -11 -2 -17 -11 -15
-19 10 -34 13 -70 8 -83 -5 -12 -13 -13 -39 -5 -18 5 -38 15 -43 23 -9 12 -15
12 -38 0 -28 -15 -37 -27 -13 -18 10 4 15 -9 19 -48 2 -29 4 -54 2 -56 -2 -2
-28 4 -60 13 l-57 17 -37 81 c-21 45 -56 115 -79 155 -36 62 -46 95 -72 229
-37 188 -36 221 3 144 15 -30 27 -51 28 -45 0 5 4 0 9 -11 7 -17 9 -17 9 -2 1
24 17 21 35 -5 9 -12 16 -17 16 -11 0 6 -11 25 -25 41 -13 16 -22 32 -18 36 3
3 -1 6 -10 6 -20 0 -77 57 -77 76 0 11 10 9 43 -11 24 -14 47 -25 50 -25 4 0
7 66 7 146 0 113 3 144 13 138 9 -6 9 -4 -1 8 -11 14 -9 19 10 32 18 13 19 16
5 16 -20 0 -22 10 -4 31 6 7 -6 -3 -28 -23 -37 -34 -64 -50 -52 -30 3 4 -6 7
-19 7 -13 0 -24 -4 -24 -8 0 -5 -13 1 -29 12 -16 12 -35 21 -43 20 -7 0 -3 -5
10 -11 14 -7 21 -17 17 -26 -3 -9 -1 -18 4 -21 8 -5 -26 -121 -44 -152 -4 -6
-21 -8 -38 -5 -26 5 -28 4 -11 -3 30 -13 36 -25 25 -53 -9 -23 -9 -23 -21 10
-13 36 -35 45 -24 10 9 -30 33 -78 39 -78 3 0 11 16 19 35 16 37 27 43 43 23
6 -7 13 -116 17 -243 3 -126 9 -276 12 -332 l7 -101 -139 -5 c-76 -2 -151 -8
-165 -12 -24 -6 -26 -4 -36 53 -6 33 -10 69 -8 79 2 10 4 21 4 25 1 3 12 5 26
3 20 -2 26 3 31 24 3 14 7 31 8 36 2 6 -1 22 -5 38 -4 15 -4 27 2 27 17 0 10
153 -10 210 l-20 55 25 3 c13 2 29 12 34 22 6 11 17 17 24 14 10 -4 17 9 25
46 6 28 11 54 11 57 0 4 -20 -21 -45 -55 -25 -34 -47 -62 -49 -62 -9 0 -43 38
-56 63 -8 16 -25 39 -38 52 l-23 23 25 25 c17 17 28 21 35 14 13 -13 15 -50 2
-42 -5 3 -12 1 -15 -4 -3 -5 1 -11 9 -15 8 -3 15 -15 15 -26 0 -28 24 -52 44
-44 20 8 17 41 -8 79 -10 15 -13 24 -6 20 8 -5 9 9 4 57 -7 67 -19 93 -30 65
-9 -25 -64 -23 -64 2 0 10 7 21 15 25 8 3 12 12 9 20 -3 8 5 21 18 30 22 16
22 16 -13 16 -62 0 -89 -57 -89 -186 0 -39 -5 -96 -10 -125 -9 -47 -8 -56 7
-67 10 -7 27 -11 39 -9 l21 4 -18 -50 c-10 -28 -22 -53 -27 -56 -5 -3 -12 -19
-16 -35 -6 -23 -4 -27 8 -23 13 5 16 -1 16 -33 0 -21 -6 -45 -13 -52 -22 -21
-29 -78 -12 -84 8 -4 15 -11 15 -18 0 -6 9 -17 20 -24 19 -12 21 -20 16 -105
l-5 -92 17 37 18 36 17 -30 c9 -16 15 -34 12 -38 -4 -7 -35 -17 -75 -25 -21
-4 -107 -50 -166 -88 -76 -49 -158 -138 -203 -219 -15 -28 -33 -48 -43 -48
-16 0 -68 57 -68 75 0 4 -11 16 -25 27 -32 25 -129 222 -149 303 -52 206 -33
447 49 617 14 29 25 52 25 53 0 11 -95 40 -128 40 -50 0 -82 -28 -82 -74 -1
-24 -2 -24 -12 -7 -16 28 13 79 69 120 26 20 53 36 59 36 18 0 77 68 69 80 -4
6 1 22 10 36 20 32 59 30 63 -3 2 -13 8 -23 14 -23 6 0 16 -7 22 -16 14 -19
42 -9 49 18 3 11 10 17 15 14 5 -3 22 8 38 25 16 17 57 51 92 77 34 25 62 51
62 58 0 17 -40 44 -65 44 -35 0 -65 -28 -65 -61 0 -24 4 -29 23 -29 13 0 29 6
36 13 11 10 13 9 9 -3 -6 -19 -68 -26 -79 -8 -15 24 -9 56 15 85 34 40 102 40
144 0 l29 -27 44 24 c186 102 481 132 709 73z m-1209 -124 c41 -43 49 -58 49
-90 0 -28 -3 -34 -10 -23 -5 8 -7 23 -4 32 5 17 -24 73 -33 64 -3 -3 2 -15 11
-28 28 -39 17 -43 -20 -7 -45 43 -60 72 -68 129 l-6 45 16 -35 c9 -19 38 -58
65 -87z m135 62 c18 -43 18 -66 -1 -91 -13 -18 -14 -18 -9 6 4 22 3 22 -10 -5
-8 -16 -18 -39 -21 -50 -5 -13 -9 -16 -12 -7 -3 7 5 40 17 72 14 37 20 69 16
85 -9 36 3 31 20 -10z m987 -242 c-11 -16 -28 -30 -37 -31 -14 -3 -17 3 -14
30 2 24 7 32 20 30 9 -1 20 2 23 9 5 8 10 8 18 0 8 -8 5 -19 -10 -38z m44
-220 c-3 -2 -21 6 -42 18 -34 20 -37 25 -31 57 3 21 19 49 38 69 l33 34 3 -87
c2 -47 1 -88 -1 -91z m-121 69 c-4 -3 -11 -1 -17 5 -6 6 -6 19 3 39 l12 29 4
-33 c2 -19 1 -37 -2 -40z m-352 -137 c3 -8 1 -15 -4 -15 -6 0 -10 7 -10 15 0
8 2 15 4 15 2 0 6 -7 10 -15z m472 -377 c40 -69 116 -230 111 -234 -1 -1 -43
9 -93 23 l-91 25 -6 101 c-4 56 -9 179 -11 272 l-5 170 30 -147 c23 -116 37
-161 65 -210z m774 -65 c-1 -58 -59 -243 -76 -243 -11 0 -37 55 -33 70 1 3
-12 27 -30 55 l-31 49 34 34 c45 46 136 69 136 35z m10 -223 c18 -12 2 -12
-25 0 -13 6 -15 9 -5 9 8 0 22 -4 30 -9z m-90 -45 c19 -21 21 -25 7 -25 -9 0
-17 6 -17 14 0 10 -7 12 -22 8 -21 -5 -22 -4 -9 11 17 21 13 22 41 -8z m-135
-53 c-3 -3 -11 0 -18 7 -9 10 -8 11 6 5 10 -3 15 -9 12 -12z m257 -4 c-7 -7
-12 -8 -12 -2 0 14 12 26 19 19 2 -3 -1 -11 -7 -17z m-282 -3 c11 -13 10 -14
-4 -9 -9 3 -16 10 -16 15 0 13 6 11 20 -6z m397 -28 c-3 -9 -17 -13 -39 -11
-30 3 -30 3 -8 -5 21 -8 22 -9 5 -10 -11 0 -26 3 -34 8 -20 13 -3 33 21 25 15
-4 18 -3 13 6 -5 8 -4 11 3 6 6 -3 14 -1 17 5 10 15 29 -6 22 -24z m-516 6
c13 -16 12 -17 -3 -4 -10 7 -18 15 -18 17 0 8 8 3 21 -13z m224 -27 c-24 -42
-25 -45 -8 -55 17 -10 17 -10 1 -11 -10 0 -18 3 -18 8 0 4 -14 13 -31 21 l-31
13 31 28 c27 25 45 35 74 39 4 0 -4 -19 -18 -43z m195 4 c0 -5 -5 -10 -11 -10
-5 0 -7 5 -4 10 3 6 8 10 11 10 2 0 4 -4 4 -10z m-414 -67 c-8 -8 -36 10 -36
25 0 13 3 12 20 -3 11 -10 18 -20 16 -22z m-867 -24 c27 -9 31 -16 31 -46 l0
-35 -82 4 -83 4 -3 33 c-6 57 2 64 57 57 27 -4 63 -11 80 -17z m-178 -6 c10
-66 12 -64 -46 -62 -30 1 -52 6 -49 11 3 5 12 7 20 4 8 -3 13 -2 13 2 -4 21 3
34 24 42 28 11 37 12 38 3z m294 -63 c3 -6 -5 -10 -19 -10 -19 0 -26 5 -26 20
0 17 3 19 19 10 11 -5 23 -15 26 -20z m1127 10 c27 -16 29 -20 13 -20 -12 0
-27 6 -33 12 -10 10 -15 10 -21 -1 -6 -9 -11 -10 -15 -2 -8 13 1 31 14 31 5 0
24 -9 42 -20z m-1417 -60 c4 -6 -11 -17 -32 -26 -21 -9 -52 -29 -69 -46 -28
-26 -34 -28 -53 -16 -27 17 -27 21 10 63 28 32 36 35 84 35 30 0 57 -5 60 -10z
m1553 -23 c3 -16 1 -17 -17 -5 -25 16 -27 31 -4 26 10 -2 19 -11 21 -21z
m-1531 -82 c12 -9 27 -32 33 -53 14 -51 13 -60 -5 -37 -8 11 -24 31 -35 45
l-21 25 -15 -22 c-14 -20 -18 -21 -31 -7 -14 13 -14 17 1 33 9 10 13 21 9 24
-13 14 43 6 64 -8z m-148 -120 c0 -5 -4 -3 -9 5 -5 8 -9 22 -9 30 0 16 17 -16
18 -35z"/>
<path d="M1187 3163 c-12 -12 -7 -22 8 -17 8 4 15 10 15 15 0 11 -14 12 -23 2z"/>
<path d="M1440 3080 c-9 -16 -8 -18 5 -14 8 4 15 12 15 20 0 20 -7 17 -20 -6z"/>
<path d="M1350 2636 c0 -34 4 -46 13 -43 15 5 13 65 -2 80 -8 8 -11 -2 -11
-37z"/>
<path d="M974 2686 c-8 -21 4 -52 15 -40 15 15 17 47 4 51 -7 3 -16 -2 -19
-11z"/>
<path d="M1210 2630 c0 -34 3 -41 18 -38 12 2 17 13 17 38 0 25 -5 36 -17 38
-15 3 -18 -4 -18 -38z"/>
<path d="M642 2648 c-14 -14 -16 -106 -2 -142 12 -33 38 -33 46 0 17 68 -15
171 -44 142z"/>
<path d="M1812 2648 c-14 -14 -16 -106 -2 -142 12 -33 38 -33 46 0 17 68 -15
171 -44 142z"/>
<path d="M946 2344 c-11 -28 -6 -94 9 -131 13 -30 17 -33 30 -23 18 15 21 120
5 151 -13 23 -36 25 -44 3z"/>
<path d="M1690 2270 c0 -38 12 -52 25 -30 9 14 -4 70 -16 70 -5 0 -9 -18 -9
-40z"/>
<path d="M1300 1730 c0 -19 3 -21 12 -12 9 9 9 15 0 24 -9 9 -12 7 -12 -12z"/>
<path d="M1335 1727 c-4 -9 -2 -23 4 -31 6 -7 8 -15 5 -18 -2 -3 6 -8 20 -10
21 -4 28 1 41 29 19 40 12 57 -11 25 l-15 -22 -19 22 c-17 21 -19 21 -25 5z"/>
<path d="M360 1589 c0 -5 -4 -7 -10 -4 -15 9 -12 -21 3 -33 6 -5 23 -13 37
-16 19 -6 21 -5 10 3 -8 6 -15 16 -16 23 -3 32 -5 38 -14 38 -5 0 -10 -5 -10
-11z"/>
<path d="M990 1590 c0 -5 4 -10 9 -10 6 0 13 5 16 10 3 6 -1 10 -9 10 -9 0
-16 -4 -16 -10z"/>
<path d="M1035 1590 c3 -5 8 -10 11 -10 2 0 4 5 4 10 0 6 -5 10 -11 10 -5 0
-7 -4 -4 -10z"/>
<path d="M590 1528 c0 -4 4 -8 9 -8 6 0 12 4 15 8 3 5 -1 9 -9 9 -8 0 -15 -4
-15 -9z"/>
<path d="M223 1444 c-16 -12 -14 -13 25 -14 23 0 71 -12 105 -26 70 -30 145
-29 205 1 42 22 35 30 -15 16 -57 -16 -126 -13 -175 7 -61 26 -123 33 -145 16z"/>
<path d="M1170 1429 c0 -5 5 -7 10 -4 6 3 10 8 10 11 0 2 -4 4 -10 4 -5 0 -10
-5 -10 -11z"/>
<path d="M1900 761 c0 -5 5 -13 10 -16 6 -3 10 -2 10 4 0 5 -4 13 -10 16 -5 3
-10 2 -10 -4z"/>
<path d="M1902 729 c-38 -14 -25 -28 16 -17 45 12 48 14 25 20 -11 3 -29 1
-41 -3z"/>
<path d="M1990 620 c-9 -6 -10 -10 -3 -10 6 0 15 5 18 10 8 12 4 12 -15 0z"/>
</g>
</svg>
