<?xml version="1.0" encoding="UTF-8"?>
<svg version="1.1" xmlns="http://www.w3.org/2000/svg" width="503" height="519">
<path d="M0 0 C165.99 0 331.98 0 503 0 C503 171.27 503 342.54 503 519 C337.01 519 171.02 519 0 519 C0 347.73 0 176.46 0 0 Z " fill="#8E8080" transform="translate(0,0)"/>
<path d="M0 0 C1.43001343 -0.0049926 1.43001343 -0.0049926 2.88891602 -0.01008606 C4.9026644 -0.01513194 6.91642108 -0.01749511 8.93017578 -0.01733398 C11.96271134 -0.01950456 14.99487317 -0.03764142 18.02734375 -0.05664062 C48.22960275 -0.15120095 48.22960275 -0.15120095 56 6.16796875 C56.875 9.91796875 56.875 9.91796875 57 13.16796875 C58.10730469 13.07515625 59.21460938 12.98234375 60.35546875 12.88671875 C65.98426371 12.89662206 70.3610653 15.19001296 75.3125 17.66796875 C76.24094727 18.12357178 77.16939453 18.5791748 78.12597656 19.04858398 C89.94527375 24.9779245 98.98206182 32.52241009 107.921875 42.26171875 C110.24421196 44.39198273 112.47790987 45.55479952 115.3125 46.91796875 C123.5220248 51.27448991 128.63621183 57.5560481 132 66.16796875 C132.44859375 67.31458984 132.44859375 67.31458984 132.90625 68.484375 C137.15386693 81.36488004 135.72279822 94.77369963 131.875 107.51953125 C130.30359733 114.07171916 130.77623389 119.4880098 132.9375 125.91796875 C134.06795961 129.33771037 135.12560915 132.67040537 136 136.16796875 C132.04 133.69296875 132.04 133.69296875 128 131.16796875 C128.15726562 132.12960938 128.31453125 133.09125 128.4765625 134.08203125 C129.23117525 139.34843391 129.30971703 144.65186576 129.4296875 149.96484375 C129.81849612 159.97666577 132.70950987 166.64519699 139.25 174.16796875 C140.41965232 175.56218005 141.58892619 176.95670893 142.7578125 178.3515625 C143.31758789 179.0101123 143.87736328 179.66866211 144.45410156 180.34716797 C156.02777601 193.97895319 158.0447925 205.42032075 156.796875 223.03515625 C155.95307319 228.33643284 153.60386193 231.28610457 149.75390625 234.953125 C148 236.16796875 148 236.16796875 145 236.16796875 C145.10054688 235.20697266 145.10054688 235.20697266 145.203125 234.2265625 C145.25791284 231.16300926 145.09168523 229.04985046 144 226.16796875 C140.30590908 223.16948411 136.31802484 221.13485186 132 219.16796875 C132.58358213 232.88214871 138.55604018 244.38961229 148 254.2578125 C152.89123794 258.56927008 156.86766061 260.75705733 163.35546875 260.6171875 C171.00119548 259.31843038 177.51334739 255.42370529 182 249.16796875 C181.88481642 251.83537798 181.75810454 254.50144116 181.625 257.16796875 C181.5940625 257.91175781 181.563125 258.65554688 181.53125 259.421875 C180.9333959 270.88074527 177.20876701 280.95920174 169 289.16796875 C160.9603296 294.6298973 150.53766419 296.18042849 141 295.16796875 C137.59117516 294.36012396 134.29776644 293.34674484 131 292.16796875 C131.48597656 292.80863281 131.97195313 293.44929688 132.47265625 294.109375 C134.51757349 298.20443944 134.47802093 301.59291068 134.4375 306.10546875 C134.45748047 306.89115234 134.47746094 307.67683594 134.49804688 308.48632812 C134.4934743 313.9505573 133.59397697 316.99842005 130 321.16796875 C129.34 321.16796875 128.68 321.16796875 128 321.16796875 C127.67 322.15796875 127.34 323.14796875 127 324.16796875 C114.70047005 330.37896894 100.06058716 331.44702954 87 327.16796875 C89.55289511 324.18959112 92.51370822 322.87402643 96 321.16796875 C98.8822106 318.28575815 98.9689061 314.91927862 99.625 311.04296875 C99.7590625 310.28886719 99.893125 309.53476562 100.03125 308.7578125 C100.36123229 306.89576957 100.68154073 305.032017 101 303.16796875 C100.34 303.16796875 99.68 303.16796875 99 303.16796875 C98.82984375 303.79445313 98.6596875 304.4209375 98.484375 305.06640625 C98.12085938 306.29230469 98.12085938 306.29230469 97.75 307.54296875 C97.51796875 308.35507812 97.2859375 309.1671875 97.046875 310.00390625 C95.74353861 312.69811654 94.77624067 313.1634744 92 314.16796875 C90.63582498 314.56177777 89.25988126 314.91715911 87.875 315.23046875 C84.2320886 315.95844635 84.2320886 315.95844635 82 317.16796875 C79.35689216 317.37128474 76.7710077 317.49145356 74.125 317.54296875 C73.40441406 317.58035156 72.68382812 317.61773437 71.94140625 317.65625 C68.08099027 317.7202348 66.39384825 317.53868623 63.5390625 314.8515625 C61.84512113 311.89791347 61.31371059 309.54035759 61 306.16796875 C60.41226807 306.43351562 59.82453613 306.6990625 59.21899414 306.97265625 C52.67665418 309.7777045 46.4614562 311.16714598 39.4375 312.16796875 C32.38043528 313.25367101 25.4227468 314.41282156 18.5 316.16796875 C10.36236578 318.22322478 2.13156185 319.558814 -6.15625 320.86132812 C-7.14496094 321.01794922 -8.13367188 321.17457031 -9.15234375 321.3359375 C-10.03913818 321.47281982 -10.92593262 321.60970215 -11.83959961 321.75073242 C-14.03791173 322.07463556 -14.03791173 322.07463556 -16 323.16796875 C-18.3329866 323.20819266 -20.66706666 323.21117122 -23 323.16796875 C-23.33 321.51796875 -23.66 319.86796875 -24 318.16796875 C-24.52078125 318.48507812 -25.0415625 318.8021875 -25.578125 319.12890625 C-28.67408709 320.45717386 -31.39404121 320.59161122 -34.75 320.79296875 C-36.50570312 320.90511719 -36.50570312 320.90511719 -38.296875 321.01953125 C-39.18890625 321.06851562 -40.0809375 321.1175 -41 321.16796875 C-41 320.17796875 -41 319.18796875 -41 318.16796875 C-41.67546875 318.19117188 -42.3509375 318.214375 -43.046875 318.23828125 C-43.93890625 318.25632812 -44.8309375 318.274375 -45.75 318.29296875 C-46.63171875 318.31617188 -47.5134375 318.339375 -48.421875 318.36328125 C-51 318.16796875 -51 318.16796875 -52.86279297 317.20019531 C-55.2450045 316.04963667 -57.15001714 315.74394371 -59.7734375 315.45703125 C-60.6809375 315.34617187 -61.5884375 315.2353125 -62.5234375 315.12109375 C-64.41589383 314.90333165 -66.30914091 314.69232926 -68.203125 314.48828125 C-73.82055416 313.78809178 -77.46492553 312.80445261 -82 309.16796875 C-82.99 308.50796875 -83.98 307.84796875 -85 307.16796875 C-89.0449982 313.06692446 -88.27748976 319.24100203 -88 326.16796875 C-91.63940369 322.88076542 -92.68322334 320.8839391 -93.23828125 316.125 C-93.53068372 307.67610772 -90.4598034 301.5083856 -85 295.16796875 C-83.9731657 293.51769935 -82.96432076 291.85553008 -82 290.16796875 C-88.5984399 291.80679696 -92.21239418 293.42917205 -96 299.16796875 C-98.11095015 303.38986905 -98.26876743 306.97611015 -98.25 311.66796875 C-98.25515625 312.95703125 -98.2603125 314.24609375 -98.265625 315.57421875 C-98.01577205 318.95458225 -97.35548972 321.11273795 -96 324.16796875 C-96 325.15796875 -96 326.14796875 -96 327.16796875 C-104.02442151 326.75389718 -110.24785165 326.26536893 -116.0625 320.23046875 C-123.76539226 310.63210038 -128.32375165 295.43630997 -127 283.16796875 C-126.01346385 277.78686249 -124.42294438 274.37014292 -120 271.16796875 C-116.06224043 268.71906221 -112.05689235 266.41317074 -108 264.16796875 C-108.89847656 264.4928125 -109.79695313 264.81765625 -110.72265625 265.15234375 C-117.20580381 267.16142404 -123.70732669 266.73165047 -130 264.16796875 C-139.15454543 258.59476197 -142.91368349 248.21790628 -146.140625 238.48046875 C-146.98125365 235.94679572 -146.98125365 235.94679572 -149 233.16796875 C-148.030625 233.49796875 -147.06125 233.82796875 -146.0625 234.16796875 C-139.749211 235.90825163 -134.32898492 236.17533869 -128.375 233.16796875 C-121.27998948 228.78466382 -116.79559402 222.45550927 -113 215.16796875 C-114.155 215.08546875 -115.31 215.00296875 -116.5 214.91796875 C-121.22127498 214.35310192 -124.9106739 212.50628022 -129 210.16796875 C-129 209.50796875 -129 208.84796875 -129 208.16796875 C-128.11957031 208.11898437 -127.23914063 208.07 -126.33203125 208.01953125 C-124.58986328 207.90738281 -124.58986328 207.90738281 -122.8125 207.79296875 C-121.08966797 207.68855469 -121.08966797 207.68855469 -119.33203125 207.58203125 C-116.20040883 207.19287301 -113.84714191 206.48698365 -111 205.16796875 C-110.73154216 194.60944695 -110.73154216 194.60944695 -112 184.16796875 C-112.33 183.83796875 -112.66 183.50796875 -113 183.16796875 C-117.40744316 190.19233129 -117.4485551 195.99429808 -117 204.16796875 C-120.16115776 202.79813372 -120.9927092 202.17890495 -123 199.16796875 C-123.86531047 194.69609708 -123.75573257 190.65298886 -123 186.16796875 C-120.99487305 183.2253418 -120.99487305 183.2253418 -118.51171875 180.1796875 C-111.70997525 170.69682349 -112.88655994 159.98562591 -113.125 148.79296875 C-113.17001467 144.70177873 -113.18974976 140.61095539 -113.1953125 136.51953125 C-113.2005468 135.0471978 -113.2005468 135.0471978 -113.20588684 133.54512024 C-113.16169456 125.1227453 -111.9940792 117.34645874 -110 109.16796875 C-109.74516846 108.10449219 -109.49033691 107.04101562 -109.2277832 105.9453125 C-108.33432111 102.29933141 -107.38896137 98.66721932 -106.44628906 95.03369141 C-105.84834776 92.70623679 -105.26693239 90.37509261 -104.6875 88.04296875 C-104.49164307 87.29539307 -104.29578613 86.54781738 -104.09399414 85.77758789 C-103.63982424 83.9274162 -103.30910392 82.04782522 -103 80.16796875 C-103.99 79.17796875 -103.99 79.17796875 -105 78.16796875 C-106.15539801 71.8436849 -104.96114751 66.17207581 -101.859375 60.61328125 C-96.68256788 53.80512735 -89.2044049 49.68441878 -81.625 46.04296875 C-73.64702453 41.95365917 -68.4558844 35.54755657 -62.58105469 28.91845703 C-55.41644073 20.98604781 -47.21413443 15.47307645 -38 10.16796875 C-37.2059375 9.68328125 -36.411875 9.19859375 -35.59375 8.69921875 C-24.40354769 2.0499681 -12.84082034 0.01585729 0 0 Z " fill="#845E3E" transform="translate(208,31.83203125)"/>
<path d="M0 0 C0.93423645 3.01031744 1.04449911 3.86650268 0 7 C-2.31 7.33 -4.62 7.66 -7 8 C-6.23445801 8.50337891 -5.46891602 9.00675781 -4.68017578 9.52539062 C-1.78873823 11.43002964 1.09969542 13.33907051 3.98632812 15.25097656 C5.22639792 16.07106409 6.46757579 16.88947903 7.70996094 17.70605469 C17.81888657 24.35279578 27.3575826 31.38858061 36.25 39.625 C36.75305664 40.09010986 37.25611328 40.55521973 37.77441406 41.03442383 C41.26698955 44.2774488 44.67668278 47.58436841 48 51 C51.84689135 49.43997033 54.06444182 47.00704097 56.875 44 C65.74172787 34.86781021 76.38052947 28.31220996 87.0625 21.5 C87.87203125 20.9831665 88.6815625 20.46633301 89.515625 19.93383789 C93.24803402 17.58896912 96.79741268 15.4205929 101 14 C98.36 13.67 95.72 13.34 93 13 C93 10.03 93 7.06 93 4 C94.216875 4.45375 95.43375 4.9075 96.6875 5.375 C100.52715317 6.66089324 104.24328935 7.4255263 108.25 8 C110.50015429 8.33229023 112.75015332 8.66563339 115 9 C116.07765625 9.15597656 117.1553125 9.31195313 118.265625 9.47265625 C128.14488474 11.27430869 136.78546995 15.79733857 143.19921875 23.71484375 C145.42668884 27.77840632 146.53981496 31.79992531 147.75 36.25 C150.15064229 44.36612721 153.11984474 49.82583698 159 56 C160.83724585 58.12509962 162.63410612 60.28366291 164.4375 62.4375 C165.383502 63.55130184 166.33011205 64.66458752 167.27734375 65.77734375 C170.47243563 69.54542584 173.58743884 73.37709673 176.703125 77.2109375 C178.73427306 79.67733157 180.80096887 82.10856432 182.88330078 84.53173828 C187.65389758 90.09317357 192.19595079 95.78749897 196.625 101.625 C206.37384013 114.79043355 206.37384013 114.79043355 217.98046875 126.265625 C220.22308017 128.19158142 222.25375506 130.25409047 224.3125 132.375 C228.43244466 136.55898525 232.85491427 140.20696192 237.43359375 143.875 C240.24527775 146.20309147 242.77972257 148.68222392 245.30859375 151.30859375 C247.80523032 153.80523032 250.49822242 156.05751039 253.203125 158.32421875 C255 160 255 160 258 164 C127.32 164 -3.36 164 -138 164 C-136.35 162.35 -134.7 160.7 -133 159 C-132.31679687 158.29359375 -131.63359375 157.5871875 -130.9296875 156.859375 C-126.15248507 151.9550227 -121.16198442 147.55939319 -115.7734375 143.3359375 C-109.52783115 138.07555356 -104.54918531 132.36553952 -99.875 125.6875 C-98.74232966 124.09495096 -97.60951285 122.5025061 -96.4765625 120.91015625 C-95.90325195 120.09949707 -95.32994141 119.28883789 -94.73925781 118.45361328 C-91.93253948 114.49410749 -89.09117976 110.55981014 -86.25 106.625 C-85.70609619 105.86791748 -85.16219238 105.11083496 -84.60180664 104.33081055 C-82.29373534 101.12646221 -79.97928577 97.93821818 -77.53515625 94.8359375 C-70.95595541 86.44138599 -65.95070639 77.41227113 -61 68 C-60.66194336 67.36239746 -60.32388672 66.72479492 -59.97558594 66.06787109 C-53.71162611 54.18562114 -47.1987644 41.7100256 -46.6875 28.125 C-46.020659 18.92259414 -46.020659 18.92259414 -42 15 C-34.17557579 9.41903902 -26.33921463 6.4220732 -17.015625 4.53515625 C-14.82622449 4.0637461 -14.82622449 4.0637461 -12.5625 2.4375 C-8.61828823 0.2248934 -4.45607891 0.25092483 0 0 Z " fill="#000000" transform="translate(177,355)"/>
<path d="M0 0 C1.98 0 3.96 0 6 0 C6.58008442 3.31476814 6.45278624 5.33177514 4.546875 8.14453125 C-0.26498108 13.75499369 -0.26498108 13.75499369 -4 15 C4.83780544 15.36824189 11.55478929 14.0517684 19.3359375 9.8046875 C21 9 21 9 23 9 C23.14695312 10.12277344 23.29390625 11.24554688 23.4453125 12.40234375 C24.59342506 20.32591256 25.54987947 26.910546 30.6953125 33.3359375 C32 35 32 35 33 38 C34.74867483 39.08431094 34.74867483 39.08431094 37 40 C38.03125 40.53625 39.0625 41.0725 40.125 41.625 C42.76956354 43.1438185 42.76956354 43.1438185 45 43 C44.0925 42.443125 43.185 41.88625 42.25 41.3125 C38.57596747 38.69828455 36.02076161 36.04152322 34 32 C33.41473345 27.20273323 33.53246051 23.85715572 35.875 19.5625 C38 17 38 17 40 15 C43.4306843 15.14916019 45.42927183 15.56066203 48.16870117 17.66943359 C50.53667011 20.68298265 50.4767129 22.36247882 50.42578125 26.1640625 C50.41740234 27.36933594 50.40902344 28.57460937 50.40039062 29.81640625 C50.37138672 31.07324219 50.34238281 32.33007812 50.3125 33.625 C50.30283203 34.85863281 50.29316406 36.09226563 50.28320312 37.36328125 C50.19853856 44.29105109 49.84938046 51.1231124 49 58 C47.94872925 57.99214478 47.94872925 57.99214478 46.8762207 57.98413086 C43.68832299 57.96329148 40.50043964 57.95031768 37.3125 57.9375 C35.65831055 57.92493164 35.65831055 57.92493164 33.97070312 57.91210938 C32.90400391 57.90888672 31.83730469 57.90566406 30.73828125 57.90234375 C29.75899658 57.89710693 28.77971191 57.89187012 27.77075195 57.88647461 C25.06765549 57.99722797 22.64134364 58.44306594 20 59 C17.04304368 59.22593091 14.08984488 59.23052647 11.125 59.25 C10.34769531 59.270625 9.57039063 59.29125 8.76953125 59.3125 C3.37872694 59.3487407 -0.15018089 58.32028148 -5 56 C-7.32171592 56.03375833 -7.32171592 56.03375833 -9 57 C-10.35700647 59.71401294 -10.1123861 61.84846316 -10.09765625 64.8828125 C-10.09443359 66.04941406 -10.09121094 67.21601563 -10.08789062 68.41796875 C-10.07951172 69.64128906 -10.07113281 70.86460937 -10.0625 72.125 C-10.05798828 73.35605469 -10.05347656 74.58710938 -10.04882812 75.85546875 C-10.0370133 78.90369392 -10.02054028 81.95182314 -10 85 C-8.90558594 84.79503906 -7.81117188 84.59007812 -6.68359375 84.37890625 C-3 84 -3 84 -0.0625 85.9375 C0.618125 86.618125 1.29875 87.29875 2 88 C0.07423885 85.56070254 -1.80090595 83.19909405 -4 81 C-2.21118264 79.99491199 -0.41885304 78.99607264 1.375 78 C2.37273437 77.443125 3.37046875 76.88625 4.3984375 76.3125 C7 75 7 75 9 75 C9.45572917 76.92057292 9.91145833 78.84114583 10.3671875 80.76171875 C11.07299569 83.25818846 12.00249912 85.60683613 13 88 C15.06183633 88.08150744 17.12461349 88.1394194 19.1875 88.1875 C20.91033203 88.23970703 20.91033203 88.23970703 22.66796875 88.29296875 C26.3044035 87.97323533 28.1105914 87.18158273 31 85 C32.38226016 82.23547967 32.09525387 79.9538637 32.0625 76.875 C32.05347656 75.77929688 32.04445313 74.68359375 32.03515625 73.5546875 C32.02355469 72.71164063 32.01195312 71.86859375 32 71 C37.75 72.875 37.75 72.875 40 74 C40 74.66 40 75.32 40 76 C40.845625 76.0825 41.69125 76.165 42.5625 76.25 C46.72113491 77.15733853 49.39582699 78.76541273 53 81 C48.68944726 83.35979165 44.08212238 84.52984115 39.38671875 85.90234375 C35.9479711 86.94436214 35.9479711 86.94436214 32.609375 88.5546875 C28.53424734 90.18650269 24.8963863 90.75530091 20.5625 91.1875 C19.83095703 91.26935547 19.09941406 91.35121094 18.34570312 91.43554688 C16.56485534 91.63341885 14.78255073 91.81810707 13 92 C24.58270643 92.57913532 34.88700517 88.82576787 45.65234375 84.98828125 C50.87655624 83.44601082 50.87655624 83.44601082 54 84 C56.09765625 85.828125 56.09765625 85.828125 58.0625 88.25 C60.59785121 91.32254444 63.16951458 94.19737369 66 97 C67.24121828 98.38512764 68.47080669 99.78078084 69.6875 101.1875 C71.78723612 103.64616382 71.78723612 103.64616382 74 106 C74.07319621 108.69654854 74.09242537 111.36691458 74.0625 114.0625 C74.05798828 114.82111328 74.05347656 115.57972656 74.04882812 116.36132812 C74.0370068 118.24091871 74.01907078 120.12046899 74 122 C74.99 121.01 75.98 120.02 77 119 C75.93254403 127.53964777 71.63632158 132.81837664 65.31640625 138.3359375 C62.17009444 140.59618848 59.62786861 142.26397869 55.6875 141.625 C55.130625 141.41875 54.57375 141.2125 54 141 C54.68707031 140.61328125 55.37414062 140.2265625 56.08203125 139.828125 C56.98308594 139.30734375 57.88414062 138.7865625 58.8125 138.25 C59.70582031 137.73953125 60.59914063 137.2290625 61.51953125 136.703125 C63.97930611 135.01420872 65.37834834 133.47827164 67 131 C66.48050781 131.40992188 65.96101562 131.81984375 65.42578125 132.2421875 C64.72839844 132.78101563 64.03101563 133.31984375 63.3125 133.875 C62.62800781 134.40867187 61.94351563 134.94234375 61.23828125 135.4921875 C55.19392993 139.56394947 49.37737467 139.37788691 42.33007812 139.56640625 C37.68620881 139.52618906 37.68620881 139.52618906 34 142 C33.83312552 144.58354218 33.83312552 144.58354218 34 147 C35.32 147.33 36.64 147.66 38 148 C38 147.34 38 146.68 38 146 C41.74733798 143.50177468 44.78639035 143.7181932 49.125 143.625 C58.64020827 143.20152479 64.68271441 141.78755431 71.375 134.625 C76.75970931 128.03892129 78.6305335 123.4202494 78 115 C77.87625 114.06027344 77.7525 113.12054688 77.625 112.15234375 C76.65097568 104.61380138 76.65097568 104.61380138 78.8125 100.8125 C81 99 81 99 83 99 C83.59830524 117.82130216 83.16213343 131.20851859 72 147 C71.12794922 148.299375 71.12794922 148.299375 70.23828125 149.625 C60.36195737 164.18425497 47.39421428 176.73723468 31.0546875 183.71484375 C29 184 29 184 26.31640625 183.04370117 C22.69415854 181.9037491 19.67458764 181.68270444 15.8828125 181.5859375 C15.20084808 181.56657135 14.51888367 181.5472052 13.81625366 181.5272522 C11.5859621 181.46700972 9.35563406 181.42065417 7.125 181.375 C5.56704781 181.33631755 4.00910514 181.29724976 2.45117188 181.2578125 C-9.50876245 180.97373073 -21.46664863 180.92512721 -33.42919922 181.03662109 C-40.63355138 181.08664476 -47.86414156 181.13223219 -55 180 C-55.33 179.67 -55.66 179.34 -56 179 C-56.33 180.32 -56.66 181.64 -57 183 C-66.98223233 182.19946091 -74.62865239 179.49745196 -83 174 C-83.78592529 173.54761963 -84.57185059 173.09523926 -85.3815918 172.62915039 C-91.61186355 168.61066483 -91.61186355 168.61066483 -92.65380859 164.28686523 C-92.74336177 161.0880569 -92.57734299 158.00125686 -92.3125 154.8125 C-92.22203566 152.56300718 -92.14500328 150.31293024 -92.08203125 148.0625 C-92.0368335 146.47115234 -92.0368335 146.47115234 -91.99072266 144.84765625 C-92.0219275 135.26941232 -97.2077265 127.46091284 -101.9609375 119.484375 C-110 105.92652266 -110 105.92652266 -110 102 C-108.75863281 102.05800781 -107.51726562 102.11601562 -106.23828125 102.17578125 C-104.59639186 102.22269238 -102.95446168 102.26819109 -101.3125 102.3125 C-100.49587891 102.35439453 -99.67925781 102.39628906 -98.83789062 102.43945312 C-94.26744186 102.53197233 -92.59262788 102.48446766 -88.91796875 99.48046875 C-87.96857422 98.25263672 -87.96857422 98.25263672 -87 97 C-87.8353125 97.10441406 -87.8353125 97.10441406 -88.6875 97.2109375 C-94.62023723 97.63184116 -97.73719644 96.4868581 -102.26953125 92.66015625 C-104.43715967 90.58060303 -106.33192486 88.50211271 -108 86 C-108 85.34 -108 84.68 -108 84 C-107.09121094 83.87625 -106.18242187 83.7525 -105.24609375 83.625 C-96.05469455 82.11666782 -88.98547049 79.32571599 -80.94921875 74.64453125 C-78 73 -78 73 -76 73 C-76 76.96 -76 80.92 -76 85 C-74.03964825 84.55037804 -72.08175691 84.09001752 -70.125 83.625 C-69.03445312 83.36976563 -67.94390625 83.11453125 -66.8203125 82.8515625 C-63.89591545 82.21093785 -63.89591545 82.21093785 -62 80 C-61.01 80 -60.02 80 -59 80 C-59 78.35 -59 76.7 -59 75 C-58.4225 75.350625 -57.845 75.70125 -57.25 76.0625 C-55.08133743 77.25516135 -55.08133743 77.25516135 -53.125 76.375 C-51 76 -51 76 -48 77.8125 C-47.01 78.534375 -46.02 79.25625 -45 80 C-43.6808418 80.69429379 -42.35350594 81.37530495 -41 82 C-42.12451727 84.9719385 -43.22293791 87.33440687 -45 90 C-44.29875 89.319375 -43.5975 88.63875 -42.875 87.9375 C-40 86 -40 86 -36.6875 86.25 C-35.3571875 86.62125 -35.3571875 86.62125 -34 87 C-37.12170561 79.24018236 -47.84955178 75.43587562 -55.01708984 72.12646484 C-64.96661761 68.36912967 -77.38497358 69.71264396 -87 74 C-89.16832881 75.03820232 -91.33488245 76.08011728 -93.5 77.125 C-99.06253807 79.79079523 -103.84591463 80.97221632 -110 81 C-111.78409802 77.93753253 -112.22880021 75.77920727 -112.125 72.25 C-112.09792969 71.05117187 -112.09792969 71.05117187 -112.0703125 69.828125 C-112.03550781 68.92320312 -112.03550781 68.92320312 -112 68 C-111.67 68.66 -111.34 69.32 -111 70 C-110.21496094 69.51789063 -109.42992187 69.03578125 -108.62109375 68.5390625 C-96.10246979 61.01252785 -85.58192753 59.1737003 -71.125 62.25 C-67.35949805 63.20392716 -64.09095709 64.32322818 -60.6875 66.1875 C-55.430885 69.05876029 -51.14413314 68.591485 -45.375 67 C-41.01865962 64.41846496 -38.7216848 61.19717692 -36 57 C-36.64324219 57.28875 -37.28648437 57.5775 -37.94921875 57.875 C-46.88161951 61.54480231 -54.83756612 61.6288239 -64.3203125 60.49609375 C-79.90071231 58.70691777 -95.0148236 59.34773367 -109 67 C-109.66 67 -110.32 67 -111 67 C-110.85930406 60.66868274 -108.23055936 56.80570028 -104.69140625 51.6484375 C-103.09505778 49.14884336 -101.99983659 46.78346467 -101 44 C-100.67 44 -100.34 44 -100 44 C-99.49576981 49.29441695 -100.81076967 51.81413519 -104 56 C-92.18593028 54.54209352 -83.65646876 48.98338665 -76 40 C-73.23263033 36.40051745 -70.58137995 32.73476249 -68 29 C-64.70782682 30.44678463 -62.47095171 32.27857734 -59.875 34.75 C-50.75359142 43.01486774 -41.76297187 47.58170755 -29.33203125 47.3828125 C-22.78930265 46.63112739 -17.83804831 43.96933748 -13.375 39.1875 C-12.92125 38.465625 -12.4675 37.74375 -12 37 C-12.598125 37.66 -13.19625 38.32 -13.8125 39 C-18.47258935 41.92397763 -22.63481923 41.7664544 -28 41 C-33.00918695 38.68093197 -36.44615164 34.87039223 -39 30 C-39 29.01 -39 28.02 -39 27 C-38.01 27 -37.02 27 -36 27 C-35.34 25.68 -34.68 24.36 -34 23 C-33.34 23 -32.68 23 -32 23 C-31.62875 22.2265625 -31.62875 22.2265625 -31.25 21.4375 C-30.8375 20.633125 -30.425 19.82875 -30 19 C-29.51144531 17.82179687 -29.02289063 16.64359375 -28.51953125 15.4296875 C-27.18056364 13.09698814 -26.5058862 12.1778103 -23.94189453 11.27661133 C-21.42852682 10.93135154 -18.97303295 10.76929139 -16.4375 10.6875 C-14.72746669 10.5942719 -13.01778473 10.49429021 -11.30859375 10.38671875 C-10.55376709 10.35795654 -9.79894043 10.32919434 -9.02124023 10.29956055 C-6.68892494 10.10080621 -6.68892494 10.10080621 -4 8 C-2.78581167 6.0533929 -2.78581167 6.0533929 -1.8125 3.875 C-1.29623047 2.78832031 -1.29623047 2.78832031 -0.76953125 1.6796875 C-0.51558594 1.12539062 -0.26164062 0.57109375 0 0 Z " fill="#FDDDBE" transform="translate(240,150)"/>
<path d="M0 0 C3.29217318 1.44678463 5.52904829 3.27857734 8.125 5.75 C16.46920614 13.31064807 24.89717788 18.34156268 36.375 18.125 C38.24285156 18.09792969 38.24285156 18.09792969 40.1484375 18.0703125 C41.55996094 18.03550781 41.55996094 18.03550781 43 18 C42.52417032 20.29236186 42.04423615 22.58387209 41.5625 24.875 C41.29566406 26.15117187 41.02882813 27.42734375 40.75390625 28.7421875 C40 32 40 32 39 34 C38.84713742 36.18221965 38.7486016 38.36833283 38.67578125 40.5546875 C38.61662167 41.90631143 38.55602478 43.25787307 38.49414062 44.609375 C38.40010725 46.72621925 38.31345736 48.84189935 38.25219727 50.95996094 C37.94379763 61.10234896 36.67732067 70.84279119 29.46630859 78.66333008 C29.00305176 79.08380615 28.53979492 79.50428223 28.0625 79.9375 C25.73725772 81.80214167 25.73725772 81.80214167 25.875 84.4375 C27.39442792 87.89841915 29.46110672 90.20070741 32 93 C27.73327616 92.52591957 25.7544952 90.11692878 23 87 C21.6875 84.6875 21.6875 84.6875 21 83 C20.34 83 19.68 83 19 83 C20.38836644 87.16509933 22.31755366 89.75127978 25.3125 92.9375 C26.11300781 93.80375 26.91351563 94.67 27.73828125 95.5625 C28.48464844 96.366875 29.23101562 97.17125 30 98 C34.80299948 103.39915633 36.13892292 106.63708547 36 114 C37.27875 114.20625 38.5575 114.4125 39.875 114.625 C40.95394531 114.79902344 40.95394531 114.79902344 42.0546875 114.9765625 C43.01761719 114.98816406 43.01761719 114.98816406 44 115 C44.66 114.34 45.32 113.68 46 113 C51.26292658 113.30958392 55.30278511 114.79518485 60 117 C60 117.66 60 118.32 60 119 C55.3259284 123.55603949 50.95022781 125.40590262 44.4375 125.375 C42.62318717 125.27986749 40.80926852 125.16531387 39 125 C39.33 125.99 39.66 126.98 40 128 C40.69214945 135.87985526 39.34049108 142.49092446 37 150 C40.63 150 44.26 150 48 150 C48 150.33 48 150.66 48 151 C36.28256134 151.94549937 24.68865397 152.71829577 13 151 C12.67 150.67 12.34 150.34 12 150 C11.67 151.32 11.34 152.64 11 154 C1.01776767 153.19946091 -6.62865239 150.49745196 -15 145 C-15.78592529 144.54761963 -16.57185059 144.09523926 -17.3815918 143.62915039 C-23.61186355 139.61066483 -23.61186355 139.61066483 -24.65380859 135.28686523 C-24.74336177 132.0880569 -24.57734299 129.00125686 -24.3125 125.8125 C-24.22203566 123.56300718 -24.14500328 121.31293024 -24.08203125 119.0625 C-24.05189941 118.00160156 -24.02176758 116.94070313 -23.99072266 115.84765625 C-24.0219275 106.26941232 -29.2077265 98.46091284 -33.9609375 90.484375 C-42 76.92652266 -42 76.92652266 -42 73 C-40.75863281 73.05800781 -39.51726562 73.11601562 -38.23828125 73.17578125 C-36.59639186 73.22269238 -34.95446168 73.26819109 -33.3125 73.3125 C-32.49587891 73.35439453 -31.67925781 73.39628906 -30.83789062 73.43945312 C-26.26744186 73.53197233 -24.59262788 73.48446766 -20.91796875 70.48046875 C-19.96857422 69.25263672 -19.96857422 69.25263672 -19 68 C-19.8353125 68.10441406 -19.8353125 68.10441406 -20.6875 68.2109375 C-26.62023723 68.63184116 -29.73719644 67.4868581 -34.26953125 63.66015625 C-36.43715967 61.58060303 -38.33192486 59.50211271 -40 57 C-40 56.34 -40 55.68 -40 55 C-39.09121094 54.87625 -38.18242187 54.7525 -37.24609375 54.625 C-28.05469455 53.11666782 -20.98547049 50.32571599 -12.94921875 45.64453125 C-10 44 -10 44 -8 44 C-8 47.96 -8 51.92 -8 56 C-6.03964825 55.55037804 -4.08175691 55.09001752 -2.125 54.625 C-1.03445312 54.36976563 0.05609375 54.11453125 1.1796875 53.8515625 C4.10408455 53.21093785 4.10408455 53.21093785 6 51 C6.99 51 7.98 51 9 51 C9 49.35 9 47.7 9 46 C9.86625 46.5259375 9.86625 46.5259375 10.75 47.0625 C12.91866257 48.25516135 12.91866257 48.25516135 14.875 47.375 C17 47 17 47 20 48.8125 C20.99 49.534375 21.98 50.25625 23 51 C24.3191582 51.69429379 25.64649406 52.37530495 27 53 C25.87548273 55.9719385 24.77706209 58.33440687 23 61 C24.051875 59.9790625 24.051875 59.9790625 25.125 58.9375 C28 57 28 57 31.3125 57.25 C32.199375 57.4975 33.08625 57.745 34 58 C30.87829439 50.24018236 20.15044822 46.43587562 12.98291016 43.12646484 C3.03338239 39.36912967 -9.38497358 40.71264396 -19 45 C-21.16832881 46.03820232 -23.33488245 47.08011728 -25.5 48.125 C-31.06253807 50.79079523 -35.84591463 51.97221632 -42 52 C-43.78409802 48.93753253 -44.22880021 46.77920727 -44.125 43.25 C-44.10695313 42.45078125 -44.08890625 41.6515625 -44.0703125 40.828125 C-44.04710938 40.22484375 -44.02390625 39.6215625 -44 39 C-43.67 39.66 -43.34 40.32 -43 41 C-42.21496094 40.51789063 -41.42992187 40.03578125 -40.62109375 39.5390625 C-28.10246979 32.01252785 -17.58192753 30.1737003 -3.125 33.25 C0.64050195 34.20392716 3.90904291 35.32322818 7.3125 37.1875 C12.569115 40.05876029 16.85586686 39.591485 22.625 38 C26.98134038 35.41846496 29.2783152 32.19717692 32 28 C31.35675781 28.28875 30.71351563 28.5775 30.05078125 28.875 C21.11838049 32.54480231 13.16243388 32.6288239 3.6796875 31.49609375 C-11.90071231 29.70691777 -27.0148236 30.34773367 -41 38 C-41.66 38 -42.32 38 -43 38 C-42.85930406 31.66868274 -40.23055936 27.80570028 -36.69140625 22.6484375 C-35.09505778 20.14884336 -33.99983659 17.78346467 -33 15 C-32.67 15 -32.34 15 -32 15 C-31.49576981 20.29441695 -32.81076967 22.81413519 -36 27 C-24.18593028 25.54209352 -15.65646876 19.98338665 -8 11 C-5.23263033 7.40051745 -2.58137995 3.73476249 0 0 Z " fill="#E1B390" transform="translate(172,179)"/>
<path d="M0 0 C1.03974499 3.41065139 1.11508506 6.52264842 1.09765625 10.078125 C1.09282227 11.81835938 1.09282227 11.81835938 1.08789062 13.59375 C1.07532227 15.40359375 1.07532227 15.40359375 1.0625 17.25 C1.05798828 18.47203125 1.05347656 19.6940625 1.04882812 20.953125 C1.03704815 23.96879946 1.02059853 26.98437498 1 30 C3.97 30 6.94 30 10 30 C7.8354905 33.24676426 6.54720827 33.70115507 3.05566406 35.09326172 C-0.90220601 36.83904907 -4.48582651 39.23980341 -8.125 41.5625 C-9.37796875 42.36095337 -9.37796875 42.36095337 -10.65625 43.17553711 C-22.28088868 50.6700758 -32.47403967 58.95860695 -42 69 C-45.98566774 67.41883134 -48.49179538 64.61024052 -51.375 61.5625 C-63.88133885 48.79609049 -78.65232496 39.37076931 -93.56494141 29.63476562 C-95.76837217 28.1555023 -97.89459496 26.61473601 -100 25 C-99 24 -99 24 -95.4375 23.9375 C-94.303125 23.958125 -93.16875 23.97875 -92 24 C-91.81824219 22.95199219 -91.81824219 22.95199219 -91.6328125 21.8828125 C-91.38144531 20.51769531 -91.38144531 20.51769531 -91.125 19.125 C-90.96257812 18.22007812 -90.80015625 17.31515625 -90.6328125 16.3828125 C-90 14 -90 14 -88 12 C-87.01 12 -86.02 12 -85 12 C-84.67 13.32 -84.34 14.64 -84 16 C-79.98576427 16.17453199 -76.41978645 15.96904634 -72.484375 15.140625 C-71.60475098 14.95838379 -70.72512695 14.77614258 -69.81884766 14.58837891 C-68.88862793 14.39421387 -67.9584082 14.20004883 -67 14 C-65.08629384 13.6154101 -63.17221996 13.23264613 -61.2578125 12.8515625 C-60.26418701 12.65280518 -59.27056152 12.45404785 -58.24682617 12.24926758 C-56.10901782 11.82177278 -53.97115715 11.39453951 -51.83325195 10.9675293 C-46.67019561 9.93597564 -41.5077367 8.90181585 -36.34765625 7.85546875 C-34.62764644 7.50760339 -32.90759602 7.15993881 -31.1875 6.8125 C-30.37071777 6.64709717 -29.55393555 6.48169434 -28.71240234 6.3112793 C-24.23693523 5.41462006 -19.76346401 4.62494396 -15.25 3.9375 C-10.22958731 3.14817166 -4.8823578 0 0 0 Z " fill="#E2BB95" transform="translate(269,338)"/>
<path d="M0 0 C0.33 0.66 0.66 1.32 1 2 C2.67896362 1.99214478 2.67896362 1.99214478 4.3918457 1.98413086 C23.42745996 1.90352407 42.46972114 1.8312264 61.50180054 2.26345825 C62.98951531 2.29591095 64.47734355 2.32355209 65.96524048 2.34616089 C68.03473334 2.37927629 70.1029253 2.43108382 72.171875 2.48828125 C73.3278418 2.51446533 74.48380859 2.54064941 75.67480469 2.56762695 C79.62500439 3.08126893 82.41794017 4.28893186 86 6 C85.77124023 7.8671875 85.77124023 7.8671875 85 10 C78.65462662 14.0372902 70.73616388 14.96003494 63.4375 16 C56.38043528 17.08570226 49.4227468 18.24485281 42.5 20 C34.36236578 22.05525603 26.13156185 23.39084525 17.84375 24.69335938 C16.85503906 24.84998047 15.86632812 25.00660156 14.84765625 25.16796875 C13.96086182 25.30485107 13.07406738 25.4417334 12.16040039 25.58276367 C9.96208827 25.90666681 9.96208827 25.90666681 8 27 C5.6670134 27.04022391 3.33293334 27.04320247 1 27 C-0.79945982 22.39902822 -1.19344741 18.6736227 -1.0625 13.75 C-0.76097134 9.21085449 -0.76097134 9.21085449 -2 5 C-1.0625 2.375 -1.0625 2.375 0 0 Z " fill="#C07F58" transform="translate(184,328)"/>
<path d="M0 0 C6.78576968 0.48906448 12.27641346 1.961094 18.5625 4.5 C28.55341624 8.51571936 40.8133566 11.65016341 51.4375 8.2109375 C53.38685977 7.24364155 55.18579519 6.19943872 57 5 C61.92857143 2 61.92857143 2 64 2 C63.54870825 6.66881828 61.94956322 8.42945806 58.4375 11.4375 C57.08978516 12.59378906 57.08978516 12.59378906 55.71484375 13.7734375 C45.68421053 22 45.68421053 22 43 22 C42.89042969 22.70125 42.78085938 23.4025 42.66796875 24.125 C40.68562401 35.98683518 40.68562401 35.98683518 38 41 C33.52411954 43.99742221 28.26990778 44.68313619 23 44 C20.65712896 42.77531741 19.02725157 41.64549641 17 40 C16.11570313 39.32066406 15.23140625 38.64132812 14.3203125 37.94140625 C5.23115819 30.79303953 1.62745483 25.186588 -1 14 C0.21236328 13.87044922 0.21236328 13.87044922 1.44921875 13.73828125 C8.49112846 13.04910684 8.49112846 13.04910684 14.25 9.375 C14.8275 8.59125 15.405 7.8075 16 7 C15.43152344 7.05800781 14.86304688 7.11601562 14.27734375 7.17578125 C9.73831874 7.44099974 6.73570083 7.27907066 2.9375 4.625 C1.968125 3.75875 0.99875 2.8925 0 2 C0 1.34 0 0.68 0 0 Z " fill="#FDDDBE" transform="translate(137,240)"/>
<path d="M0 0 C0 3.96 0 7.92 0 12 C1.96035175 11.55037804 3.91824309 11.09001752 5.875 10.625 C6.96554688 10.36976563 8.05609375 10.11453125 9.1796875 9.8515625 C12.10408455 9.21093785 12.10408455 9.21093785 14 7 C14.99 7 15.98 7 17 7 C17 5.35 17 3.7 17 2 C17.5775 2.350625 18.155 2.70125 18.75 3.0625 C20.91866257 4.25516135 20.91866257 4.25516135 22.875 3.375 C25 3 25 3 28 4.8125 C28.99 5.534375 29.98 6.25625 31 7 C32.3191582 7.69429379 33.64649406 8.37530495 35 9 C33.87548273 11.9719385 32.77706209 14.33440687 31 17 C31.70125 16.319375 32.4025 15.63875 33.125 14.9375 C36 13 36 13 39.3125 13.25 C40.6428125 13.62125 40.6428125 13.62125 42 14 C42.33 13.34 42.66 12.68 43 12 C43 12.99 43 13.98 43 15 C42.01 15 41.02 15 40 15 C40 15.66 40 16.32 40 17 C39.41992188 17.31453125 38.83984375 17.6290625 38.2421875 17.953125 C34.6179595 19.93867565 31.0336484 21.90870615 27.625 24.25 C20.82013335 28.78657776 11.48239163 27.546008 3.6875 26.375 C-1.83638123 25.26860858 -6.92962672 23.19204775 -12.14086914 21.10522461 C-16.85892882 19.26724743 -20.99763477 18.5579739 -26.0703125 18.3359375 C-28 18 -28 18 -30.625 15.5625 C-32 13 -32 13 -32 11 C-31.09121094 10.87625 -30.18242187 10.7525 -29.24609375 10.625 C-20.05469455 9.11666782 -12.98547049 6.32571599 -4.94921875 1.64453125 C-2 0 -2 0 0 0 Z " fill="#C79B7B" transform="translate(164,223)"/>
<path d="M0 0 C4.06345725 1.74642205 8.35585876 1.23652817 12.5234375 -0.0234375 C14.8359375 -0.2109375 14.8359375 -0.2109375 17.3984375 1.8515625 C21.53193753 6.83295997 23.93871397 10.33802535 24.8359375 16.7890625 C23.21072748 15.92613808 21.58575634 15.0627611 19.96191406 14.19726562 C18.5745423 13.46057319 17.18450769 12.72887591 15.79199219 12.00195312 C12.20193202 10.11562193 8.90018509 8.1313108 5.5859375 5.7890625 C-2.25635008 1.36750608 -15.11723117 2.61845659 -23.5390625 4.9140625 C-27.37556384 6.30429295 -30.99170019 8.14178556 -34.6640625 9.9140625 C-40.22660057 12.57985773 -45.00997713 13.76127882 -51.1640625 13.7890625 C-52.94816052 10.72659503 -53.39286271 8.56826977 -53.2890625 5.0390625 C-53.27101563 4.23984375 -53.25296875 3.440625 -53.234375 2.6171875 C-53.21117188 2.01390625 -53.18796875 1.410625 -53.1640625 0.7890625 C-52.8340625 1.4490625 -52.5040625 2.1090625 -52.1640625 2.7890625 C-51.37902344 2.30695313 -50.59398437 1.82484375 -49.78515625 1.328125 C-33.84485022 -8.25561728 -16.63882278 -9.19698643 0 0 Z " fill="#C69A79" transform="translate(181.1640625,217.2109375)"/>
<path d="M0 0 C0.99 0.33 1.98 0.66 3 1 C3 1.66 3 2.32 3 3 C5.34324873 7.17047466 5.34324873 7.17047466 9 10 C16.47418893 10.66904504 22.90203648 10.936415 29.6875 7.5 C37.93793248 3.47124686 47.05449713 4.60222566 56 5 C55.05749499 8.91228496 53.62778353 12.31979377 52 16 C44.25 15.125 44.25 15.125 42 14 C27.52547349 12.40343412 18.1094515 15.18911539 6 23 C4.50498098 23.93531382 3.00890613 24.86894234 1.51171875 25.80078125 C0.34098405 26.53359577 -0.82965041 27.26657059 -2 28 C-4.47273477 25.52726523 -3.23400588 19.00828013 -3.25 15.6875 C-3.270625 14.62853516 -3.29125 13.56957031 -3.3125 12.47851562 C-3.31765625 11.45822266 -3.3228125 10.43792969 -3.328125 9.38671875 C-3.3374707 8.45045654 -3.34681641 7.51419434 -3.35644531 6.54956055 C-2.94134589 3.58046242 -1.96938063 2.2140908 0 0 Z " fill="#C79D7D" transform="translate(232,205)"/>
<path d="M0 0 C0.80002441 -0.00644531 1.60004883 -0.01289063 2.42431641 -0.01953125 C7.99704316 0.10013912 12.25758618 1.29845813 17.375 3.5 C17.375 4.49 17.375 5.48 17.375 6.5 C14.25209365 6.01421457 11.37919641 5.5013988 8.375 4.5 C8.42140625 5.23605469 8.4678125 5.97210938 8.515625 6.73046875 C8.81211729 14.74634951 8.81211729 14.74634951 6.5625 18.625 C2.46359545 22.13834676 -1.86001468 21.83283957 -7.0234375 21.78515625 C-9.625 21.5 -9.625 21.5 -12.1875 19.75 C-12.661875 19.0075 -13.13625 18.265 -13.625 17.5 C-14.0375 16.88125 -14.45 16.2625 -14.875 15.625 C-15.625 13.5 -15.625 13.5 -15.625 7.5 C-19.585 9.48 -23.545 11.46 -27.625 13.5 C-24.28047903 17.70402626 -24.28047903 17.70402626 -20.625 21.5 C-23.54017292 20.42598892 -25.40310176 19.72189824 -27.625 17.5 C-31.20843976 17.33322718 -31.20843976 17.33322718 -34.625 17.5 C-32.38879941 11.2246621 -25.07805845 8.65079464 -19.625 5.5 C-18.82835937 4.96246094 -18.03171875 4.42492187 -17.2109375 3.87109375 C-11.61636971 0.40167097 -6.4334626 0.04936476 0 0 Z " fill="#22180A" transform="translate(264.625,217.5)"/>
<path d="M0 0 C0 3.96 0 7.92 0 12 C1.96035175 11.55037804 3.91824309 11.09001752 5.875 10.625 C6.96554688 10.36976563 8.05609375 10.11453125 9.1796875 9.8515625 C12.10408455 9.21093785 12.10408455 9.21093785 14 7 C14.99 7 15.98 7 17 7 C17 5.35 17 3.7 17 2 C17.5775 2.350625 18.155 2.70125 18.75 3.0625 C21.39786506 4.16577711 22.33185326 3.80156509 25 3 C23.69044923 8.94334578 22.42080401 13.57919599 18 18 C15.34462628 18.56520003 12.70855287 18.73788198 10 19 C15.28 19 20.56 19 26 19 C21.08568286 22.27621143 16.75736975 22.56730408 11 22 C8.26586933 21.44715276 5.57892478 20.85919544 2.875 20.1875 C1.87206909 19.93963745 1.87206909 19.93963745 0.84887695 19.68676758 C-2.42085671 18.83076363 -5.33063196 17.85255094 -8.43359375 16.46875 C-12.58486009 14.75913758 -16.52416856 14.00456483 -20.9375 13.3125 C-21.71673828 13.18294922 -22.49597656 13.05339844 -23.29882812 12.91992188 C-25.19792168 12.6053481 -27.09879356 12.30154118 -29 12 C-29 11.34 -29 10.68 -29 10 C-28.30777344 9.9484375 -27.61554688 9.896875 -26.90234375 9.84375 C-18.45300223 8.8641162 -12.29657654 5.85236309 -5.0546875 1.6796875 C-2 0 -2 0 0 0 Z " fill="#836C4E" transform="translate(164,223)"/>
<path d="M0 0 C1.98 0 3.96 0 6 0 C6.58008442 3.31476814 6.45278624 5.33177514 4.546875 8.14453125 C-0.26498108 13.75499369 -0.26498108 13.75499369 -4 15 C5.84160302 15.41006679 13.15561699 13.21746042 22 9 C22.02578125 9.96679688 22.0515625 10.93359375 22.078125 11.9296875 C22.48485832 21.26606591 23.10610206 29.52201737 29.5 36.875 C30.325 37.57625 31.15 38.2775 32 39 C33.33333333 40.33333333 34.66666667 41.66666667 36 43 C30.01553188 42.70077659 26.11227049 40.16293501 22 36 C17.41934778 29.58708689 16.25662954 23.76409145 17 16 C16.25556641 16.39832031 16.25556641 16.39832031 15.49609375 16.8046875 C8.29694441 20.54769873 1.22095706 23.21577534 -7 22 C-10.31546755 20.68865836 -13.34741722 19.30516555 -15 16 C-17.11327425 15.09274566 -17.11327425 15.09274566 -19.5625 14.375 C-20.38878906 14.11460937 -21.21507812 13.85421875 -22.06640625 13.5859375 C-22.70449219 13.39257812 -23.34257812 13.19921875 -24 13 C-24 12.67 -24 12.34 -24 12 C-22.80761719 11.87882813 -21.61523438 11.75765625 -20.38671875 11.6328125 C-18.82026592 11.46397327 -17.25386212 11.29467868 -15.6875 11.125 C-14.90181641 11.04636719 -14.11613281 10.96773437 -13.30664062 10.88671875 C-12.54931641 10.80292969 -11.79199219 10.71914062 -11.01171875 10.6328125 C-10.31522217 10.55949707 -9.61872559 10.48618164 -8.90112305 10.41064453 C-6.68233952 10.05293784 -6.68233952 10.05293784 -4 8 C-2.78581167 6.0533929 -2.78581167 6.0533929 -1.8125 3.875 C-1.46832031 3.15054688 -1.12414062 2.42609375 -0.76953125 1.6796875 C-0.38861328 0.84824219 -0.38861328 0.84824219 0 0 Z " fill="#CCA07F" transform="translate(240,150)"/>
<path d="M0 0 C-0.33 4.29 -0.66 8.58 -1 13 C2.96 13 6.92 13 11 13 C11 13.33 11 13.66 11 14 C-0.71743866 14.94549937 -12.31134603 15.71829577 -24 14 C-24.495 13.505 -24.495 13.505 -25 13 C-25.33 14.32 -25.66 15.64 -26 17 C-39.41613035 15.92407465 -49.71124451 10.48589199 -60 2 C-58 1 -58 1 -55.72265625 1.7421875 C-54.84480469 2.11601562 -53.96695313 2.48984375 -53.0625 2.875 C-42.11538825 7.48600731 -25.95691878 8.89693998 -14.6015625 4.66015625 C-11.30059586 3.08967692 -11.30059586 3.08967692 -8.515625 1.3125 C-6 0 -6 0 0 0 Z " fill="#C99C7B" transform="translate(209,316)"/>
<path d="M0 0 C2 2 2 2 2 5 C1.113125 4.9175 0.22625 4.835 -0.6875 4.75 C-4.69008159 5.05208163 -6.12835434 6.29727467 -9 9 C-9.66 8.67 -10.32 8.34 -11 8 C-9.69791667 6.50260417 -8.39583333 5.00520833 -7.09375 3.5078125 C-5.80427542 2.04063579 -5.80427542 2.04063579 -6 0 C-6.79664063 -0.39832031 -6.79664063 -0.39832031 -7.609375 -0.8046875 C-11.07291667 -2.53645833 -14.53645833 -4.26822917 -18 -6 C-18.33 -5.34 -18.66 -4.68 -19 -4 C-20.32 -4.99 -21.64 -5.98 -23 -7 C-22.8453125 -5.8553125 -22.8453125 -5.8553125 -22.6875 -4.6875 C-22.790625 -3.800625 -22.89375 -2.91375 -23 -2 C-26.62071583 0.71553687 -29.87773457 1.55396208 -34.3125 2.1875 C-36.189375 2.455625 -38.06625 2.72375 -40 3 C-40 -0.96 -40 -4.92 -40 -9 C-41.06476563 -8.37351563 -42.12953125 -7.74703125 -43.2265625 -7.1015625 C-52.54138775 -1.79682288 -60.13371714 1.46615726 -71 2 C-71.33 1.34 -71.66 0.68 -72 0 C-69.4594519 -1.69369874 -67.99913439 -2.41134806 -65.1875 -3.25 C-59.69462017 -4.99978438 -54.49038073 -7.34762994 -49.234375 -9.6953125 C-31.02624478 -17.04013797 -15.2894539 -10.44373141 0 0 Z " fill="#2D2010" transform="translate(204,232)"/>
<path d="M0 0 C5.75 1.875 5.75 1.875 8 3 C8 3.66 8 4.32 8 5 C9.2684375 5.12375 9.2684375 5.12375 10.5625 5.25 C14.72113491 6.15733853 17.39582699 7.76541273 21 10 C17.6764611 11.8194556 14.31820887 12.87516568 10.6875 13.9375 C7.05067023 15.02773532 3.51663967 16.10757961 0.0625 17.6875 C-7.39587678 20.88394719 -16.50068517 20.99984774 -24.375 19.25 C-29.30706808 16.90139615 -32.84262786 14.45198785 -36 10 C-34.21118264 8.99491199 -32.41885304 7.99607264 -30.625 7 C-29.62726563 6.443125 -28.62953125 5.88625 -27.6015625 5.3125 C-25 4 -25 4 -23 4 C-22.54427083 5.92057292 -22.08854167 7.84114583 -21.6328125 9.76171875 C-20.92700431 12.25818846 -19.99750088 14.60683613 -19 17 C-16.93816367 17.08150744 -14.87538651 17.1394194 -12.8125 17.1875 C-11.08966797 17.23970703 -11.08966797 17.23970703 -9.33203125 17.29296875 C-5.6955965 16.97323533 -3.8894086 16.18158273 -1 14 C0.38226016 11.23547967 0.09525387 8.9538637 0.0625 5.875 C0.05347656 4.77929688 0.04445313 3.68359375 0.03515625 2.5546875 C0.02355469 1.71164063 0.01195312 0.86859375 0 0 Z " fill="#EFEEED" transform="translate(272,221)"/>
<path d="M0 0 C5.26292658 0.30958392 9.30278511 1.79518485 14 4 C14 6 14 6 12.5234375 7.5078125 C6.52881701 12.02012683 1.74980902 12.62878466 -5.66796875 12.50390625 C-9.31902885 11.95175296 -11.79833213 10.80514794 -15 9 C-16.11375 8.443125 -17.2275 7.88625 -18.375 7.3125 C-19.24125 6.879375 -20.1075 6.44625 -21 6 C-21 5.34 -21 4.68 -21 4 C-14.44462172 1.99325155 -8.83059025 0.63388195 -2 2 C-1.34 1.34 -0.68 0.68 0 0 Z " fill="#D3A68B" transform="translate(218,292)"/>
<path d="M0 0 C-2.06353124 4.87743747 -5.000163 9.02230191 -9.8125 11.375 C-17.8269711 12.94646492 -21.99495965 11.75485478 -29.21875 8.2421875 C-37.28421609 4.63991472 -46.30147626 4.51809389 -55 4 C-51.93216767 1.95477844 -51.3208436 1.74990383 -47.8671875 1.76953125 C-47.06023437 1.77146484 -46.25328125 1.77339844 -45.421875 1.77539062 C-44.58140625 1.78763672 -43.7409375 1.79988281 -42.875 1.8125 C-41.64910156 1.8134668 -41.64910156 1.8134668 -40.3984375 1.81445312 C-35.56699534 1.84885422 -30.85749094 2.18426547 -26.06298828 2.76635742 C-18.28362955 3.64740432 -11.02261736 3.58791345 -3.70703125 0.65625 C-2 0 -2 0 0 0 Z " fill="#14100C" transform="translate(204,207)"/>
<path d="M0 0 C0.33 0 0.66 0 1 0 C2.43572663 8.43489397 3.30776234 15.24212733 -1.38671875 22.79296875 C-5.97870834 29.07498841 -11.03390567 34.6326853 -19 36 C-23.41622143 36.4249323 -27.83699822 36.62913858 -32.26953125 36.7890625 C-35.93542465 36.83282701 -35.93542465 36.83282701 -39 38 C-39 38.66 -39 39.32 -39 40 C-40.32 39.67 -41.64 39.34 -43 39 C-43.6875 36.6875 -43.6875 36.6875 -44 34 C-42.76196289 32.35302734 -42.76196289 32.35302734 -41 31 C-38.10036665 30.74887365 -35.337334 30.63765789 -32.4375 30.625 C-22.46822955 30.33636626 -15.52426144 27.7718353 -8 21 C-9.35108361 24.09010211 -10.79017933 25.96910153 -13.375 28.125 C-13.96023438 28.62257813 -14.54546875 29.12015625 -15.1484375 29.6328125 C-17.02200005 31.01624476 -18.88982538 32.02392804 -21 33 C-13.60939691 31.61426192 -8.81020622 27.89265603 -4.41796875 21.80859375 C-0.44884305 14.86548338 -0.1247956 7.8734677 0 0 Z " fill="#C29776" transform="translate(317,258)"/>
<path d="M0 0 C-0.94250501 3.91228496 -2.37221647 7.31979377 -4 11 C-11.75 10.125 -11.75 10.125 -14 9 C-15.40112457 8.90496596 -16.80659524 8.86927154 -18.2109375 8.8671875 C-19.46003906 8.86525391 -19.46003906 8.86525391 -20.734375 8.86328125 C-21.60578125 8.86714844 -22.4771875 8.87101563 -23.375 8.875 C-24.67050781 8.86919922 -24.67050781 8.86919922 -25.9921875 8.86328125 C-27.24515625 8.86521484 -27.24515625 8.86521484 -28.5234375 8.8671875 C-29.6669165 8.86887939 -29.6669165 8.86887939 -30.83349609 8.87060547 C-33.00497464 9.00029711 -34.91266954 9.40336595 -37 10 C-37 9.34 -37 8.68 -37 8 C-39.97 7.505 -39.97 7.505 -43 7 C-43 6.67 -43 6.34 -43 6 C-42.34515625 5.98582031 -41.6903125 5.97164062 -41.015625 5.95703125 C-35.55021433 5.67140951 -31.46435021 4.91289939 -26.5625 2.4375 C-18.15532517 -1.43759515 -9.03903127 -0.40193321 0 0 Z " fill="#C29879" transform="translate(288,210)"/>
<path d="M0 0 C1.670625 0.495 1.670625 0.495 3.375 1 C8.34270424 2.1189238 13.18357708 2.19158336 18.25 2.1875 C19.03036621 2.18814453 19.81073242 2.18878906 20.61474609 2.18945312 C23.63022357 2.16098691 26.45195713 2.11369447 29.41015625 1.5 C33.64090262 0.68320432 37.88954369 0.81556778 42.1875 0.8125 C43.10208984 0.80025391 44.01667969 0.78800781 44.95898438 0.77539062 C46.26899414 0.77249023 46.26899414 0.77249023 47.60546875 0.76953125 C48.79885864 0.76336792 48.79885864 0.76336792 50.01635742 0.75708008 C52 1 52 1 54 3 C52.58460938 3.03867188 52.58460938 3.03867188 51.140625 3.078125 C42.0424533 3.48005226 33.17541041 4.35676624 25.1328125 9.1015625 C21.94370229 10.44496057 19.00571058 10.37948753 15.5625 10.4375 C13.61537109 10.49744141 13.61537109 10.49744141 11.62890625 10.55859375 C7.14510606 9.86840707 5.80822147 8.47440539 3 5 C1.94712186 3.36622358 0.9272999 1.70818403 0 0 Z " fill="#110F0C" transform="translate(233,206)"/>
<path d="M0 0 C1.98 0 3.96 0 6 0 C6.58008442 3.31476814 6.45278624 5.33177514 4.546875 8.14453125 C-0.26498108 13.75499369 -0.26498108 13.75499369 -4 15 C2.09487487 15.25395312 7.13262453 14.66242305 13 13 C14.66394675 12.65334443 16.32943851 12.31323028 18 12 C16.63184853 14.73630293 14.81007059 14.98364599 12.03540039 15.95483398 C2.16905819 19.20337775 -4.9042994 19.93693108 -15 17 C-15 16.67 -15 16.34 -15 16 C-17.97 15.01 -20.94 14.02 -24 13 C-24 12.67 -24 12.34 -24 12 C-22.80761719 11.87882813 -21.61523438 11.75765625 -20.38671875 11.6328125 C-18.82026592 11.46397327 -17.25386212 11.29467868 -15.6875 11.125 C-14.90181641 11.04636719 -14.11613281 10.96773437 -13.30664062 10.88671875 C-12.54931641 10.80292969 -11.79199219 10.71914062 -11.01171875 10.6328125 C-10.31522217 10.55949707 -9.61872559 10.48618164 -8.90112305 10.41064453 C-6.68233952 10.05293784 -6.68233952 10.05293784 -4 8 C-2.78581167 6.0533929 -2.78581167 6.0533929 -1.8125 3.875 C-1.46832031 3.15054688 -1.12414062 2.42609375 -0.76953125 1.6796875 C-0.38861328 0.84824219 -0.38861328 0.84824219 0 0 Z " fill="#EAC8A9" transform="translate(240,150)"/>
<path d="M0 0 C0.33 0 0.66 0 1 0 C1.69037426 9.02417777 2.15178302 17.94361322 2 27 C-2.95187812 26.22784273 -5.35142642 24.48993995 -9 21 C-11.15867987 17.97784819 -12 16.72820818 -12 13 C-11.01 13 -10.02 13 -9 13 C-8.34 11.68 -7.68 10.36 -7 9 C-6.34 9 -5.68 9 -5 9 C-4.731875 8.443125 -4.46375 7.88625 -4.1875 7.3125 C-2.89596023 4.79739624 -1.52231135 2.3827482 0 0 Z " fill="#DFB18F" transform="translate(213,164)"/>
<path d="M0 0 C0.01417969 0.88042969 0.02835938 1.76085937 0.04296875 2.66796875 C-0.00009153 10.1452782 -0.00009153 10.1452782 3.5625 16.3125 C4.366875 16.869375 5.17125 17.42625 6 18 C1.33753282 17.37167364 -2.77031828 16.10117019 -7.1875 14.5 C-13.44933654 12.30287801 -19.32778826 11.15258696 -26 11 C-23 9 -23 9 -19.76953125 8.1015625 C-15.75685808 6.92894713 -12.36437794 5.31809769 -8.6875 3.375 C-2.25223214 0 -2.25223214 0 0 0 Z " fill="#E8E7E5" transform="translate(164,223)"/>
<path d="M0 0 C0.66 0 1.32 0 2 0 C2 1.65 2 3.3 2 5 C2.99 5 3.98 5 5 5 C5.33 5.66 5.66 6.32 6 7 C7.98982206 7.52192054 9.98184507 8.03830786 11.98828125 8.4921875 C14.18308423 9.04621544 16.04575096 9.86002139 18 11 C15.375 14.875 15.375 14.875 12 16 C2.32004222 16.90149225 2.32004222 16.90149225 -1.5625 14.25 C-2.036875 13.5075 -2.51125 12.765 -3 12 C-3.4125 11.401875 -3.825 10.80375 -4.25 10.1875 C-5.30936621 7.09768187 -5.12450771 4.23720057 -5 1 C-4.67 1 -4.34 1 -4 1 C-4 2.98 -4 4.96 -4 7 C-3.01 6.67 -2.02 6.34 -1 6 C-1.309375 5.071875 -1.309375 5.071875 -1.625 4.125 C-1.810625 3.073125 -1.810625 3.073125 -2 2 C-1.34 1.34 -0.68 0.68 0 0 Z " fill="#7F6849" transform="translate(254,223)"/>
<path d="M0 0 C0.66 0.165 1.32 0.33 2 0.5 C6.628819 1.27146983 11.16556547 1.55459649 15.6875 0.1875 C18 0 18 0 20.5625 2.0625 C24.69600003 7.04389747 27.10277647 10.54896285 28 17 C26.3746968 16.1370261 24.74960169 15.27365828 23.12548828 14.40844727 C21.73919322 13.67198827 20.35080407 12.93945892 18.96044922 12.21069336 C15.37156387 10.3189591 11.99216979 8.32950541 8.625 6.0625 C2.27724476 2.40363915 -5.87712165 3.08995598 -13 3 C-13 2.67 -13 2.34 -13 2 C-8.71 2 -4.42 2 0 2 C0 1.34 0 0.68 0 0 Z " fill="#BA9072" transform="translate(178,217)"/>
<path d="M0 0 C5.94814642 1.69947041 10.93274512 3.92904968 14.375 9.25 C16.46289472 13.28659645 16.44881274 16.51187262 16 21 C15.34 21.99 14.68 22.98 14 24 C7.48464236 17.62326699 3.57641527 10.28336912 0 2 C0 1.34 0 0.68 0 0 Z " fill="#DEB08D" transform="translate(125,284)"/>
<path d="M0 0 C3.7910119 1.44950455 7.3874638 3.15172566 11 5 C9.64319732 9.44044513 7.86646942 11.45164515 4 14 C-1.56360781 16.71395503 -7.93093171 16.59552185 -14 16 C-14.99 15.34 -15.98 14.68 -17 14 C-16.24074219 13.96261719 -15.48148438 13.92523438 -14.69921875 13.88671875 C-13.70535156 13.82097656 -12.71148437 13.75523437 -11.6875 13.6875 C-10.70136719 13.62949219 -9.71523437 13.57148438 -8.69921875 13.51171875 C-5.65081679 12.93380174 -4.76261438 12.51172549 -3 10 C-2.00011074 7.50981988 -2.00011074 7.50981988 -1.3125 4.8125 C-1.06113281 3.91144531 -0.80976563 3.01039063 -0.55078125 2.08203125 C-0.36902344 1.39496094 -0.18726563 0.70789063 0 0 Z " fill="#F2F1F0" transform="translate(188,227)"/>
<path d="M0 0 C-3.32644103 1.18698384 -6.66206935 2.3457623 -10 3.5 C-11.40185547 4.00080078 -11.40185547 4.00080078 -12.83203125 4.51171875 C-18.53028476 6.46426716 -23.00020743 7.21285295 -29 7 C-32.30101131 8.39924945 -32.30101131 8.39924945 -35 10 C-35.66 10 -36.32 10 -37 10 C-37 8.35 -37 6.7 -37 5 C-36.67 5.66 -36.34 6.32 -36 7 C-35.21496094 6.51789063 -34.42992187 6.03578125 -33.62109375 5.5390625 C-24.29190466 -0.06989781 -10.39646135 -6.93097423 0 0 Z " fill="#DCAE8C" transform="translate(165,213)"/>
<path d="M0 0 C0.66 0.33 1.32 0.66 2 1 C2 4.96 2 8.92 2 13 C1.01 13.495 1.01 13.495 0 14 C-1.68272986 13.37498605 -3.34630643 12.69822617 -5 12 C-7.32748694 11.31320058 -9.65986656 10.64238957 -12 10 C-12 9.34 -12 8.68 -12 8 C-12.99 8 -13.98 8 -15 8 C-15 6.35 -15 4.7 -15 3 C-11.71480525 1.90493508 -9.26336585 1.90039392 -5.8125 1.9375 C-4.18248047 1.95103516 -4.18248047 1.95103516 -2.51953125 1.96484375 C-1.68808594 1.97644531 -0.85664063 1.98804688 0 2 C0 1.34 0 0.68 0 0 Z " fill="#3B2911" transform="translate(271,220)"/>
<path d="M0 0 C0.33 0 0.66 0 1 0 C2.43572663 8.43489397 3.30776234 15.24212733 -1.38671875 22.79296875 C-5.93871663 29.0202782 -11.05875553 34.74772683 -19 36 C-21.79698614 35.93294896 -24.23692654 35.54274657 -27 35 C-24.64531828 33.64152978 -22.90801674 32.98773557 -20.1875 32.625 C-12.82870388 31.1820988 -8.19424642 26.96628366 -4 21 C-0.13255638 14.46535389 -0.30000974 7.45886288 0 0 Z " fill="#D1A786" transform="translate(317,258)"/>
<path d="M0 0 C4.099682 1.75700657 6.9738661 3.82546944 8.91796875 7.9453125 C11.25996701 14.25661299 12.15688953 20.52933142 10 27 C9.34 27 8.68 27 8 27 C7.75765625 25.94941406 7.5153125 24.89882812 7.265625 23.81640625 C5.60411493 16.79761272 3.98961191 10.08699604 0.734375 3.6015625 C0 2 0 2 0 0 Z " fill="#8E7E7B" transform="translate(325,94)"/>
<path d="M0 0 C0.66 0.33 1.32 0.66 2 1 C2.36509207 8.42353883 2.36509207 8.42353883 0.8125 10.875 C-3.59031067 13.60777904 -7.40570892 14.29457373 -12.5625 14.3125 C-14.23505859 14.33763672 -14.23505859 14.33763672 -15.94140625 14.36328125 C-19.24706463 13.97065516 -20.59221926 13.23117091 -23 11 C-21.80761719 10.87882813 -20.61523438 10.75765625 -19.38671875 10.6328125 C-17.82026592 10.46397327 -16.25386212 10.29467868 -14.6875 10.125 C-13.90181641 10.04636719 -13.11613281 9.96773437 -12.30664062 9.88671875 C-11.54931641 9.80292969 -10.79199219 9.71914062 -10.01171875 9.6328125 C-9.31522217 9.55949707 -8.61872559 9.48618164 -7.90112305 9.41064453 C-5.68233952 9.05293784 -5.68233952 9.05293784 -3 7 C-1.92863949 4.69855891 -0.92010283 2.3659787 0 0 Z " fill="#C69A79" transform="translate(239,151)"/>
<path d="M0 0 C0.721875 0.309375 1.44375 0.61875 2.1875 0.9375 C6.34896062 2.50960735 10.58740555 2.67441051 15 3 C15 3.66 15 4.32 15 5 C14.04738281 5.06058594 13.09476563 5.12117188 12.11328125 5.18359375 C10.85902344 5.26738281 9.60476562 5.35117187 8.3125 5.4375 C7.07113281 5.51871094 5.82976562 5.59992188 4.55078125 5.68359375 C0.89544772 6.00931654 -2.50797862 6.42244334 -5.9375 7.75 C-9.15933947 8.140526 -11.25680038 6.55863615 -14 5 C-14 4.34 -14 3.68 -14 3 C-12.88625 2.690625 -11.7725 2.38125 -10.625 2.0625 C-2.89834254 -0.20220994 -2.89834254 -0.20220994 0 0 Z " fill="#CE9D7F" transform="translate(211,293)"/>
<path d="M0 0 C0.33 0 0.66 0 1 0 C1.14695312 1.12277344 1.29390625 2.24554688 1.4453125 3.40234375 C2.59342506 11.32591256 3.54987947 17.910546 8.6953125 24.3359375 C10 26 10 26 11 29 C12.74867483 30.08431094 12.74867483 30.08431094 15 31 C17 32 19 33 21 34 C21 34.33 21 34.66 21 35 C17.8125 35.3125 17.8125 35.3125 14 35 C11.375 32.8125 11.375 32.8125 9 30 C7.7315625 28.9171875 7.7315625 28.9171875 6.4375 27.8125 C-0.71290629 19.5620312 -0.49867898 10.38914536 0 0 Z " fill="#F1D1B2" transform="translate(262,159)"/>
<path d="M0 0 C-1.50355499 4.51066496 -4.58116486 5.47585123 -8.65625 7.63671875 C-14.25491312 9.91935126 -20.01177089 10.49296746 -26 11 C-26.33 10.34 -26.66 9.68 -27 9 C-24.41078519 7.27385679 -22.76503839 6.50547765 -19.875 5.625 C-16.5467413 4.56969846 -13.46078475 3.32005429 -10.3125 1.8125 C-6.73155566 0.16023972 -3.99598305 -0.40984442 0 0 Z " fill="#110F0D" transform="translate(159,223)"/>
<path d="M0 0 C9.94673009 0.03152688 17.81137315 1.97241239 26.9921875 5.52734375 C33.91425132 8.14704767 40.09723448 9.30321473 47.5 9.125 C48.22703125 9.11597656 48.9540625 9.10695312 49.703125 9.09765625 C51.4688972 9.07442241 53.23449614 9.03856683 55 9 C50.08568286 12.27621143 45.75736975 12.56730408 40 12 C37.26586933 11.44715276 34.57892478 10.85919544 31.875 10.1875 C30.87206909 9.93963745 30.87206909 9.93963745 29.84887695 9.68676758 C26.57914329 8.83076363 23.66936804 7.85255094 20.56640625 6.46875 C16.41513991 4.75913758 12.47583144 4.00456483 8.0625 3.3125 C7.28326172 3.18294922 6.50402344 3.05339844 5.70117188 2.91992188 C3.80207832 2.6053481 1.90120644 2.30154118 0 2 C0 1.34 0 0.68 0 0 Z " fill="#493F37" transform="translate(135,233)"/>
<path d="M0 0 C0.66 -0.33 1.32 -0.66 2 -1 C2.66 -0.34 3.32 0.32 4 1 C3.01 1.66 2.02 2.32 1 3 C1.33 4.65 1.66 6.3 2 8 C0.68 8 -0.64 8 -2 8 C-2.33 6.35 -2.66 4.7 -3 3 C-6.96 4.98 -10.92 6.96 -15 9 C-11.65547903 13.20402626 -11.65547903 13.20402626 -8 17 C-10.91517292 15.92598892 -12.77810176 15.22189824 -15 13 C-18.58343976 12.83322718 -18.58343976 12.83322718 -22 13 C-20.5137969 8.69580141 -17.37489027 7.04729326 -13.625 4.875 C-13.0475 4.52824219 -12.47 4.18148437 -11.875 3.82421875 C-10.26171372 2.86287693 -8.63130065 1.93044555 -7 1 C-6.26523438 0.56945312 -5.53046875 0.13890625 -4.7734375 -0.3046875 C-3 -1 -3 -1 0 0 Z " fill="#322617" transform="translate(252,222)"/>
<path d="M0 0 C0 0.66 0 1.32 0 2 C-0.94359375 2.24234375 -1.8871875 2.4846875 -2.859375 2.734375 C-10.14460191 4.62861026 -17.30650871 6.66937491 -24.4140625 9.16796875 C-28.49596875 10.48133134 -32.33879655 11.15067695 -36.625 11.1875 C-37.38039063 11.20167969 -38.13578125 11.21585938 -38.9140625 11.23046875 C-41 11 -41 11 -44 9 C-42.80246094 8.92523438 -41.60492188 8.85046875 -40.37109375 8.7734375 C-30.4503254 8.01919712 -22.17916035 6.45596074 -13.1015625 2.33984375 C-8.63958754 0.41231552 -4.831365 -0.138039 0 0 Z " fill="#4C4640" transform="translate(294,232)"/>
<path d="M0 0 C7.25398658 0.47567125 13.26812223 2.29466594 20 5 C17.45440061 7.54559939 16.35055377 7.35453874 12.8125 7.4375 C6.97148769 7.35295903 4.23623633 5.95382058 0 2 C0 1.34 0 0.68 0 0 Z " fill="#F2D1B2" transform="translate(137,240)"/>
<path d="M0 0 C0 3 0 3 -1.46875 4.71875 C-7.21838744 9.76073975 -12.33690972 13.0459874 -20.125 13.3125 C-23.76823845 13.01869045 -26.62049883 12.35180047 -30 11 C-30 10.67 -30 10.34 -30 10 C-28.96101563 9.98582031 -27.92203125 9.97164063 -26.8515625 9.95703125 C-16.87217655 9.6731721 -9.14394082 8.53156691 -1.375 1.6875 C-0.92125 1.130625 -0.4675 0.57375 0 0 Z " fill="#916949" transform="translate(308,279)"/>
<path d="M0 0 C3.96 0 7.92 0 12 0 C8.25 5.75 8.25 5.75 6 8 C3.375 8.125 3.375 8.125 1 8 C0.67 5.36 0.34 2.72 0 0 Z " fill="#F4D5B6" transform="translate(214,152)"/>
<path d="M0 0 C0.969375 0.165 1.93875 0.33 2.9375 0.5 C9.71529014 1.45847537 16.27186679 1.14521416 23 0 C23 0.99 23 1.98 23 3 C17.12716554 4.99926279 10.82587401 6.61458903 4.87109375 4.1015625 C3.19856427 3.14872752 1.5911229 2.08331772 0 1 C0 0.67 0 0.34 0 0 Z " fill="#D1A685" transform="translate(226,167)"/>
<path d="M0 0 C0.33 0.66 0.66 1.32 1 2 C1.66 2.33 2.32 2.66 3 3 C-1.61441933 9.01733803 -5.78549445 13.08047152 -13.4375 14.75 C-14.7059375 14.87375 -14.7059375 14.87375 -16 15 C-14.02064898 13.50223215 -12.0362425 12.02527065 -10 10.60546875 C-5.59140421 7.47984322 -2.68514426 4.69900246 0 0 Z " fill="#F4D4B5" transform="translate(310,277)"/>
<path d="M0 0 C0.33 0 0.66 0 1 0 C1 3.63 1 7.26 1 11 C0.01 11.495 0.01 11.495 -1 12 C-3.35981813 11.06421005 -5.69631264 10.06652192 -8 9 C-7.67 7.68 -7.34 6.36 -7 5 C-4.69 5 -2.38 5 0 5 C0 3.35 0 1.7 0 0 Z " fill="#5E4727" transform="translate(272,222)"/>
<path d="M0 0 C1.98 0 3.96 0 6 0 C6.35338623 2.96844435 6.5417682 5.15598218 4.88671875 7.734375 C3.64496832 9.20348819 2.32662082 10.60704814 1 12 C-0.26237731 9.47524538 -0.09856404 7.68799534 -0.0625 4.875 C-0.05347656 3.96492187 -0.04445312 3.05484375 -0.03515625 2.1171875 C-0.02355469 1.41851562 -0.01195312 0.71984375 0 0 Z " fill="#F6D6B7" transform="translate(240,150)"/>
<path d="M0 0 C0.7734375 0.0309375 1.546875 0.061875 2.34375 0.09375 C3.1171875 0.1040625 3.890625 0.114375 4.6875 0.125 C7.25706504 0.6836011 8.18872148 1.59922845 9.84375 3.59375 C7.90284174 5.53465826 4.37081098 4.99294435 1.78125 5.15625 C0.49089844 5.24003906 -0.79945313 5.32382813 -2.12890625 5.41015625 C-3.12792969 5.47074219 -4.12695312 5.53132812 -5.15625 5.59375 C-2.77153662 0.76317675 -2.77153662 0.76317675 0 0 Z " fill="#927B5E" transform="translate(173.15625,236.40625)"/>
<path d="M0 0 C0.55353075 12.66970387 0.55353075 12.66970387 -3 18 C-4.54075504 14.91848992 -3.91454546 11.78719813 -3.6875 8.4375 C-3.65205078 7.73947266 -3.61660156 7.04144531 -3.58007812 6.32226562 C-3.46434955 4.54142737 -3.24009741 2.76836965 -3 1 C-1 0 -1 0 0 0 Z " fill="#9D7959" transform="translate(317,255)"/>
<path d="M0 0 C2.64 0 5.28 0 8 0 C8.33 1.32 8.66 2.64 9 4 C6.03 4.66 3.06 5.32 0 6 C0 4.02 0 2.04 0 0 Z " fill="#5D4525" transform="translate(164,229)"/>
<path d="M0 0 C0.66 0.33 1.32 0.66 2 1 C1.31164062 1.87011719 1.31164062 1.87011719 0.609375 2.7578125 C-2.77869815 7.07119974 -6.03970201 11.38193513 -9 16 C-9.66796875 14.28515625 -9.66796875 14.28515625 -10 12 C-8.92578125 9.74609375 -8.92578125 9.74609375 -7.3125 7.4375 C-6.79300781 6.67308594 -6.27351563 5.90867187 -5.73828125 5.12109375 C-3.99896124 2.99873249 -2.25902293 1.54046662 0 0 Z " fill="#8C7972" transform="translate(119,87)"/>
<path d="M0 0 C2.375 -0.125 2.375 -0.125 5 0 C7 2 7 2 7 5 C6.113125 4.9175 5.22625 4.835 4.3125 4.75 C0.30991841 5.05208163 -1.12835434 6.29727467 -4 9 C-4.66 8.67 -5.32 8.34 -6 8 C-4.73046875 6.50260417 -3.4609375 5.00520833 -2.19140625 3.5078125 C-0.9121848 1.99405921 -0.9121848 1.99405921 0 0 Z " fill="#403833" transform="translate(199,232)"/>
<path d="M0 0 C0.66 0 1.32 0 2 0 C2 2.31 2 4.62 2 7 C1.01 7.33 0.02 7.66 -1 8 C-1 9.65 -1 11.3 -1 13 C-2.70840281 11.36587557 -3.93453047 10.13093906 -5 8 C-5.04022391 5.6670134 -5.04320247 3.33293334 -5 1 C-4.67 1 -4.34 1 -4 1 C-4 2.98 -4 4.96 -4 7 C-3.01 6.67 -2.02 6.34 -1 6 C-1.309375 5.071875 -1.309375 5.071875 -1.625 4.125 C-1.810625 3.073125 -1.810625 3.073125 -2 2 C-1.34 1.34 -0.68 0.68 0 0 Z " fill="#8C7D69" transform="translate(254,223)"/>
<path d="M0 0 C0.66 0.33 1.32 0.66 2 1 C1.67 2.98 1.34 4.96 1 7 C-1.31 7 -3.62 7 -6 7 C-6.66 5.68 -7.32 4.36 -8 3 C-5.36 2.67 -2.72 2.34 0 2 C0 1.34 0 0.68 0 0 Z " fill="#3E2C13" transform="translate(271,220)"/>
<path d="M0 0 C0.66 0 1.32 0 2 0 C2 4.62 2 9.24 2 14 C1.01 14.495 1.01 14.495 0 15 C-1.30459914 12.39080172 -1.1326594 10.41057385 -1.125 7.5 C-1.12757813 6.5203125 -1.13015625 5.540625 -1.1328125 4.53125 C-1 2 -1 2 0 0 Z " fill="#D6AC8A" transform="translate(198,154)"/>
<path d="M0 0 C3.2682346 3.14718888 6.1310659 6.49352499 9 10 C6.08482708 8.92598892 4.22189824 8.22189824 2 6 C-1.58343976 5.83322718 -1.58343976 5.83322718 -5 6 C-3.63016497 2.83884224 -3.0109362 2.0072908 0 0 Z " fill="#39342F" transform="translate(235,229)"/>
<path d="M0 0 C0.33 0.66 0.66 1.32 1 2 C2.08667969 1.98259766 2.08667969 1.98259766 3.1953125 1.96484375 C8.24783323 1.91768689 13.03378767 1.92622436 18 3 C18 3.33 18 3.66 18 4 C8.595 4.495 8.595 4.495 -1 5 C-0.67 3.35 -0.34 1.7 0 0 Z " fill="#BE8E6A" transform="translate(184,328)"/>
<path d="M0 0 C0.86625 0.5259375 0.86625 0.5259375 1.75 1.0625 C4.35801776 2.14917407 5.39417629 1.93065133 8 1 C7.67 2.98 7.34 4.96 7 7 C5.35 7 3.7 7 2 7 C0.5393715 4.35261084 0 3.10551666 0 0 Z " fill="#8A7F70" transform="translate(181,225)"/>
<path d="M0 0 C-0.80824219 0.32613281 -1.61648437 0.65226563 -2.44921875 0.98828125 C-3.51785156 1.42527344 -4.58648437 1.86226562 -5.6875 2.3125 C-6.74324219 2.74175781 -7.79898438 3.17101562 -8.88671875 3.61328125 C-12.00562407 4.92618963 -12.00562407 4.92618963 -14.76953125 6.66796875 C-17 8 -17 8 -19 8 C-18 5 -18 5 -15.671875 3.6484375 C-14.22554687 3.01808594 -14.22554687 3.01808594 -12.75 2.375 C-11.79609375 1.94960937 -10.8421875 1.52421875 -9.859375 1.0859375 C-3.02173913 -1.51086957 -3.02173913 -1.51086957 0 0 Z " fill="#4D3D31" transform="translate(149,211)"/>
<path d="M0 0 C0.66 1.32 1.32 2.64 2 4 C3.32 4 4.64 4 6 4 C5.67 5.65 5.34 7.3 5 9 C4.01 9 3.02 9 2 9 C2.33 7.68 2.66 6.36 3 5 C0.36 5 -2.28 5 -5 5 C-4.34 4.01 -3.68 3.02 -3 2 C-2.01 2 -1.02 2 0 2 C0 1.34 0 0.68 0 0 Z " fill="#644D2F" transform="translate(181,228)"/>
<path d="M0 0 C0.33 0 0.66 0 1 0 C1.54990817 5.63655874 0.18170608 8.49258305 -3 13 C-4.32 13.33 -5.64 13.66 -7 14 C-4.69 9.38 -2.38 4.76 0 0 Z " fill="#CEA07D" transform="translate(139,194)"/>
<path d="M0 0 C1.10844919 3.32534757 0.84454356 5.62182575 0 9 C-2.64 7.68 -5.28 6.36 -8 5 C-7.67 4.34 -7.34 3.68 -7 3 C-4.69 3 -2.38 3 0 3 C0 2.01 0 1.02 0 0 Z " fill="#7F706B" transform="translate(177,359)"/>
<path d="M0 0 C4.82360189 -0.19294408 8.49646738 0.24252386 13 2 C13 2.99 13 3.98 13 5 C8.15340923 4.40895235 4.39251833 3.02055843 0 1 C0 0.67 0 0.34 0 0 Z " fill="#141210" transform="translate(269,219)"/>
<path d="M0 0 C0 3 0 3 -1.609375 4.7890625 C-2.31578125 5.39492188 -3.0221875 6.00078125 -3.75 6.625 C-4.44609375 7.23601562 -5.1421875 7.84703125 -5.859375 8.4765625 C-8.00217595 10.00154858 -9.38566259 10.76932317 -12 11 C-12.66 10.34 -13.32 9.68 -14 9 C-13.32453125 8.68546875 -12.6490625 8.3709375 -11.953125 8.046875 C-5.32416431 4.93666114 -5.32416431 4.93666114 0 0 Z " fill="#9E795A" transform="translate(308,279)"/>
<path d="M0 0 C4.75481646 0.57634139 7.97048212 2.55068521 12 5 C12 5.66 12 6.32 12 7 C10.56068883 6.54738642 9.12361001 6.08767021 7.6875 5.625 C6.88699219 5.36976563 6.08648437 5.11453125 5.26171875 4.8515625 C3 4 3 4 0 2 C0 1.34 0 0.68 0 0 Z " fill="#22201E" transform="translate(190,226)"/>
<path d="M0 0 C1.65 0.33 3.3 0.66 5 1 C5.33 2.65 5.66 4.3 6 6 C3.03824877 5.38722388 1.61941217 4.74627478 -1 3 C-0.67 2.01 -0.34 1.02 0 0 Z " fill="#191715" transform="translate(284,223)"/>
<path d="M0 0 C2.97 0 5.94 0 9 0 C6.42595029 3.86107457 4.38979741 3.94319692 0 5 C0 3.35 0 1.7 0 0 Z " fill="#837675" transform="translate(270,368)"/>
<path d="M0 0 C0.226875 0.556875 0.45375 1.11375 0.6875 1.6875 C2.35702054 4.62903619 4.58675821 6.6486362 7 9 C7.33 9.66 7.66 10.32 8 11 C3.73794894 10.52643877 1.71306207 8.15301808 -1 5 C-1.8125 2.6875 -1.8125 2.6875 -2 1 C-1.34 0.67 -0.68 0.34 0 0 Z " fill="#CDAF8C" transform="translate(196,261)"/>
<path d="M0 0 C2.475 0.495 2.475 0.495 5 1 C4.67 2.65 4.34 4.3 4 6 C2.68 6 1.36 6 0 6 C0 4.02 0 2.04 0 0 Z " fill="#090603" transform="translate(260,225)"/>
<path d="M0 0 C0.66 0 1.32 0 2 0 C1.34 5.28 0.68 10.56 0 16 C-0.33 16 -0.66 16 -1 16 C-0.98839844 15.37351562 -0.97679687 14.74703125 -0.96484375 14.1015625 C-0.95582031 13.28429687 -0.94679688 12.46703125 -0.9375 11.625 C-0.92009766 10.40683594 -0.92009766 10.40683594 -0.90234375 9.1640625 C-0.85533666 6.95062858 -0.85533666 6.95062858 -2 5 C-1.0625 2.375 -1.0625 2.375 0 0 Z " fill="#8B766C" transform="translate(307,335)"/>
<path d="M0 0 C1.98 0.495 1.98 0.495 4 1 C3.67 2.65 3.34 4.3 3 6 C1.68 5.67 0.36 5.34 -1 5 C-0.67 3.35 -0.34 1.7 0 0 Z " fill="#050301" transform="translate(173,227)"/>
<path d="M0 0 C0 0.66 0 1.32 0 2 C-1.26418246 2.69965443 -2.53665402 3.38434763 -3.8125 4.0625 C-4.52019531 4.44535156 -5.22789062 4.82820312 -5.95703125 5.22265625 C-8 6 -8 6 -11 5 C-9.73461631 4.15841464 -8.46246221 3.32700252 -7.1875 2.5 C-6.47980469 2.0359375 -5.77210938 1.571875 -5.04296875 1.09375 C-3 0 -3 0 0 0 Z " fill="#1D1B1A" transform="translate(247,224)"/>
<path d="M0 0 C0.33 0.66 0.66 1.32 1 2 C-4.75 6 -4.75 6 -7 6 C-7 5.34 -7 4.68 -7 4 C-9.97 3.505 -9.97 3.505 -13 3 C-13 2.67 -13 2.34 -13 2 C-12.22914063 1.93941406 -11.45828125 1.87882813 -10.6640625 1.81640625 C-9.15972656 1.69072266 -9.15972656 1.69072266 -7.625 1.5625 C-6.62726563 1.48128906 -5.62953125 1.40007812 -4.6015625 1.31640625 C-2.02072387 1.15034374 -2.02072387 1.15034374 0 0 Z " fill="#9B7D65" transform="translate(258,214)"/>
<path d="M0 0 C3.23861303 1.44424635 5.61969163 3.25772247 8.25 5.625 C8.95640625 6.25664062 9.6628125 6.88828125 10.390625 7.5390625 C10.92171875 8.02117187 11.4528125 8.50328125 12 9 C11.01 9.495 11.01 9.495 10 10 C8.70450101 8.90033225 7.41373929 7.79508199 6.125 6.6875 C5.40570313 6.07261719 4.68640625 5.45773438 3.9453125 4.82421875 C2 3 2 3 0 0 Z " fill="#85644A" transform="translate(345,169)"/>
<path d="M0 0 C0.66 0.33 1.32 0.66 2 1 C1 4 1 4 -1.9375 5.6875 C-5 7 -5 7 -7 7 C-7 5.35 -7 3.7 -7 2 C-6.67 2.66 -6.34 3.32 -6 4 C-4.02 2.68 -2.04 1.36 0 0 Z " fill="#D2A684" transform="translate(135,216)"/>
<path d="M0 0 C0.33 0.99 0.66 1.98 1 3 C-1.64 3.33 -4.28 3.66 -7 4 C-7.33 3.34 -7.66 2.68 -8 2 C-4.77208445 -0.1519437 -3.71599191 -0.20086443 0 0 Z " fill="#231F1C" transform="translate(140,230)"/>
<path d="M0 0 C0 0.66 0 1.32 0 2 C-6.0546875 2.9765625 -6.0546875 2.9765625 -8 3 C-8.66 2.34 -9.32 1.68 -10 1 C-6.78548731 -0.60725635 -3.56387464 -0.05748185 0 0 Z " fill="#947A58" transform="translate(263,236)"/>
<path d="M0 0 C1.2065625 0.0309375 1.2065625 0.0309375 2.4375 0.0625 C2.1075 1.0525 1.7775 2.0425 1.4375 3.0625 C-1.5325 3.0625 -4.5025 3.0625 -7.5625 3.0625 C-6.2425 2.4025 -4.9225 1.7425 -3.5625 1.0625 C-2.5625 0.0625 -2.5625 0.0625 0 0 Z " fill="#CEA281" transform="translate(227.5625,161.9375)"/>
<path d="M0 0 C2.97 0 5.94 0 9 0 C8 2 8 2 5.625 2.8125 C4.325625 2.9053125 4.325625 2.9053125 3 3 C2.01 2.01 1.02 1.02 0 0 Z " fill="#C8906F" transform="translate(199,297)"/>
</svg>
