<?xml version="1.0" standalone="no"?>
<!DOCTYPE svg PUBLIC "-//W3C//DTD SVG 20010904//EN"
 "http://www.w3.org/TR/2001/REC-SVG-20010904/DTD/svg10.dtd">
<svg version="1.0" xmlns="http://www.w3.org/2000/svg"
 width="246.000000pt" height="345.000000pt" viewBox="0 0 246.000000 345.000000"
 preserveAspectRatio="xMidYMid meet">

<g transform="translate(0.000000,345.000000) scale(0.100000,-0.100000)"
fill="#000000" stroke="none">
<path d="M863 3443 c9 -2 23 -2 30 0 6 3 -1 5 -18 5 -16 0 -22 -2 -12 -5z"/>
<path d="M1013 3444 c12 -13 -29 -39 -58 -37 l-30 2 30 -8 c23 -5 34 -3 48 11
10 10 22 18 28 18 6 0 7 5 4 10 -3 6 -11 10 -17 10 -6 0 -9 -3 -5 -6z"/>
<path d="M1749 3429 c7 -20 6 -32 -4 -45 -28 -38 -18 -45 35 -24 38 15 59 18
87 12 36 -8 37 -9 13 -17 -16 -5 -25 -4 -28 4 -4 12 -22 5 -22 -9 0 -5 26 -9
58 -9 53 0 107 -14 169 -43 43 -21 253 30 253 61 0 36 -166 85 -287 86 -51 0
-93 -3 -93 -7 0 -4 -12 -9 -27 -11 -16 -2 6 -2 47 0 124 8 337 -32 347 -64 2
-6 -15 -18 -38 -27 -44 -18 -68 -10 -70 23 0 11 -2 12 -6 3 -3 -7 1 -19 7 -27
18 -21 -14 -31 -45 -15 -19 10 -30 10 -53 1 -25 -10 -38 -8 -96 13 -38 14 -73
23 -79 19 -6 -3 -7 -1 -3 5 4 7 -9 16 -34 23 -33 10 -47 9 -82 -4 -48 -19 -59
-15 -34 12 16 17 15 20 -4 42 l-20 24 9 -26z m391 -113 c0 -2 -9 -6 -20 -9
-11 -3 -18 -1 -14 4 5 9 34 13 34 5z"/>
<path d="M1806 3442 c-7 -12 22 -38 31 -28 4 3 0 14 -9 22 -9 10 -18 12 -22 6z"/>
<path d="M668 3433 c7 -3 16 -2 19 1 4 3 -2 6 -13 5 -11 0 -14 -3 -6 -6z"/>
<path d="M579 3399 l-24 -20 28 17 c15 9 27 18 27 20 0 8 -8 4 -31 -17z"/>
<path d="M682 3408 c-7 -7 -12 -17 -12 -22 0 -6 5 -3 11 7 5 9 19 17 30 17 13
0 18 -4 13 -12 -4 -7 -3 -8 4 -4 7 4 12 11 12 17 0 13 -44 11 -58 -3z"/>
<path d="M806 3402 c-2 -4 12 -6 32 -4 62 6 69 10 20 11 -26 0 -49 -3 -52 -7z"/>
<path d="M760 3390 c19 -13 30 -13 30 0 0 6 -10 10 -22 10 -19 0 -20 -2 -8
-10z"/>
<path d="M1928 3393 c7 -3 16 -2 19 1 4 3 -2 6 -13 5 -11 0 -14 -3 -6 -6z"/>
<path d="M586 3381 c-3 -5 10 -11 29 -13 23 -3 32 -1 25 6 -13 13 -48 18 -54
7z"/>
<path d="M1978 3383 c7 -3 16 -2 19 1 4 3 -2 6 -13 5 -11 0 -14 -3 -6 -6z"/>
<path d="M930 3368 c0 -4 6 -8 14 -8 8 0 17 4 20 8 2 4 -4 8 -15 8 -10 0 -19
-4 -19 -8z"/>
<path d="M2088 3373 c12 -2 30 -2 40 0 9 3 -1 5 -23 4 -22 0 -30 -2 -17 -4z"/>
<path d="M2226 3361 c-4 -5 -2 -12 3 -15 5 -4 12 -2 15 3 4 5 2 12 -3 15 -5 4
-12 2 -15 -3z"/>
<path d="M37 3303 c-33 -4 -37 -7 -34 -29 3 -24 4 -24 137 -29 166 -7 187 -9
275 -29 72 -17 175 -68 175 -87 0 -6 -7 -17 -15 -26 -8 -8 -13 -19 -10 -23 10
-15 -96 -41 -130 -32 -29 8 -30 11 -30 64 0 31 -3 54 -8 51 -11 -6 -9 -91 3
-114 10 -17 7 -19 -34 -19 -25 0 -47 4 -51 9 -3 6 -28 10 -56 9 -28 0 -55 4
-60 9 -6 6 3 8 23 6 l33 -3 -28 9 c-34 12 -60 4 -53 -15 8 -20 -30 -18 -106 6
-75 24 -69 23 -65 8 3 -16 51 -28 145 -35 65 -5 71 -7 60 -22 -11 -14 -11 -14
2 -5 8 7 35 15 60 18 41 6 43 6 27 -8 -11 -8 -25 -12 -32 -10 -7 3 -16 1 -20
-5 -3 -6 -17 -11 -31 -11 -14 0 -22 -4 -19 -10 10 -17 43 -11 93 15 27 15 64
25 87 25 49 0 156 25 194 44 21 11 28 23 29 46 1 25 -7 36 -40 60 -23 17 -57
34 -77 40 -20 5 -90 23 -156 40 -66 17 -133 38 -148 46 -28 13 -59 15 -140 7z
m130 -14 c6 -6 32 -17 59 -24 l49 -14 -80 5 c-82 5 -125 11 -160 22 -15 5 -11
8 20 13 65 10 100 10 112 -2z"/>
<path d="M990 3264 c-36 -14 -55 -23 -42 -20 29 5 28 -1 -3 -30 -14 -13 -44
-59 -67 -101 -23 -43 -43 -80 -45 -82 -2 -3 -19 3 -39 12 -41 20 -36 4 6 -18
33 -17 32 -27 -10 -121 -34 -76 -61 -104 -100 -104 -23 0 -31 5 -36 24 -9 37
13 69 43 63 22 -4 23 -3 9 11 -12 13 -20 13 -40 4 -31 -14 -42 -53 -26 -92 11
-26 18 -30 51 -30 58 0 81 30 147 192 l11 27 47 -16 c62 -21 141 -12 200 22
118 69 101 231 -25 251 -37 6 -39 8 -24 20 23 17 20 17 -57 -12z m120 -42 c41
-31 54 -68 40 -115 -11 -39 -66 -101 -81 -91 -4 2 -10 0 -13 -5 -10 -15 -103
-22 -151 -10 -43 11 -46 14 -40 38 11 43 64 128 107 172 37 37 45 41 77 35 19
-3 47 -14 61 -24z"/>
<path d="M231 3216 c9 -9 139 -34 134 -26 -3 5 -18 11 -33 14 -72 13 -107 17
-101 12z"/>
<path d="M38 3203 c-21 -2 -38 -8 -38 -12 0 -6 120 3 160 13 19 5 -74 4 -122
-1z"/>
<path d="M1695 3166 c-16 -41 -20 -45 -43 -39 -18 4 -23 2 -18 -6 4 -6 11 -9
16 -6 28 18 3 -63 -65 -212 -8 -17 -15 -36 -15 -42 0 -23 -33 -61 -52 -61 -17
0 -19 5 -16 28 3 15 9 35 13 45 4 10 3 17 -4 17 -6 0 -11 -7 -11 -15 0 -26
-30 -75 -45 -75 -18 0 -20 33 -4 61 6 11 8 25 6 32 -2 7 -13 -9 -25 -35 -25
-56 -42 -62 -42 -14 0 62 -49 55 -77 -11 -7 -18 -18 -33 -24 -33 -7 0 -8 12
-3 33 13 60 12 62 -34 63 -23 0 -50 -5 -59 -11 -13 -10 -23 -10 -41 -2 -21 10
-27 8 -43 -12 -11 -13 -19 -34 -19 -47 0 -19 -5 -24 -25 -24 -35 0 -51 34 -30
66 18 28 51 34 40 7 -5 -15 -4 -16 6 -5 11 10 10 15 -3 29 -16 15 -19 15 -42
-1 -14 -9 -27 -23 -27 -31 -1 -8 -2 -24 -3 -36 0 -11 -9 -25 -19 -30 -27 -16
-31 11 -8 69 23 59 15 70 -13 18 -22 -40 -46 -54 -46 -27 0 10 -8 29 -18 41
l-17 22 -33 -41 c-36 -44 -26 -56 13 -17 26 26 35 18 35 -30 0 -25 -37 -43
-61 -28 -8 4 -9 3 -5 -4 11 -19 61 -14 81 8 23 26 35 25 35 0 0 -25 27 -37 49
-23 10 6 24 7 32 3 8 -4 36 -7 64 -7 43 2 51 5 65 31 8 16 26 41 39 55 l23 26
-6 -55 c-6 -56 0 -52 24 13 5 15 16 27 24 27 11 0 12 -6 4 -34 -15 -49 -6 -64
39 -63 21 0 44 5 51 10 8 6 17 5 27 -3 11 -9 19 -10 28 -1 10 8 17 7 25 -1 10
-10 17 -10 32 0 12 7 21 8 25 2 9 -15 41 -12 54 4 11 13 15 12 31 -4 16 -16
25 -18 46 -10 15 6 35 8 44 5 10 -3 21 -1 25 5 5 8 11 8 20 0 22 -19 52 -2 73
40 10 22 22 37 26 33 13 -13 5 -62 -11 -72 -16 -9 -16 -10 4 -11 29 0 40 39
23 80 -16 38 -26 38 -43 -2 -26 -62 -68 -76 -59 -20 9 62 -62 63 -75 1 -7 -37
-39 -57 -59 -37 -15 14 -7 60 20 123 8 17 25 62 40 101 l27 72 39 -5 c22 -3
40 -2 40 3 0 5 -14 10 -31 11 -18 1 -33 4 -35 6 -3 2 3 23 11 47 20 58 12 63
-10 6z m-542 -331 c-1 -16 -7 -33 -12 -38 -15 -15 -41 10 -34 31 17 49 49 53
46 7z m220 29 c12 -12 -15 -64 -34 -64 -23 0 -24 13 -3 45 16 25 26 30 37 19z
m347 -8 c0 -8 -9 -24 -19 -37 -15 -19 -22 -21 -32 -12 -9 9 -8 17 5 37 18 28
46 35 46 12z"/>
<path d="M460 3126 c0 -17 27 -29 35 -16 4 6 3 15 0 20 -9 15 -35 12 -35 -4z"/>
<path d="M228 3083 c6 -2 18 -2 25 0 6 3 1 5 -13 5 -14 0 -19 -2 -12 -5z"/>
<path d="M2230 2868 c0 -31 32 -197 46 -241 12 -35 24 -51 47 -64 32 -16 32
-15 15 4 -10 11 -18 28 -18 39 0 15 -2 16 -9 5 -8 -12 -11 -8 -17 15 -4 16
-10 31 -14 34 -4 3 -10 25 -13 50 -3 25 -8 54 -12 65 -6 18 -5 18 7 4 7 -8 25
-29 39 -46 15 -18 43 -36 65 -42 47 -13 64 -14 45 -2 -11 7 -7 12 20 20 29 8
27 9 -22 4 -34 -3 -64 -1 -77 6 -27 14 -82 108 -82 139 0 12 -4 22 -10 22 -5
0 -10 -6 -10 -12z"/>
<path d="M2441 2813 c0 -15 4 -37 9 -48 7 -15 9 -9 8 23 -1 24 -6 46 -10 48
-4 3 -8 -7 -7 -23z"/>
<path d="M1695 2740 c-27 -4 -78 -15 -111 -24 -78 -20 -120 -20 -175 0 -63 22
-153 20 -224 -5 -75 -26 -140 -27 -206 -1 -71 28 -120 33 -163 15 -73 -31
-131 -38 -171 -20 -21 8 -40 14 -42 11 -7 -7 77 -36 106 -36 16 0 56 9 90 20
69 22 106 20 186 -11 65 -25 127 -24 195 2 65 26 178 31 203 11 33 -28 128
-26 241 3 112 28 175 28 229 0 19 -10 24 -10 21 -1 -11 28 -107 47 -179 36z"/>
<path d="M2320 2640 c0 -5 9 -10 20 -10 10 0 43 -9 71 -21 39 -15 49 -16 40
-5 -12 14 -93 46 -118 46 -7 0 -13 -4 -13 -10z"/>
<path d="M1364 2623 c4 -7 0 -26 -9 -42 -16 -32 -20 -87 -7 -95 5 -3 7 8 4 23
-2 15 3 45 12 66 13 29 14 41 5 49 -9 8 -10 8 -5 -1z"/>
<path d="M1200 2580 c-7 -17 -10 -33 -8 -36 3 -3 11 9 17 27 14 42 7 49 -9 9z"/>
<path d="M1414 2595 c-3 -8 -4 -20 -2 -27 3 -7 7 -1 10 15 6 29 1 36 -8 12z"/>
<path d="M971 2556 c-22 -36 -28 -76 -10 -76 5 0 7 5 4 11 -10 15 3 59 18 59
7 0 13 9 13 20 0 26 -1 26 -25 -14z"/>
<path d="M2395 2580 c-8 -13 18 -23 47 -17 20 4 20 4 -5 6 -16 0 -26 5 -22 11
3 6 2 10 -4 10 -5 0 -13 -5 -16 -10z"/>
<path d="M923 2563 c9 -2 23 -2 30 0 6 3 -1 5 -18 5 -16 0 -22 -2 -12 -5z"/>
<path d="M1040 2552 c0 -6 -12 -25 -27 -43 -22 -26 -23 -29 -6 -18 23 14 48
58 38 67 -3 3 -5 0 -5 -6z"/>
<path d="M1401 2534 c0 -11 3 -14 6 -6 3 7 2 16 -1 19 -3 4 -6 -2 -5 -13z"/>
<path d="M1055 2506 l-20 -22 41 0 c27 -1 41 4 41 13 0 16 -3 16 -29 2 -18 -9
-19 -8 -13 10 8 25 6 25 -20 -3z"/>
<path d="M1171 2507 c-13 -21 -12 -21 5 -5 10 10 16 20 13 22 -3 3 -11 -5 -18
-17z"/>
<path d="M894 2498 l-19 -23 23 19 c21 18 27 26 19 26 -2 0 -12 -10 -23 -22z"/>
<path d="M1240 2504 c0 -8 5 -12 10 -9 6 4 8 11 5 16 -9 14 -15 11 -15 -7z"/>
<path d="M1386 2493 c-6 -14 -5 -15 5 -6 7 7 10 15 7 18 -3 3 -9 -2 -12 -12z"/>
<path d="M1427 2496 c-4 -11 -3 -24 3 -30 14 -14 18 -5 10 24 -5 23 -7 23 -13
6z"/>
<path d="M1495 2501 c-3 -7 0 -8 10 -5 12 5 14 2 6 -17 -9 -26 -19 -28 -131
-33 -44 -1 -84 -11 -125 -29 -33 -14 -55 -26 -50 -26 16 -1 98 29 112 40 7 6
37 7 75 3 79 -8 110 -23 53 -25 -22 -1 -32 -3 -22 -6 11 -3 35 -2 54 2 33 6
34 7 17 20 -17 13 -14 14 31 9 74 -8 183 -42 205 -64 15 -15 19 -16 24 -4 3 7
2 13 -2 12 -4 -2 -20 6 -36 17 -16 11 -65 29 -110 40 -73 19 -81 23 -81 45 0
25 -19 38 -30 21z"/>
<path d="M1600 2490 c-13 -8 -12 -10 3 -10 9 0 17 5 17 10 0 12 -1 12 -20 0z"/>
<path d="M1450 2480 c0 -5 4 -10 9 -10 5 0 18 -3 28 -6 16 -6 16 -5 -2 9 -23
19 -35 21 -35 7z"/>
<path d="M46 2472 c-3 -5 8 -6 25 -4 16 2 29 6 29 8 0 8 -49 4 -54 -4z"/>
<path d="M211 2471 c-1 -10 -10 -12 -33 -9 -18 3 -42 2 -53 -2 -14 -5 -4 -9
35 -12 30 -3 64 -2 75 3 16 6 16 8 3 8 -9 1 -19 7 -21 14 -4 9 -6 8 -6 -2z"/>
<path d="M1877 2451 c-46 -30 -45 -35 3 -11 53 26 58 30 39 29 -8 0 -26 -8
-42 -18z"/>
<path d="M8 2443 c7 -3 16 -2 19 1 4 3 -2 6 -13 5 -11 0 -14 -3 -6 -6z"/>
<path d="M291 2437 c2 -1 15 -11 29 -22 l25 -20 -19 23 c-11 12 -24 22 -29 22
-6 0 -8 -1 -6 -3z"/>
<path d="M13 2403 c9 -2 23 -2 30 0 6 3 -1 5 -18 5 -17 0 -22 -2 -12 -5z"/>
<path d="M68 2393 c6 -2 18 -2 25 0 6 3 1 5 -13 5 -14 0 -19 -2 -12 -5z"/>
<path d="M270 2390 c0 -5 5 -10 10 -10 6 0 10 5 10 10 0 6 -4 10 -10 10 -5 0
-10 -4 -10 -10z"/>
<path d="M1260 2369 c-52 -17 -99 -35 -105 -40 -5 -5 17 0 50 11 33 12 92 30
130 40 39 10 59 19 45 19 -14 0 -68 -14 -120 -30z"/>
<path d="M3 2375 c0 -11 4 -12 13 -4 7 5 25 7 41 4 23 -4 24 -4 8 4 -31 15
-62 13 -62 -4z"/>
<path d="M325 2368 c-27 -18 -28 -19 -5 -13 26 8 47 22 39 28 -2 3 -17 -4 -34
-15z"/>
<path d="M1109 2374 c-10 -13 -10 -17 1 -24 10 -6 3 -13 -25 -24 -21 -9 -36
-19 -33 -21 3 -3 27 4 53 16 48 21 48 22 24 34 l-24 13 25 6 c14 3 34 7 45 9
11 3 4 5 -16 6 -22 1 -42 -5 -50 -15z"/>
<path d="M1607 2328 c-3 -23 -13 -48 -22 -55 -33 -24 -118 -34 -222 -27 -59 4
-103 3 -103 -2 0 -5 65 -9 143 -9 92 0 144 -4 144 -10 0 -6 -8 -11 -18 -11
-10 0 -15 5 -11 11 3 5 -2 4 -11 -4 -20 -16 -13 -32 11 -25 15 5 15 4 -1 -6
-13 -8 -22 -9 -31 -1 -10 8 -16 8 -25 -2 -15 -19 -7 -24 29 -19 21 3 43 19 68
49 21 26 61 57 95 74 35 18 55 34 51 41 -5 7 -11 6 -19 -5 -16 -22 -27 -10
-14 14 7 15 6 19 -6 19 -19 0 -33 -32 -17 -38 13 -4 6 -22 -9 -22 -5 0 -9 16
-9 35 0 49 -16 44 -23 -7z"/>
<path d="M126 2353 c7 -2 10 -13 7 -23 -4 -14 0 -20 12 -20 21 0 73 40 54 41
-65 5 -82 6 -73 2z m44 -29 c0 -2 -7 -4 -15 -4 -8 0 -15 4 -15 10 0 5 7 7 15
4 8 -4 15 -8 15 -10z"/>
<path d="M240 2350 c0 -6 7 -10 15 -10 8 0 15 2 15 4 0 2 -7 6 -15 10 -8 3
-15 1 -15 -4z"/>
<path d="M1474 2334 c-33 -7 -100 -17 -150 -22 -67 -7 -77 -10 -39 -11 58 -1
230 25 254 39 20 12 12 11 -65 -6z"/>
<path d="M1008 2293 c6 -2 18 -2 25 0 6 3 1 5 -13 5 -14 0 -19 -2 -12 -5z"/>
<path d="M1178 2293 c6 -2 18 -2 25 0 6 3 1 5 -13 5 -14 0 -19 -2 -12 -5z"/>
<path d="M905 2270 c-44 -21 -62 -35 -85 -65 -8 -11 5 -3 29 17 24 21 62 44
85 52 22 8 34 15 26 15 -8 0 -33 -8 -55 -19z"/>
<path d="M1028 2243 c-9 -10 -19 -29 -22 -43 -6 -22 -5 -21 10 5 22 39 32 45
73 45 33 0 34 -1 17 -19 -17 -19 -16 -19 56 -19 40 0 67 3 60 5 -6 3 -10 9 -7
14 4 5 0 7 -7 5 -7 -3 -33 -7 -58 -11 -60 -8 -39 16 22 26 35 5 26 7 -43 8
-70 1 -89 -2 -101 -16z"/>
<path d="M892 2225 c-17 -14 -45 -32 -64 -40 l-33 -16 35 8 c49 11 108 7 125
-7 23 -19 17 -3 -7 20 -21 20 -22 20 -2 36 18 15 18 15 -3 4 -12 -5 -25 -15
-28 -20 -3 -6 -11 -10 -17 -10 -6 0 -1 11 12 25 30 32 20 32 -18 0z"/>
<path d="M983 2154 c-7 -7 -13 -23 -13 -36 1 -19 3 -17 16 11 16 38 15 46 -3
25z"/>
<path d="M1429 2143 c-13 -16 -12 -17 4 -4 16 13 21 21 13 21 -2 0 -10 -8 -17
-17z"/>
<path d="M69 2111 c16 -30 17 -41 8 -51 -10 -10 -7 -10 11 0 16 8 21 17 17 28
-4 9 -8 23 -9 30 -2 14 -24 32 -39 32 -4 0 1 -17 12 -39z"/>
<path d="M233 2108 c1 -10 8 -18 15 -18 12 0 12 2 1 17 -13 15 -12 15 8 5 12
-7 30 -12 40 -11 16 0 16 1 -2 9 -18 7 -16 8 10 12 17 3 7 4 -22 4 -42 -1 -51
-4 -50 -18z"/>
<path d="M357 2119 c7 -7 15 -10 18 -7 3 3 -2 9 -12 12 -14 6 -15 5 -6 -5z"/>
<path d="M1364 2088 l-29 -33 33 29 c17 17 32 31 32 33 0 8 -8 1 -36 -29z"/>
<path d="M380 2100 c-20 -6 -15 -8 25 -9 36 0 46 2 35 9 -17 11 -25 11 -60 0z"/>
<path d="M804 2103 c-37 -7 -104 -73 -133 -132 -16 -31 -40 -92 -55 -136 -23
-70 -32 -84 -71 -112 -35 -26 -53 -52 -86 -120 -22 -49 -44 -94 -48 -102 -4
-8 -17 -16 -29 -18 -20 -3 -22 0 -16 25 6 25 5 26 -8 8 -17 -22 -48 -16 -48 9
0 18 26 20 33 3 3 -7 4 -3 4 10 -2 38 -47 19 -47 -21 0 -13 -6 -18 -23 -15
-27 4 -32 44 -4 42 14 -2 17 6 17 41 0 24 -4 55 -10 69 -21 56 -110 14 -110
-51 0 -18 -4 -24 -15 -19 -12 4 -14 0 -9 -21 7 -26 7 -26 -40 -19 -31 5 -46 4
-46 -4 0 -6 -14 -16 -30 -22 l-31 -10 3 -108 c1 -60 5 -107 9 -104 4 2 9 -3
13 -11 3 -8 1 -17 -4 -20 -6 -4 -10 -1 -10 6 0 7 -3 10 -6 7 -3 -4 1 -19 10
-35 12 -22 15 -24 16 -9 0 11 3 16 7 12 4 -3 13 4 20 16 l12 23 1 -22 c0 -13
5 -23 10 -23 7 0 9 15 5 38 l-5 37 14 -35 c11 -29 14 -32 18 -15 3 11 4 -9 2
-45 l-4 -65 16 33 c19 36 34 42 34 12 0 -25 16 -26 30 -1 13 25 13 44 0 36 -6
-4 -8 -11 -5 -16 4 -5 2 -9 -4 -9 -15 0 -33 38 -21 45 13 8 1 35 -15 29 -24
-10 -27 29 -3 48 23 17 23 17 29 -10 4 -15 7 -19 8 -9 1 11 9 17 26 17 14 0
25 4 25 8 0 14 29 10 34 -5 3 -8 10 -12 15 -9 5 3 12 -2 16 -11 3 -10 1 -19
-4 -21 -6 -2 -11 -10 -11 -18 0 -12 4 -12 21 -3 15 8 19 8 15 0 -4 -6 -2 -11
3 -11 15 0 14 27 -1 33 -8 3 -6 6 5 6 11 1 23 -11 32 -31 14 -33 13 -33 -20
-43 -44 -13 -55 -25 -23 -25 20 0 29 -7 37 -32 6 -17 20 -37 31 -45 24 -17 26
-30 5 -30 -8 0 -13 3 -10 5 6 7 -15 32 -26 32 -5 0 -9 -7 -9 -15 0 -27 -28 -4
-34 28 -5 25 -9 29 -16 17 -8 -13 -10 -13 -10 1 0 9 -7 19 -15 23 -8 3 -15 13
-16 23 -1 12 -3 10 -8 -7 -4 -14 -13 -24 -19 -23 -15 4 -16 -14 -2 -19 11 -3
13 -36 7 -100 -2 -20 0 -35 5 -32 4 3 8 17 8 32 0 42 11 102 20 102 4 0 4 -16
0 -36 -6 -27 -5 -41 6 -51 8 -8 14 -19 14 -24 0 -5 11 -8 25 -7 17 2 25 8 25
20 0 21 1 21 34 8 19 -7 26 -6 26 2 0 9 3 9 12 0 10 -10 10 -15 -2 -22 -14 -9
-12 -11 20 -14 9 -1 15 -11 15 -28 -1 -21 4 -28 17 -28 10 0 23 -10 28 -22 8
-22 9 -22 9 5 1 21 -4 27 -19 27 -22 0 -25 12 -10 40 7 12 7 26 0 42 -10 22
-10 22 -5 -4 3 -15 1 -30 -5 -33 -18 -11 -10 51 9 69 18 16 18 16 14 -9 -6
-31 4 -33 17 -3 l9 23 0 -23 c1 -13 10 -37 21 -52 11 -16 19 -34 17 -42 -2 -7
-2 -10 0 -5 8 12 22 -3 17 -17 -3 -7 2 -16 12 -20 11 -4 15 -2 11 8 -4 10 -1
13 8 10 16 -6 12 -40 -4 -37 -16 4 -14 -13 4 -31 17 -17 20 -42 5 -51 -6 -4
-7 -11 -4 -17 4 -7 2 -8 -4 -4 -7 4 -12 1 -12 -6 0 -10 -2 -10 -9 0 -6 11 -14
8 -35 -13 -14 -14 -26 -21 -26 -15 0 6 -4 9 -9 6 -5 -3 -11 3 -14 14 -3 11 -1
20 4 20 5 0 9 4 9 10 0 5 -8 7 -17 3 -15 -5 -15 -3 2 14 11 11 27 18 35 16 13
-4 13 -4 0 6 -11 7 -20 5 -37 -11 -24 -22 -31 -48 -12 -48 13 0 4 -63 -10 -68
-6 -2 -11 -11 -10 -20 0 -11 2 -12 6 -4 6 15 39 16 49 0 4 -7 3 -8 -4 -4 -8 5
-13 -5 -14 -31 -1 -35 -1 -36 -5 -7 -3 26 -8 31 -24 27 -13 -4 -19 0 -19 11 0
10 -5 14 -10 11 -6 -4 -7 -11 -4 -17 5 -7 2 -8 -6 -3 -9 6 -10 2 -4 -16 9 -29
9 -38 -1 -64 -5 -16 -5 -17 4 -5 6 8 11 11 12 5 1 -5 3 -14 4 -20 2 -5 3 -21
4 -34 1 -24 1 -24 15 -5 9 12 11 23 5 29 -5 5 -9 15 -9 22 0 8 11 3 27 -13 16
-16 29 -22 31 -16 2 7 8 12 14 12 5 0 6 -9 3 -21 -5 -16 -4 -19 5 -14 7 4 16
1 21 -6 6 -10 9 -3 10 21 0 28 2 31 8 15 8 -19 9 -18 13 5 4 20 6 19 7 -10 2
-33 2 -34 14 -13 l12 23 14 -23 c13 -20 13 -21 -2 -8 -10 8 -17 9 -17 3 0 -6
5 -14 10 -17 6 -4 8 -15 5 -26 -10 -31 4 -22 19 14 9 19 15 25 15 14 1 -9 -5
-26 -11 -37 -11 -17 -10 -22 1 -29 8 -6 9 -11 3 -15 -6 -4 -15 2 -21 11 -14
24 -14 7 0 -19 7 -13 7 -18 1 -14 -6 4 -15 -1 -20 -9 -4 -9 -18 -17 -30 -18
-17 -1 -21 -6 -17 -22 5 -20 5 -20 -4 0 -5 11 -12 28 -15 38 -6 19 -33 33 -43
23 -3 -3 -1 -16 5 -28 6 -13 11 -17 11 -10 1 17 21 15 21 -3 0 -8 -4 -15 -10
-15 -19 0 -10 -18 25 -51 19 -19 35 -41 35 -51 0 -9 5 -20 11 -24 6 -3 9 -20
6 -37 -4 -31 14 -62 28 -49 5 4 5 -4 2 -18 -4 -16 0 -31 11 -44 9 -11 12 -16
5 -13 -6 4 -13 3 -15 -2 -2 -6 -17 -7 -38 -3 -19 5 -57 7 -83 6 -35 -1 -47 2
-43 11 2 7 -1 18 -7 25 -9 10 -9 11 1 6 7 -4 12 -1 12 8 0 9 -4 16 -9 16 -9 0
-33 51 -30 66 1 5 0 11 -1 14 -7 19 -7 39 1 34 5 -3 9 2 9 10 0 9 -3 16 -8 16
-4 0 -8 23 -8 50 -1 28 3 50 8 50 4 0 8 5 8 11 0 5 -4 8 -9 5 -4 -3 -6 6 -3
19 2 14 8 28 13 31 5 3 9 13 8 22 0 11 -3 12 -6 5 -2 -7 -9 -13 -14 -13 -6 0
-7 5 -4 10 4 6 -4 27 -17 48 -12 20 -23 43 -25 51 -1 7 -7 19 -14 25 -9 8 -10
6 -5 -9 9 -26 18 -84 10 -68 -3 7 -4 14 -2 15 2 2 -4 11 -12 19 -15 17 -31 9
-43 -21 -3 -8 -6 1 -7 20 -1 28 -3 31 -9 15 -7 -18 -10 -18 -41 13 -18 18 -30
26 -26 16 5 -13 2 -15 -21 -9 -44 10 -113 43 -113 53 0 5 -7 9 -15 9 -8 0 -15
-4 -15 -9 0 -5 -6 -8 -13 -7 -40 5 -57 -2 -57 -23 0 -22 4 -23 78 -23 88 0
210 -31 192 -49 -7 -7 -16 -7 -30 2 -23 14 -44 16 -35 3 3 -5 1 -12 -5 -16 -6
-4 -10 5 -10 19 0 14 -4 26 -10 26 -14 0 -13 -43 2 -58 17 -17 -11 -16 -35 2
-20 15 -22 32 -4 39 13 6 2 7 -86 10 -31 1 -57 -1 -57 -5 0 -7 21 -10 93 -10
19 -1 27 -6 27 -18 0 -10 -7 -20 -15 -24 -8 -3 -15 0 -15 7 0 8 -4 7 -10 -3
-9 -13 -12 -12 -25 4 -8 11 -15 14 -15 7 0 -8 -7 -10 -21 -6 -15 5 -19 4 -15
-4 4 -6 14 -11 22 -11 8 0 14 -8 14 -17 0 -14 2 -15 9 -5 6 10 10 7 15 -13 4
-16 3 -32 -3 -38 -6 -6 -9 -2 -8 9 1 13 -4 18 -15 16 -12 -2 -15 3 -12 20 4
21 4 21 -4 3 -6 -14 -4 -28 7 -45 9 -14 11 -21 3 -17 -8 6 -12 0 -12 -18 0
-14 -4 -24 -9 -21 -5 3 -9 -86 -10 -199 l-1 -204 42 -4 43 -4 -43 -1 c-28 -1
-42 -6 -40 -13 3 -8 51 -12 148 -14 80 -1 135 0 123 2 -13 2 -23 11 -23 18 0
11 10 10 53 -4 45 -16 91 -19 329 -20 170 -1 284 2 295 8 19 10 77 35 103 44
8 3 2 6 -15 7 l-30 1 40 20 c25 12 31 17 15 14 -88 -19 -106 -18 -122 6 -9 13
-45 54 -81 91 -36 37 -68 77 -72 90 -4 13 -15 41 -24 63 -21 46 -51 201 -51
261 0 39 3 43 53 74 41 26 65 34 115 36 34 2 62 -1 62 -6 0 -15 -22 -23 -30
-10 -8 13 -50 5 -50 -9 0 -14 68 -6 87 11 17 16 24 15 103 -14 47 -17 95 -31
108 -30 29 0 20 -11 -11 -13 -14 -1 -22 -8 -22 -21 0 -29 29 -28 61 1 16 15
23 23 15 19 -9 -4 -12 -3 -8 3 4 6 19 8 34 6 20 -3 24 -2 14 5 -8 6 -36 10
-62 10 -29 1 -75 12 -116 29 -58 24 -82 28 -164 28 -90 0 -97 -2 -128 -28 -36
-30 -54 -31 -59 -4 -2 11 3 17 13 17 15 0 16 -2 4 -17 -13 -16 -12 -17 4 -4
13 10 15 17 6 27 -6 8 -8 14 -3 14 5 0 0 8 -11 17 -19 15 -19 15 10 9 l30 -6
-30 17 c-34 18 -19 30 17 13 22 -10 22 -10 4 4 -10 8 -24 17 -30 19 -11 4 -1
40 32 117 9 19 16 37 17 40 0 3 16 34 35 70 19 35 34 69 32 75 -2 5 -1 7 3 3
4 -4 17 2 29 13 11 12 37 29 56 39 43 22 136 119 150 156 8 21 7 31 -5 44 -8
9 -15 21 -15 27 0 10 -58 8 -69 -2 -2 -2 -9 2 -16 9 -11 10 -11 24 -1 73 7 33
16 65 19 70 4 6 -3 13 -15 16 -12 4 -23 5 -23 4 -13 -27 -39 -57 -51 -57 -8 0
-12 5 -9 10 4 6 10 8 14 6 4 -3 17 15 29 40 41 83 180 261 321 409 83 88 82
87 -14 -10 -104 -104 -218 -241 -297 -357 -61 -90 -71 -98 -112 -98 -43 0 -45
12 -10 63 14 21 24 40 22 41 -1 1 -15 10 -30 19 -17 10 -28 27 -28 40 -1 24
-28 90 -29 70 -1 -7 -7 -13 -15 -13 -9 0 -13 7 -11 20 2 11 0 20 -5 20 -4 0
-8 16 -7 35 1 19 6 35 11 35 6 0 5 4 -3 9 -12 8 -10 19 13 68 18 37 25 47 22
28 -6 -27 -5 -28 6 -10 6 11 16 23 21 26 5 4 11 22 13 40 4 30 13 43 37 52 4
1 9 11 11 21 4 31 36 29 37 -2 2 -25 2 -25 6 -4 8 42 -16 56 -73 45z m-27 -75
c-3 -8 -6 -5 -6 6 -1 11 2 17 5 13 3 -3 4 -12 1 -19z m-513 -374 c9 -9 16 -32
16 -54 0 -30 -5 -40 -20 -45 -11 -3 -20 -15 -20 -26 0 -11 -7 -19 -16 -19 -8
0 -13 4 -10 9 4 5 -4 7 -16 4 -22 -4 -22 -4 -4 11 10 8 23 13 27 10 5 -3 9 2
9 11 0 13 -4 14 -21 5 -11 -7 -22 -10 -24 -8 -2 2 1 25 7 51 9 44 16 53 55 66
1 1 9 -6 17 -15z m601 -174 c-3 -5 -10 -10 -16 -10 -5 0 -9 5 -9 10 0 6 7 10
16 10 8 0 12 -4 9 -10z m20 -30 c3 -6 -1 -13 -10 -16 -19 -8 -30 0 -20 15 8
14 22 14 30 1z m-50 -10 c-3 -5 -15 -10 -25 -10 -10 0 -22 5 -25 10 -4 6 7 10
25 10 18 0 29 -4 25 -10z m-368 -167 c-1 -24 -4 -38 -5 -33 -3 7 -9 7 -18 -1
-9 -8 -14 -8 -14 -1 0 6 4 13 9 16 17 11 20 46 4 46 -8 0 -13 -6 -10 -12 2 -7
0 -21 -4 -30 -11 -20 -1 -50 13 -42 6 4 6 -2 -1 -14 -8 -16 -7 -21 5 -26 12
-4 15 -2 11 9 -4 8 -2 17 2 20 5 2 11 -4 14 -15 8 -30 8 -35 0 -35 -5 0 -13
-4 -20 -8 -6 -4 -13 -1 -16 5 -3 10 -10 10 -28 -1 -23 -13 -23 -13 -9 4 11 14
12 19 2 22 -6 3 -10 9 -7 14 3 5 1 17 -5 28 -5 11 -6 22 -1 25 5 3 11 -8 15
-26 8 -40 15 -33 9 10 -4 22 -11 32 -23 32 -10 0 -21 7 -24 16 -5 14 -4 15 9
4 9 -7 18 -10 22 -6 3 3 2 6 -4 6 -6 0 -13 7 -16 14 -4 10 -1 13 9 9 7 -3 14
0 14 7 0 6 5 8 10 5 6 -3 10 0 10 8 0 12 4 13 24 4 21 -10 24 -18 23 -54z
m435 -2 c-5 -14 -4 -14 12 -2 12 10 14 16 5 21 -6 4 -8 13 -5 19 4 6 12 9 17
5 5 -3 16 -1 24 6 11 9 12 7 8 -11 -5 -19 -3 -21 13 -16 17 6 17 5 -2 -10 -12
-10 -31 -25 -42 -32 -12 -8 -23 -22 -25 -30 -3 -11 -5 -10 -6 4 0 11 -10 26
-21 33 -17 10 -20 10 -20 -5 0 -15 -2 -16 -10 -3 -5 8 -10 10 -10 4 0 -7 -7
-14 -15 -18 -22 -8 -18 6 10 36 15 16 31 25 40 22 8 -4 15 -1 15 6 0 6 -4 8
-10 5 -11 -7 -14 8 -3 19 10 10 32 -35 25 -53z m-377 39 c-3 -5 -1 -10 4 -10
18 0 26 5 24 13 -5 13 9 7 21 -9 7 -9 31 -16 59 -18 57 -4 58 -5 59 -45 1 -29
18 -46 18 -18 0 8 3 9 8 1 4 -6 18 -13 32 -17 l25 -6 -22 16 c-23 15 -34 51
-12 37 7 -4 9 0 5 12 -3 11 -1 26 4 34 7 11 10 11 10 2 0 -8 5 -10 13 -6 8 5
8 2 -2 -9 -7 -9 -10 -17 -5 -17 15 0 36 17 34 26 -1 5 4 10 11 13 6 2 9 -1 5
-7 -3 -6 0 -13 6 -16 9 -3 7 -10 -9 -24 -21 -19 -17 -52 6 -38 17 11 13 -10
-4 -24 -11 -9 -15 -9 -15 -1 0 7 -4 9 -10 6 -5 -3 -10 -13 -10 -21 0 -8 4 -13
9 -10 5 4 6 -4 3 -16 -5 -22 -6 -22 -18 7 -8 18 -13 23 -14 13 0 -10 -4 -18
-10 -18 -5 0 -10 -9 -10 -19 0 -11 -4 -23 -10 -26 -6 -4 -7 6 -4 25 6 26 4 30
-14 30 -12 0 -26 8 -31 18 -6 9 -11 13 -11 7 0 -5 -5 -3 -10 5 -7 11 -10 11
-10 2 0 -7 -5 -10 -11 -6 -6 3 -15 1 -19 -6 -5 -9 -9 -9 -14 -1 -4 6 -2 11 3
11 6 0 11 7 11 17 0 14 -2 13 -17 -3 -10 -11 -23 -20 -30 -19 -14 0 -30 15
-16 15 5 0 10 14 11 30 1 37 -25 41 -34 5 -3 -14 -10 -23 -14 -20 -15 9 -20
-13 -10 -39 13 -34 -2 -33 -17 1 -18 38 -16 46 13 64 24 15 25 17 9 32 -16 17
-13 37 6 37 6 0 7 -4 4 -10z m-387 -65 c-6 -14 -13 -23 -15 -21 -5 5 15 46 22
46 3 0 -1 -11 -7 -25z m582 5 c0 -5 -5 -10 -11 -10 -5 0 -7 5 -4 10 3 6 8 10
11 10 2 0 4 -4 4 -10z m145 -30 c3 -5 2 -10 -4 -10 -5 0 -13 5 -16 10 -3 6 -2
10 4 10 5 0 13 -4 16 -10z m-497 -51 c-3 -8 -7 -3 -11 10 -4 17 -3 21 5 13 5
-5 8 -16 6 -23z m349 -24 c-2 -5 -10 -10 -18 -10 -8 -1 -13 -6 -11 -13 2 -14
0 -14 -22 -6 -9 3 -13 11 -10 16 4 6 0 14 -7 19 -11 7 -10 9 4 9 10 0 16 4 13
9 -4 5 7 4 24 -2 17 -6 29 -16 27 -22z m-420 -24 c0 -11 -7 -17 -14 -14 -9 4
-9 8 0 19 16 17 16 17 14 -5z m23 -41 c0 -11 -4 -20 -9 -20 -5 0 -7 9 -4 20 3
11 7 20 9 20 2 0 4 -9 4 -20z m247 -16 c-3 -3 -12 -4 -19 -1 -8 3 -5 6 6 6 11
1 17 -2 13 -5z m82 -132 c-12 -48 -12 -49 -30 -31 -21 21 -25 39 -9 39 6 0 10
-7 10 -16 0 -8 4 -13 9 -10 5 3 7 15 4 26 -3 11 0 20 6 20 6 0 11 7 11 16 0
10 -6 14 -15 10 -8 -3 -15 -1 -15 3 0 15 24 19 33 5 4 -7 2 -35 -4 -62z m-32
-97 c0 -8 -4 -12 -9 -9 -5 3 -6 10 -3 15 9 13 12 11 12 -6z m10 -97 c-3 -7 -5
-2 -5 12 0 14 2 19 5 13 2 -7 2 -19 0 -25z m-590 -54 c-3 -3 -12 -4 -19 -1 -8
3 -5 6 6 6 11 1 17 -2 13 -5z m1125 -55 c-16 -15 -49 -19 -49 -7 0 8 12 13 28
13 15 0 25 -3 21 -6z m-812 -64 c0 -15 3 -16 9 -7 12 19 35 -41 27 -72 -3 -14
-2 -27 3 -31 5 -3 12 7 14 22 3 16 4 4 3 -24 -1 -51 -15 -76 -17 -30 0 12 -3
17 -5 10 -6 -14 -34 -6 -34 10 0 6 7 18 16 28 11 13 14 27 9 46 -6 25 -7 26
-17 9 -10 -17 -12 -16 -24 14 -17 39 -18 51 -3 30 8 -11 9 -8 5 15 -5 22 -4
26 4 15 5 -8 10 -24 10 -35z m-46 -21 c-1 -16 3 -24 14 -24 12 0 13 -3 4 -12
-16 -16 -30 -1 -34 37 l-3 30 -12 -33 c-8 -21 -8 -30 -2 -26 8 4 9 -2 4 -17
-4 -14 -3 -19 2 -12 6 9 17 2 36 -23 27 -33 17 -45 -12 -14 -7 9 -6 3 3 -12 9
-15 16 -33 16 -40 1 -26 37 -91 43 -77 5 11 9 10 22 -6 9 -12 11 -21 5 -23
-14 -5 -12 -34 5 -56 15 -20 15 -20 15 0 0 12 3 15 8 7 4 -7 6 -30 4 -53 -3
-33 -7 -39 -18 -29 -11 9 -14 7 -14 -9 0 -11 -7 -23 -16 -26 -18 -7 -37 2 -29
14 3 4 -2 13 -10 20 -10 9 -15 9 -15 1 0 -6 4 -11 9 -11 5 0 4 -13 -2 -30 -7
-20 -14 -25 -19 -17 -6 9 -8 9 -8 0 0 -7 -7 -13 -15 -13 -8 0 -15 5 -15 11 0
5 5 7 11 3 9 -5 10 2 6 22 -3 16 -4 23 -1 17 11 -24 22 -13 19 19 -4 44 -5 46
-15 23 -12 -27 -12 -1 -1 47 5 22 5 36 0 32 -5 -3 -9 4 -9 14 0 29 -27 89 -32
71 -3 -8 -3 -2 -1 14 3 19 0 27 -11 27 -9 0 -13 6 -10 13 2 7 0 24 -5 38 -8
21 -10 18 -9 -19 1 -24 5 -45 10 -48 4 -3 8 -12 8 -20 0 -8 -5 -12 -10 -9 -6
4 -8 11 -5 16 4 5 -4 9 -17 9 -21 -1 -22 -2 -5 -14 9 -7 17 -23 17 -36 0 -19
2 -20 15 -10 8 7 15 9 15 4 0 -5 3 -20 6 -34 5 -21 4 -22 -6 -7 -12 18 -30 23
-30 7 0 -5 8 -17 18 -27 23 -23 42 -67 42 -98 0 -43 -19 -37 -31 10 -14 54
-26 65 -38 33 -4 -13 -12 -22 -17 -21 -5 2 -12 -9 -16 -22 -3 -14 -2 -23 3
-19 15 9 10 -3 -7 -17 -15 -12 -16 -9 -10 31 6 42 6 44 -9 26 -14 -19 -15 -18
-15 20 0 29 -3 35 -10 24 -8 -13 -10 -12 -11 5 -1 16 -2 17 -6 3 -2 -9 1 -27
7 -40 11 -22 10 -22 -4 -4 -11 14 -16 16 -15 5 1 -23 14 -51 24 -49 5 0 10 -6
11 -15 3 -19 -1 -19 -25 1 -11 10 -17 24 -13 32 4 11 1 13 -9 7 -8 -4 -11 -5
-7 0 4 4 2 15 -5 23 -10 13 -9 14 1 8 16 -10 28 22 13 37 -6 6 -11 16 -11 22
0 5 5 3 10 -5 8 -12 10 -12 10 5 0 11 -4 26 -9 34 -7 11 -11 5 -16 -23 -8 -42
-10 -42 -19 -3 -5 21 -4 27 5 21 8 -5 10 2 7 25 -3 18 -1 34 3 36 4 3 5 23 2
46 -5 36 -2 44 23 65 25 23 27 28 17 54 -6 17 -7 28 -2 24 5 -3 9 0 9 5 0 14
53 10 62 -4 5 -6 8 -2 8 8 0 10 5 15 10 12 6 -4 8 -10 5 -15 -3 -5 -1 -11 5
-15 6 -3 10 3 10 15 0 13 5 20 13 17 6 -2 11 -10 10 -16 -6 -23 17 -10 23 13
6 25 34 39 45 23 3 -5 5 -19 3 -33z m-255 -141 c5 -25 5 -43 0 -43 -5 0 -9 13
-9 29 0 17 -4 32 -10 36 -5 3 -6 13 -3 22 7 19 8 17 22 -44z m309 1 c-4 -3 2
-14 13 -25 10 -10 19 -25 19 -31 0 -9 -3 -8 -10 2 -5 8 -12 11 -16 7 -8 -8
-33 22 -34 41 0 6 8 12 17 12 9 0 14 -3 11 -6z m276 -50 c5 -12 2 -15 -9 -10
-10 4 -19 -2 -25 -17 -7 -19 -9 -19 -9 -3 -1 14 21 43 35 46 1 0 5 -7 8 -16z
m36 -5 c5 10 9 9 13 -3 4 -9 3 -15 -1 -15 -20 3 -29 -3 -27 -21 2 -23 15 -40
15 -18 0 8 7 15 14 15 8 0 14 -5 13 -11 -1 -6 4 -10 11 -8 10 2 10 -2 2 -17
-10 -21 -4 -51 11 -51 5 0 9 -7 9 -15 0 -20 10 -19 26 3 10 12 13 13 9 2 -3
-9 5 -22 22 -32 21 -13 23 -18 11 -18 -10 0 -18 -5 -18 -11 0 -6 8 -8 19 -4
11 3 22 1 26 -4 4 -7 -1 -8 -11 -4 -12 5 -15 3 -9 -6 6 -10 3 -11 -13 -2 -26
14 -37 31 -21 31 8 0 8 4 -1 15 -16 19 -31 2 -23 -24 3 -9 -1 -8 -8 4 -13 20
-15 25 -18 45 0 6 -8 10 -16 10 -8 0 -15 8 -15 18 0 9 -5 24 -11 32 -9 12 -10
11 -6 -7 8 -34 -2 -28 -19 13 -10 23 -12 47 -7 72 4 24 8 30 11 18 3 -13 6
-15 12 -7z m-630 -14 c0 -8 -4 -15 -10 -15 -5 0 -7 7 -4 15 4 8 8 15 10 15 2
0 4 -7 4 -15z m-23 -47 c-3 -8 -6 -5 -6 6 -1 11 2 17 5 13 3 -3 4 -12 1 -19z
m250 -10 c-3 -8 -6 -5 -6 6 -1 11 2 17 5 13 3 -3 4 -12 1 -19z m363 12 c0 -5
-5 -10 -11 -10 -5 0 -7 5 -4 10 3 6 8 10 11 10 2 0 4 -4 4 -10z m-353 -52 c-3
-8 -6 -5 -6 6 -1 11 2 17 5 13 3 -3 4 -12 1 -19z m453 18 c0 -3 -4 -8 -10 -11
-5 -3 -10 -1 -10 4 0 6 5 11 10 11 6 0 10 -2 10 -4z m30 -16 c0 -5 -2 -10 -4
-10 -3 0 -8 5 -11 10 -3 6 -1 10 4 10 6 0 11 -4 11 -10z m-541 -67 c-1 -21 -4
-42 -7 -46 -7 -14 -32 15 -32 37 0 16 2 18 9 7 8 -12 11 -9 16 12 10 39 17 33
14 -10z m228 -25 c-3 -8 -6 -5 -6 6 -1 11 2 17 5 13 3 -3 4 -12 1 -19z m-378
-22 c9 -10 8 -15 -3 -19 -10 -4 -14 0 -13 14 2 23 1 23 16 5z m301 -33 c0 -14
-2 -15 -9 -4 -5 7 -14 10 -20 7 -6 -4 -11 -2 -11 3 0 6 9 11 20 11 12 0 20 -7
20 -17z m37 -19 c-9 -9 -28 6 -21 18 4 6 10 6 17 -1 6 -6 8 -13 4 -17z m48 6
c3 -5 1 -10 -4 -10 -6 0 -11 5 -11 10 0 6 2 10 4 10 3 0 8 -4 11 -10z m-270
-29 c-14 -12 -73 -25 -60 -13 6 6 19 12 30 15 34 8 40 8 30 -2z m370 -1 c25
-11 -1 -11 -35 0 -20 6 -21 8 -5 8 11 0 29 -3 40 -8z m423 -4 c1 -2 -23 -8
-54 -14 -37 -8 -62 -8 -74 -2 -10 6 -26 7 -36 3 -16 -6 -16 -7 2 -14 12 -5 0
-8 -34 -7 -33 1 -51 5 -49 12 2 6 11 10 19 8 9 -1 40 4 69 12 45 12 145 13
157 2z m-501 -2 c-3 -3 -12 -4 -19 -1 -8 3 -5 6 6 6 11 1 17 -2 13 -5z m-237
-19 c0 -17 -4 -18 -51 -8 -33 7 -33 7 -9 14 41 12 60 10 60 -6z m199 1 c-2 -2
-20 -6 -39 -10 -25 -4 -31 -3 -20 4 14 9 69 15 59 6z"/>
<path d="M626 1235 c6 -15 42 -27 49 -15 3 4 -3 11 -13 15 -30 14 -41 13 -36
0z"/>
<path d="M690 1192 c0 -4 9 -8 20 -9 11 -1 20 2 20 8 0 5 -9 9 -20 9 -11 0
-20 -4 -20 -8z"/>
<path d="M360 450 c0 -5 5 -10 10 -10 6 0 10 5 10 10 0 6 -4 10 -10 10 -5 0
-10 -4 -10 -10z"/>
<path d="M117 533 c-11 -18 5 -53 24 -53 11 0 19 4 19 9 0 16 -37 54 -43 44z"/>
<path d="M169 483 c-2 -24 -2 -25 7 -47 6 -15 4 -17 -7 -11 -8 5 -7 0 3 -10
24 -26 33 -13 16 22 -8 15 -13 36 -11 46 3 9 2 17 -1 17 -3 0 -7 -8 -7 -17z"/>
<path d="M193 475 c-3 -9 -3 -18 -1 -21 3 -3 8 4 11 16 6 23 -1 27 -10 5z"/>
<path d="M75 352 c0 -20 5 -43 12 -50 7 -7 13 -23 13 -34 0 -11 8 -22 19 -25
10 -3 24 -14 30 -26 10 -20 11 -20 6 6 -4 22 -3 27 7 21 11 -6 11 -5 0 8 -7 9
-21 14 -31 11 -18 -5 -30 24 -35 84 -3 41 -21 45 -21 5z"/>
<path d="M275 380 c-16 -7 -17 -9 -3 -9 9 -1 18 -7 20 -13 3 -7 7 -2 10 10 7
24 4 25 -27 12z"/>
<path d="M141 320 c0 -8 4 -22 9 -30 12 -18 12 -2 0 25 -6 13 -9 15 -9 5z"/>
<path d="M371 307 c-1 -11 -6 -15 -13 -11 -7 5 -8 3 -3 -5 10 -16 29 2 22 21
-4 8 -6 7 -6 -5z"/>
<path d="M351 244 c0 -11 3 -14 6 -6 3 7 2 16 -1 19 -3 4 -6 -2 -5 -13z"/>
<path d="M311 231 c-8 -6 -9 -11 -3 -15 6 -3 14 -1 17 5 9 14 2 20 -14 10z"/>
<path d="M478 2083 c7 -3 16 -2 19 1 4 3 -2 6 -13 5 -11 0 -14 -3 -6 -6z"/>
<path d="M518 2073 c7 -3 16 -2 19 1 4 3 -2 6 -13 5 -11 0 -14 -3 -6 -6z"/>
<path d="M223 2063 c15 -2 39 -2 55 0 15 2 2 4 -28 4 -30 0 -43 -2 -27 -4z"/>
<path d="M1425 2055 c11 -9 19 -19 18 -23 -1 -4 0 -9 2 -10 2 -2 2 4 1 13 -1
10 -11 22 -22 27 -18 9 -17 8 1 -7z"/>
<path d="M146 2052 c-2 -4 4 -8 14 -8 10 0 16 4 14 8 -3 4 -9 8 -14 8 -5 0
-11 -4 -14 -8z"/>
<path d="M1527 2037 c3 -6 -8 -8 -30 -5 -20 2 -34 1 -32 -3 3 -3 50 -6 105 -6
97 -1 126 6 58 14 -95 10 -107 10 -101 0z"/>
<path d="M47 2033 c-13 -12 -7 -23 11 -22 10 0 12 3 4 6 -6 2 -10 9 -6 14 6
10 0 12 -9 2z"/>
<path d="M90 2036 c0 -9 30 -14 35 -6 4 6 -3 10 -14 10 -12 0 -21 -2 -21 -4z"/>
<path d="M188 2015 c-5 -23 -2 -25 26 -24 25 1 26 3 8 6 -15 3 -22 10 -18 18
3 8 1 17 -3 20 -5 2 -11 -6 -13 -20z"/>
<path d="M530 2030 c0 -5 5 -10 11 -10 5 0 7 5 4 10 -3 6 -8 10 -11 10 -2 0
-4 -4 -4 -10z"/>
<path d="M481 2014 c0 -11 3 -14 6 -6 3 7 2 16 -1 19 -3 4 -6 -2 -5 -13z"/>
<path d="M586 2003 c-6 -14 -5 -15 5 -6 7 7 10 15 7 18 -3 3 -9 -2 -12 -12z"/>
<path d="M796 2003 c-6 -14 -5 -15 5 -6 7 7 10 15 7 18 -3 3 -9 -2 -12 -12z"/>
<path d="M1683 2005 c0 -8 4 -12 9 -9 5 3 6 10 3 15 -9 13 -12 11 -12 -6z"/>
<path d="M265 1990 c-5 -8 38 -15 135 -23 l35 -3 -35 -11 c-19 -6 -27 -12 -18
-12 22 -1 68 20 68 31 0 4 -16 8 -35 8 -19 0 -35 5 -35 10 0 6 -8 5 -19 -2
-15 -9 -28 -9 -55 -1 -20 6 -38 7 -41 3z"/>
<path d="M1488 1993 c6 -2 18 -2 25 0 6 3 1 5 -13 5 -14 0 -19 -2 -12 -5z"/>
<path d="M1645 1990 c-3 -5 1 -10 10 -10 9 0 13 5 10 10 -3 6 -8 10 -10 10 -2
0 -7 -4 -10 -10z"/>
<path d="M498 1978 c5 -5 16 -8 23 -6 8 3 3 7 -10 11 -17 4 -21 3 -13 -5z"/>
<path d="M1583 1973 c9 -2 25 -2 35 0 9 3 1 5 -18 5 -19 0 -27 -2 -17 -5z"/>
<path d="M1960 1886 c0 -2 7 -7 16 -10 8 -3 12 -2 9 4 -6 10 -25 14 -25 6z"/>
<path d="M2060 1863 c0 -14 2 -15 9 -4 6 10 19 12 42 8 103 -20 97 -20 70 -4
-13 8 -45 15 -72 16 -41 1 -49 -2 -49 -16z"/>
<path d="M1963 1845 c0 -8 4 -12 9 -9 5 3 6 10 3 15 -9 13 -12 11 -12 -6z"/>
<path d="M2090 1800 c8 -5 22 -9 30 -9 10 0 8 3 -5 9 -27 12 -43 12 -25 0z"/>
<path d="M881 1770 c-46 -34 -82 -85 -74 -106 10 -26 69 -16 115 19 56 43 77
79 59 101 -20 24 -53 19 -100 -14z"/>
<path d="M2149 1789 c-10 -6 -3 -9 20 -9 19 0 31 3 27 7 -10 11 -32 12 -47 2z"/>
<path d="M1078 1693 c-21 -24 -58 -94 -58 -110 0 -22 27 -14 49 13 43 54 51
145 9 97z"/>
<path d="M1255 1702 c14 -10 55 -88 55 -105 0 -8 -15 -24 -32 -36 -24 -15 -28
-21 -15 -21 32 0 107 22 107 32 0 5 -8 4 -19 -2 -11 -5 -27 -10 -37 -10 -16 0
-16 1 -1 18 22 24 21 35 -3 57 -37 34 -20 37 33 7 l53 -30 220 -4 c187 -3 225
-6 257 -22 20 -10 37 -21 37 -25 0 -6 -64 -41 -75 -41 -2 0 -2 7 1 15 4 10 0
15 -11 15 -12 0 -15 -5 -10 -20 3 -11 2 -20 -4 -20 -5 0 -12 17 -14 38 l-4 37
-1 -39 -2 -38 -122 4 c-114 3 -128 6 -192 36 -70 33 -103 43 -53 16 15 -8 27
-19 27 -23 0 -10 163 -51 200 -51 22 0 22 -1 7 -18 -10 -10 -17 -22 -17 -25 0
-17 49 -4 90 23 25 16 55 30 67 30 12 0 47 9 78 21 68 25 69 43 5 79 -25 14
-65 40 -90 58 -42 31 -67 29 -40 -4 22 -25 3 -27 -67 -5 -87 26 -189 39 -179
23 4 -7 33 -12 67 -12 38 0 58 -4 54 -10 -3 -5 -33 -10 -66 -10 -32 0 -59 -3
-59 -7 0 -5 -24 -8 -53 -7 -44 0 -62 7 -116 42 -35 23 -69 42 -75 42 -7 0 -7
-3 -1 -8z m536 -58 c21 -24 22 -26 3 -16 -25 13 -50 42 -37 42 5 0 20 -12 34
-26z m-90 -174 c-25 -21 -41 -26 -41 -12 0 9 38 30 55 31 6 0 -1 -9 -14 -19z"/>
<path d="M981 1586 c-9 -10 -8 -15 4 -20 10 -4 15 1 15 14 0 24 -4 25 -19 6z"/>
<path d="M1481 1586 c3 -3 53 -13 110 -22 102 -15 169 -13 169 6 0 13 -7 12
-30 0 -17 -9 -77 -5 -210 16 -25 4 -42 4 -39 0z"/>
<path d="M1405 1540 c-18 -8 -17 -9 8 -9 15 -1 27 4 27 9 0 12 -8 12 -35 0z"/>
<path d="M2241 1502 c-1 -18 3 -31 8 -27 5 3 16 -3 23 -14 16 -23 68 -39 68
-22 0 6 -11 11 -23 11 -26 0 -51 22 -66 60 -9 24 -10 24 -10 -8z"/>
<path d="M2351 1515 c0 -5 3 -16 8 -23 7 -11 9 -10 14 3 4 9 3 14 -2 10 -5 -3
-12 1 -14 7 -3 7 -6 9 -6 3z"/>
<path d="M2408 1503 c12 -2 30 -2 40 0 9 3 -1 5 -23 4 -22 0 -30 -2 -17 -4z"/>
<path d="M2395 1469 c4 -5 18 -9 32 -9 32 0 27 7 -10 14 -16 3 -25 1 -22 -5z"/>
<path d="M2370 1460 c0 -5 5 -10 11 -10 5 0 7 5 4 10 -3 6 -8 10 -11 10 -2 0
-4 -4 -4 -10z"/>
<path d="M2261 1413 c-2 -18 10 -43 20 -43 5 0 9 7 9 15 0 16 9 19 34 9 9 -3
12 -12 8 -22 -5 -14 -4 -15 10 -2 9 8 14 18 12 21 -8 14 -56 19 -69 9 -10 -8
-14 -7 -18 7 -3 10 -5 13 -6 6z"/>
<path d="M2366 1371 c-3 -4 0 -8 7 -9 7 0 30 -3 52 -6 22 -3 31 -3 20 0 -11 3
-32 9 -47 14 -15 5 -30 5 -32 1z"/>
<path d="M230 1298 c0 -21 3 -28 9 -20 4 7 12 12 17 11 23 -4 26 3 9 21 -26
28 -35 25 -35 -12z"/>
<path d="M1783 1297 c2 -19 8 -27 20 -27 10 0 15 5 12 10 -3 6 4 10 17 11 22
0 22 1 3 8 -11 5 -24 6 -29 3 -4 -2 -12 1 -16 8 -5 8 -8 3 -7 -13z"/>
<path d="M191 1288 c1 -19 2 -20 6 -4 4 15 7 16 15 5 8 -12 9 -12 6 0 -7 25
-28 24 -27 -1z"/>
<path d="M1728 1293 c6 -2 18 -2 25 0 6 3 1 5 -13 5 -14 0 -19 -2 -12 -5z"/>
<path d="M1900 1275 c24 -8 46 -13 48 -11 5 5 -59 26 -77 25 -9 0 4 -7 29 -14z"/>
<path d="M255 1260 c3 -5 8 -10 11 -10 2 0 4 5 4 10 0 6 -5 10 -11 10 -5 0 -7
-4 -4 -10z"/>
<path d="M1638 1263 c7 -3 16 -2 19 1 4 3 -2 6 -13 5 -11 0 -14 -3 -6 -6z"/>
<path d="M1597 1239 c7 -7 15 -10 18 -7 3 3 -2 9 -12 12 -14 6 -15 5 -6 -5z"/>
<path d="M1881 1227 c-1 -20 -8 -30 -25 -37 -16 -6 -24 -16 -23 -28 1 -17 5
-15 32 12 17 17 29 34 28 37 -2 4 4 9 12 13 8 3 15 11 15 17 0 9 -3 9 -14 0
-11 -9 -15 -9 -19 1 -3 7 -6 1 -6 -15z"/>
<path d="M210 1225 c0 -5 5 -17 10 -25 5 -8 10 -10 10 -5 0 6 -5 17 -10 25 -5
8 -10 11 -10 5z"/>
<path d="M261 1214 c0 -11 3 -14 6 -6 3 7 2 16 -1 19 -3 4 -6 -2 -5 -13z"/>
<path d="M1778 1223 c6 -2 18 -2 25 0 6 3 1 5 -13 5 -14 0 -19 -2 -12 -5z"/>
<path d="M85 1207 c-4 -10 -5 -21 -1 -24 10 -10 18 4 13 24 -4 17 -4 17 -12 0z"/>
<path d="M1693 1213 c9 -2 25 -2 35 0 9 3 1 5 -18 5 -19 0 -27 -2 -17 -5z"/>
<path d="M37 1184 c3 -7 10 -11 18 -8 7 3 15 -2 19 -11 7 -19 0 -35 -15 -35
-6 0 -7 5 -4 10 3 6 1 10 -4 10 -6 0 -11 -7 -11 -15 0 -8 5 -15 10 -15 6 0 10
-8 11 -17 0 -11 7 -4 16 16 12 28 12 39 2 57 -12 23 -51 30 -42 8z"/>
<path d="M5 1155 c2 -22 12 -46 22 -52 23 -18 26 -11 9 22 -8 15 -12 34 -9 43
4 9 2 13 -4 9 -6 -4 -14 -1 -17 5 -4 7 -4 -5 -1 -27z"/>
<path d="M1575 1184 c47 -7 113 -8 108 -1 -2 4 -32 6 -66 6 -34 -1 -53 -3 -42
-5z"/>
<path d="M191 1158 c-1 -38 -38 -36 -55 2 -3 8 -4 3 -1 -12 6 -30 -11 -39 -18
-10 -3 12 -5 11 -6 -6 0 -13 -5 -21 -10 -17 -12 7 -34 -32 -26 -44 3 -5 -4 -7
-15 -4 -12 3 -20 0 -20 -7 0 -9 -6 -7 -19 5 -19 16 -20 16 -18 -3 0 -11 5 -18
9 -16 4 3 8 -4 8 -15 0 -11 -4 -23 -10 -26 -5 -3 -10 -23 -10 -43 0 -28 3 -33
10 -22 6 10 10 11 10 3 0 -7 7 -13 15 -13 8 0 12 -6 9 -14 -4 -10 2 -12 21 -8
22 4 26 9 21 28 -5 19 -2 24 14 24 17 0 20 5 15 33 -5 30 -4 31 8 9 15 -26 27
-19 27 14 0 30 -16 39 -38 22 -15 -11 -16 -11 -4 3 10 14 10 18 -3 23 -23 9
-18 26 9 26 13 0 26 6 29 14 4 9 18 14 36 14 28 -1 29 -3 25 -37 l-5 -36 14
35 c7 19 10 37 6 40 -3 3 -11 19 -17 35 l-10 30 -1 -27z m-125 -196 c-17 -16
-18 -16 -5 5 7 12 15 20 18 17 3 -2 -3 -12 -13 -22z"/>
<path d="M1788 1173 c6 -2 18 -2 25 0 6 3 1 5 -13 5 -14 0 -19 -2 -12 -5z"/>
<path d="M1464 1158 c-4 -5 -12 -7 -20 -4 -7 3 -16 0 -20 -6 -5 -7 4 -9 29 -4
29 5 40 3 57 -14 11 -11 20 -16 20 -11 0 6 -9 16 -20 24 -11 8 -18 16 -15 19
3 2 -2 5 -10 5 -9 0 -18 -4 -21 -9z"/>
<path d="M1608 1163 c12 -2 30 -2 40 0 9 3 -1 5 -23 4 -22 0 -30 -2 -17 -4z"/>
<path d="M320 1145 c0 -8 5 -15 10 -15 6 0 10 7 10 15 0 8 -4 15 -10 15 -5 0
-10 -7 -10 -15z"/>
<path d="M147 1098 c-7 -20 -6 -33 4 -30 8 2 14 -41 10 -80 -3 -23 20 -15 38
14 10 17 10 22 0 29 -7 4 -17 5 -21 3 -4 -3 -8 2 -8 10 0 8 5 18 10 21 6 3 10
14 10 23 0 15 -2 15 -10 2 -8 -13 -10 -12 -10 3 0 20 -16 23 -23 5z"/>
<path d="M250 1056 c0 -9 5 -16 10 -16 6 0 10 4 10 9 0 6 -4 13 -10 16 -5 3
-10 -1 -10 -9z"/>
<path d="M282 1010 c0 -14 2 -19 5 -12 2 6 2 18 0 25 -3 6 -5 1 -5 -13z"/>
<path d="M350 1000 c0 -5 5 -10 10 -10 6 0 10 5 10 10 0 6 -4 10 -10 10 -5 0
-10 -4 -10 -10z"/>
<path d="M411 984 c0 -11 3 -14 6 -6 3 7 2 16 -1 19 -3 4 -6 -2 -5 -13z"/>
<path d="M505 989 c-4 -6 -5 -12 -2 -15 2 -3 7 2 10 11 7 17 1 20 -8 4z"/>
<path d="M216 973 c-6 -14 -5 -15 5 -6 7 7 10 15 7 18 -3 3 -9 -2 -12 -12z"/>
<path d="M256 938 c1 -23 -3 -49 -9 -57 -10 -12 -9 -14 5 -8 11 4 18 0 21 -11
4 -16 5 -15 6 1 0 9 8 17 17 17 14 0 15 -2 3 -17 -12 -15 -12 -16 3 -10 10 3
20 2 23 -3 6 -9 24 6 55 45 14 17 14 18 -6 7 -12 -6 -24 -8 -28 -5 -3 3 -6 0
-6 -8 -1 -8 -7 -2 -16 13 -9 17 -20 25 -29 22 -11 -5 -17 3 -21 25 -9 45 -22
38 -18 -11z"/>
<path d="M292 960 c0 -14 2 -19 5 -12 2 6 2 18 0 25 -3 6 -5 1 -5 -13z"/>
<path d="M327 963 c-13 -13 -7 -33 11 -33 13 0 14 2 3 9 -11 7 -10 11 5 20 15
8 16 10 3 11 -9 0 -19 -3 -22 -7z"/>
<path d="M1750 960 c0 -5 5 -10 11 -10 5 0 7 5 4 10 -3 6 -8 10 -11 10 -2 0
-4 -4 -4 -10z"/>
<path d="M1830 949 c-28 -5 -23 -7 28 -8 34 0 62 1 62 3 0 8 -56 11 -90 5z"/>
<path d="M415 941 c-3 -6 3 -9 14 -8 11 0 17 5 15 9 -7 11 -22 10 -29 -1z"/>
<path d="M541 934 c0 -11 3 -14 6 -6 3 7 2 16 -1 19 -3 4 -6 -2 -5 -13z"/>
<path d="M462 918 c2 -5 8 -9 13 -9 5 0 11 4 13 9 1 5 -4 9 -13 9 -9 0 -14 -4
-13 -9z"/>
<path d="M7 913 c-4 -3 -7 -26 -7 -50 0 -32 4 -43 15 -43 8 0 15 -7 15 -15 0
-8 5 -15 11 -15 5 0 7 -5 4 -10 -5 -8 -11 -7 -21 1 -11 9 -14 8 -14 -5 0 -10
4 -14 10 -11 5 3 10 -2 11 -12 0 -11 3 -13 6 -5 2 6 9 10 14 6 5 -3 9 7 10 23
0 25 1 26 9 8 5 -11 9 -16 9 -12 1 4 10 3 20 -2 17 -10 19 -6 23 37 3 29 -1
57 -9 72 -12 21 -13 22 -8 3 3 -12 1 -24 -5 -28 -5 -3 -10 -11 -10 -16 0 -6 4
-7 10 -4 5 3 10 2 10 -4 0 -18 -18 -21 -24 -4 -6 14 -8 14 -21 -3 -14 -18 -14
-17 -15 11 -1 21 -3 25 -8 13 -6 -15 -9 -14 -19 7 -9 20 -8 25 3 25 8 0 14 4
14 9 0 13 -26 32 -33 24z"/>
<path d="M562 899 c4 -9 1 -22 -5 -28 -8 -8 -5 -11 11 -11 26 0 28 15 5 38
-15 15 -16 15 -11 1z"/>
<path d="M1878 903 c7 -3 16 -2 19 1 4 3 -2 6 -13 5 -11 0 -14 -3 -6 -6z"/>
<path d="M52 888 c2 -5 8 -9 13 -9 5 0 11 4 13 9 1 5 -4 9 -13 9 -9 0 -14 -4
-13 -9z"/>
<path d="M411 882 c-7 -13 -10 -33 -8 -45 3 -18 5 -17 6 6 0 16 5 26 10 23 4
-3 17 4 27 17 14 15 14 18 2 9 -13 -10 -17 -10 -20 0 -3 8 -9 5 -17 -10z"/>
<path d="M970 849 c0 -8 -14 -10 -41 -6 -28 4 -39 2 -36 -6 4 -13 66 -10 82 3
6 5 33 10 60 13 l50 3 -57 2 c-38 1 -58 -2 -58 -9z"/>
<path d="M1226 844 c-6 -16 -20 -16 -116 2 -22 4 -23 3 -5 -5 19 -9 19 -10 -4
-10 -13 -1 -22 -4 -19 -7 3 -3 55 -7 114 -8 115 -3 152 -15 217 -69 l29 -24
-27 -22 c-15 -11 -35 -21 -43 -21 -8 0 -13 -3 -9 -6 10 -10 75 16 81 32 3 9 6
17 6 20 0 2 -22 21 -50 43 -33 26 -69 44 -105 52 -30 7 -52 16 -49 20 2 4 0
10 -5 13 -5 3 -12 -1 -15 -10z"/>
<path d="M295 830 c-3 -5 -1 -10 4 -10 6 0 11 5 11 10 0 6 -2 10 -4 10 -3 0
-8 -4 -11 -10z"/>
<path d="M382 810 c0 -19 2 -27 5 -17 2 9 2 25 0 35 -3 9 -5 1 -5 -18z"/>
<path d="M2285 820 c3 -5 14 -10 23 -10 15 0 15 2 2 10 -20 13 -33 13 -25 0z"/>
<path d="M311 801 c-6 -10 -7 -21 -4 -25 3 -3 1 -6 -6 -6 -8 0 -10 7 -6 19 5
16 2 18 -15 14 -28 -7 -23 -47 6 -51 20 -3 21 -8 17 -48 -3 -29 0 -44 7 -44 6
0 9 4 6 8 -3 5 -1 22 4 38 8 28 8 28 10 4 l1 -25 13 25 c18 33 31 81 17 61 -5
-8 -16 -16 -25 -17 -12 -2 -15 5 -11 32 5 38 0 43 -14 15z m-34 -33 c-3 -8 -6
-5 -6 6 -1 11 2 17 5 13 3 -3 4 -12 1 -19z"/>
<path d="M420 789 c0 -19 4 -29 12 -27 17 6 20 45 3 52 -11 4 -15 -2 -15 -25z"/>
<path d="M905 810 c-4 -6 7 -10 27 -10 25 0 29 3 18 10 -19 13 -37 13 -45 0z"/>
<path d="M995 810 c-14 -7 -8 -8 20 -3 22 3 42 7 44 9 9 8 -45 2 -64 -6z"/>
<path d="M132 780 c0 -19 2 -27 5 -17 2 9 2 25 0 35 -3 9 -5 1 -5 -18z"/>
<path d="M213 803 c-15 -5 -17 -23 -4 -23 5 0 11 7 15 15 3 8 4 15 3 14 -1 0
-8 -3 -14 -6z"/>
<path d="M341 784 c0 -11 3 -14 6 -6 3 7 2 16 -1 19 -3 4 -6 -2 -5 -13z"/>
<path d="M827 779 c-27 -10 -54 -16 -60 -13 -9 5 -9 4 -1 -5 8 -9 23 -7 65 9
30 12 56 24 58 26 9 9 -16 2 -62 -17z"/>
<path d="M2175 790 c4 -6 11 -8 16 -5 14 9 11 15 -7 15 -8 0 -12 -5 -9 -10z"/>
<path d="M393 763 c-14 -29 -8 -47 7 -23 9 13 14 50 8 50 -2 0 -9 -12 -15 -27z"/>
<path d="M1282 745 c-7 -14 -12 -31 -12 -38 1 -7 7 3 16 22 17 39 13 54 -4 16z"/>
<path d="M2288 763 c6 -2 18 -2 25 0 6 3 1 5 -13 5 -14 0 -19 -2 -12 -5z"/>
<path d="M883 753 c9 -2 23 -2 30 0 6 3 -1 5 -18 5 -16 0 -22 -2 -12 -5z"/>
<path d="M943 743 c9 -2 25 -2 35 0 9 3 1 5 -18 5 -19 0 -27 -2 -17 -5z"/>
<path d="M225 730 c-3 -6 1 -7 9 -4 18 7 21 14 7 14 -6 0 -13 -4 -16 -10z"/>
<path d="M1020 730 c25 -8 137 -13 129 -6 -2 2 -38 6 -79 8 -42 3 -64 2 -50
-2z"/>
<path d="M1320 726 c0 -9 7 -16 16 -16 9 0 14 5 12 12 -6 18 -28 21 -28 4z"/>
<path d="M1900 722 c0 -8 -8 -12 -17 -10 -25 5 -65 -34 -57 -55 3 -9 10 -17
15 -17 4 0 6 6 3 14 -3 7 3 16 13 20 43 15 62 32 52 47 -7 11 -9 11 -9 1z"/>
<path d="M271 692 c-17 -31 -13 -40 5 -14 9 13 14 26 11 29 -3 2 -10 -4 -16
-15z"/>
<path d="M370 699 c0 -5 5 -7 10 -4 9 6 14 -8 11 -28 -1 -5 3 -6 8 -3 13 9 1
46 -15 46 -8 0 -14 -5 -14 -11z"/>
<path d="M1270 678 c0 -15 8 -18 43 -16 40 1 40 1 7 5 -19 3 -38 10 -42 16 -5
8 -8 6 -8 -5z"/>
<path d="M1915 630 c-3 -5 -1 -10 4 -10 6 0 11 5 11 10 0 6 -2 10 -4 10 -3 0
-8 -4 -11 -10z"/>
<path d="M450 581 c0 -5 7 -14 15 -21 16 -14 18 -10 9 14 -6 17 -24 22 -24 7z"/>
<path d="M2350 568 c0 -9 4 -19 10 -23 5 -3 8 -11 6 -18 -1 -7 -1 -8 2 -4 2 4
11 2 20 -5 16 -12 16 -11 1 7 -9 11 -21 29 -27 40 -10 17 -11 17 -12 3z"/>
<path d="M496 555 c4 -8 8 -15 10 -15 2 0 4 7 4 15 0 8 -4 15 -10 15 -5 0 -7
-7 -4 -15z"/>
<path d="M2440 558 c0 -7 5 -20 10 -28 8 -12 10 -11 10 7 0 12 -4 25 -10 28
-5 3 -10 0 -10 -7z"/>
<path d="M524 547 c3 -10 6 -25 6 -32 0 -7 7 -16 16 -19 11 -4 15 -2 11 8 -3
8 -1 17 6 19 9 3 9 8 0 18 -11 11 -13 11 -13 -1 -1 -11 -5 -9 -17 5 -14 18
-15 18 -9 2z"/>
<path d="M580 550 c0 -5 5 -10 11 -10 5 0 7 5 4 10 -3 6 -8 10 -11 10 -2 0 -4
-4 -4 -10z"/>
<path d="M461 514 c0 -11 3 -14 6 -6 3 7 2 16 -1 19 -3 4 -6 -2 -5 -13z"/>
<path d="M580 495 c0 -8 2 -15 4 -15 2 0 6 7 10 15 3 8 1 15 -4 15 -6 0 -10
-7 -10 -15z"/>
<path d="M2 480 c0 -14 2 -19 5 -12 2 6 2 18 0 25 -3 6 -5 1 -5 -13z"/>
<path d="M2370 481 c0 -6 4 -13 10 -16 6 -3 7 1 4 9 -7 18 -14 21 -14 7z"/>
<path d="M2420 476 c0 -2 7 -7 16 -10 8 -3 12 -2 9 4 -6 10 -25 14 -25 6z"/>
<path d="M2018 398 c5 -22 9 -22 27 -4 12 12 11 14 -9 18 -19 4 -22 1 -18 -14z"/>
<path d="M2078 393 c7 -3 16 -2 19 1 4 3 -2 6 -13 5 -11 0 -14 -3 -6 -6z"/>
<path d="M436 373 c-6 -14 -5 -15 5 -6 7 7 10 15 7 18 -3 3 -9 -2 -12 -12z"/>
<path d="M2110 386 c0 -2 7 -7 16 -10 8 -3 12 -2 9 4 -6 10 -25 14 -25 6z"/>
<path d="M1866 358 c-16 -19 -17 -20 -1 -15 9 4 24 7 33 7 14 0 14 2 3 9 -11
7 -11 9 0 14 11 4 11 6 -1 6 -9 1 -24 -9 -34 -21z"/>
<path d="M1958 373 c7 -3 16 -2 19 1 4 3 -2 6 -13 5 -11 0 -14 -3 -6 -6z"/>
<path d="M980 365 c0 -19 31 -75 39 -71 5 4 13 1 17 -5 5 -8 3 -9 -6 -4 -8 5
-11 3 -8 -6 3 -8 11 -13 17 -11 16 3 5 -15 -33 -55 -17 -18 -40 -33 -51 -33
-17 -1 -15 -4 9 -16 16 -9 40 -14 55 -11 170 32 206 32 163 -3 -20 -17 -21
-19 -5 -24 10 -2 54 -8 98 -12 44 -3 87 -10 97 -15 9 -5 54 -10 101 -11 78 -3
82 -4 55 -15 -38 -16 -51 -16 -42 -1 4 7 3 8 -4 4 -7 -4 -12 -14 -12 -22 0
-20 39 -17 78 6 18 11 47 20 65 20 38 0 143 24 181 41 14 7 26 20 26 31 0 24
-20 23 -27 -1 -4 -17 -21 -27 -76 -45 -9 -3 -29 -1 -43 4 -24 9 -26 15 -22 55
2 25 -1 45 -5 45 -5 0 -7 -26 -6 -57 3 -65 13 -61 -101 -47 -40 5 -49 9 -35
15 13 5 15 8 5 8 -13 1 -13 3 0 12 12 9 12 10 -3 5 -10 -3 -23 -6 -28 -6 -6 0
-7 -4 -4 -10 3 -6 -1 -7 -9 -4 -9 3 -16 1 -16 -5 0 -25 -107 -3 -189 38 -22
12 -41 23 -41 25 0 2 19 1 43 -1 23 -3 57 -1 75 4 25 6 12 8 -59 10 -68 1 -95
6 -109 18 -17 15 -21 15 -42 1 -12 -8 -48 -18 -78 -21 -52 -6 -54 -5 -35 10
11 9 29 22 39 29 11 7 17 19 14 27 -3 8 -5 17 -4 20 0 4 -8 17 -19 30 -16 18
-5 14 55 -18 66 -36 79 -39 105 -30 17 5 107 10 200 11 214 1 326 -22 400 -83
20 -16 20 -16 0 8 -27 32 -58 46 -150 69 -142 36 -169 44 -206 59 -26 11 -50
13 -80 7 -24 -4 -63 -7 -86 -6 -40 1 -55 -9 -33 -23 21 -13 8 -23 -41 -29 -28
-4 -56 -3 -62 2 -23 17 -167 92 -167 87z m329 -71 c14 -12 -19 -1 -35 12 -18
14 -18 14 6 3 14 -6 27 -13 29 -15z m147 17 c5 -5 20 -12 34 -15 14 -3 -13 -3
-59 -1 -100 4 -138 25 -45 25 33 0 64 -4 70 -9z m-297 -110 c9 -6 4 -10 -18
-13 -24 -4 -28 -2 -20 9 13 15 19 16 38 4z m-121 -28 c-10 -2 -26 -2 -35 0
-10 3 -2 5 17 5 19 0 27 -2 18 -5z m268 -50 c-8 -8 -102 23 -99 34 3 7 20 4
53 -10 27 -11 48 -22 46 -24z"/>
<path d="M2084 346 c-6 -13 -22 -23 -44 -27 -19 -4 -27 -7 -18 -8 12 -1 15 -6
11 -18 -5 -12 -3 -14 8 -8 34 21 79 61 79 71 0 19 -26 11 -36 -10z"/>
<path d="M1958 343 c12 -2 30 -2 40 0 9 3 -1 5 -23 4 -22 0 -30 -2 -17 -4z"/>
<path d="M1773 315 l-28 -24 32 -1 c20 0 36 -7 42 -17 6 -10 11 -13 11 -6 0
16 -41 44 -53 36 -6 -3 -7 -1 -3 6 4 6 10 9 14 7 4 -2 13 2 20 10 22 24 -5 15
-35 -11z"/>
<path d="M1846 321 c-4 -5 4 -7 16 -3 14 3 19 2 14 -6 -5 -8 3 -12 23 -12 17
0 31 5 31 11 0 6 -9 9 -20 6 -11 -3 -23 -1 -26 4 -7 12 -31 12 -38 0z"/>
<path d="M1948 313 c7 -3 16 -2 19 1 4 3 -2 6 -13 5 -11 0 -14 -3 -6 -6z"/>
<path d="M530 236 c0 -22 3 -27 11 -19 8 8 8 16 0 30 -9 16 -10 14 -11 -11z"/>
<path d="M1495 251 c6 -4 37 -11 70 -14 69 -7 45 7 -30 17 -28 3 -45 2 -40 -3z"/>
<path d="M1197 238 c2 -5 15 -8 28 -8 13 0 25 -5 27 -11 3 -8 15 -8 43 0 22 7
74 16 115 20 65 7 56 8 -71 7 -81 0 -145 -4 -142 -8z"/>
<path d="M1448 183 c7 -3 16 -2 19 1 4 3 -2 6 -13 5 -11 0 -14 -3 -6 -6z"/>
<path d="M1702 178 c6 -18 28 -21 28 -4 0 9 -7 16 -16 16 -9 0 -14 -5 -12 -12z"/>
<path d="M1488 173 c7 -3 16 -2 19 1 4 3 -2 6 -13 5 -11 0 -14 -3 -6 -6z"/>
<path d="M570 166 c0 -2 7 -6 15 -10 8 -3 15 -1 15 4 0 6 -7 10 -15 10 -8 0
-15 -2 -15 -4z"/>
<path d="M1103 123 c9 -2 23 -2 30 0 6 3 -1 5 -18 5 -16 0 -22 -2 -12 -5z"/>
<path d="M1103 43 c9 -2 25 -2 35 0 9 3 1 5 -18 5 -19 0 -27 -2 -17 -5z"/>
<path d="M1173 34 c4 -4 30 -8 59 -9 41 -3 46 -1 23 5 -38 10 -90 12 -82 4z"/>
<path d="M2068 33 c12 -2 30 -2 40 0 9 3 -1 5 -23 4 -22 0 -30 -2 -17 -4z"/>
<path d="M1898 23 c18 -2 45 -2 60 0 15 2 0 4 -33 4 -33 0 -45 -2 -27 -4z"/>
<path d="M1303 13 c9 -2 23 -2 30 0 6 3 -1 5 -18 5 -16 0 -22 -2 -12 -5z"/>
<path d="M1118 3 c7 -3 16 -2 19 1 4 3 -2 6 -13 5 -11 0 -14 -3 -6 -6z"/>
<path d="M1368 3 c12 -2 30 -2 40 0 9 3 -1 5 -23 4 -22 0 -30 -2 -17 -4z"/>
<path d="M1728 3 c12 -2 30 -2 40 0 9 3 -1 5 -23 4 -22 0 -30 -2 -17 -4z"/>
<path d="M2423 3 c9 -2 23 -2 30 0 6 3 -1 5 -18 5 -16 0 -22 -2 -12 -5z"/>
</g>
</svg>
