<?xml version="1.0" standalone="no"?>
<!DOCTYPE svg PUBLIC "-//W3C//DTD SVG 20010904//EN"
 "http://www.w3.org/TR/2001/REC-SVG-20010904/DTD/svg10.dtd">
<svg version="1.0" xmlns="http://www.w3.org/2000/svg"
 width="246.000000pt" height="345.000000pt" viewBox="0 0 246.000000 345.000000"
 preserveAspectRatio="xMidYMid meet">

<g transform="translate(0.000000,345.000000) scale(0.100000,-0.100000)"
fill="#000000" stroke="none">
<path d="M0 3055 c0 -344 2 -395 15 -395 8 0 15 -5 15 -11 0 -6 -7 -9 -15 -5
-9 3 -15 0 -15 -9 0 -8 9 -15 20 -15 11 0 20 7 20 15 0 11 12 14 53 13 28 -1
77 1 107 4 30 3 64 2 75 -2 l20 -9 -20 -1 c-11 -1 -32 -1 -46 0 -23 1 -58 -24
-48 -35 8 -8 178 -17 203 -11 17 4 26 13 26 26 0 16 -9 20 -52 23 -29 2 9 4
84 5 136 2 138 2 154 -23 12 -19 14 -38 9 -90 -4 -36 -10 -67 -14 -69 -13 -8
-210 7 -205 15 3 5 -16 9 -42 9 -42 0 -46 2 -30 13 22 16 60 11 77 -9 8 -10
37 -14 105 -14 l94 0 0 46 0 47 -32 -5 c-18 -3 -44 -2 -58 3 -18 5 -10 7 33 8
50 1 57 4 57 21 0 26 -29 40 -82 40 -83 0 -113 -24 -70 -56 10 -8 12 -13 5
-14 -7 0 -13 -7 -13 -15 0 -12 -14 -15 -64 -15 -36 0 -68 -5 -71 -11 -13 -20
-54 -28 -157 -30 -120 -2 -138 -9 -138 -49 0 -33 15 -47 27 -27 5 8 33 16 68
19 33 3 50 4 38 1 -13 -2 -23 -9 -23 -15 0 -6 -7 -19 -15 -28 -19 -21 -7 -60
24 -82 12 -8 18 -18 15 -21 -8 -8 -64 53 -64 69 0 5 -6 18 -13 28 -11 15 -17
17 -35 7 -29 -15 -31 -80 -4 -104 33 -30 152 -18 152 15 0 6 8 16 17 23 23 17
8 65 -27 82 -15 8 -19 13 -9 13 8 0 21 -6 28 -12 11 -11 12 -9 6 10 -6 19 -3
22 24 22 31 0 42 14 19 23 -29 10 2 17 48 10 44 -6 46 -8 19 -13 -22 -4 -29
-10 -27 -24 3 -15 -1 -18 -18 -13 -12 3 -19 3 -16 0 3 -3 1 -14 -4 -23 -12
-22 -2 -82 12 -74 6 4 14 0 19 -7 13 -20 11 -29 -6 -29 -15 0 -92 -49 -87 -56
1 -2 -2 -12 -7 -22 -8 -14 -11 -14 -12 -2 -1 8 -1 19 0 24 1 5 -5 6 -14 2 -9
-3 -21 -6 -26 -6 -6 0 -7 -4 -4 -10 3 -5 1 -10 -4 -10 -6 0 -11 4 -11 9 0 5
-12 11 -27 13 -16 3 -36 9 -45 13 -16 6 -18 0 -18 -54 l0 -61 27 6 c16 3 42
10 59 15 17 5 70 10 117 12 50 1 87 6 87 12 0 6 5 3 10 -5 7 -11 10 -3 11 30
l0 45 14 -50 c8 -27 14 -53 15 -57 0 -5 5 -8 10 -8 6 0 11 17 11 38 1 24 3 29
6 14 3 -13 11 -26 18 -29 12 -4 12 -9 -2 -29 -15 -23 -15 -26 3 -40 18 -13 17
-14 -10 -8 -22 5 -28 4 -24 -7 3 -8 -2 -20 -11 -27 -17 -15 -20 -15 37 4 9 3
-7 -9 -36 -26 -46 -28 -52 -35 -52 -66 0 -24 -5 -34 -15 -34 -8 0 -29 -15 -45
-33 -16 -17 -30 -27 -30 -21 0 6 11 23 25 38 28 31 48 89 24 70 -37 -29 -135
-54 -191 -50 l-58 4 0 -284 c0 -178 4 -285 10 -289 6 -3 10 -14 10 -23 0 -15
-2 -15 -10 -2 -6 10 -10 -91 -10 -295 l0 -310 48 -28 c26 -16 58 -37 72 -49
l25 -20 -30 18 c-16 10 -49 29 -73 42 -39 22 -42 23 -42 5 0 -11 6 -25 13 -32
10 -11 10 -13 0 -7 -10 6 -13 -16 -13 -95 0 -92 3 -107 26 -148 l26 -46 -26
30 -25 30 -1 -150 0 -150 39 61 c21 34 45 65 52 70 12 6 12 5 1 -8 -11 -14 -6
-16 43 -23 30 -3 59 -4 65 0 5 3 10 1 10 -4 0 -6 -7 -11 -16 -11 -12 0 -8 -10
14 -42 17 -24 33 -60 37 -81 5 -34 4 -39 -15 -44 -13 -3 -20 -12 -18 -22 5
-23 138 -22 193 3 l40 17 -28 15 c-15 8 -27 17 -27 19 0 9 24 0 38 -12 19 -18
24 -17 59 17 36 35 48 72 33 100 -5 10 -10 27 -9 37 0 10 5 3 10 -15 20 -67
48 8 29 77 -12 44 -7 43 -115 45 -27 1 -55 -2 -60 -6 -30 -20 -59 6 -139 129
-26 40 -69 92 -94 114 -42 37 -43 40 -13 23 19 -10 61 -55 93 -99 32 -44 70
-93 83 -110 l24 -30 0 34 c1 57 -72 175 -131 211 -26 17 -48 32 -48 36 0 7 67
-33 93 -55 10 -8 30 -37 45 -63 15 -26 30 -48 33 -48 4 0 20 40 37 88 30 84
31 92 20 156 -6 39 -17 70 -25 73 -15 6 -18 39 -3 48 11 7 14 48 3 59 -4 4 -8
23 -8 44 -1 20 -9 63 -19 94 -18 54 -18 59 -2 84 18 26 71 54 103 54 9 0 37
-22 62 -48 26 -26 74 -70 109 -97 50 -39 67 -47 80 -39 34 22 54 62 62 127 7
55 13 71 36 92 46 40 85 62 152 84 77 26 92 20 120 -51 104 -261 106 -265 150
-250 20 7 31 6 40 -4 11 -12 10 -15 -1 -20 -9 -3 -12 -15 -9 -35 l4 -30 27 24
c28 26 63 47 80 47 37 0 55 -79 25 -116 -15 -19 -16 -19 -9 1 6 18 5 18 -17
-2 -24 -23 -77 -47 -85 -39 -3 3 13 14 36 25 52 27 71 59 53 89 -18 28 -122
-60 -122 -104 0 -18 -57 -72 -115 -109 -52 -34 -54 -34 -89 -20 -19 8 -53 15
-74 15 -35 0 -40 -3 -45 -28 -11 -54 -117 -79 -197 -46 -19 8 -25 12 -13 10
19 -3 20 -1 10 15 -6 10 -14 15 -17 10 -3 -4 -19 -15 -37 -23 -25 -13 -30 -13
-26 -2 3 8 14 14 24 14 25 0 35 43 19 78 l-12 27 -10 -25 c-5 -14 -18 -43 -28
-65 -22 -47 -43 -125 -36 -132 2 -3 10 13 16 36 6 23 13 41 16 41 7 0 -4 -62
-23 -128 -14 -50 -16 -126 -4 -147 6 -10 7 -17 10 -73 l1 -34 53 6 c50 5 51 5
17 -7 -58 -20 -60 -23 -43 -67 17 -42 27 -49 40 -27 4 7 23 19 41 26 38 16 89
71 98 106 3 14 10 25 15 25 11 0 -6 -45 -32 -81 l-20 -29 34 0 c20 0 46 9 61
21 31 24 60 76 46 81 -10 3 -32 80 -45 153 -3 22 -18 54 -31 70 l-25 30 6 -50
c10 -75 24 -126 46 -164 26 -44 16 -53 -11 -10 -33 54 -50 129 -48 208 1 68 3
71 17 53 13 -16 32 -21 98 -24 83 -5 123 -22 123 -53 0 -19 42 -52 47 -37 3 6
14 12 25 12 15 0 18 -5 14 -16 -6 -15 -4 -15 16 -2 12 8 28 32 35 54 8 21 20
46 28 54 13 13 15 12 15 -8 0 -12 -11 -49 -24 -82 -14 -33 -20 -60 -14 -60 6
0 8 -11 6 -24 -3 -17 0 -23 11 -22 10 1 15 -6 13 -17 -2 -11 4 -17 15 -17 13
0 15 -2 5 -9 -10 -6 -10 -10 3 -21 12 -10 18 -10 30 0 27 22 57 123 64 215 l7
90 7 -63 c5 -35 5 -84 1 -110 -7 -48 -53 -153 -81 -185 -15 -16 -15 -19 3 -33
16 -14 17 -15 2 -10 -18 5 -24 -5 -11 -18 11 -11 12 -36 1 -36 -5 0 -6 -10 -2
-22 5 -18 0 -14 -22 12 -15 19 -29 36 -29 38 -3 4 -70 -21 -83 -31 -14 -11
-83 -16 -76 -6 5 8 -46 30 -56 24 -4 -3 -15 6 -24 20 -21 32 -69 34 -89 4 -12
-16 -30 -22 -75 -26 -67 -6 -135 -39 -140 -67 -2 -11 6 -39 18 -63 l21 -43
181 0 c156 0 184 2 200 17 18 16 18 16 12 0 -6 -15 6 -17 134 -17 l141 0 28
37 c15 21 30 40 33 43 6 6 30 58 30 65 0 3 -14 5 -30 5 -44 0 -70 19 -61 44 5
12 7 31 6 43 -1 12 2 20 7 17 4 -3 8 -13 8 -22 0 -13 2 -13 15 4 19 24 19 15
0 -29 -16 -40 -12 -47 27 -47 24 0 32 6 44 35 20 49 18 75 -6 75 -11 0 -20 4
-20 8 0 5 10 8 23 8 21 -1 22 2 25 104 3 97 -17 244 -36 275 -10 15 -11 65 -1
59 5 -2 17 -35 29 -73 34 -115 48 -369 22 -417 -9 -17 -8 -25 4 -40 14 -17 15
-18 10 -1 -3 10 -2 16 3 13 5 -3 14 1 21 9 7 8 9 15 4 15 -5 0 -4 4 2 8 28 18
79 207 100 365 l6 48 -44 -6 -43 -5 43 11 c92 22 56 69 -46 61 -48 -4 -63 -2
-58 7 4 7 -4 15 -21 22 -21 8 -37 7 -67 -5 -21 -9 -42 -13 -46 -11 -4 3 -15
-6 -24 -20 -17 -25 -143 -101 -153 -91 -3 3 10 13 28 23 101 53 187 190 176
278 -6 42 -43 85 -75 85 -20 1 -73 29 -54 30 21 0 13 22 -37 94 -68 100 -96
156 -76 156 8 0 21 -13 30 -29 30 -59 75 -117 150 -195 42 -44 81 -90 86 -103
14 -38 10 -95 -11 -140 -20 -45 -14 -61 24 -54 10 1 39 -5 63 -14 29 -11 61
-16 88 -13 29 4 48 1 57 -9 12 -11 17 -4 32 48 18 57 18 62 1 77 -16 16 -18
16 -30 -3 -38 -55 -44 -57 -24 -10 12 28 35 67 52 88 16 21 28 39 26 40 -2 1
-14 11 -27 21 -22 19 -22 19 -49 -5 -14 -13 -22 -18 -18 -10 5 8 8 34 6 57 -1
23 3 45 9 49 6 4 10 -7 10 -29 0 -40 14 -48 25 -13 8 21 8 21 12 -5 2 -14 11
-32 18 -38 24 -20 31 16 11 56 -19 41 -19 44 -6 44 6 0 10 -8 10 -18 0 -10 4
-22 9 -28 5 -5 11 -22 13 -39 l3 -30 67 67 c37 38 74 68 82 68 11 0 8 -8 -11
-28 -14 -15 -32 -40 -39 -57 -9 -20 -13 -24 -14 -12 0 17 -2 17 -28 -3 -15
-12 -27 -25 -28 -28 0 -4 -4 -19 -8 -35 -5 -15 -6 -38 -2 -50 5 -21 12 -24 51
-24 29 0 52 -6 62 -16 14 -14 14 -21 0 -79 -15 -58 -15 -64 0 -76 24 -18 28
-16 43 26 31 86 31 99 -5 130 -31 28 -63 92 -45 92 5 0 11 -13 15 -28 3 -16
19 -38 34 -50 l29 -21 6 25 c4 16 2 32 -6 42 -11 13 -10 15 5 9 14 -5 17 -1
17 23 0 17 7 33 17 39 10 6 13 11 8 11 -6 0 -11 9 -12 21 -2 17 1 18 13 9 26
-22 16 16 -13 51 -25 29 -25 31 -5 20 24 -13 54 -64 50 -84 -3 -14 57 -84 86
-99 16 -8 18 -7 13 6 -11 27 -2 18 36 -37 29 -42 37 -65 42 -122 8 -79 58
-190 82 -181 7 3 12 2 10 -2 -1 -4 12 -24 28 -45 21 -27 44 -42 79 -52 76 -23
76 -23 76 51 0 59 -2 65 -15 54 -13 -11 -18 -10 -30 6 -12 17 -11 20 16 27
l30 8 -2 285 c-1 278 -2 286 -21 281 -15 -4 -17 -2 -9 7 6 7 8 16 4 19 -3 4 1
7 10 7 14 0 17 10 17 54 0 55 -16 76 -43 59 -7 -4 -6 1 2 10 7 9 20 17 27 17
11 0 14 20 13 95 -1 52 -6 95 -10 95 -14 0 -10 48 4 53 6 3 -3 6 -21 6 -29 1
-32 -2 -27 -21 9 -38 -7 -50 -60 -46 -27 2 -50 8 -52 15 -3 7 3 10 15 6 12 -3
22 2 26 13 9 22 5 25 -44 31 -58 8 -67 -11 -26 -54 28 -28 40 -33 79 -33 53 0
81 -27 71 -67 -8 -32 4 -29 17 3 5 15 12 25 14 22 5 -5 -32 -107 -45 -123 -4
-5 -22 -59 -40 -120 -18 -60 -36 -117 -41 -126 -9 -17 -1 -59 11 -59 4 0 10
21 13 48 3 26 20 88 36 137 35 105 32 63 -6 -78 l-27 -99 22 -16 c21 -16 15
-17 -103 -16 -84 1 -129 5 -140 14 -17 14 -21 35 -5 25 6 -3 10 4 10 17 0 13
3 34 6 48 4 20 3 22 -5 10 -32 -46 21 115 73 217 20 40 36 82 36 93 0 11 5 20
10 20 6 0 10 6 10 13 0 17 90 23 101 6 4 -7 14 -9 24 -6 30 12 4 27 -47 27
-36 0 -55 5 -65 18 -10 12 -16 13 -19 5 -4 -9 -11 -9 -30 -1 -24 11 -34 38
-14 38 6 0 10 15 10 33 0 32 2 33 31 29 34 -5 55 14 38 34 -12 15 25 48 47 40
9 -3 18 -15 21 -26 3 -11 8 -20 12 -21 3 0 14 -2 25 -4 10 -2 26 -1 35 3 11 5
6 9 -19 13 l-35 6 43 2 42 1 0 121 0 121 -32 -7 c-38 -8 -58 -22 -58 -41 0
-29 -16 -20 -17 9 -1 38 35 70 79 70 l28 0 0 113 0 112 -51 51 c-28 28 -48 51
-44 51 5 0 25 -19 47 -42 21 -23 41 -39 44 -35 3 3 -1 27 -9 54 -8 26 -15 57
-15 68 0 30 -12 79 -22 89 -4 4 -13 -1 -19 -13 -7 -12 -8 -21 -4 -21 9 0 -19
-20 -28 -20 -4 0 -6 8 -5 17 0 10 -9 20 -24 24 -23 6 -22 7 8 8 18 1 41 5 51
10 22 12 32 5 53 -39 l18 -35 -3 80 c-2 44 -7 89 -12 99 -5 12 -5 17 2 13 6
-4 10 21 11 65 2 57 -2 77 -20 107 -12 20 -28 40 -36 44 -20 13 13 47 39 40
13 -4 19 0 19 12 0 14 -3 15 -14 6 -11 -9 -15 -9 -19 1 -3 9 -12 4 -30 -14
-24 -25 -69 -39 -66 -20 4 26 -2 33 -17 18 -20 -20 -58 -20 -78 0 -18 18 -21
86 -6 131 11 29 55 63 84 63 13 0 16 11 16 55 l0 55 40 0 c37 0 40 -2 35 -22
-11 -49 -35 -202 -35 -224 0 -13 4 -24 9 -24 5 0 8 6 8 13 -1 6 2 34 6 60 6
36 12 47 23 43 8 -3 14 1 14 9 0 8 7 15 15 15 13 0 15 33 15 235 l0 235 -1014
0 c-993 0 -1014 -1 -1031 -20 -20 -22 -43 -16 -24 6 9 12 6 14 -20 14 -17 0
-31 -5 -31 -10 0 -6 -8 -5 -20 2 -33 21 -45 -1 -33 -61 8 -39 7 -51 -3 -55
-10 -4 -12 2 -7 24 4 23 2 30 -11 30 -9 0 -16 8 -17 18 0 14 -2 14 -7 2 -7
-15 -32 -26 -32 -13 0 4 12 20 27 35 l27 28 -37 0 c-19 0 -39 -5 -43 -11 -4
-8 1 -9 15 -4 20 6 21 5 10 -13 -7 -12 -16 -19 -20 -16 -11 7 -60 -56 -53 -68
4 -7 2 -8 -5 -4 -6 4 -14 0 -17 -9 -7 -18 23 -45 43 -38 7 3 13 -2 13 -11 0
-9 5 -16 10 -16 6 0 10 5 10 10 0 6 4 10 10 10 5 0 7 -7 3 -16 -4 -10 11 -33
43 -67 l49 -52 -45 42 -45 42 -26 -22 c-15 -12 -29 -29 -32 -37 -4 -12 -6 -12
-6 2 -1 9 6 23 14 32 17 16 21 51 5 41 -5 -3 -10 0 -10 7 -1 20 -49 51 -68 43
-11 -4 -7 5 11 22 15 16 27 34 27 40 0 6 7 14 15 17 14 5 14 9 0 36 -16 32
-63 45 -51 14 5 -12 1 -14 -15 -9 -11 4 -27 1 -35 -6 -18 -15 -27 -8 -18 15 4
10 13 15 21 12 8 -3 11 -1 8 4 -3 6 -15 10 -26 10 -18 0 -19 -11 -19 -395z
m370 361 c0 -2 -7 -6 -15 -10 -8 -3 -15 -1 -15 4 0 6 7 10 15 10 8 0 15 -2 15
-4z m17 -67 c2 -17 0 -19 -14 -8 -13 11 -19 8 -44 -21 -31 -38 -35 -33 -14 20
9 23 14 28 14 15 1 -18 2 -18 18 2 20 24 38 21 40 -8z m437 -67 c-6 -14 -8
-13 -14 8 -9 31 0 48 12 26 5 -10 6 -25 2 -34z m-433 20 c-5 -9 -7 -38 -4 -64
7 -56 -4 -109 -17 -88 -15 24 3 170 21 170 6 0 6 -7 0 -18z m-98 -35 c-3 -5
-10 -4 -15 1 -6 6 -7 16 -3 22 6 9 9 9 16 -1 4 -7 5 -17 2 -22z m437 3 c0 -10
8 -20 19 -23 14 -3 20 -16 23 -48 5 -48 2 -62 -13 -54 -5 4 -9 24 -9 46 0 21
-4 39 -10 39 -5 0 -10 -20 -10 -45 0 -33 -4 -45 -15 -45 -12 0 -15 13 -14 61
2 58 -7 78 -33 79 -5 0 -8 -31 -8 -70 0 -56 -3 -70 -15 -70 -12 0 -15 14 -15
70 0 66 -1 70 -22 71 -19 0 -20 2 -6 7 9 4 42 5 73 4 45 -3 55 -7 55 -22z
m340 5 c0 -17 5 -25 18 -25 18 0 42 -48 42 -83 0 -30 -18 -18 -30 21 -20 61
-33 64 -28 5 l5 -51 -51 3 c-28 2 -54 3 -57 4 -4 1 -9 10 -12 22 -7 28 -41 21
-45 -9 -3 -18 -22 -33 -22 -17 0 13 42 131 50 138 4 5 18 -21 30 -57 12 -36
24 -66 27 -66 3 0 3 9 0 21 -8 29 12 69 35 69 12 0 19 6 17 18 -2 26 0 32 11
32 6 0 10 -11 10 -25z m730 15 c23 -12 43 -70 34 -96 -30 -84 -119 -63 -119
28 0 30 6 45 24 59 27 22 35 23 61 9z m108 -8 c2 -7 -3 -12 -12 -12 -9 0 -15
-8 -14 -17 4 -55 -3 -113 -14 -113 -19 0 -15 140 4 151 16 11 30 7 36 -9z
m-1828 -39 c0 -26 -16 -12 -18 15 -1 21 0 23 8 12 5 -8 10 -21 10 -27z m1270
23 c0 -8 10 -16 23 -18 18 -2 23 -11 27 -48 4 -39 6 -41 12 -20 4 14 8 35 8
48 0 12 5 22 10 22 6 0 10 -24 10 -54 0 -52 -1 -54 -27 -54 -34 0 -43 12 -43
61 0 25 -4 36 -11 32 -6 -4 -10 -23 -9 -44 3 -52 2 -55 -15 -41 -24 20 -19
130 6 130 5 0 9 -6 9 -14z m-502 -43 c3 -18 -2 -23 -17 -23 -23 0 -24 -1 -15
-24 3 -9 11 -13 16 -10 6 4 9 1 6 -7 -7 -22 -31 -16 -47 13 -12 21 -13 31 -3
53 15 33 55 32 60 -2z m315 10 c8 21 43 22 51 1 10 -26 7 -34 -14 -34 -23 0
-27 -28 -5 -36 17 -7 10 -24 -9 -24 -16 0 -33 34 -40 80 -4 23 -3 28 2 16 8
-18 9 -18 15 -3z m139 3 c4 -6 8 -30 8 -53 0 -32 -4 -43 -15 -43 -11 0 -15 12
-15 45 0 25 -4 45 -10 45 -5 0 -10 -20 -10 -45 0 -31 -4 -45 -13 -45 -10 0
-14 16 -16 54 l-1 55 32 -1 c18 -1 36 -6 40 -12z m280 0 c14 -20 8 -36 -12
-36 -24 0 -26 -13 -5 -34 10 -10 12 -17 5 -21 -16 -10 -38 13 -42 43 -2 16
-10 28 -20 30 -15 3 -18 -4 -18 -38 0 -60 -21 -46 -25 16 l-4 51 57 0 c31 0
60 -5 64 -11z m68 4 c0 -5 -7 -6 -17 -3 -18 7 -13 -7 14 -39 9 -10 12 -25 8
-37 -7 -23 -22 -26 -45 -10 -12 8 -10 9 8 4 27 -8 28 -2 2 33 -24 32 -18 62
11 62 10 0 19 -4 19 -10z m-1595 -29 c-3 -5 4 -12 15 -16 23 -7 27 -22 5 -22
-8 0 -12 4 -9 9 5 7 -10 12 -28 9 -13 -2 -9 17 5 22 18 8 19 8 12 -2z m2275
-25 c0 -2 -8 -10 -17 -17 -16 -13 -17 -12 -4 4 13 16 21 21 21 13z m-1953 -85
c12 -9 23 -20 23 -24 0 -11 -29 7 -70 44 -33 30 -33 30 -5 14 17 -10 40 -25
52 -34z m1594 30 c-8 -5 -15 -22 -16 -38 -4 -58 -4 -57 -23 -40 -10 10 -26 17
-35 17 -15 0 -17 -12 -16 -92 0 -82 2 -89 12 -63 17 43 29 59 57 78 60 42 127
-2 117 -76 -5 -36 -4 -38 12 -23 10 9 32 19 49 22 27 6 32 11 32 35 0 35 -22
39 -44 7 l-16 -22 0 26 c0 34 28 50 78 46 34 -3 37 -5 35 -33 -9 -140 -14
-169 -25 -176 -19 -12 -106 -11 -113 2 -4 6 -14 8 -24 4 -13 -5 -14 -4 -3 6 6
7 12 23 12 35 0 19 -4 18 -39 -17 -54 -54 -102 -52 -127 5 l-13 31 -1 -38 c0
-21 5 -47 10 -58 10 -17 7 -19 -26 -19 -27 0 -35 4 -31 14 3 7 1 78 -5 156
-12 149 -19 167 -58 142 -14 -9 -19 -8 -24 4 -17 44 -11 46 93 40 94 -6 101
-5 111 14 6 11 16 20 23 20 8 0 7 -3 -2 -9z m-1225 -20 c-4 -6 -14 -7 -23 -4
-15 6 -14 7 3 13 22 9 29 6 20 -9z m320 -60 c-4 -25 -9 -82 -13 -125 -5 -69
-4 -81 12 -92 20 -15 14 -41 -11 -51 -11 -4 -22 1 -30 12 -13 17 -15 17 -32 2
-29 -26 -51 -20 -74 19 l-21 36 -14 -26 c-36 -68 -114 -55 -138 23 l-8 25 -15
-30 c-23 -46 -43 -64 -72 -64 -49 0 -56 16 -68 144 -6 65 -17 125 -23 133 -11
12 -6 14 32 11 l44 -3 -3 -55 -3 -55 20 23 c25 29 57 28 77 -3 l16 -24 25 29
c43 52 110 30 128 -43 l7 -27 17 32 c9 19 32 41 54 52 38 18 39 19 32 65 l-6
47 37 -4 36 -4 -6 -47z m426 35 c4 -6 8 -30 8 -53 0 -59 14 -61 35 -5 21 54
29 62 69 62 23 0 27 -3 21 -17 -4 -10 -9 -35 -12 -55 -6 -38 -5 -38 30 -38 20
0 39 -4 42 -10 4 -6 18 -1 36 12 23 17 34 20 47 12 26 -16 27 -69 3 -93 -38
-38 -74 2 -44 48 15 24 15 25 0 12 -22 -18 -40 -87 -34 -128 5 -25 1 -35 -13
-43 -10 -5 -21 -10 -23 -10 -2 0 -6 33 -9 73 -3 39 -11 83 -18 97 l-14 25 -9
-35 c-5 -19 -7 -72 -5 -117 3 -85 0 -92 -47 -93 -6 0 -9 48 -8 127 l2 128 -22
-57 c-12 -31 -25 -59 -28 -62 -3 -4 -12 20 -19 51 -14 67 -29 100 -30 68 0
-11 -12 -58 -27 -104 -20 -65 -36 -94 -68 -128 -36 -37 -47 -43 -82 -43 -55 0
-75 23 -45 53 12 12 22 16 22 10 0 -6 7 -19 16 -27 13 -14 19 -14 43 -1 16 8
35 29 44 47 21 46 69 242 67 275 -1 16 -2 31 -1 35 1 11 65 -3 73 -16z m-1360
-109 c-2 -67 1 -149 7 -181 6 -33 10 -61 8 -63 -2 -1 -17 -5 -33 -9 -29 -6
-30 -5 -26 29 5 46 -28 311 -39 315 -22 9 -5 21 34 25 23 2 44 4 47 5 3 1 3
-53 2 -121z m196 48 c-5 -56 3 -70 21 -37 7 13 6 23 -1 30 -9 9 -9 12 0 12 7
0 12 -4 12 -8 0 -4 15 -12 33 -17 28 -9 32 -14 32 -45 0 -19 -4 -52 -8 -72
l-8 -37 30 29 c17 18 40 30 55 30 30 0 35 25 11 56 -14 18 -16 18 -29 2 -18
-24 -28 -22 -24 4 4 31 61 45 94 23 24 -15 24 -19 18 -95 -5 -59 -3 -84 6 -96
19 -22 -2 -34 -61 -34 -47 0 -89 26 -89 55 0 8 -4 15 -10 15 -14 0 -13 -27 1
-36 8 -4 2 -12 -15 -21 -15 -8 -30 -12 -34 -9 -3 3 0 41 6 84 15 94 15 122 2
122 -16 0 -38 -60 -45 -122 -6 -51 -18 -78 -31 -66 -2 3 -7 39 -10 81 -6 70
-8 75 -21 57 -31 -44 -78 -9 -49 35 17 26 10 41 -11 24 -36 -31 1 -175 46
-173 24 1 27 -6 9 -24 -35 -35 -90 0 -108 69 -15 54 -5 105 25 135 31 31 50
30 82 -2 l25 -25 -4 38 c-3 21 -8 46 -12 56 -7 14 -3 17 29 17 l37 0 -4 -55z
m1725 18 c-7 -2 -19 -2 -25 0 -7 3 -2 5 12 5 14 0 19 -2 13 -5z m-723 -92 c0
-56 -1 -58 -25 -58 -47 0 -57 64 -14 88 11 5 17 14 14 20 -4 5 1 9 9 9 13 0
16 -12 16 -59z m-156 13 c3 -9 6 -28 6 -44 0 -25 -3 -28 -27 -26 -19 1 -27 7
-24 17 2 8 3 23 3 34 -2 31 31 47 42 19z m74 -32 c2 -25 -1 -42 -7 -42 -6 0
-12 17 -13 38 l-1 37 -4 -37 c-5 -50 -20 -48 -25 3 -4 47 -5 46 24 44 19 -1
23 -8 26 -43z m519 -136 c-8 -20 -36 -21 -43 -1 -4 8 0 22 7 31 11 13 14 13
27 0 8 -8 12 -22 9 -30z m503 -26 c0 -5 15 -10 34 -10 48 0 91 -28 106 -68 6
-18 9 -36 6 -39 -3 -4 -6 1 -6 9 0 17 -28 28 -74 28 -21 0 -27 -4 -22 -15 3
-8 0 -15 -6 -15 -7 0 -7 -4 1 -13 12 -16 5 -27 -18 -27 -9 0 -21 -10 -26 -22
-6 -13 -20 -27 -32 -33 -13 -5 -23 -16 -23 -24 0 -10 -3 -11 -13 -3 -7 6 -23
9 -35 5 -12 -3 -22 -1 -22 4 0 5 -20 15 -44 22 l-45 13 25 25 c14 14 31 22 40
19 8 -3 17 1 20 9 4 8 14 15 24 15 23 0 35 16 18 23 -8 3 -6 6 5 6 20 1 23 17
5 24 -10 4 -9 8 2 16 8 6 11 11 5 11 -5 0 -2 5 7 11 9 5 15 15 12 22 -3 8 6
14 26 15 16 1 30 -2 30 -8z m-640 -109 c0 -5 -29 -40 -66 -76 -50 -51 -63 -70
-54 -80 6 -7 19 -30 30 -51 21 -42 27 -34 10 13 -9 26 -9 27 5 9 8 -11 15 -24
15 -30 0 -5 13 2 28 17 36 34 58 34 76 -1 33 -64 30 -92 -16 -162 -24 -36 -46
-67 -51 -68 -4 -2 -16 -21 -27 -42 -10 -20 -42 -62 -70 -93 -29 -32 -50 -65
-51 -78 0 -22 -1 -23 -8 -4 -7 16 3 33 44 80 62 72 66 78 75 122 8 35 -16 143
-32 143 -5 0 -8 -5 -8 -10 0 -6 -15 -19 -32 -30 -29 -17 -30 -20 -11 -20 29 0
32 -7 38 -77 l4 -58 -24 50 c-16 35 -24 44 -24 28 -1 -12 -6 -25 -12 -29 -7
-4 -9 0 -5 12 6 20 -12 56 -20 39 -19 -44 -33 -60 -52 -63 -12 -2 -22 1 -22 6
0 5 -10 8 -22 8 -18 -1 -23 4 -22 22 1 27 -6 21 -38 -38 -14 -25 -23 -53 -21
-63 4 -14 11 -9 34 23 29 40 31 41 52 26 52 -38 66 -41 97 -18 31 23 40 27 40
14 0 -4 -12 -15 -27 -25 l-28 -17 33 6 c17 4 32 4 32 1 0 -11 -91 -46 -105
-41 -8 4 -15 1 -15 -5 0 -13 45 -25 59 -16 18 10 12 -11 -6 -28 -32 -28 -59
-24 -128 21 -87 58 -110 100 -102 192 6 59 5 63 -9 45 -9 -12 -13 -36 -12 -64
2 -24 -1 -45 -7 -47 -5 -2 -32 17 -59 41 l-49 45 6 54 c6 59 30 114 53 123 9
3 28 -7 48 -26 35 -34 42 -37 49 -18 2 6 3 4 2 -5 -6 -35 12 -26 24 11 18 63
42 85 87 83 22 -1 66 3 99 9 56 10 64 15 125 79 71 75 70 74 70 61z m-105 -18
c-16 -8 -45 -29 -63 -47 -22 -21 -31 -25 -26 -12 4 11 2 22 -7 28 -11 8 -10 9
4 4 9 -3 33 5 53 19 20 14 44 25 53 25 9 -1 3 -7 -14 -17z m-248 -19 c-3 -3
-12 -4 -19 -1 -8 3 -5 6 6 6 11 1 17 -2 13 -5z m-65 -12 c-14 -10 -6 -42 11
-42 6 0 8 -2 5 -5 -7 -8 -98 36 -98 47 0 4 21 8 48 8 28 0 42 -4 34 -8z m-456
-110 c8 -41 -2 -55 -12 -16 -4 16 -18 49 -32 74 l-25 45 31 -35 c17 -19 34
-50 38 -68z m1194 66 c0 -5 -5 -8 -11 -8 -5 0 -8 -4 -4 -9 3 -5 -4 -12 -15
-16 -11 -4 -17 -11 -14 -17 4 -7 9 -6 14 1 4 7 11 11 16 9 13 -3 54 21 54 32
0 6 -7 10 -15 10 -8 0 -15 5 -15 10 0 17 28 11 39 -7 6 -10 11 -12 11 -5 0 15
30 16 30 1 0 -7 14 -25 31 -42 25 -23 28 -31 18 -38 -11 -7 -10 -9 5 -9 12 0
16 -5 12 -15 -3 -8 3 -19 12 -25 16 -9 15 -12 -7 -30 -19 -16 -21 -23 -11 -35
7 -8 16 -13 20 -10 4 3 13 -2 20 -10 11 -13 10 -14 -5 -9 -13 5 -16 4 -10 -5
4 -8 21 -11 41 -9 19 2 34 0 34 -4 0 -4 -13 -8 -29 -8 -23 0 -30 -6 -35 -25
-4 -14 -4 -30 -1 -35 3 -5 -2 -21 -11 -35 -21 -32 -5 -32 30 0 15 14 36 25 47
25 10 0 19 6 20 13 0 6 13 -14 29 -46 16 -32 39 -66 52 -77 20 -16 21 -21 9
-32 -10 -9 -12 -9 -7 0 4 6 3 12 -2 12 -6 0 -13 -16 -17 -36 -7 -42 -20 -66
-54 -103 -19 -21 -20 -27 -8 -29 9 -2 26 2 39 9 22 12 22 11 8 -6 -14 -17 -14
-18 8 -6 13 7 22 18 19 24 -2 7 7 28 20 47 14 19 22 26 18 15 -5 -11 -10 -56
-11 -99 -4 -78 -14 -121 -14 -56 l0 33 -53 -6 c-70 -7 -117 -31 -145 -74 -18
-26 -27 -32 -35 -24 -8 8 -8 14 1 23 9 9 12 9 13 -3 1 -16 17 18 18 39 1 10
-4 10 -20 2 -15 -9 -24 -8 -35 1 -13 10 -20 10 -37 -1 -21 -12 -21 -12 -6 6
19 22 15 45 -7 37 -23 -9 -17 0 47 62 33 33 59 56 58 50 -5 -28 2 -33 32 -25
22 7 29 6 26 -3 -3 -7 -10 -11 -16 -9 -6 1 -11 -2 -11 -7 0 -5 -12 -14 -27
-20 -26 -10 -26 -10 7 -5 55 10 80 22 80 39 0 8 5 15 10 15 17 0 11 18 -7 24
-11 3 -7 4 7 3 15 -1 24 3 22 11 -1 6 3 11 10 10 6 -2 18 14 26 35 13 33 13
40 1 52 -16 16 -116 28 -124 15 -3 -4 -19 -6 -37 -5 -23 2 -41 -4 -57 -19 -23
-20 -23 -20 -13 -1 10 19 8 21 -23 17 -23 -3 -40 -13 -52 -31 -9 -14 -17 -28
-16 -31 1 -3 -5 -11 -13 -18 -11 -10 -14 -10 -14 0 0 6 -6 3 -14 -7 -8 -11
-11 -24 -8 -30 4 -5 6 -19 5 -30 -2 -11 0 -14 3 -7 5 10 11 10 29 -2 15 -10
26 -12 30 -6 9 15 28 12 22 -4 -4 -9 0 -12 13 -9 28 7 14 -36 -16 -47 -12 -5
-33 -23 -45 -40 -13 -17 -34 -38 -47 -46 -22 -14 -21 -11 8 24 30 38 34 70 7
56 -7 -3 -4 1 6 9 20 16 13 47 -10 47 -8 0 -35 -14 -60 -31 -33 -23 -43 -36
-40 -50 3 -12 0 -19 -9 -19 -7 0 -19 -10 -25 -22 -8 -14 -14 -18 -17 -10 -6
20 -19 14 -26 -14 -11 -43 -15 -23 -6 33 5 29 20 69 35 90 20 28 26 32 22 16
-3 -13 -1 -23 4 -23 16 0 69 53 69 69 1 14 2 13 11 -1 16 -28 25 -21 21 15 -2
22 3 45 17 68 19 31 21 32 21 10 0 -23 1 -24 20 -6 20 19 28 41 10 30 -5 -3
-10 -2 -10 4 0 5 5 13 10 16 18 11 10 26 -12 25 -41 -4 -48 -1 -41 18 6 15 5
15 -10 3 -27 -22 -20 3 9 30 l25 24 -5 -28 c-4 -22 -1 -27 15 -27 11 0 19 7
19 18 0 13 2 14 9 3 5 -7 27 -15 50 -16 32 -3 46 1 61 18 11 11 20 27 20 35 0
9 6 12 16 8 12 -5 11 0 -4 19 -11 14 -25 56 -32 95 -7 41 -22 84 -36 105 -13
20 -24 42 -24 50 0 21 -5 19 -55 -15 -26 -18 -45 -25 -47 -18 -3 8 -10 8 -28
-1 -24 -11 -24 -11 -6 3 17 14 18 16 3 16 -21 0 -21 7 -1 27 13 14 17 14 25 2
7 -11 9 -10 10 6 1 11 1 26 0 33 -2 10 2 10 18 0 12 -7 21 -16 21 -20z m447
-50 c-3 -8 -6 -5 -6 6 -1 11 2 17 5 13 3 -3 4 -12 1 -19z m-1932 3 c17 -7 17
-8 -8 -13 -19 -4 -27 -1 -27 8 0 15 6 16 35 5z m-45 -16 c0 -8 -4 -15 -10 -15
-5 0 -7 7 -4 15 4 8 8 15 10 15 2 0 4 -7 4 -15z m128 8 c-10 -2 -28 -2 -40 0
-13 2 -5 4 17 4 22 1 32 -1 23 -4z m1899 -25 c-3 -8 -6 -5 -6 6 -1 11 2 17 5
13 3 -3 4 -12 1 -19z m-451 -43 c-3 -9 -11 -13 -16 -10 -8 5 -7 11 1 21 14 18
24 11 15 -11z m46 -48 c-6 -53 -26 -69 -30 -25 -2 17 -1 48 3 67 6 32 8 34 20
18 8 -12 11 -33 7 -60z m238 49 c0 -8 -5 -18 -11 -21 -6 -4 -14 -17 -19 -29
-8 -20 -9 -20 -9 4 -1 21 -6 25 -37 28 -81 5 -53 28 39 31 26 1 37 -3 37 -13z
m-2002 -91 c0 -16 -2 -15 -8 5 -4 14 -8 34 -8 45 0 16 2 15 8 -5 4 -14 8 -34
8 -45z m1454 3 c-7 -7 -12 -8 -12 -2 0 6 3 14 7 17 3 4 9 5 12 2 2 -3 -1 -11
-7 -17z m555 -28 c0 -54 -7 -60 -36 -32 -16 15 -17 20 -4 47 13 29 14 29 8 3
-3 -15 -1 -30 5 -33 6 -3 7 1 4 9 -3 9 -1 16 6 16 6 0 8 5 5 10 -6 9 1 30 10
30 1 0 3 -22 2 -50z m-1979 -1 c0 -22 -2 -29 -10 -21 -5 5 -7 19 -3 31 9 29
12 26 13 -10z m2079 -19 c6 -8 10 -16 9 -18 -5 -4 -66 55 -66 64 0 8 38 -23
57 -46z m30 24 c-3 -3 -12 -4 -19 -1 -8 3 -5 6 6 6 11 1 17 -2 13 -5z m-1567
-14 c0 -5 -7 -7 -15 -4 -8 4 -15 8 -15 10 0 2 7 4 15 4 8 0 15 -4 15 -10z
m1107 -4 c-14 -11 -15 -15 -5 -19 9 -4 9 -6 1 -6 -19 -1 -27 20 -12 30 22 14
36 10 16 -5z m393 -25 c0 -4 -11 -6 -25 -3 -14 2 -25 6 -25 8 0 2 11 4 25 4
14 0 25 -4 25 -9z m-43 -60 c10 -15 9 -22 -2 -31 -12 -10 -15 -9 -15 3 0 8 -3
22 -6 31 -9 22 9 20 23 -3z m-1810 -33 c-3 -7 -5 -2 -5 12 0 14 2 19 5 13 2
-7 2 -19 0 -25z m1783 12 c0 -5 -2 -10 -4 -10 -3 0 -8 5 -11 10 -3 6 -1 10 4
10 6 0 11 -4 11 -10z m-1338 -60 c-30 -32 -55 -124 -50 -180 3 -29 0 -57 -8
-71 -18 -32 -17 -47 1 -23 17 22 19 15 6 -20 -9 -21 -6 -27 17 -42 26 -18 41
-19 88 -9 19 4 30 -13 93 -138 l71 -142 -3 -112 c-2 -91 -4 -109 -15 -100 -11
8 -12 34 -7 111 4 63 2 107 -4 116 -6 8 -11 11 -12 5 0 -5 -7 6 -14 25 l-13
35 -1 -47 c-1 -40 -6 -53 -36 -83 -23 -23 -30 -35 -20 -35 8 0 15 -9 15 -20 0
-12 7 -21 18 -21 9 -1 -13 -5 -49 -9 -52 -5 -90 -18 -165 -56 -91 -45 -99 -52
-104 -82 -3 -18 -8 -33 -12 -32 -24 1 -28 -2 -28 -22 0 -13 -4 -29 -9 -37 -7
-10 -11 -5 -16 17 -7 36 0 69 22 94 14 15 12 21 -16 61 -37 50 -47 98 -33 150
13 45 -6 52 -32 12 -10 -15 -26 -25 -39 -25 -20 1 -20 2 -4 11 9 5 17 18 17
27 0 9 9 23 20 30 12 7 18 17 15 22 -3 5 3 7 15 5 11 -2 23 1 26 7 4 7 2 8 -4
4 -13 -8 -15 -1 -6 32 4 15 12 21 21 18 8 -3 13 0 12 7 -3 16 21 77 29 75 4
-1 25 7 46 19 l40 20 -28 28 c-24 24 -33 27 -72 22 -24 -2 -47 -1 -50 4 -3 5
-26 15 -52 24 -41 13 -43 14 -14 12 18 -1 36 4 41 11 4 7 2 52 -5 100 -8 48
-14 101 -14 119 0 37 3 37 90 -12 57 -32 100 -88 100 -132 0 -18 25 -43 42
-43 2 0 2 33 0 73 -3 59 0 82 16 113 30 59 85 130 89 117 3 -7 -4 -22 -15 -33z
m-418 -30 c-1 -22 -6 -45 -10 -51 -12 -20 -15 -77 -4 -84 13 -8 13 -52 0 -60
-22 -14 -8 -23 28 -19 29 4 32 2 16 -5 -26 -11 -38 -39 -25 -55 15 -17 9 -86
-7 -86 -7 0 -11 4 -7 9 7 12 -14 25 -40 26 -15 0 -19 6 -17 25 1 14 4 50 5 82
1 31 5 51 9 45 12 -19 9 22 -3 44 -8 16 -7 23 4 32 8 7 17 34 21 61 5 40 19
76 31 76 1 0 1 -18 -1 -40z m462 -61 c6 -45 9 -50 28 -46 12 3 32 8 46 11 14
4 5 -3 -20 -14 -25 -12 -58 -33 -75 -48 -29 -26 -29 -26 -7 -1 21 24 32 76 13
65 -5 -3 -8 25 -8 62 0 74 11 60 23 -29z m1358 45 c3 -8 2 -12 -4 -9 -6 3 -10
10 -10 16 0 14 7 11 14 -7z m-297 -36 c-3 -8 -6 -5 -6 6 -1 11 2 17 5 13 3 -3
4 -12 1 -19z m-1612 -9 c5 1 9 -11 10 -26 1 -16 5 -37 8 -48 4 -11 -2 -2 -13
20 -11 22 -20 36 -20 30 0 -5 -4 -4 -9 4 -5 8 -7 21 -4 28 4 11 8 11 13 3 4
-6 11 -11 15 -11z m710 11 c3 -5 -1 -10 -9 -10 -10 0 -16 -9 -16 -22 0 -12 -3
-19 -6 -15 -9 9 4 57 16 57 5 0 12 -4 15 -10z m122 -59 c-19 -22 -40 -48 -46
-60 -10 -18 -7 -21 29 -31 29 -8 46 -20 60 -43 10 -18 24 -37 29 -44 16 -18
14 -20 -19 -26 -56 -12 -78 -113 -45 -207 21 -59 12 -61 -15 -5 -16 33 -22 63
-21 106 0 56 -1 59 -19 49 -10 -5 -38 -10 -61 -10 -26 0 -51 -7 -63 -17 -17
-15 -17 -13 2 8 16 19 30 25 47 21 42 -8 75 7 122 54 45 43 45 45 28 64 -10
11 -36 23 -57 26 -21 4 -41 10 -44 15 -11 19 74 139 98 139 6 0 -6 -18 -25
-39z m-46 -4 c-10 -9 -11 -8 -5 6 3 10 9 15 12 12 3 -3 0 -11 -7 -18z m199
-50 c0 -11 -8 -29 -17 -39 -13 -15 -14 -21 -5 -27 13 -8 6 -71 -8 -71 -13 0
-38 84 -43 146 l-5 61 39 -25 c24 -16 39 -33 39 -45z m27 -31 c-19 -57 -11
-58 26 -5 16 23 31 38 34 35 4 -3 -10 -30 -30 -59 -21 -30 -37 -56 -37 -60 0
-3 -10 -22 -21 -42 -16 -26 -24 -33 -30 -24 -6 10 -10 6 -17 -11 -5 -14 -12
-32 -15 -40 -3 -9 -6 -3 -6 12 -1 19 11 41 34 67 24 26 35 48 35 68 0 17 6 46
14 64 7 19 11 41 8 49 -3 12 -2 12 8 3 10 -9 9 -21 -3 -57z m117 14 c-21 -22
-42 -46 -46 -54 -11 -19 17 -29 32 -11 6 8 19 11 27 8 12 -5 15 -2 10 10 -8
22 28 24 49 3 7 -8 22 -12 33 -9 10 3 22 0 25 -6 4 -7 -1 -11 -14 -11 -12 0
-30 -5 -41 -10 -10 -6 -40 -13 -66 -15 -25 -3 -49 -7 -51 -10 -3 -3 28 -21 69
-40 54 -26 65 -34 39 -29 -42 8 -121 46 -139 68 -10 12 -9 20 5 43 22 35 96
114 102 108 3 -2 -13 -22 -34 -45z m-1172 18 c-7 -7 -12 -8 -12 -2 0 14 12 26
19 19 2 -3 -1 -11 -7 -17z m1513 -8 c-3 -5 -16 -10 -28 -9 -21 0 -21 1 -2 9
28 12 37 12 30 0z m-830 -10 c16 -7 11 -9 -20 -9 -29 -1 -36 2 -25 9 17 11 19
11 45 0z m-638 -35 c1 -20 -3 -33 -8 -30 -11 7 -12 65 -1 65 4 0 8 -16 9 -35z
m1529 -33 c-18 -16 -18 -16 -6 6 6 13 14 21 18 18 3 -4 -2 -14 -12 -24z
m-1656 -32 c0 -5 -5 -10 -11 -10 -5 0 -7 5 -4 10 3 6 8 10 11 10 2 0 4 -4 4
-10z m2019 -25 c-12 -19 -25 -33 -29 -30 -4 3 -13 -2 -20 -10 -26 -32 -29 -13
-4 25 30 45 38 50 29 18 -5 -21 -4 -20 15 5 30 37 33 34 9 -8z m-2149 21 c0
-2 -7 -7 -16 -10 -8 -3 -12 -2 -9 4 6 10 25 14 25 6z m195 -6 c4 -6 11 -8 16
-5 16 11 10 -11 -12 -39 -24 -31 -43 -34 -34 -6 4 11 2 20 -4 20 -6 0 -11 -4
-11 -10 0 -5 -4 -10 -10 -10 -15 0 -12 21 7 42 18 20 38 23 48 8z m707 -43
c19 -37 1 -26 -26 16 -24 35 -24 39 -6 22 12 -11 26 -28 32 -38z m73 26 l18
-28 -21 19 c-12 11 -22 23 -22 28 0 14 7 9 25 -19z m620 -23 c13 0 30 -9 38
-20 8 -11 20 -19 28 -17 8 2 11 2 8 0 -4 -2 -5 -43 -3 -90 4 -89 1 -79 114
-369 22 -55 40 -107 40 -115 0 -8 -9 -25 -20 -39 l-20 -25 11 33 c14 40 8 72
-25 145 -15 31 -26 59 -26 62 0 15 -74 190 -82 196 -5 3 -8 37 -7 75 3 89 -14
142 -48 150 -31 8 -45 -10 -37 -48 6 -30 -12 -72 -27 -62 -6 4 -6 11 2 20 6 7
8 22 4 31 -6 17 -7 17 -21 -1 -13 -18 -14 -17 -14 17 0 20 5 37 10 37 6 0 10
-5 10 -12 0 -11 14 -2 16 10 0 4 5 21 10 37 8 27 9 28 12 8 2 -17 10 -23 27
-23z m97 -2 c-9 -9 -12 -7 -12 12 0 19 3 21 12 12 9 -9 9 -15 0 -24z m126 5
c-1 -16 -15 -40 -30 -55 -30 -28 -40 -21 -10 8 9 10 17 20 17 23 2 13 17 51
21 51 2 0 3 -12 2 -27z m-481 -55 c4 -33 0 -55 -17 -88 -23 -45 -116 -150
-133 -150 -5 0 13 21 40 48 80 76 113 162 89 232 -6 20 -6 22 4 13 7 -6 14
-31 17 -55z m-939 -22 c-23 -30 -44 -53 -46 -51 -7 6 73 104 85 105 2 0 -16
-25 -39 -54z m92 29 c0 -2 -10 -9 -22 -15 -22 -11 -22 -10 -4 4 21 17 26 19
26 11z m30 -15 c0 -5 -5 -10 -11 -10 -5 0 -7 5 -4 10 3 6 8 10 11 10 2 0 4 -4
4 -10z m-347 -75 c-3 -9 -8 -14 -10 -11 -3 3 -2 9 2 15 9 16 15 13 8 -4z m-17
-38 c13 16 13 16 5 -7 -5 -14 -15 -24 -22 -22 -19 5 -27 -17 -22 -58 5 -33 3
-38 -20 -44 -13 -3 -39 -19 -57 -36 -18 -16 -34 -30 -36 -30 -2 0 12 22 31 50
19 27 35 55 35 62 0 9 3 8 10 -2 8 -13 10 -13 14 0 3 8 7 24 9 35 2 11 9 31
17 45 12 22 15 23 18 7 4 -18 4 -18 18 0z m1858 -5 c3 -5 -8 -6 -25 -4 -16 2
-29 6 -29 8 0 8 49 4 54 -4z m-1587 -54 c-3 -7 -5 -2 -5 12 0 14 2 19 5 13 2
-7 2 -19 0 -25z m1085 -92 c-6 -35 -24 -95 -41 -134 -17 -39 -44 -121 -61
-184 -16 -62 -29 -102 -30 -88 0 14 4 41 9 60 5 19 12 51 14 70 2 20 12 50 21
69 10 18 18 42 19 54 2 12 11 38 21 57 22 41 45 122 47 165 1 17 3 23 6 12 2
-9 0 -46 -5 -81z m520 52 c13 -13 17 -18 8 -12 -8 6 -27 14 -42 18 -21 5 -28
3 -28 -9 0 -9 9 -15 23 -15 13 0 32 -7 43 -16 18 -15 18 -15 -3 -5 -12 6 -33
11 -47 11 -21 0 -26 5 -26 25 0 20 5 25 24 25 14 0 35 -10 48 -22z m-1632 8
c0 -2 -8 -10 -17 -17 -16 -13 -17 -12 -4 4 13 16 21 21 21 13z m-193 -20 c5
-5 2 -6 -6 -1 -9 5 -12 3 -9 -6 3 -8 13 -13 22 -13 21 2 21 -13 -2 -20 -9 -3
-26 -18 -37 -33 -11 -15 -32 -41 -47 -59 -31 -35 -36 -64 -13 -64 8 0 15 3 15
8 0 4 12 21 26 37 l26 30 -21 -32 c-12 -17 -21 -35 -21 -40 -1 -16 -39 -55
-49 -49 -5 4 -17 -1 -25 -10 -9 -9 -16 -11 -16 -4 0 6 8 19 17 28 16 16 15 17
-13 23 -23 5 -24 7 -6 8 12 0 22 6 22 12 0 7 -10 9 -24 5 -14 -3 -28 -2 -31 4
-3 5 4 11 17 12 13 0 29 2 35 2 18 2 81 63 88 87 4 11 0 30 -9 44 -9 13 -16
28 -16 33 0 11 66 9 77 -2z m106 -11 c-10 -13 -24 -25 -31 -25 -7 0 -15 -7
-18 -15 -4 -8 -13 -15 -22 -15 -11 0 -3 13 23 40 44 45 78 56 48 15z m-3 -74
c8 -28 7 -37 -5 -44 -17 -9 -20 -27 -5 -27 10 0 42 55 35 62 -2 2 7 3 20 3 27
-2 47 -14 24 -16 -8 -1 -17 -1 -22 0 -4 0 -6 -3 -5 -8 5 -16 -46 -91 -66 -97
-13 -4 -25 0 -37 14 -18 23 -29 19 -29 -11 0 -10 -13 -31 -30 -47 l-29 -27 4
51 c2 28 7 59 10 68 7 17 74 63 88 60 4 -1 7 3 7 9 0 8 4 8 13 0 10 -8 14 -7
14 4 0 8 -6 16 -14 19 -18 7 -17 23 2 23 9 0 19 -15 25 -36z m-321 -49 c-12
-24 -20 -65 -22 -108 -3 -78 -10 -94 -38 -94 -19 0 -20 5 -16 73 4 69 36 181
37 129 0 -13 -7 -37 -16 -53 -16 -33 -11 -77 6 -49 5 8 7 17 4 21 -5 9 25 88
41 106 20 24 22 12 4 -25z m1161 28 c0 -5 -5 -10 -11 -10 -5 0 -7 5 -4 10 3 6
8 10 11 10 2 0 4 -4 4 -10z m-135 -79 c5 -23 4 -31 -4 -27 -6 4 -11 16 -11 27
0 11 -5 30 -11 42 -10 20 -10 20 4 7 8 -8 18 -30 22 -49z m545 -46 c0 -7 3
-22 6 -32 10 -27 -10 -3 -24 29 -9 23 -9 26 3 21 8 -3 15 -11 15 -18z m-420
-89 c0 -3 -4 -8 -10 -11 -5 -3 -10 -1 -10 4 0 6 5 11 10 11 6 0 10 -2 10 -4z
m475 -16 c3 -6 -4 -10 -17 -10 -13 0 -41 -12 -63 -26 l-40 -26 27 26 c39 38
82 54 93 36z m322 -72 c-3 -7 -5 -2 -5 12 0 14 2 19 5 13 2 -7 2 -19 0 -25z
m-447 8 c0 -2 -8 -10 -17 -17 -16 -13 -17 -12 -4 4 13 16 21 21 21 13z m-106
-106 c9 -22 15 -64 15 -93 l-2 -52 -7 67 c-3 36 -14 78 -23 92 -10 14 -13 26
-8 26 5 0 16 -18 25 -40z m266 -57 c0 -9 -62 -53 -75 -53 -5 0 4 14 20 30 27
28 55 40 55 23z m528 -142 c-1 -27 -2 -27 -20 -12 -16 13 -16 17 -3 19 8 2 15
8 15 13 0 5 2 9 4 9 3 0 4 -13 4 -29z m77 -2 c-8 -12 -35 -12 -35 0 0 11 22
20 33 14 4 -2 5 -9 2 -14z m-102 -121 c-4 -21 -15 -30 -49 -42 -24 -8 -44 -11
-44 -6 0 5 9 12 20 15 11 4 20 12 19 18 -3 28 3 36 29 39 15 2 28 3 29 3 1 0
-1 -12 -4 -27z m-778 -26 c-3 -3 -11 0 -18 7 -9 10 -8 11 6 5 10 -3 15 -9 12
-12z m845 8 c8 -5 12 -11 9 -14 -7 -8 -49 5 -49 15 0 12 21 11 40 -1z m-2319
-37 c13 -16 12 -17 -3 -4 -17 13 -22 21 -14 21 2 0 10 -8 17 -17z m1158 -84
c-31 -86 -48 -123 -55 -117 -2 3 5 23 16 46 11 22 20 47 20 54 0 15 37 98 43
98 2 0 -9 -36 -24 -81z m1091 66 c0 -8 -4 -15 -10 -15 -5 0 -10 7 -10 15 0 8
5 15 10 15 6 0 10 -7 10 -15z m-1193 -30 c-16 -15 -39 -25 -55 -24 -25 1 -24
2 7 9 18 4 40 15 49 24 9 9 19 16 22 16 3 0 -8 -12 -23 -25z m-996 -259 c18
-2 41 -5 49 -6 25 -3 -21 -18 -56 -19 -26 -1 -36 6 -59 42 l-28 42 30 -27 c16
-16 44 -30 64 -32z m269 -67 c0 -4 -16 7 -35 24 -19 17 -35 35 -35 41 0 5 16
-5 35 -24 19 -19 35 -37 35 -41z m70 6 c13 -14 21 -25 18 -25 -2 0 -15 11 -28
25 -13 14 -21 25 -18 25 2 0 15 -11 28 -25z"/>
<path d="M926 3221 c-4 -7 -5 -15 -2 -18 9 -9 19 4 14 18 -4 11 -6 11 -12 0z"/>
<path d="M1024 3216 c-8 -20 -1 -47 11 -49 6 -1 11 13 13 31 3 32 -14 45 -24
18z"/>
<path d="M1762 3278 c-19 -19 -15 -117 4 -125 22 -8 34 14 34 68 0 51 -18 77
-38 57z"/>
<path d="M810 3225 c0 -8 5 -15 10 -15 6 0 10 7 10 15 0 8 -4 15 -10 15 -5 0
-10 -7 -10 -15z"/>
<path d="M1180 3225 c0 -8 5 -15 10 -15 6 0 10 7 10 15 0 8 -4 15 -10 15 -5 0
-10 -7 -10 -15z"/>
<path d="M1550 3225 c0 -8 5 -15 10 -15 6 0 10 7 10 15 0 8 -4 15 -10 15 -5 0
-10 -7 -10 -15z"/>
<path d="M1966 2978 c-22 -33 -31 -129 -16 -158 l12 -22 20 20 c28 27 38 151
15 170 -13 11 -18 10 -31 -10z"/>
<path d="M2122 2888 c-7 -7 -12 -25 -12 -40 0 -23 4 -28 26 -28 23 0 25 3 22
37 -3 39 -16 51 -36 31z"/>
<path d="M790 2970 c-12 -23 -4 -92 18 -138 32 -71 64 3 38 91 -17 59 -39 78
-56 47z"/>
<path d="M975 2956 c-31 -47 -32 -146 -1 -146 16 0 23 22 32 102 7 63 -6 82
-31 44z"/>
<path d="M655 2947 c-8 -13 -18 -51 -21 -85 -6 -53 -5 -62 9 -62 18 0 31 20
41 63 5 23 2 29 -16 37 l-23 9 23 0 c17 1 22 7 22 25 0 35 -16 41 -35 13z"/>
<path d="M487 2879 c-20 -11 -23 -59 -5 -77 23 -23 38 -13 38 26 0 48 -10 63
-33 51z"/>
<path d="M1284 2957 c-3 -9 -1 -24 4 -33 9 -16 10 -15 17 5 8 27 -11 54 -21
28z"/>
<path d="M2280 2710 c0 -5 7 -10 15 -10 8 0 15 5 15 10 0 6 -7 10 -15 10 -8 0
-15 -4 -15 -10z"/>
<path d="M2215 2690 c3 -4 16 -7 30 -7 13 0 23 3 20 7 -3 4 -16 8 -30 8 -13 0
-23 -4 -20 -8z"/>
<path d="M2100 2585 c0 -8 5 -15 10 -15 6 0 10 7 10 15 0 8 -4 15 -10 15 -5 0
-10 -7 -10 -15z"/>
<path d="M1453 2503 c-19 -7 -16 -23 5 -24 13 0 12 -2 -5 -9 -12 -5 -27 -19
-33 -31 -15 -27 -8 -135 9 -152 10 -9 11 -8 5 8 -6 18 -4 17 21 -5 l28 -25
-14 25 c-8 13 -20 29 -27 35 -24 19 -26 78 -4 105 24 29 44 22 78 -28 21 -30
22 -30 27 -10 7 23 -14 69 -44 99 -20 20 -25 21 -46 12z"/>
<path d="M1308 2473 c-27 -31 -38 -61 -37 -100 0 -34 1 -36 12 -18 7 11 26 34
43 52 28 29 29 33 15 47 -14 15 -14 16 2 16 9 0 17 5 17 10 0 16 -36 11 -52
-7z"/>
<path d="M1620 2453 c-44 -31 -60 -53 -60 -81 0 -16 3 -32 8 -36 4 -4 14 -28
23 -54 l15 -46 16 29 c9 17 25 48 37 70 24 44 26 73 9 110 -13 30 -16 30 -48
8z m47 -49 c6 -17 -23 -88 -45 -106 -13 -11 -14 -8 -7 22 17 86 38 120 52 84z
m-67 -68 c0 -6 -7 -2 -15 8 -8 11 -15 25 -15 30 0 6 7 2 15 -8 8 -11 15 -25
15 -30z"/>
<path d="M1115 2400 c-17 -19 -17 -20 -1 -20 13 0 16 -6 13 -30 -3 -16 0 -48
7 -71 l13 -42 12 49 c16 61 29 78 47 63 26 -22 15 13 -13 43 -32 33 -53 35
-78 8z"/>
<path d="M1506 2371 c-4 -7 -5 -15 -2 -18 9 -9 19 4 14 18 -4 11 -6 11 -12 0z"/>
<path d="M1365 2361 c-3 -5 -1 -12 5 -16 5 -3 10 1 10 9 0 18 -6 21 -15 7z"/>
<path d="M2100 2319 c0 -11 4 -18 10 -14 5 3 7 12 3 20 -7 21 -13 19 -13 -6z"/>
<path d="M1750 1930 c-14 -26 -13 -30 8 -30 9 0 23 9 29 19 10 16 9 20 -8 24
-12 3 -23 -1 -29 -13z"/>
<path d="M636 2059 c3 -6 6 -30 6 -52 0 -33 2 -38 9 -22 7 15 8 12 5 -15 -3
-19 -2 -29 1 -22 2 6 14 12 25 12 19 0 19 -1 -3 -21 -13 -11 -18 -18 -11 -14
7 3 12 0 12 -8 0 -10 12 -14 40 -14 22 0 37 4 33 9 -3 6 -18 8 -34 6 -16 -3
-29 -1 -29 3 0 11 26 18 48 12 57 -14 24 61 -46 106 -51 32 -68 38 -56 20z"/>
<path d="M713 1862 c5 -27 3 -32 -21 -41 -24 -9 -22 -9 16 -5 37 3 47 0 78
-29 20 -17 37 -31 37 -29 1 2 15 -2 31 -8 25 -9 27 -9 16 5 -14 17 -21 85 -9
85 5 0 1 9 -8 20 -10 11 -26 20 -37 20 -16 0 -17 -3 -8 -12 16 -16 15 -28 -2
-28 -7 0 -16 9 -19 20 -3 12 -14 20 -25 20 -11 0 -28 3 -38 7 -15 5 -16 2 -11
-25z m24 -24 c-3 -8 -6 -5 -6 6 -1 11 2 17 5 13 3 -3 4 -12 1 -19z"/>
<path d="M875 1795 c16 -51 15 -50 32 -26 13 20 13 25 2 32 -22 14 -39 11 -34
-6z"/>
<path d="M945 1760 c-16 -30 -16 -31 9 -24 21 5 26 2 32 -20 3 -14 14 -26 23
-27 9 0 2 -6 -16 -12 -51 -19 -65 -39 -66 -96 0 -28 5 -57 11 -63 9 -9 12 -4
12 24 0 42 16 89 33 100 18 11 57 10 57 -3 0 -5 5 -7 11 -4 7 5 4 14 -7 27
-14 14 -15 21 -6 27 15 9 -43 101 -64 101 -7 0 -21 -14 -29 -30z"/>
<path d="M768 1703 c-29 -36 -48 -73 -47 -95 0 -22 1 -22 8 -3 15 36 62 74 94
77 l32 3 -32 18 c-39 21 -37 21 -55 0z"/>
<path d="M768 1623 c-19 -5 -51 -91 -46 -124 5 -39 23 -31 23 9 0 50 28 91 66
99 22 4 27 8 17 14 -14 9 -32 10 -60 2z"/>
<path d="M1038 1613 c-10 -3 -18 -11 -18 -20 0 -10 6 -14 20 -10 25 6 27 -27
4 -63 l-16 -25 21 24 c12 13 21 37 21 57 0 36 -6 43 -32 37z"/>
<path d="M843 1573 c-18 -6 -16 -43 1 -43 8 0 17 3 19 8 8 13 -8 39 -20 35z"/>
<path d="M846 1483 c-6 -14 -5 -15 5 -6 7 7 10 15 7 18 -3 3 -9 -2 -12 -12z"/>
<path d="M356 1815 c4 -8 8 -15 10 -15 2 0 4 7 4 15 0 8 -4 15 -10 15 -5 0 -7
-7 -4 -15z"/>
<path d="M350 1504 c0 -13 18 -39 24 -34 2 3 -2 14 -10 24 -8 11 -14 16 -14
10z"/>
<path d="M402 1371 c-37 -32 -42 -47 -9 -30 12 7 23 12 25 11 1 -1 11 7 21 17
31 31 0 32 -37 2z"/>
<path d="M440 1323 c0 -10 4 -14 8 -8 4 6 11 13 16 18 5 4 2 7 -7 7 -10 0 -17
-8 -17 -17z"/>
<path d="M355 1291 c-3 -5 -1 -12 5 -16 5 -3 10 1 10 9 0 18 -6 21 -15 7z"/>
<path d="M100 1216 c0 -19 4 -24 15 -19 18 6 16 34 -2 41 -8 2 -13 -6 -13 -22z"/>
<path d="M2290 2938 c-13 -22 -19 -49 -19 -78 1 -26 4 -34 6 -20 6 36 32 90
43 90 6 0 10 9 10 20 0 30 -18 24 -40 -12z"/>
<path d="M60 2620 c0 -5 24 -10 53 -10 37 0 48 3 37 10 -20 13 -90 13 -90 0z"/>
<path d="M9 2571 c7 -5 11 -13 7 -19 -4 -6 2 -10 13 -9 10 0 17 6 14 13 -2 7
6 12 21 12 28 0 35 -25 14 -46 -18 -18 182 -4 203 14 9 8 39 14 72 14 62 0 80
20 20 21 -21 0 -114 2 -208 5 -101 2 -164 0 -156 -5z"/>
<path d="M10 2510 c-13 -8 -12 -10 3 -10 9 0 17 5 17 10 0 12 -1 12 -20 0z"/>
<path d="M66 2415 c4 -8 10 -12 15 -9 11 6 2 24 -11 24 -5 0 -7 -7 -4 -15z"/>
<path d="M211 2414 c0 -11 3 -14 6 -6 3 7 2 16 -1 19 -3 4 -6 -2 -5 -13z"/>
<path d="M108 2263 c6 -2 18 -2 25 0 6 3 1 5 -13 5 -14 0 -19 -2 -12 -5z"/>
<path d="M2340 1650 c0 -5 10 -10 23 -10 18 0 19 2 7 10 -19 13 -30 13 -30 0z"/>
<path d="M2358 1613 c7 -3 16 -2 19 1 4 3 -2 6 -13 5 -11 0 -14 -3 -6 -6z"/>
<path d="M2220 1559 c0 -5 5 -7 10 -4 6 3 10 8 10 11 0 2 -4 4 -10 4 -5 0 -10
-5 -10 -11z"/>
<path d="M2348 1563 c6 -2 18 -2 25 0 6 3 1 5 -13 5 -14 0 -19 -2 -12 -5z"/>
<path d="M2316 1445 c4 -8 1 -15 -5 -15 -6 0 -11 6 -11 13 0 8 -4 7 -10 -3 -9
-13 -11 -13 -20 0 -8 12 -10 12 -8 -5 3 -33 -13 -83 -28 -89 -16 -6 -19 10 -4
19 6 3 10 11 10 18 0 6 -7 1 -16 -11 -17 -25 -10 -46 13 -38 11 4 13 1 8 -14
-5 -15 -3 -18 9 -14 8 3 18 14 21 25 4 10 9 18 13 18 19 -3 30 2 35 15 4 10 1
13 -9 9 -8 -3 -14 1 -14 10 0 22 20 32 31 16 7 -11 9 -10 9 4 0 11 4 15 12 11
6 -4 3 5 -8 19 -21 29 -37 36 -28 12z"/>
<path d="M2395 1400 c-4 -12 -5 -24 -2 -27 3 -2 8 5 12 17 4 12 5 24 2 27 -3
2 -8 -5 -12 -17z"/>
<path d="M2300 1329 c0 -5 5 -7 10 -4 6 3 10 8 10 11 0 2 -4 4 -10 4 -5 0 -10
-5 -10 -11z"/>
<path d="M2269 1303 c-1 -5 -1 -12 0 -17 1 -5 -5 -6 -14 -3 -15 6 -53 -38 -42
-49 3 -3 8 4 12 16 5 15 13 20 25 17 12 -3 22 3 29 19 6 15 7 24 1 24 -6 0
-11 -3 -11 -7z"/>
<path d="M401 1143 c-8 -3 -24 -14 -36 -25 -20 -17 -22 -25 -14 -51 5 -18 9
-49 9 -71 0 -30 3 -37 15 -32 18 7 20 -5 3 -23 -11 -10 -10 -11 2 -6 11 4 15
-2 16 -20 1 -14 -2 -25 -7 -25 -5 0 -9 -5 -9 -10 0 -6 8 -5 20 2 11 7 20 23
20 35 0 19 4 21 34 16 26 -4 35 -1 40 13 8 21 -12 36 -38 28 -12 -4 -16 -2
-12 5 4 6 14 11 22 11 8 0 23 5 33 12 22 14 49 5 58 -19 4 -10 11 -21 17 -25
6 -4 1 -8 -11 -8 -13 0 -23 -5 -23 -11 0 -6 12 -9 28 -7 16 2 26 8 24 17 -2 8
3 11 11 8 8 -3 20 -1 28 4 10 6 6 9 -15 9 -24 0 -26 2 -16 14 9 12 4 20 -30
45 -23 16 -60 50 -82 75 -38 44 -55 51 -87 39z"/>
<path d="M2203 1128 c6 -18 0 -26 -37 -52 -16 -11 -12 -13 35 -14 30 -1 66 -5
82 -8 35 -7 37 17 2 36 -14 7 -25 17 -25 22 0 4 -5 8 -10 8 -7 0 -7 -6 0 -20
8 -15 8 -20 -2 -20 -7 0 -24 -3 -38 -6 l-25 -6 25 21 c24 20 25 20 6 38 -17
17 -18 17 -13 1z"/>
<path d="M1974 954 c-15 -37 -11 -119 7 -130 5 -3 9 -15 9 -28 0 -27 39 -66
66 -66 11 0 30 -7 42 -16 12 -8 22 -12 22 -8 0 4 13 -5 30 -21 33 -32 48 -29
29 7 -7 12 -12 33 -10 46 1 14 -4 24 -16 28 -48 16 -83 36 -78 45 4 5 18 1 32
-11 14 -11 34 -20 45 -20 17 0 19 5 13 33 -4 17 -18 44 -31 58 -13 14 -21 29
-17 33 4 4 0 4 -9 1 -11 -4 -31 9 -63 39 -26 25 -49 46 -51 46 -3 0 -12 -16
-20 -36z"/>
<path d="M1681 914 l-21 -27 21 -23 c21 -22 23 -22 35 -6 12 16 9 58 -6 75 -4
5 -17 -4 -29 -19z"/>
<path d="M473 903 c24 -3 37 -9 37 -19 0 -8 5 -14 10 -14 6 0 10 4 10 8 0 18
-26 32 -59 30 l-36 -1 38 -4z"/>
<path d="M558 903 c6 -2 18 -2 25 0 6 3 1 5 -13 5 -14 0 -19 -2 -12 -5z"/>
<path d="M606 896 c3 -8 0 -24 -6 -36 -6 -12 -9 -24 -6 -27 5 -5 36 57 36 72
0 3 -7 5 -15 5 -8 0 -12 -6 -9 -14z"/>
<path d="M1196 875 c-4 -16 -13 -33 -19 -37 -8 -5 -6 -8 5 -8 18 0 34 38 26
62 -3 7 -8 -1 -12 -17z"/>
<path d="M523 833 c9 -2 25 -2 35 0 9 3 1 5 -18 5 -19 0 -27 -2 -17 -5z"/>
<path d="M1950 831 c0 -5 7 -15 17 -22 15 -13 15 -12 4 9 -12 23 -21 28 -21
13z"/>
<path d="M759 803 c-13 -15 -10 -16 26 -9 31 5 36 4 23 -4 -25 -15 -22 -30 5
-30 28 0 42 11 42 30 0 29 -75 39 -96 13z"/>
<path d="M565 800 c-3 -5 -2 -10 4 -10 5 0 13 5 16 10 3 6 2 10 -4 10 -5 0
-13 -4 -16 -10z"/>
<path d="M618 775 c-4 -39 6 -48 16 -12 8 31 7 47 -3 47 -5 0 -11 -16 -13 -35z"/>
<path d="M1923 747 l-19 -62 30 -40 c17 -22 31 -41 32 -43 1 -1 9 0 18 4 15 6
15 9 -5 30 -12 13 -19 24 -14 24 4 0 13 -8 20 -17 11 -15 17 -15 39 -5 15 7
25 16 22 20 -5 9 72 7 81 -2 4 -3 -9 -6 -27 -6 -32 0 -32 -1 -16 -19 9 -10 14
-25 10 -34 -12 -31 30 -71 92 -89 78 -22 124 -31 124 -24 0 3 -22 31 -50 61
-27 30 -50 60 -50 65 0 14 -130 97 -165 105 -18 4 -45 24 -67 51 l-36 44 -19
-63z"/>
<path d="M755 770 c3 -5 8 -10 11 -10 2 0 4 5 4 10 0 6 -5 10 -11 10 -5 0 -7
-4 -4 -10z"/>
<path d="M1375 749 c-10 -15 3 -25 16 -12 7 7 7 13 1 17 -6 3 -14 1 -17 -5z"/>
<path d="M597 691 c-4 -17 -3 -21 5 -13 5 5 8 16 6 23 -3 8 -7 3 -11 -10z"/>
<path d="M833 691 c-17 -5 -20 -10 -13 -21 8 -13 11 -13 27 2 20 21 16 27 -14
19z"/>
<path d="M739 672 c13 -25 54 -31 45 -7 -4 8 -10 15 -14 15 -5 0 -16 3 -25 7
-15 5 -16 3 -6 -15z"/>
<path d="M1810 666 c0 -7 -9 -24 -19 -38 -54 -68 -165 -305 -191 -405 -9 -38
-5 -40 24 -16 l21 18 -19 -23 c-19 -22 -19 -23 2 -38 12 -8 22 -19 22 -25 0
-5 -9 0 -19 10 -19 19 -61 19 -61 -1 0 -5 -4 -7 -9 -4 -10 7 -19 -22 -13 -46
3 -17 30 -30 67 -32 16 -1 20 -8 20 -34 0 -17 1 -32 2 -32 1 0 13 4 28 10 17
7 24 7 20 0 -4 -6 30 -10 94 -10 101 0 101 0 101 25 0 25 -16 38 -62 49 -18 4
-28 2 -28 -4 0 -6 5 -8 10 -5 6 3 10 1 10 -4 0 -6 8 -11 19 -11 10 0 25 -8 32
-17 11 -15 11 -16 -1 -6 -8 7 -27 13 -42 13 -35 0 -49 27 -23 46 15 11 22 11
46 -1 15 -8 35 -25 43 -37 l16 -22 0 22 c0 15 4 21 12 16 6 -4 28 -6 50 -6 21
1 38 -3 38 -8 0 -5 11 -9 25 -8 14 1 25 5 25 9 0 12 -30 19 -80 19 -41 0 -49
3 -54 23 -6 20 -7 20 -16 5 -9 -14 -15 -15 -35 -6 -20 9 -22 14 -14 30 6 11
11 33 11 49 1 27 18 55 18 30 0 -14 47 -14 55 0 10 15 0 21 -30 21 -32 1 -27
22 6 27 13 1 27 8 30 13 4 6 23 12 42 13 24 1 34 -2 30 -9 -10 -16 -11 -46 -1
-46 4 0 8 -4 8 -10 0 -5 -7 -7 -15 -4 -8 4 -15 1 -15 -5 0 -6 9 -11 20 -11 12
0 20 7 20 16 0 10 6 14 15 10 19 -7 47 3 39 15 -3 5 6 9 20 9 29 0 35 -16 9
-23 -10 -3 -1 -5 19 -6 20 0 40 4 44 10 4 7 20 9 40 6 43 -7 74 2 74 21 0 13
3 12 20 -3 28 -25 11 -35 -62 -35 -32 0 -58 -4 -58 -9 0 -5 22 -8 49 -8 27 1
47 -1 44 -5 -2 -5 37 -8 86 -8 83 0 91 2 91 19 0 16 -8 21 -42 24 l-43 4 43 1
42 2 0 104 0 104 -77 6 c-43 4 -103 11 -133 17 -30 6 -65 13 -77 15 -17 3 -30
-10 -72 -76 -29 -44 -54 -80 -57 -80 -8 0 16 40 57 99 21 29 36 58 32 63 -11
18 -102 1 -166 -31 -73 -35 -85 -38 -66 -14 12 14 12 16 -1 11 -8 -2 -41 -44
-75 -93 -33 -49 -84 -114 -114 -145 l-53 -55 54 65 c31 36 70 90 88 120 19 30
44 68 57 83 23 29 30 57 14 57 -5 0 -16 2 -23 5 -10 4 -35 -27 -77 -94 -34
-55 -67 -104 -74 -108 -7 -4 -4 4 5 17 10 14 43 66 73 117 51 86 94 131 139
147 15 5 16 9 6 21 -15 18 -37 19 -43 3 -3 -7 -6 -8 -6 -3 0 6 3 16 8 24 8 12
13 12 35 -3 14 -9 26 -12 26 -6 0 14 -33 50 -46 50 -14 0 -145 -199 -191 -290
-18 -36 -36 -80 -39 -97 -3 -18 -10 -33 -14 -33 -24 0 40 144 121 272 96 151
102 165 83 172 -26 10 -44 7 -44 -8z m253 -433 c-7 -2 -19 -2 -25 0 -7 3 -2 5
12 5 14 0 19 -2 13 -5z m97 -3 c0 -5 -2 -10 -4 -10 -3 0 -8 5 -11 10 -3 6 -1
10 4 10 6 0 11 -4 11 -10z m-325 -60 c4 -6 -7 -10 -24 -10 -17 0 -31 5 -31 10
0 6 11 10 24 10 14 0 28 -4 31 -10z m-225 -72 c0 -6 -7 -5 -15 2 -8 7 -15 17
-15 22 0 6 7 5 15 -2 8 -7 15 -17 15 -22z"/>
<path d="M738 633 c7 -3 16 -2 19 1 4 3 -2 6 -13 5 -11 0 -14 -3 -6 -6z"/>
<path d="M2046 632 c-3 -5 3 -17 14 -27 17 -15 20 -16 20 -3 0 19 -26 42 -34
30z"/>
<path d="M1991 596 c-9 -11 -9 -16 1 -22 17 -11 48 -13 42 -2 -8 13 10 9 25
-4 8 -7 6 -1 -4 15 -19 29 -46 35 -64 13z"/>
<path d="M1905 543 c-16 -9 -31 -16 -32 -17 -1 -1 0 -12 4 -24 7 -30 24 -28
57 6 21 23 24 31 14 40 -9 7 -21 6 -43 -5z"/>
<path d="M410 530 c0 -5 5 -10 11 -10 5 0 7 5 4 10 -3 6 -8 10 -11 10 -2 0 -4
-4 -4 -10z"/>
<path d="M2050 530 c0 -5 9 -10 21 -10 11 0 17 5 14 10 -3 6 -13 10 -21 10 -8
0 -14 -4 -14 -10z"/>
<path d="M859 500 c12 -19 31 -49 42 -67 21 -33 65 -51 82 -34 8 8 7 11 -2 11
-7 0 -9 5 -6 10 4 6 11 8 16 5 5 -4 9 -2 9 3 0 13 -25 33 -33 26 -8 -8 -40 4
-63 24 -11 9 -31 26 -44 37 l-24 20 23 -35z"/>
<path d="M1932 497 c-12 -13 -22 -26 -22 -30 0 -14 40 -6 76 15 32 19 35 23
18 29 -33 13 -50 10 -72 -14z"/>
<path d="M1850 499 c0 -5 5 -7 10 -4 6 3 10 8 10 11 0 2 -4 4 -10 4 -5 0 -10
-5 -10 -11z"/>
<path d="M404 426 c4 -11 -1 -27 -10 -37 -11 -12 -13 -19 -5 -19 7 0 9 -4 6
-10 -4 -6 17 -10 54 -10 65 0 73 6 41 35 -18 16 -20 16 -26 1 -7 -17 -64 -23
-64 -6 0 9 15 13 45 13 6 0 17 7 24 15 12 12 10 13 -17 7 -23 -5 -33 -2 -42
12 -11 17 -11 17 -6 -1z"/>
<path d="M517 397 c-3 -8 -1 -20 4 -28 6 -10 9 -7 9 14 0 29 -5 35 -13 14z"/>
<path d="M1067 374 c-21 -11 -27 -21 -24 -35 6 -22 3 -23 -24 -9 -17 10 -18 8
-8 -16 7 -21 7 -29 -3 -36 -7 -4 -10 -8 -5 -8 4 0 1 -13 -7 -29 -13 -25 -14
-30 -1 -35 8 -3 23 -3 35 -1 11 2 20 0 20 -5 0 -6 12 -9 28 -9 48 3 61 9 55
26 -5 12 -3 14 8 8 12 -7 12 -6 1 7 -8 11 -10 30 -6 58 8 52 24 34 24 -27 0
-42 15 -58 27 -28 9 25 -17 103 -45 130 -29 29 -37 30 -75 9z m53 -59 c0 -8
-7 -15 -15 -15 -16 0 -20 12 -8 23 11 12 23 8 23 -8z"/>
<path d="M936 332 c-4 -7 -17 -12 -29 -12 l-22 -1 23 -19 c19 -16 21 -23 12
-40 -6 -11 -7 -19 -3 -18 4 1 18 -3 31 -10 21 -12 22 -11 22 20 -1 43 -23 97
-34 80z"/>
<path d="M1192 305 c6 -14 15 -25 19 -25 5 0 3 11 -3 25 -6 14 -15 25 -19 25
-5 0 -3 -11 3 -25z"/>
<path d="M39 168 c-18 -29 -34 -57 -35 -63 -1 -6 28 -10 70 -10 61 0 74 3 94
23 13 13 26 21 29 19 2 -3 -5 -15 -17 -27 -26 -26 -18 -40 24 -40 l33 0 -7 42
c-11 59 -65 108 -119 108 -37 0 -42 -4 -72 -52z"/>
<path d="M1220 180 c0 -11 4 -20 9 -20 5 0 7 9 4 20 -3 11 -7 20 -9 20 -2 0
-4 -9 -4 -20z"/>
<path d="M1880 151 c0 -11 -4 -23 -10 -26 -5 -3 -10 -10 -10 -16 0 -5 5 -9 10
-9 6 0 10 7 10 15 0 22 16 18 38 -10 16 -21 28 -25 70 -25 56 0 77 -16 70 -55
-7 -35 7 -31 22 6 7 17 24 37 37 46 30 20 29 31 -4 35 -24 2 -28 7 -26 31 1
20 -3 27 -17 27 -14 0 -20 -9 -22 -32 -3 -30 -6 -33 -42 -36 -21 -2 -46 0 -55
3 -13 6 -13 8 7 16 12 4 22 15 22 23 0 8 12 16 28 19 15 2 -8 5 -50 6 -71 1
-78 -1 -78 -18z"/>
<path d="M2100 159 c0 -7 11 -9 30 -6 24 5 28 4 23 -11 -6 -16 -5 -16 13 -1
27 22 49 18 47 -9 -3 -21 1 -22 65 -22 40 0 79 6 96 15 15 8 33 15 39 15 7 0
-4 -9 -24 -19 -26 -14 -60 -20 -122 -22 -102 -3 -147 -19 -170 -58 -9 -16 -17
-31 -17 -34 0 -3 25 -6 55 -6 32 0 55 5 55 11 0 6 -9 8 -21 5 -15 -4 -19 -2
-15 10 3 8 6 17 6 19 0 2 11 4 24 4 20 0 23 -4 20 -22 l-5 -23 10 23 c6 12 15
22 21 22 13 0 13 -17 0 -25 -22 -13 -8 -25 29 -25 40 0 62 22 38 37 -8 5 -1
10 18 13 22 4 29 10 27 24 -3 14 1 17 13 12 9 -3 24 -6 33 -6 9 0 -2 -10 -26
-22 -64 -33 -53 -52 31 -56 l67 -3 0 45 c0 43 -1 45 -32 49 l-33 3 33 8 c24 7
32 14 32 31 0 21 -5 22 -112 28 -170 10 -248 9 -248 -4z"/>
<path d="M1445 85 c-14 -30 -30 -55 -35 -55 -4 0 -10 -6 -13 -14 -4 -11 11
-14 74 -15 89 -2 89 -2 64 70 -14 40 -38 69 -56 69 -4 0 -19 -25 -34 -55z"/>
<path d="M2008 133 c6 -2 18 -2 25 0 6 3 1 5 -13 5 -14 0 -19 -2 -12 -5z"/>
<path d="M2100 130 c0 -5 9 -10 20 -10 11 0 20 5 20 10 0 6 -9 10 -20 10 -11
0 -20 -4 -20 -10z"/>
<path d="M1993 113 c9 -2 23 -2 30 0 6 3 -1 5 -18 5 -16 0 -22 -2 -12 -5z"/>
<path d="M75 80 c27 -12 43 -12 25 0 -8 5 -22 9 -30 9 -10 0 -8 -3 5 -9z"/>
<path d="M130 60 c0 -5 5 -10 11 -10 6 0 17 -7 25 -15 17 -17 34 -20 34 -6 0
5 -14 17 -32 25 -37 19 -38 19 -38 6z"/>
<path d="M20 50 c0 -5 4 -10 9 -10 6 0 13 5 16 10 3 6 -1 10 -9 10 -9 0 -16
-4 -16 -10z"/>
<path d="M466 41 c-14 -15 -14 -20 -2 -30 11 -9 16 -6 24 19 12 34 3 39 -22
11z"/>
<path d="M1571 30 c7 -19 18 -30 30 -30 10 0 19 3 19 8 0 15 -32 52 -45 52
-11 0 -12 -6 -4 -30z"/>
<path d="M48 33 c-10 -2 -18 -11 -18 -19 0 -11 16 -14 73 -14 66 1 70 2 47 14
-30 17 -79 26 -102 19z"/>
</g>
</svg>
