<?xml version="1.0" standalone="no"?>
<!DOCTYPE svg PUBLIC "-//W3C//DTD SVG 20010904//EN"
 "http://www.w3.org/TR/2001/REC-SVG-20010904/DTD/svg10.dtd">
<svg version="1.0" xmlns="http://www.w3.org/2000/svg"
 width="246.000000pt" height="345.000000pt" viewBox="0 0 246.000000 345.000000"
 preserveAspectRatio="xMidYMid meet">

<g transform="translate(0.000000,345.000000) scale(0.100000,-0.100000)"
fill="#000000" stroke="none">
<path d="M0 2170 c0 -704 1 -1280 3 -1280 29 0 403 -83 405 -90 2 -6 10 -6 22
0 13 7 21 5 31 -6 16 -20 -2 -40 -28 -29 -10 4 -37 9 -61 11 -36 3 -43 0 -40
-13 2 -9 19 -21 38 -26 32 -8 33 -10 17 -22 -13 -9 -16 -20 -11 -39 10 -42 -2
-75 -26 -69 -14 4 -20 14 -20 33 0 16 -7 30 -16 34 -22 9 -22 9 -29 -25 -10
-43 -41 -36 -37 9 3 26 0 32 -16 32 -13 0 -22 -9 -26 -26 -5 -19 -12 -25 -29
-22 -18 2 -21 8 -19 33 2 17 10 35 18 41 17 14 18 31 2 36 -6 2 -9 9 -5 15 4
7 19 8 40 3 27 -6 36 -4 44 10 10 15 -2 19 -111 40 -66 12 -127 25 -134 28 -9
3 -12 -85 -12 -422 l0 -426 53 0 c44 0 58 4 77 25 21 23 22 26 7 49 -52 79
-41 174 27 242 59 59 108 71 199 48 38 -10 75 -23 83 -29 23 -17 46 -124 40
-182 -9 -75 -24 -102 -75 -128 l-46 -24 994 -1 c547 0 992 2 990 4 -2 2 -71
23 -154 46 -82 24 -154 48 -160 54 -5 6 -20 10 -33 8 -14 -2 -25 3 -29 13 -8
23 17 38 37 21 8 -7 22 -13 30 -13 9 0 28 -3 43 -7 22 -5 27 -3 27 13 0 13 -9
21 -30 26 -34 7 -38 22 -12 41 13 10 14 15 5 24 -14 15 2 70 20 70 28 -1 38
-16 28 -42 -8 -21 -7 -28 5 -32 26 -10 32 -7 38 19 4 16 13 25 25 25 17 0 18
-4 11 -29 -9 -33 -5 -41 22 -41 11 0 18 7 18 19 0 25 14 34 39 26 17 -5 18
-10 9 -38 -6 -18 -17 -36 -25 -40 -8 -5 -11 -17 -7 -32 6 -24 5 -24 -25 -14
-23 8 -35 8 -45 0 -8 -7 -27 -9 -43 -6 -15 3 -23 3 -18 0 17 -8 314 -95 325
-95 7 0 10 155 10 455 l0 455 -99 -50 -100 -49 10 -37 c38 -137 -113 -274
-247 -224 -52 20 -123 72 -133 99 -13 31 0 123 23 173 32 66 57 87 118 99 74
13 127 -1 176 -46 l36 -33 108 54 108 54 0 783 -1 784 -57 17 c-31 10 -131 56
-222 103 -91 47 -159 79 -152 72 6 -7 12 -20 12 -27 0 -10 -9 -5 -25 12 -14
15 -25 30 -25 34 0 15 -39 30 -61 25 -18 -5 -29 2 -54 31 -29 35 -43 41 -146
69 -110 30 -123 31 -349 34 l-235 3 -44 31 c-24 16 -45 28 -47 26 -2 -2 16
-24 40 -50 41 -45 46 -47 97 -47 30 0 67 7 83 15 16 9 31 13 33 11 7 -7 -38
-28 -76 -37 -44 -10 -126 7 -161 33 -28 20 -119 48 -159 48 -23 0 -23 -1 -7
-19 10 -11 40 -25 66 -31 27 -7 70 -28 96 -48 44 -35 51 -37 108 -34 41 3 68
10 81 22 18 16 93 51 135 63 34 9 99 -20 100 -45 0 -18 -60 -7 -72 12 -16 25
-44 26 -50 2 -4 -16 -57 -48 -113 -68 -18 -7 -17 -8 8 -12 16 -2 46 4 68 12
49 20 53 20 45 0 -17 -44 50 -58 119 -24 22 11 62 23 87 26 41 6 58 1 145 -39
54 -25 122 -53 152 -62 30 -10 105 -44 165 -76 149 -78 229 -107 320 -115 42
-4 79 -11 82 -16 3 -5 -5 -7 -18 -4 -12 3 -52 8 -88 11 -73 7 -186 51 -325
124 -49 26 -115 56 -145 66 -30 9 -82 31 -115 47 -93 47 -134 59 -174 51 -31
-6 -33 -7 -13 -12 31 -8 24 -27 -8 -23 -13 2 -53 -2 -87 -8 -55 -11 -66 -10
-89 5 -20 13 -37 15 -80 9 -39 -4 -54 -3 -54 6 0 9 -21 10 -80 7 -84 -6 -153
0 -145 13 3 4 -14 10 -38 14 -23 3 -58 9 -78 12 -29 5 -45 0 -80 -23 -24 -15
-46 -32 -48 -36 -9 -21 -49 -48 -84 -58 -56 -15 -75 -28 -108 -77 -29 -44 -37
-72 -19 -72 6 0 10 9 10 20 0 10 6 23 13 27 7 4 20 20 30 35 13 21 30 29 76
39 46 9 72 22 119 60 59 48 62 49 124 48 35 -1 50 -4 33 -6 -54 -7 -61 -12
-43 -29 12 -12 50 -15 201 -17 136 -1 187 -5 187 -14 0 -11 -58 -59 -64 -52
-2 2 -8 13 -13 23 -10 19 -11 18 -22 -2 -13 -24 -40 -29 -58 -11 -8 8 -19 6
-41 -5 -17 -9 -39 -16 -49 -16 -10 0 -36 -9 -57 -21 -48 -25 -154 -59 -170
-53 -11 4 -76 -51 -76 -65 0 -13 224 29 261 49 44 24 106 26 130 4 22 -20 53
-11 67 20 6 15 23 27 41 31 29 6 73 24 113 46 34 18 61 9 95 -31 19 -22 38
-40 43 -40 4 0 24 7 45 16 28 11 35 18 26 27 -19 19 -12 27 22 27 l32 0 -25
13 c-18 10 -30 10 -42 3 -14 -8 -21 -6 -32 9 -9 11 -14 25 -12 30 4 12 60 7
64 -5 2 -5 9 -7 17 -4 7 3 28 -9 46 -26 26 -24 30 -33 20 -40 -10 -6 0 -14 37
-30 l51 -22 -28 -37 c-48 -60 -48 -73 -1 -168 56 -112 54 -149 -17 -266 -28
-45 -58 -98 -68 -117 -9 -19 -25 -42 -35 -50 -22 -19 -45 -83 -27 -78 6 3 21
19 32 38 11 18 34 47 51 64 17 17 41 50 53 74 15 30 27 42 40 40 9 -2 33 10
51 26 32 27 33 29 16 42 -11 7 -22 15 -27 16 -4 2 -4 23 2 48 6 25 7 62 2 85
-4 22 -7 47 -6 55 1 8 -4 29 -12 45 -7 17 -17 42 -20 58 -7 26 -6 27 33 27 22
0 47 3 56 6 11 4 19 -2 26 -20 5 -14 14 -26 20 -26 11 0 59 -48 100 -100 29
-36 66 -54 132 -64 69 -10 70 -14 72 -203 1 -72 4 -129 9 -126 12 7 8 -7 -19
-76 -42 -104 -71 -133 -93 -93 -7 13 -13 14 -22 5 -9 -9 -3 -15 22 -29 47 -24
52 -36 22 -55 -25 -17 -27 -17 -45 7 -11 13 -24 40 -29 58 -9 31 -39 59 -39
36 0 -6 -11 -10 -25 -10 -25 0 -33 -17 -51 -108 -4 -18 -11 -35 -15 -38 -16
-10 -9 -25 9 -20 9 3 32 -3 51 -15 32 -19 33 -21 16 -40 -10 -10 -24 -19 -32
-19 -24 0 -13 -16 20 -28 46 -17 66 -16 41 2 -18 14 -18 16 19 51 23 22 36 42
33 51 -3 9 10 25 36 44 50 36 56 37 68 6 5 -14 18 -30 30 -36 23 -12 17 -35
-7 -26 -10 4 -13 2 -10 -8 5 -14 -47 -76 -64 -76 -13 0 -19 -32 -9 -51 14 -25
33 -25 25 1 -5 14 -2 20 9 20 9 0 16 8 16 17 0 13 3 14 12 5 9 -9 16 -8 32 6
19 15 20 16 7 0 -7 -9 -10 -21 -7 -27 3 -5 0 -11 -7 -14 -8 -3 -27 -31 -42
-64 -16 -32 -31 -60 -32 -63 -2 -2 -19 -3 -38 -2 -28 2 -37 -3 -52 -25 -9 -15
-19 -30 -20 -33 -2 -2 -14 8 -26 22 -28 34 -91 48 -101 22 -4 -9 0 -24 8 -33
13 -14 11 -16 -20 -16 -33 0 -43 8 -25 19 12 8 2 46 -11 46 -6 0 -8 -6 -5 -13
7 -18 -66 -89 -104 -101 -51 -17 -45 -32 17 -42 60 -9 82 -29 42 -37 l-23 -4
23 -2 c37 -2 28 -43 -17 -79 -56 -45 -88 -56 -100 -34 -9 15 -10 15 -11 1 0
-11 -15 -20 -44 -28 -25 -6 -47 -11 -50 -11 -10 0 -56 55 -56 68 0 23 -30 72
-45 72 -18 0 -85 45 -101 69 -11 15 -10 23 7 50 21 34 24 45 10 37 -5 -3 -12
1 -15 10 -5 13 -1 15 19 10 14 -4 25 -2 25 3 0 4 15 16 33 25 33 16 32 16 -23
20 -13 1 -45 51 -64 101 -7 18 -5 18 17 -3 13 -12 28 -22 34 -22 12 0 27 -29
24 -47 -3 -21 5 -15 34 27 17 25 25 46 21 57 -6 15 -8 15 -16 3 -8 -13 -12
-12 -24 5 -8 11 -28 38 -45 59 -18 22 -29 46 -27 53 3 7 -4 30 -15 50 -14 24
-17 39 -10 41 23 8 10 22 -29 32 -22 6 -40 14 -40 18 0 4 14 16 30 27 41 27
71 88 60 123 -15 51 -22 60 -51 72 -53 22 -179 -10 -179 -45 0 -8 6 -12 13
-10 6 3 23 -11 37 -31 l24 -36 -22 -39 c-24 -42 -17 -55 24 -45 32 8 31 -12
-1 -24 -22 -8 -24 -13 -15 -29 5 -11 10 -37 10 -58 0 -30 -3 -35 -11 -23 -9
12 -9 11 -3 -5 10 -22 11 -132 3 -238 -3 -45 -1 -71 6 -75 7 -4 19 -22 28 -40
13 -26 14 -44 7 -90 -6 -31 -16 -62 -24 -68 -16 -11 -36 -56 -36 -77 0 -7 16
6 34 28 27 31 38 56 47 107 10 54 16 67 33 72 32 8 52 -17 38 -49 -7 -15 -8
-25 -2 -25 6 0 10 5 10 10 0 18 62 -21 107 -67 24 -25 43 -55 43 -67 0 -11 3
-31 6 -43 5 -18 1 -25 -19 -32 -14 -5 -28 -14 -31 -20 -4 -5 -18 -8 -31 -5
-14 2 -25 0 -25 -7 0 -6 -6 -9 -12 -7 -7 3 -19 -1 -26 -9 -17 -17 -59 -17 -65
0 -3 9 -8 7 -18 -5 -9 -10 -34 -18 -64 -21 -27 -3 -95 -10 -150 -17 -109 -14
-115 -14 -162 -12 -25 2 -33 7 -33 21 0 10 -12 35 -26 56 -35 52 -27 77 33 97
26 9 61 16 76 16 36 -1 67 32 74 77 5 33 4 35 -21 35 -14 0 -26 -5 -26 -11 0
-6 7 -9 15 -5 19 7 19 -3 -1 -42 -14 -29 -20 -32 -60 -32 -25 0 -61 -7 -80
-15 -25 -10 -41 -12 -54 -5 -10 5 -47 9 -82 8 -66 -2 -118 17 -118 44 0 7 6 4
13 -7 14 -17 15 -17 33 1 18 18 62 35 124 48 59 13 68 56 11 56 -17 0 -34 6
-38 12 -10 17 -57 48 -110 75 -23 12 -61 41 -85 65 -71 70 -195 178 -204 178
-5 0 -22 11 -37 25 -19 18 -27 36 -27 60 0 19 -4 37 -10 40 -5 3 -10 13 -10
21 0 9 -7 22 -15 30 -8 9 -15 26 -15 39 0 13 -4 26 -8 29 -9 6 -34 94 -53 191
-17 87 -14 296 6 380 46 196 92 303 182 422 139 185 324 308 565 375 72 20
106 23 253 23 164 0 265 -14 265 -36 0 -10 -81 -89 -92 -89 -4 0 -20 -19 -35
-42 -35 -55 -51 -68 -85 -68 -15 0 -28 -5 -28 -11 0 -8 19 -10 66 -5 76 8 113
32 184 119 98 121 169 117 235 -12 26 -53 85 -125 114 -141 13 -6 16 -3 17 17
1 13 5 27 9 31 4 4 41 -28 82 -71 74 -78 158 -139 260 -191 29 -14 59 -26 68
-26 17 0 132 -55 155 -75 8 -7 25 -16 38 -19 21 -7 22 -5 22 52 l0 59 -54 36
c-64 42 -286 247 -401 369 -85 90 -158 206 -173 276 -6 23 -7 42 -3 42 5 0 14
-19 21 -42 7 -24 28 -74 47 -113 30 -60 63 -98 226 -261 171 -170 303 -284
328 -284 5 0 9 165 9 380 l0 380 -1230 0 -1230 0 0 -1280z m1428 623 c-4 -22
-22 -20 -26 1 -2 10 3 16 13 16 10 0 15 -7 13 -17z m32 -3 c0 -5 -4 -10 -10
-10 -5 0 -10 5 -10 10 0 6 5 10 10 10 6 0 10 -4 10 -10z m210 -45 c7 -8 16
-12 21 -9 13 7 69 -28 69 -43 0 -21 -31 -28 -42 -10 -5 10 -30 26 -55 38 -34
16 -43 23 -32 30 19 12 25 11 39 -6z m-275 -34 c-6 -5 -20 -12 -32 -16 -17 -5
-23 -2 -23 9 0 11 10 16 32 16 19 0 28 -4 23 -9z m1007 -278 c25 -29 36 -55
43 -105 5 -30 4 -48 -3 -48 -5 0 -12 26 -16 59 -8 72 -22 92 -72 101 l-39 8
36 1 c23 1 41 -5 51 -16z m-406 -8 c4 -9 19 -15 40 -15 27 0 34 -4 34 -19 0
-11 5 -23 10 -26 16 -10 12 -25 -6 -25 -19 0 -98 68 -100 87 -3 18 15 16 22
-2z m187 -89 c20 -16 23 -46 3 -46 -42 0 -76 14 -76 30 0 30 42 39 73 16z m72
-615 c5 -17 4 -22 -6 -19 -8 3 -15 18 -17 34 -4 33 11 24 23 -15z m75 -116 c0
-2 -10 -10 -22 -16 -21 -11 -22 -11 -9 4 13 16 31 23 31 12z m-72 -297 c-6
-18 -28 -21 -28 -4 0 9 7 16 16 16 9 0 14 -5 12 -12z m-267 -21 c-10 -9 -11
-8 -5 6 3 10 9 15 12 12 3 -3 0 -11 -7 -18z m-1890 -15 c13 -10 32 -21 41 -25
11 -4 15 -12 12 -22 -9 -22 -34 -18 -34 5 0 11 -4 20 -8 20 -5 0 -19 9 -32 20
-29 25 -11 26 21 2z m2066 -55 c-6 -20 -27 -19 -27 2 0 14 5 19 15 14 9 -3 14
-10 12 -16z m-1937 -74 c0 -17 -5 -35 -11 -38 -17 -11 -24 5 -11 26 7 11 9 25
6 31 -5 8 -10 5 -16 -8 -5 -13 -6 -8 -2 14 3 20 1 32 -5 32 -6 0 -11 8 -11 18
0 13 6 10 25 -13 14 -18 24 -43 25 -62z m1647 25 c-3 -7 -5 -2 -5 12 0 14 2
19 5 13 2 -7 2 -19 0 -25z m-1287 -68 c0 -5 -4 -10 -10 -10 -5 0 -10 5 -10 10
0 6 5 10 10 10 6 0 10 -4 10 -10z m-160 -58 c0 -14 -11 -21 -26 -15 -8 3 -11
9 -8 14 7 11 34 12 34 1z m115 -16 c6 -7 17 -11 25 -9 8 2 3 -6 -11 -19 -15
-13 -29 -30 -32 -38 -4 -10 -6 -7 -6 8 -1 12 -5 22 -11 22 -19 0 -10 -31 16
-55 25 -24 26 -25 6 -25 -40 0 -69 20 -66 46 1 13 -2 26 -7 30 -5 3 -9 -1 -9
-9 0 -8 -7 -18 -16 -21 -12 -5 -14 -1 -8 17 4 12 10 24 14 27 3 3 9 13 13 22
4 11 12 15 22 12 8 -3 15 -1 15 6 0 14 40 4 55 -14z m-165 -46 c0 -5 -2 -10
-4 -10 -3 0 -8 5 -11 10 -3 6 -1 10 4 10 6 0 11 -4 11 -10z m348 4 c18 -4 22
-11 22 -44 0 -21 -5 -42 -10 -45 -6 -4 -40 -3 -75 0 -72 8 -81 21 -46 66 19
24 61 33 109 23z m-151 -36 c-3 -8 -6 -5 -6 6 -1 11 2 17 5 13 3 -3 4 -12 1
-19z m259 -20 c22 -17 23 -47 3 -53 -30 -10 -84 4 -70 18 6 6 11 22 11 35 0
20 4 22 23 16 12 -3 27 -11 33 -16z m154 -313 c8 -5 6 -13 -6 -26 -21 -24 -36
-24 -32 -1 3 14 -6 17 -57 20 -80 4 -127 -11 -164 -53 -27 -31 -31 -43 -31
-93 0 -104 63 -160 213 -191 31 -7 57 -17 57 -22 0 -12 -9 -11 -101 5 -92 17
-125 33 -171 84 -39 44 -54 97 -43 160 11 67 68 110 160 123 56 8 158 5 175
-6z m364 -46 c6 -5 5 -29 -2 -61 -7 -30 -10 -99 -8 -158 3 -57 3 -107 0 -111
-6 -11 -44 2 -44 15 0 21 -76 49 -99 37 -19 -11 -71 0 -71 14 0 17 33 65 57
86 22 19 28 32 27 58 -2 28 6 42 37 74 21 22 39 46 39 54 0 14 46 9 64 -8z
m56 -27 c0 -18 26 -45 50 -50 26 -6 38 -34 29 -71 -8 -36 -3 -77 11 -96 15
-19 -8 -53 -41 -60 -24 -6 -34 -3 -41 9 -5 9 -16 16 -23 16 -10 0 -15 11 -15
34 0 19 -5 38 -11 42 -15 9 -7 140 10 172 14 26 31 29 31 4z m-442 -144 c20
-20 15 -58 -8 -58 -11 0 -20 7 -20 15 0 9 -7 18 -15 21 -14 6 -13 8 2 20 22
17 26 17 41 2z m657 -34 c18 -39 17 -85 -3 -92 -7 -2 -20 13 -30 37 -19 46
-28 50 -37 21 -7 -21 -30 -27 -40 -9 -13 20 5 57 36 72 40 19 53 14 74 -29z
m170 23 c58 -22 54 -35 -12 -42 -88 -10 -91 -11 -60 -23 27 -12 33 -32 11 -39
-18 -6 -64 45 -64 71 0 56 38 66 125 33z m-677 7 c30 -6 23 -29 -8 -29 -19 0
-25 -7 -30 -31 -13 -63 -40 -69 -40 -10 0 19 -7 39 -15 46 -8 7 -15 15 -15 19
0 8 77 12 108 5z"/>
<path d="M1185 340 c-18 -20 -16 -38 3 -26 8 5 24 46 18 46 -2 0 -11 -9 -21
-20z"/>
<path d="M955 371 c-3 -5 -1 -12 5 -16 5 -3 10 1 10 9 0 18 -6 21 -15 7z"/>
<path d="M1715 380 c-3 -5 3 -10 15 -10 12 0 18 5 15 10 -3 6 -10 10 -15 10
-5 0 -12 -4 -15 -10z"/>
<path d="M1550 3113 c-21 -8 -50 -34 -61 -54 -7 -14 -5 -16 10 -12 13 3 21 -3
29 -24 5 -15 13 -36 17 -45 6 -15 1 -17 -27 -17 -45 0 -137 -16 -148 -27 -5
-5 34 -10 94 -11 93 -1 274 -33 341 -59 11 -4 -3 14 -30 42 -28 27 -67 79 -88
115 -20 36 -42 71 -50 77 -17 15 -67 23 -87 15z"/>
<path d="M945 3091 c22 -11 56 -38 76 -61 l36 -41 -5 31 c-5 36 -61 77 -115
85 -32 5 -32 5 8 -14z"/>
<path d="M1275 3020 c4 -6 11 -8 16 -5 14 9 11 15 -7 15 -8 0 -12 -5 -9 -10z"/>
<path d="M1457 3023 c-4 -3 2 -13 14 -21 26 -18 35 -10 11 11 -10 10 -22 14
-25 10z"/>
<path d="M750 2980 c0 -19 -45 -50 -73 -50 -14 0 -47 -31 -47 -43 0 -13 20 -7
40 13 11 11 29 20 40 20 32 0 34 1 54 18 13 12 35 17 82 16 35 0 64 3 64 7 0
17 -61 39 -110 39 -43 0 -50 -3 -50 -20z"/>
<path d="M525 2790 c-3 -5 -1 -10 4 -10 6 0 11 5 11 10 0 6 -2 10 -4 10 -3 0
-8 -4 -11 -10z"/>
<path d="M506 2725 c-9 -26 -7 -32 5 -12 6 10 9 21 6 23 -2 3 -7 -2 -11 -11z"/>
<path d="M2255 2631 c12 -11 125 -62 125 -56 0 6 -70 42 -108 56 -17 6 -23 7
-17 0z"/>
<path d="M1575 2588 c-40 -14 -39 -12 -13 -41 13 -14 33 -39 45 -55 13 -17 36
-35 52 -40 28 -10 29 -9 34 30 3 23 15 54 26 69 21 28 21 28 2 39 -25 13 -107
12 -146 -2z"/>
<path d="M550 2508 c-17 -19 -28 -58 -16 -58 2 0 13 18 25 40 23 45 21 50 -9
18z"/>
<path d="M785 2483 c-28 -7 -39 -19 -29 -34 4 -8 9 -56 11 -109 4 -128 23
-241 43 -247 46 -16 101 -47 131 -76 49 -46 84 -74 75 -59 -13 22 -89 102 -97
102 -10 0 -72 42 -92 62 -8 8 -18 30 -23 49 -11 47 -5 291 8 307 11 12 7 13
-27 5z"/>
<path d="M1716 2373 c13 -29 17 -183 5 -183 -6 0 -11 -14 -11 -31 0 -17 -5
-40 -11 -52 -10 -22 -10 -22 7 -2 28 35 64 119 64 153 0 30 -43 132 -56 132
-3 0 -3 -8 2 -17z"/>
<path d="M541 2354 c0 -11 3 -14 6 -6 3 7 2 16 -1 19 -3 4 -6 -2 -5 -13z"/>
<path d="M1180 1855 c0 -8 5 -15 10 -15 6 0 10 7 10 15 0 8 -4 15 -10 15 -5 0
-10 -7 -10 -15z"/>
<path d="M1156 1822 c-3 -6 -1 -14 5 -17 15 -10 25 3 12 16 -7 7 -13 7 -17 1z"/>
<path d="M1860 1555 c0 -69 2 -76 15 -65 11 9 13 16 5 24 -14 14 -13 23 7 30
9 4 20 1 25 -6 5 -8 6 -2 2 15 -4 17 -2 27 5 27 6 0 11 4 11 8 0 8 -14 16 -62
40 -5 2 -8 -31 -8 -73z"/>
<path d="M1947 1576 c-4 -10 -1 -13 9 -9 15 6 19 23 5 23 -5 0 -11 -7 -14 -14z"/>
<path d="M2140 1576 c0 -19 -11 -20 -29 -3 -11 10 -13 9 -9 -3 3 -8 1 -24 -5
-35 -9 -19 -9 -19 9 -4 10 9 27 19 37 22 19 7 22 22 7 32 -5 3 -10 -1 -10 -9z"/>
<path d="M1174 1511 c-14 -22 -31 -38 -37 -35 -7 2 -22 -12 -34 -31 -27 -41
-28 -45 -8 -45 8 0 15 5 15 10 0 6 22 22 50 38 46 25 50 30 50 65 0 20 -2 37
-5 37 -3 0 -16 -18 -31 -39z"/>
<path d="M1505 1541 c-3 -5 -1 -12 5 -16 5 -3 10 1 10 9 0 18 -6 21 -15 7z"/>
<path d="M1898 1486 c-24 -18 -22 -32 5 -40 33 -9 34 -8 29 24 -5 33 -9 35
-34 16z"/>
<path d="M1610 1460 c0 -5 6 -10 13 -10 8 0 7 -4 -3 -10 -8 -5 -10 -10 -5 -10
6 0 17 5 25 10 13 9 13 11 0 20 -19 13 -30 13 -30 0z"/>
<path d="M2021 1429 l-25 -10 23 -15 c27 -19 51 -12 51 16 0 22 -12 24 -49 9z"/>
<path d="M1565 1410 c-17 -11 -23 -20 -15 -20 17 1 56 28 49 34 -3 3 -18 -4
-34 -14z"/>
<path d="M1505 1380 c-3 -5 -1 -10 4 -10 6 0 11 5 11 10 0 6 -2 10 -4 10 -3 0
-8 -4 -11 -10z"/>
<path d="M1070 1027 c0 -16 42 -57 58 -57 7 0 12 -5 12 -11 0 -6 7 -18 16 -26
13 -14 17 -14 25 -2 5 8 6 21 3 31 -2 9 0 19 6 23 22 14 10 32 -19 27 -15 -2
-42 3 -59 12 -38 19 -42 20 -42 3z"/>
<path d="M1090 900 c0 -5 5 -10 10 -10 6 0 10 5 10 10 0 6 -4 10 -10 10 -5 0
-10 -4 -10 -10z"/>
<path d="M2033 814 c-7 -18 17 -38 31 -24 11 11 1 40 -14 40 -6 0 -13 -7 -17
-16z"/>
<path d="M288 783 c6 -2 18 -2 25 0 6 3 1 5 -13 5 -14 0 -19 -2 -12 -5z"/>
<path d="M2017 734 c-14 -15 -6 -34 14 -34 14 0 19 5 17 17 -3 18 -20 27 -31
17z"/>
<path d="M2107 714 c-14 -15 -6 -34 14 -34 14 0 19 5 17 17 -3 18 -20 27 -31
17z"/>
<path d="M321 246 c-10 -12 -9 -17 8 -25 26 -14 40 5 19 25 -13 13 -16 13 -27
0z"/>
<path d="M227 233 c-3 -5 -2 -15 3 -22 10 -17 43 -6 38 12 -6 15 -34 22 -41
10z"/>
<path d="M333 154 c-7 -19 11 -39 26 -30 16 10 13 33 -4 40 -9 3 -18 -1 -22
-10z"/>
<path d="M175 10 c-4 -6 6 -10 22 -10 22 0 25 2 13 10 -19 12 -27 12 -35 0z"/>
</g>
</svg>
