<?xml version="1.0" encoding="UTF-8"?>
<svg version="1.1" xmlns="http://www.w3.org/2000/svg" width="70" height="70">
<path d="M0 0 C23.1 0 46.2 0 70 0 C70 23.1 70 46.2 70 70 C46.9 70 23.8 70 0 70 C0 46.9 0 23.8 0 0 Z " fill="#8A7F7F" transform="translate(0,0)"/>
<path d="M0 0 C8.91 0 17.82 0 27 0 C27 23.1 27 46.2 27 70 C3.9 70 -19.2 70 -43 70 C-43 61.09 -43 52.18 -43 43 C-42.01 43 -41.02 43 -40 43 C-39.79246094 43.6290625 -39.58492187 44.258125 -39.37109375 44.90625 C-35.94860483 54.41475479 -31.66376663 59.91184674 -22.5625 64.5 C-19.8090625 65.7375 -19.8090625 65.7375 -17 67 C-17 60.4 -17 53.8 -17 47 C-17.66 46.67 -18.32 46.34 -19 46 C-19.33 45.01 -19.66 44.02 -20 43 C-26.93 42.67 -33.86 42.34 -41 42 C-41 37.38 -41 32.76 -41 28 C-38.69 28 -36.38 28 -34 28 C-35.32 32.29 -36.64 36.58 -38 41 C-36.02 40.505 -36.02 40.505 -34 40 C-33.3503125 38.2984375 -33.3503125 38.2984375 -32.6875 36.5625 C-31 33 -31 33 -27.3125 31.5625 C-26.219375 31.376875 -25.12625 31.19125 -24 31 C-24 33.31 -24 35.62 -24 38 C-22.68 38 -21.36 38 -20 38 C-19.67 37.34 -19.34 36.68 -19 36 C-18.01 36 -17.02 36 -16 36 C-16.33 37.98 -16.66 39.96 -17 42 C-15.05925139 41.72382467 -15.05925139 41.72382467 -13 41 C-12.34 40.01 -11.68 39.02 -11 38 C-10.67 38.99 -10.34 39.98 -10 41 C-9.236875 40.690625 -8.47375 40.38125 -7.6875 40.0625 C-2.2620407 37.91755098 2.33796257 37.11265419 8 39 C8.33 37.68 8.66 36.36 9 35 C10.32 35 11.64 35 13 35 C12.42415568 37.38564077 11.77772405 39.66682784 11 42 C8.69 42 6.38 42 4 42 C3.67 43.32 3.34 44.64 3 46 C2.01 46 1.02 46 0 46 C0 52.93 0 59.86 0 67 C9.49935559 63.70161264 16.21566417 59.97286151 20.9375 50.8125 C22.28839092 47.90465006 23.31579613 45.1329335 24 42 C21.36 42 18.72 42 16 42 C17.33488128 38.40608886 18.96022723 35.24509304 21 32 C19.35 32.99 17.7 33.98 16 35 C15.505 32.03 15.505 32.03 15 29 C12.69 29.33 10.38 29.66 8 30 C8 30.99 8 31.98 8 33 C7.01 32.67 6.02 32.34 5 32 C4.67 32.99 4.34 33.98 4 35 C3.01 34.505 3.01 34.505 2 34 C2 32.68 2 31.36 2 30 C1.01 29.67 0.02 29.34 -1 29 C-1 28.34 -1 27.68 -1 27 C-1.99 27 -2.98 27 -4 27 C-4 26.01 -4 25.02 -4 24 C-4.598125 24.66 -5.19625 25.32 -5.8125 26 C-8 28 -8 28 -11 28 C-10.505 30.475 -10.505 30.475 -10 33 C-10.99 33.66 -11.98 34.32 -13 35 C-13.12375 34.030625 -13.2475 33.06125 -13.375 32.0625 C-13.58125 31.051875 -13.7875 30.04125 -14 29 C-14.66 28.67 -15.32 28.34 -16 28 C-16.33 29.65 -16.66 31.3 -17 33 C-18.32 31.35 -19.64 29.7 -21 28 C-20.34 28 -19.68 28 -19 28 C-18.67 26.68 -18.34 25.36 -18 24 C-17.01 24 -16.02 24 -15 24 C-15 16.74 -15 9.48 -15 2 C-10.38 2 -5.76 2 -1 2 C-0.505 12.395 -0.505 12.395 0 23 C0.99 23.33 1.98 23.66 3 24 C3.495 24.99 3.495 24.99 4 26 C10.6 26.33 17.2 26.66 24 27 C20.21572233 16.90859287 15.8859909 9.75326431 6 5 C2.69607984 3.70095992 2.69607984 3.70095992 0 3 C0 2.01 0 1.02 0 0 Z " fill="#8C7F7F" transform="translate(43,0)"/>
<path d="M0 0 C8.91 0 17.82 0 27 0 C27 14.19 27 28.38 27 43 C23.25838897 43 19.71046443 42.48661829 16 42 C17.33488128 38.40608886 18.96022723 35.24509304 21 32 C19.35 32.99 17.7 33.98 16 35 C15.505 32.03 15.505 32.03 15 29 C12.69 29.33 10.38 29.66 8 30 C8 30.99 8 31.98 8 33 C6.515 32.505 6.515 32.505 5 32 C4.67 32.99 4.34 33.98 4 35 C3.34 34.67 2.68 34.34 2 34 C2 32.68 2 31.36 2 30 C1.01 29.67 0.02 29.34 -1 29 C-1 28.34 -1 27.68 -1 27 C-1.99 27 -2.98 27 -4 27 C-4 26.01 -4 25.02 -4 24 C-4.598125 24.66 -5.19625 25.32 -5.8125 26 C-8 28 -8 28 -11 28 C-10.67 29.65 -10.34 31.3 -10 33 C-10.99 33.66 -11.98 34.32 -13 35 C-13.12375 34.030625 -13.2475 33.06125 -13.375 32.0625 C-13.684375 30.5465625 -13.684375 30.5465625 -14 29 C-14.66 28.67 -15.32 28.34 -16 28 C-16.33 29.65 -16.66 31.3 -17 33 C-18.32 31.35 -19.64 29.7 -21 28 C-20.34 28 -19.68 28 -19 28 C-18.67 26.68 -18.34 25.36 -18 24 C-17.01 24 -16.02 24 -15 24 C-15 16.74 -15 9.48 -15 2 C-10.38 2 -5.76 2 -1 2 C-0.67 8.93 -0.34 15.86 0 23 C0.99 23.33 1.98 23.66 3 24 C3.33 24.66 3.66 25.32 4 26 C10.6 26.33 17.2 26.66 24 27 C20.21572233 16.90859287 15.8859909 9.75326431 6 5 C2.69607984 3.70095992 2.69607984 3.70095992 0 3 C0 2.01 0 1.02 0 0 Z " fill="#8D7F7F" transform="translate(43,0)"/>
<path d="M0 0 C2.31 0 4.62 0 7 0 C5.68 4.29 4.36 8.58 3 13 C4.32 12.67 5.64 12.34 7 12 C7.6496875 10.2984375 7.6496875 10.2984375 8.3125 8.5625 C10 5 10 5 13.6875 3.5625 C14.780625 3.376875 15.87375 3.19125 17 3 C17 5.31 17 7.62 17 10 C18.32 10 19.64 10 21 10 C21.33 9.34 21.66 8.68 22 8 C22.99 8 23.98 8 25 8 C24.67 9.98 24.34 11.96 24 14 C25.94074861 13.72382467 25.94074861 13.72382467 28 13 C28.66 12.01 29.32 11.02 30 10 C30.33 10.99 30.66 11.98 31 13 C32.1446875 12.5359375 32.1446875 12.5359375 33.3125 12.0625 C38.7379593 9.91755098 43.33796257 9.11265419 49 11 C49.33 9.68 49.66 8.36 50 7 C51.32 7 52.64 7 54 7 C53.42415568 9.38564077 52.77772405 11.66682784 52 14 C49.69 14 47.38 14 45 14 C44.896875 14.639375 44.79375 15.27875 44.6875 15.9375 C44.460625 16.618125 44.23375 17.29875 44 18 C43.01 18.33 42.02 18.66 41 19 C40.67 25.93 40.34 32.86 40 40 C35.38 40 30.76 40 26 40 C26 32.74 26 25.48 26 18 C24.68 18 23.36 18 22 18 C21.67 17.01 21.34 16.02 21 15 C14.07 14.67 7.14 14.34 0 14 C0 9.38 0 4.76 0 0 Z " fill="#FBFBFB" transform="translate(2,28)"/>
<path d="M0 0 C4.62 0 9.24 0 14 0 C14.33 6.93 14.66 13.86 15 21 C15.99 21.33 16.98 21.66 18 22 C18.3721042 23.32303717 18.70630173 24.65737935 19 26 C19.66 26.33 20.32 26.66 21 27 C20.34 28.98 19.68 30.96 19 33 C18.34 32.67 17.68 32.34 17 32 C17 30.68 17 29.36 17 28 C16.01 27.67 15.02 27.34 14 27 C14 26.34 14 25.68 14 25 C13.01 25 12.02 25 11 25 C11 24.01 11 23.02 11 22 C10.401875 22.66 9.80375 23.32 9.1875 24 C7 26 7 26 4 26 C4.33 27.65 4.66 29.3 5 31 C4.01 31.66 3.02 32.32 2 33 C1.87625 32.030625 1.7525 31.06125 1.625 30.0625 C1.315625 28.5465625 1.315625 28.5465625 1 27 C0.34 26.67 -0.32 26.34 -1 26 C-1.33 27.65 -1.66 29.3 -2 31 C-3.32 29.35 -4.64 27.7 -6 26 C-5.34 26 -4.68 26 -4 26 C-3.67 24.68 -3.34 23.36 -3 22 C-2.01 22 -1.02 22 0 22 C0 14.74 0 7.48 0 0 Z " fill="#FBFBFB" transform="translate(28,2)"/>
<path d="M0 0 C6.93 0 13.86 0 21 0 C21 0.99 21 1.98 21 3 C21.99 3.33 22.98 3.66 24 4 C24 10.93 24 17.86 24 25 C14.06376047 21.54991683 7.51666079 17.07925611 1.91015625 8.08984375 C1 6 1 6 0 0 Z " fill="#020202" transform="translate(3,43)"/>
<path d="M0 0 C6.6 0 13.2 0 20 0 C18.58031981 8.51808112 14.54062904 14.40132715 7.80078125 19.78125 C4.0989822 22.28658905 0.54483718 24 -4 24 C-4 17.07 -4 10.14 -4 3 C-3.01 3 -2.02 3 -1 3 C-0.67 2.01 -0.34 1.02 0 0 Z " fill="#010101" transform="translate(47,43)"/>
<path d="M0 0 C8.94937353 1.49156225 14.70415633 5.76368619 20.0625 13.0625 C22.82600842 17.07446399 23.13615467 18.81692804 24 24 C17.4 24 10.8 24 4 24 C3.67 23.01 3.34 22.02 3 21 C2.01 21 1.02 21 0 21 C0 14.07 0 7.14 0 0 Z " fill="#020202" transform="translate(43,3)"/>
<path d="M0 0 C0.14546783 3.24952748 0.2341168 6.49821713 0.3125 9.75 C0.35439453 10.67039062 0.39628906 11.59078125 0.43945312 12.5390625 C0.56390832 19.40898911 0.56390832 19.40898911 -2.51953125 22.640625 C-3.33808594 23.08921875 -4.15664063 23.5378125 -5 24 C-5.33 23.01 -5.66 22.02 -6 21 C-9.96 21 -13.92 21 -18 21 C-18.33 21.99 -18.66 22.98 -19 24 C-20.65 24 -22.3 24 -24 24 C-23.09577638 16.30851759 -19.32361792 10.78560413 -13.41796875 5.8359375 C-5.21643519 0 -5.21643519 0 0 0 Z " fill="#030303" transform="translate(27,3)"/>
<path d="M0 0 C1.93681161 -0.08107583 3.8745934 -0.13922475 5.8125 -0.1875 C6.89144531 -0.22230469 7.97039063 -0.25710937 9.08203125 -0.29296875 C12 0 12 0 13.88671875 1.26171875 C15 3 15 3 15 7 C15.66 7 16.32 7 17 7 C17.33 6.34 17.66 5.68 18 5 C18.99 5.33 19.98 5.66 21 6 C21.33 7.65 21.66 9.3 22 11 C22.99 10.01 23.98 9.02 25 8 C24.51522843 15.2715736 24.51522843 15.2715736 22.1875 18.5625 C20 20 20 20 17.75 19.75 C17.1725 19.5025 16.595 19.255 16 19 C16.50603992 16.83125748 16.99983813 15.00032373 18 13 C17.01 13 16.02 13 15 13 C14.67 13.99 14.34 14.98 14 16 C11.525 15.505 11.525 15.505 9 15 C9 13.02 9 11.04 9 9 C6.05181069 9.48026848 6.05181069 9.48026848 3 11 C1.55911437 13.28536073 0.86430792 15.40707624 0 18 C-1.32 18 -2.64 18 -4 18 C-3.44957896 13.41315804 -2.51489217 9.35531499 -1 5 C-0.65082722 3.33657965 -0.31492784 1.6702423 0 0 Z " fill="#746767" transform="translate(9,23)"/>
<path d="M0 0 C1.93681161 -0.08107583 3.8745934 -0.13922475 5.8125 -0.1875 C6.89144531 -0.22230469 7.97039063 -0.25710937 9.08203125 -0.29296875 C12 0 12 0 13.88671875 1.38671875 C15 3 15 3 15 5 C13.68 5 12.36 5 11 5 C11 4.34 11 3.68 11 3 C8.94729537 4.84188612 8.94729537 4.84188612 8 7 C5.4375 7.625 5.4375 7.625 3 8 C3.66 8.33 4.32 8.66 5 9 C4.01 9 3.02 9 2 9 C1.67 11.64 1.34 14.28 1 17 C-0.65 17.33 -2.3 17.66 -4 18 C-3.44957896 13.41315804 -2.51489217 9.35531499 -1 5 C-0.65082722 3.33657965 -0.31492784 1.6702423 0 0 Z " fill="#7C6F6F" transform="translate(9,23)"/>
<path d="M0 0 C0.66 0 1.32 0 2 0 C2 0.99 2 1.98 2 3 C2.99 3 3.98 3 5 3 C5 3.66 5 4.32 5 5 C6.32 5.33 7.64 5.66 9 6 C9 7.32 9 8.64 9 10 C7.68 10 6.36 10 5 10 C5 10.99 5 11.98 5 13 C3.02 13 1.04 13 -1 13 C-0.67 14.32 -0.34 15.64 0 17 C-1.32 17 -2.64 17 -4 17 C-4.76832158 13.24376114 -5.01330689 10.67323747 -4 7 C-4.33 6.01 -4.66 5.02 -5 4 C-4.01 4 -3.02 4 -2 4 C-1.34 2.68 -0.68 1.36 0 0 Z " fill="#7F7272" transform="translate(37,24)"/>
<path d="M0 0 C3.3 0 6.6 0 10 0 C10 4.62 10 9.24 10 14 C7.03 14 4.06 14 1 14 C2.33488128 10.40608886 3.96022723 7.24509304 6 4 C3.525 5.485 3.525 5.485 1 7 C0.67 4.69 0.34 2.38 0 0 Z " fill="#FCFCFC" transform="translate(58,28)"/>
<path d="M0 0 C2.31 0 4.62 0 7 0 C5.68 4.29 4.36 8.58 3 13 C4.32 13.33 5.64 13.66 7 14 C4.69 14 2.38 14 0 14 C0 9.38 0 4.76 0 0 Z " fill="#FCFCFC" transform="translate(2,28)"/>
<path d="M0 0 C0.33 0 0.66 0 1 0 C1.19588601 3.6454342 1.38030536 7.2913579 1.5625 10.9375 C1.61857422 11.97841797 1.67464844 13.01933594 1.73242188 14.09179688 C1.78076172 15.08115234 1.82910156 16.07050781 1.87890625 17.08984375 C1.9260376 18.00628662 1.97316895 18.92272949 2.02172852 19.86694336 C2 22 2 22 1 23 C-1.53049402 23.07313567 -4.03304837 23.09247527 -6.5625 23.0625 C-7.27341797 23.05798828 -7.98433594 23.05347656 -8.71679688 23.04882812 C-10.47790013 23.03700864 -12.23896036 23.01907263 -14 23 C-14 22.34 -14 21.68 -14 21 C-9.38 21 -4.76 21 0 21 C0 14.07 0 7.14 0 0 Z " fill="#928C8C" transform="translate(42,47)"/>
<path d="M0 0 C0.99 0.66 1.98 1.32 3 2 C3 3.32 3 4.64 3 6 C5.31 6.33 7.62 6.66 10 7 C10 7.33 10 7.66 10 8 C3.4 8 -3.2 8 -10 8 C-10 7.67 -10 7.34 -10 7 C-7.69 7 -5.38 7 -3 7 C-2.67 5.68 -2.34 4.36 -2 3 C-1.34 3 -0.68 3 0 3 C0 2.01 0 1.02 0 0 Z " fill="#877F7F" transform="translate(57,35)"/>
<path d="M0 0 C1.65 0 3.3 0 5 0 C5 0.66 5 1.32 5 2 C6.32 2.66 7.64 3.32 9 4 C8.34 5.32 7.68 6.64 7 8 C6.67 7.01 6.34 6.02 6 5 C1.545 6.485 1.545 6.485 -3 8 C-3 5 -3 5 -2 3 C-0.68 3.33 0.64 3.66 2 4 C2 3.34 2 2.68 2 2 C1.34 1.34 0.68 0.68 0 0 Z " fill="#5F5252" transform="translate(15,26)"/>
<path d="M0 0 C0.66 0 1.32 0 2 0 C2 0.99 2 1.98 2 3 C2.99 3 3.98 3 5 3 C5 3.66 5 4.32 5 5 C6.32 5.33 7.64 5.66 9 6 C8.67 7.32 8.34 8.64 8 10 C6 9 6 9 5 7 C4.01 8.32 3.02 9.64 2 11 C2.33 9.35 2.66 7.7 3 6 C0.88214887 4.88214887 0.88214887 4.88214887 -2 4 C-1.34 2.68 -0.68 1.36 0 0 Z " fill="#6D6161" transform="translate(37,24)"/>
<path d="M0 0 C6.6 0 13.2 0 20 0 C20 0.33 20 0.66 20 1 C19.00419922 1.09087891 19.00419922 1.09087891 17.98828125 1.18359375 C11.45091919 1.79863507 11.45091919 1.79863507 5 3 C4.67 3.99 4.34 4.98 4 6 C3.34 6 2.68 6 2 6 C1.34 4.02 0.68 2.04 0 0 Z " fill="#9B9797" transform="translate(47,27)"/>
<path d="M0 0 C0.66 0 1.32 0 2 0 C2 0.99 2 1.98 2 3 C2.66 2.01 3.32 1.02 4 0 C4.66 0.33 5.32 0.66 6 1 C6.33 1.99 6.66 2.98 7 4 C6.01 4 5.02 4 4 4 C4 4.99 4 5.98 4 7 C2.02 7 0.04 7 -2 7 C-1.34 4.69 -0.68 2.38 0 0 Z " fill="#A89F9F" transform="translate(38,30)"/>
<path d="M0 0 C0.66 0 1.32 0 2 0 C2 4.95 2 9.9 2 15 C1.01 15 0.02 15 -1 15 C-0.67 10.05 -0.34 5.1 0 0 Z " fill="#A09696" transform="translate(68,28)"/>
<path d="M0 0 C0.66 0.66 1.32 1.32 2 2 C2.99 1.67 3.98 1.34 5 1 C4.67 2.32 4.34 3.64 4 5 C3.01 5 2.02 5 1 5 C1.33 5.99 1.66 6.98 2 8 C0.68 8 -0.64 8 -2 8 C-1.125 2.25 -1.125 2.25 0 0 Z " fill="#817474" transform="translate(20,30)"/>
<path d="M0 0 C0.33 0 0.66 0 1 0 C1.33 2.64 1.66 5.28 2 8 C1.67 7.34 1.34 6.68 1 6 C0.01 6 -0.98 6 -2 6 C-2.33 6.99 -2.66 7.98 -3 9 C-4.32 8.67 -5.64 8.34 -7 8 C-6.34 7.67 -5.68 7.34 -5 7 C-5 6.34 -5 5.68 -5 5 C-4.01 5 -3.02 5 -2 5 C-2 4.34 -2 3.68 -2 3 C-1.34 3 -0.68 3 0 3 C0 2.01 0 1.02 0 0 Z " fill="#685B5B" transform="translate(26,30)"/>
<path d="M0 0 C0.99 0.33 1.98 0.66 3 1 C3 1.66 3 2.32 3 3 C0.36 3.99 -2.28 4.98 -5 6 C-5.66 5.34 -6.32 4.68 -7 4 C-6.67 3.01 -6.34 2.02 -6 1 C-6 1.66 -6 2.32 -6 3 C-5.38125 2.814375 -4.7625 2.62875 -4.125 2.4375 C-2 2 -2 2 0 3 C0 2.01 0 1.02 0 0 Z " fill="#655757" transform="translate(42,34)"/>
<path d="M0 0 C1.5 1.375 1.5 1.375 3 3 C3 3.66 3 4.32 3 5 C-0.63 5 -4.26 5 -8 5 C-8 4.67 -8 4.34 -8 4 C-5.69 4 -3.38 4 -1 4 C-0.67 2.68 -0.34 1.36 0 0 Z " fill="#665E5E" transform="translate(55,38)"/>
<path d="M0 0 C0.99 0.33 1.98 0.66 3 1 C3 2.32 3 3.64 3 5 C3.66 5 4.32 5 5 5 C5.33 4.01 5.66 3.02 6 2 C6 3.32 6 4.64 6 6 C4.35 6.33 2.7 6.66 1 7 C0 4 0 4 0 0 Z " fill="#615454" transform="translate(50,29)"/>
<path d="M0 0 C0.99 0.33 1.98 0.66 3 1 C3 2.65 3 4.3 3 6 C2.01 6.33 1.02 6.66 0 7 C0 4.69 0 2.38 0 0 Z " fill="#7E7171" transform="translate(27,28)"/>
</svg>
