<?xml version="1.0" standalone="no"?>
<!DOCTYPE svg PUBLIC "-//W3C//DTD SVG 20010904//EN"
 "http://www.w3.org/TR/2001/REC-SVG-20010904/DTD/svg10.dtd">
<svg version="1.0" xmlns="http://www.w3.org/2000/svg"
 width="245.000000pt" height="345.000000pt" viewBox="0 0 245.000000 345.000000"
 preserveAspectRatio="xMidYMid meet">

<g transform="translate(0.000000,345.000000) scale(0.100000,-0.100000)"
fill="#000000" stroke="none">
<path d="M0 2845 c0 -533 2 -604 15 -599 19 8 20 -16 0 -42 -18 -24 -21 -224
-3 -253 9 -15 9 -25 0 -46 -9 -19 -12 -259 -12 -965 l0 -940 1225 0 1225 0 0
1725 0 1725 -1225 0 -1225 0 0 -605z m1560 405 c0 -11 -6 -20 -13 -20 -19 0
-27 10 -20 26 8 21 33 17 33 -6z m-322 -13 c2 -12 -3 -17 -17 -17 -12 0 -21 6
-21 13 0 31 32 34 38 4z m-604 -73 c-23 -33 -21 -109 2 -135 21 -23 7 -25 -24
-3 -33 23 -45 60 -31 101 8 26 44 59 67 63 1 0 -5 -12 -14 -26z m92 -5 c10
-11 17 -35 17 -61 0 -33 -6 -47 -27 -65 -32 -27 -56 -31 -33 -5 22 24 23 110
2 139 -14 19 -13 21 4 16 11 -3 27 -13 37 -24z m190 23 c16 -6 19 -12 13 -27
-6 -16 -8 -17 -8 -3 -1 18 -34 33 -51 23 -19 -12 -10 -32 31 -64 31 -26 39
-39 37 -59 -6 -50 -109 -58 -107 -9 l0 22 9 -22 c11 -27 55 -32 64 -8 5 15 -7
30 -52 67 -26 21 -29 63 -4 77 19 12 37 12 68 3z m286 -2 c-12 -5 -27 -22 -33
-37 -13 -35 -5 -104 14 -118 12 -8 12 -12 1 -23 -19 -17 -34 -15 -34 6 0 9 -7
26 -15 36 -8 11 -15 37 -15 57 0 29 7 43 31 63 17 14 40 26 52 25 22 0 22 0
-1 -9z m662 -11 c-13 -15 -19 -36 -19 -69 0 -33 6 -54 19 -69 14 -16 15 -21 5
-21 -8 0 -21 6 -30 13 -57 43 -45 136 21 160 24 9 24 8 4 -14z m65 6 c33 -16
41 -33 41 -81 0 -24 -8 -43 -25 -59 -31 -31 -52 -33 -31 -3 24 35 21 113 -6
138 -26 24 -18 26 21 5z m-907 -80 c3 -85 3 -85 -22 -85 -25 0 -25 1 -25 85 0
81 1 85 22 85 20 0 22 -5 25 -85z m68 63 c0 -12 -1 -19 -3 -17 -1 2 -9 12 -16
22 -12 14 -11 17 3 17 10 0 16 -8 16 -22z m180 -8 c-1 -24 -1 -24 -12 -5 -6
11 -16 23 -22 27 -6 4 -1 6 12 5 17 -1 22 -7 22 -27z m82 -55 c3 -85 3 -85
-22 -85 -25 0 -25 1 -25 85 0 81 1 85 22 85 20 0 22 -5 25 -85z m62 79 c20 -8
21 -48 1 -64 -14 -12 -14 -15 0 -30 8 -9 15 -23 15 -31 0 -8 6 -21 13 -28 10
-10 6 -12 -17 -9 -24 2 -31 10 -41 46 -9 27 -9 44 -3 48 5 4 8 22 6 40 -4 35
-1 38 26 28z m108 -79 c3 -85 3 -85 -22 -85 -25 0 -25 1 -25 85 0 81 1 85 22
85 20 0 22 -5 25 -85z m68 63 c0 -12 -1 -19 -3 -17 -1 2 -9 12 -16 22 -12 14
-11 17 3 17 10 0 16 -8 16 -22z m82 -63 c3 -85 3 -85 -22 -85 -25 0 -25 0 -22
85 3 75 6 85 22 85 16 0 19 -10 22 -85z m88 65 c28 -28 27 -90 -2 -117 -39
-34 -54 -40 -35 -12 22 31 22 107 0 131 -15 17 -15 18 0 18 10 0 26 -9 37 -20z
m-700 -62 c-1 -26 -3 -30 -10 -16 -6 9 -7 23 -4 32 9 25 14 19 14 -16z m500 1
c0 -28 -1 -29 -16 -14 -13 12 -14 19 -4 30 17 21 20 19 20 -16z m-290 -46 c0
-20 -3 -33 -6 -30 -4 3 -14 2 -23 -2 -13 -8 -16 -3 -16 30 0 34 3 39 23 39 19
0 22 -5 22 -37z m-174 -29 c-3 -8 -12 -14 -20 -14 -13 0 -13 4 2 30 12 21 18
25 20 14 2 -8 1 -22 -2 -30z m494 11 c0 -19 -5 -25 -22 -25 -21 1 -22 2 -5 14
9 7 17 18 17 25 0 6 2 11 5 11 3 0 5 -11 5 -25z m-252 -47 c-3 -7 -15 -15 -28
-16 -21 -3 -22 -2 -11 12 16 19 44 21 39 4z m-748 -23 c0 -8 -7 -15 -15 -15
-16 0 -20 12 -8 23 11 12 23 8 23 -8z m266 0 c4 -8 0 -22 -7 -31 -10 -13 -14
-13 -26 -1 -16 16 -7 47 13 47 8 0 17 -7 20 -15z m177 -82 c14 -38 29 -76 33
-85 5 -14 1 -18 -17 -18 -21 0 -27 10 -47 69 -20 62 -22 101 -3 101 5 0 20
-30 34 -67z m109 -17 c-3 -77 -5 -84 -25 -88 -21 -4 -22 -1 -22 84 0 87 0 88
25 88 25 0 25 0 22 -84z m148 0 c0 -79 -1 -84 -22 -88 -22 -4 -23 -2 -23 84 0
85 1 88 23 88 21 0 22 -4 22 -84z m70 57 c0 -14 -1 -24 -3 -22 -1 2 -11 14
-21 27 -19 22 -19 22 2 22 17 0 22 -6 22 -27z m109 -35 c26 -56 28 -65 16 -88
l-13 -25 -10 25 c-6 14 -19 45 -31 70 l-21 45 3 -68 c1 -39 -2 -67 -8 -67 -6
0 -10 35 -10 85 0 81 1 85 22 85 17 0 29 -14 52 -62z m106 -23 c0 -78 -2 -85
-20 -85 -18 0 -20 6 -19 78 2 98 1 92 22 92 15 0 17 -11 17 -85z m435 50 c0
-8 -6 -15 -14 -15 -17 0 -28 14 -19 24 12 12 33 6 33 -9z m-680 -57 c0 -30 -1
-31 -14 -12 -10 13 -11 23 -4 31 15 19 18 16 18 -19z m419 -22 c15 -18 3 -46
-20 -46 -25 0 -35 26 -19 45 15 19 24 19 39 1z m-534 -33 c-1 -18 -6 -23 -25
-23 -6 0 -5 8 2 20 16 25 25 26 23 3z m145 -8 c0 -17 -4 -23 -15 -19 -11 5
-12 10 -2 25 15 25 17 24 17 -6z m-412 -8 c8 -10 6 -13 -9 -13 -19 0 -24 7
-12 19 8 9 9 9 21 -6z m-343 -137 l0 -100 -33 0 c-29 0 -32 2 -22 19 14 27 13
154 -2 169 -9 9 -4 12 23 12 l34 0 0 -100z m70 86 c77 -32 56 -176 -26 -176
-7 0 -5 6 6 14 13 9 20 30 23 69 4 50 2 58 -21 81 -30 30 -28 31 18 12z m145
-4 c-45 -36 -30 -172 19 -172 50 0 71 112 30 164 -26 33 -5 36 34 6 52 -41 44
-136 -14 -165 -41 -22 -74 -18 -108 11 -27 22 -31 32 -31 74 0 42 4 52 31 74
17 14 37 26 46 26 11 0 10 -5 -7 -18z m272 6 c-8 -8 -12 -46 -12 -102 0 -50
-4 -96 -8 -102 -24 -36 -107 -42 -100 -7 5 25 27 27 36 3 7 -19 10 -20 21 -7
9 11 11 47 9 121 l-3 106 35 0 c26 0 31 -3 22 -12z m149 -68 c16 -41 33 -83
39 -92 9 -16 6 -18 -27 -18 -20 0 -34 3 -31 6 4 3 -5 36 -18 72 -24 65 -25
117 -2 110 6 -2 24 -37 39 -78z m124 -15 l0 -95 -27 0 -27 0 -3 95 -3 95 30 0
30 0 0 -95z m63 79 c27 -19 28 -49 3 -70 -18 -16 -18 -17 0 -35 11 -11 19 -28
19 -38 0 -11 6 -21 13 -24 8 -3 6 -7 -5 -12 -27 -11 -47 1 -53 32 -4 15 -11
36 -16 46 -7 13 -5 22 6 33 20 20 19 43 -2 66 -13 15 -13 18 -2 18 8 0 25 -7
37 -16z m124 -79 c-3 -92 -4 -95 -27 -95 -23 0 -24 3 -27 95 l-3 95 30 0 30 0
-3 -95z m96 59 c32 -36 30 -93 -4 -128 -15 -14 -34 -26 -43 -26 -12 0 -13 2
-3 8 37 24 36 141 -2 168 -21 16 -21 16 4 9 14 -4 35 -18 48 -31z m117 -61 l0
-98 -30 0 -30 0 0 98 0 97 30 0 30 0 0 -97z m125 24 c23 -54 27 -74 19 -93 -9
-25 -29 -25 -29 -1 0 7 -18 47 -39 90 l-39 78 30 -3 c26 -3 33 -11 58 -71z
m125 -27 l0 -99 -25 6 c-14 3 -26 6 -27 7 -6 4 -5 165 1 175 4 6 17 11 29 11
21 0 22 -4 22 -100z m225 69 c0 -6 -4 -7 -10 -4 -5 3 -10 11 -10 16 0 6 5 7
10 4 6 -3 10 -11 10 -16z m-410 -154 c6 -7 2 -11 -11 -11 -12 0 -18 5 -14 14
3 7 6 44 7 80 l2 67 3 -70 c2 -38 8 -74 13 -80z m325 106 c14 -27 13 -31 -2
-47 -17 -16 -16 -17 10 -12 15 3 27 2 27 -2 0 -4 45 -52 99 -106 104 -104 99
-95 137 -234 3 -11 -15 -19 -74 -32 -42 -10 -98 -20 -123 -23 l-46 -6 -17 41
c-9 22 -16 57 -16 78 0 40 -14 71 -26 59 -8 -7 7 -93 21 -130 5 -11 -34 9
-101 53 -118 77 -210 124 -262 134 -36 6 -102 -15 -102 -34 0 -7 12 -4 30 7
30 17 31 17 97 -16 38 -18 94 -49 126 -68 53 -32 57 -36 40 -49 -21 -16 -10
-18 17 -4 15 8 32 2 80 -26 33 -20 63 -41 66 -45 3 -5 -26 -9 -64 -9 -66 0
-146 26 -163 52 -9 14 -131 19 -126 4 2 -6 28 -12 58 -14 48 -2 119 -27 119
-42 0 -8 37 -13 108 -14 34 -1 62 -4 62 -7 0 -9 -39 -19 -79 -19 -38 0 -111
-20 -111 -30 0 -3 -28 -7 -62 -8 -80 -2 -136 -11 -144 -23 -4 -6 -37 -8 -86
-3 -73 6 -82 5 -110 -16 -22 -16 -40 -21 -69 -18 -24 2 -38 0 -36 -7 2 -5 21
-11 43 -13 21 -2 43 -10 47 -18 9 -16 48 -19 63 -4 7 7 25 7 50 2 33 -7 39
-12 39 -32 0 -20 -8 -27 -41 -38 -43 -14 -144 -106 -130 -119 4 -5 26 12 48
37 22 25 63 56 91 70 37 18 53 32 55 48 3 20 8 23 44 20 62 -5 56 -22 -14 -48
-63 -23 -90 -45 -157 -129 -18 -23 -49 -50 -67 -59 -34 -16 -45 -32 -21 -32
27 0 89 53 124 108 39 59 92 94 159 108 29 6 32 4 38 -28 4 -18 4 -70 0 -114
-5 -56 -3 -83 5 -88 20 -13 24 25 15 136 l-9 109 38 24 c20 14 37 20 37 14 0
-5 11 -25 25 -43 20 -26 22 -35 12 -46 -8 -9 -8 -11 0 -6 8 4 13 -10 18 -46
11 -91 9 -111 -18 -175 -14 -35 -22 -65 -17 -68 11 -7 22 14 45 85 24 74 36
90 98 126 59 34 93 85 103 152 3 23 15 53 25 65 18 22 18 22 19 -33 0 -38 7
-69 23 -98 63 -118 82 -144 119 -163 21 -11 38 -22 38 -25 0 -22 -27 -45 -70
-59 -99 -33 -149 -131 -190 -375 -22 -135 -41 -394 -47 -649 l-6 -263 -33 -14
c-18 -8 -53 -14 -76 -14 -24 0 -76 -7 -117 -16 -58 -12 -83 -23 -113 -49 -20
-19 -50 -38 -65 -41 -38 -10 -73 -33 -73 -50 0 -8 -3 -14 -7 -15 -5 0 -25 -2
-45 -5 -21 -2 -54 -6 -73 -8 -20 -2 -38 -6 -42 -9 -3 -4 -17 -4 -31 0 -17 4
-23 2 -18 -5 4 -6 -1 -10 -13 -9 -11 0 -17 6 -14 14 3 7 -10 20 -31 30 -36 17
-37 16 -58 -5 -21 -20 -21 -22 -5 -40 9 -10 14 -22 11 -25 -4 -4 -12 0 -18 7
-9 12 -28 13 -101 7 -49 -4 -98 -4 -107 1 -9 4 -29 8 -45 9 -15 0 -37 4 -48 8
-17 7 -12 11 29 23 73 22 70 37 -5 26 -34 -4 -64 -7 -66 -5 -1 2 20 18 47 36
51 33 54 38 44 65 -6 14 -11 13 -40 -9 -56 -43 -124 -68 -191 -70 -49 -2 -60
0 -56 11 3 9 -2 14 -15 14 -38 0 -32 17 8 24 26 4 43 14 51 27 14 28 -4 41
-38 28 -34 -13 -36 -12 -30 14 6 22 6 22 -9 2 -13 -17 -16 -18 -24 -5 -5 8
-10 18 -10 22 0 4 -7 5 -15 2 -10 -4 -15 0 -15 16 0 11 -4 19 -9 16 -4 -3 -11
36 -15 87 -3 50 -13 144 -22 208 -16 116 -16 117 6 165 22 50 53 154 47 160
-2 2 -13 -28 -26 -66 -20 -65 -41 -98 -41 -68 0 8 -5 51 -10 97 -10 75 -9 86
7 105 16 19 16 19 0 7 -15 -12 -17 -11 -17 3 0 9 8 16 18 16 14 0 15 2 2 10
-10 6 -14 24 -12 59 1 29 -2 51 -8 51 -11 0 -11 -2 -15 -38 -1 -12 -4 -24 -6
-27 -4 -4 -52 144 -85 265 -25 91 -57 153 -98 187 l-35 29 1 176 c1 98 5 175
9 172 5 -3 20 -44 35 -92 50 -170 42 -157 105 -154 43 3 68 -2 114 -23 120
-54 198 -85 216 -85 25 0 34 19 12 26 -38 12 -168 68 -178 76 -5 4 34 8 85 8
52 0 102 5 110 10 10 7 -8 10 -60 10 l-75 0 34 17 c49 24 20 28 -33 5 -60 -27
-124 -26 -199 5 -78 31 -84 36 -91 76 -3 18 -24 67 -46 110 l-39 77 25 0 c19
0 24 -5 24 -25 0 -14 0 -26 -1 -27 -2 -11 36 -85 50 -95 28 -22 28 -15 0 45
-46 97 -46 102 -5 102 24 0 36 -5 36 -14 0 -7 10 -16 21 -19 14 -4 20 -11 16
-21 -3 -8 1 -20 9 -27 9 -7 22 -25 29 -40 8 -15 30 -37 48 -48 69 -43 77 -17
14 48 -45 47 -77 90 -77 105 0 5 18 6 40 3 27 -3 63 -22 107 -55 85 -62 107
-74 127 -66 28 11 18 51 -19 80 -19 14 -35 32 -35 40 0 7 -4 16 -10 19 -6 4
-7 -1 -3 -11 5 -14 3 -15 -15 -5 -29 16 -35 28 -15 35 10 4 37 -8 72 -32 53
-37 157 -80 167 -69 3 3 -27 22 -68 44 -56 29 -74 44 -76 62 -2 13 2 28 10 32
7 5 77 9 156 9 98 0 142 3 142 11 0 17 -310 8 -328 -8 -19 -18 -36 -16 -57 7
-18 19 -17 20 6 21 65 4 88 9 141 28 61 24 81 41 76 67 -7 37 -34 40 -93 11
-30 -15 -69 -27 -85 -27 -25 0 -30 4 -30 24 0 18 9 28 38 40 37 16 37 16 4 10
-67 -12 -25 34 64 70 76 31 154 75 154 87 0 15 -13 10 -61 -23 -25 -18 -70
-42 -99 -53 -72 -27 -110 -64 -110 -107 0 -42 -8 -53 -45 -62 l-30 -8 29 31
c17 17 25 31 20 31 -6 0 -23 -13 -38 -29 -28 -29 -103 -67 -161 -81 -16 -4
-38 -11 -47 -15 -10 -4 -18 -3 -18 3 0 5 12 13 26 16 15 4 44 25 66 47 22 22
57 47 79 55 21 9 39 20 39 25 0 13 -6 11 -48 -10 -20 -11 -54 -37 -76 -59 -44
-46 -106 -68 -161 -58 -34 7 -35 8 -35 51 0 71 54 213 99 260 21 22 50 57 66
78 15 20 31 37 35 37 4 0 13 -13 20 -29 7 -18 27 -37 48 -47 32 -15 46 -16
102 -7 97 16 268 2 313 -26 45 -27 92 -27 158 3 51 22 61 23 194 17 77 -4 183
-4 235 1 84 6 205 4 340 -7 25 -2 50 1 56 6 8 7 14 7 18 0 4 -6 18 -6 35 -1
51 14 71 30 71 55 0 13 4 26 8 29 5 3 7 18 5 33 -4 23 1 32 21 43 14 7 26 17
26 22 0 16 10 8 25 -21z m-1125 9 c0 -5 -4 -10 -10 -10 -5 0 -10 5 -10 10 0 6
5 10 10 10 6 0 10 -4 10 -10z m1260 -50 c0 -6 11 -16 25 -22 14 -6 25 -20 25
-31 0 -16 -2 -17 -15 -7 -26 21 -57 70 -46 70 6 0 11 -5 11 -10z m-1927 -31
c-10 -17 -29 -40 -43 -51 -22 -18 -25 -18 -28 -3 -2 9 2 23 10 32 9 12 9 15 1
9 -9 -5 -13 -1 -13 11 0 16 6 18 34 15 18 -2 37 1 40 7 17 26 15 8 -1 -20z
m780 -19 c4 -15 0 -20 -14 -20 -17 0 -18 3 -7 20 7 11 13 20 14 20 1 0 4 -9 7
-20z m1242 -48 c-6 -7 -35 18 -35 31 0 5 9 2 20 -8 11 -10 18 -20 15 -23z
m-2315 -346 c0 -2 -13 -6 -29 -8 -17 -2 -28 -1 -25 4 5 8 54 12 54 4z m270
-35 c0 -15 -15 -21 -38 -14 -32 8 -27 23 8 23 17 0 30 -4 30 -9z m50 -11 c12
-8 9 -10 -12 -10 -16 0 -28 5 -28 10 0 13 20 13 40 0z m70 6 c0 -9 -40 -13
-46 -5 -3 5 6 9 20 9 14 0 26 -2 26 -4z m194 -13 c4 -10 -1 -24 -12 -36 -18
-17 -22 -18 -68 -4 l-49 15 39 17 c36 15 39 15 60 -2 11 -9 15 -11 9 -3 -17
18 -16 30 1 30 8 0 17 -8 20 -17z m86 -21 c0 -13 -12 -22 -22 -16 -10 6 -1 24
13 24 5 0 9 -4 9 -8z m1460 -1 c0 -6 -4 -12 -9 -16 -5 -3 -24 -24 -43 -48 -18
-23 -25 -36 -16 -29 15 12 16 9 4 -41 -16 -70 -34 -94 -98 -133 -54 -34 -67
-32 -68 11 0 11 -12 52 -25 90 -14 39 -25 76 -25 83 0 8 16 12 47 12 30 0 67
9 98 24 123 59 135 63 135 47z m-330 -86 c0 -5 -55 -35 -65 -35 -3 0 -5 6 -5
14 0 8 12 17 28 19 15 2 30 5 35 6 4 0 7 -1 7 -4z m468 -25 c4 -38 -19 -64
-51 -56 -30 7 -43 37 -27 66 17 32 74 24 78 -10z m-2118 -38 c18 -15 20 -21
11 -45 -13 -33 -32 -42 -60 -27 -35 18 -23 90 15 90 6 0 22 -8 34 -18z m220
-182 c13 -8 13 -10 -2 -10 -9 0 -20 5 -23 10 -8 13 5 13 25 0z m195 -1470 c-3
-5 -12 -10 -18 -10 -7 0 -6 4 3 10 19 12 23 12 15 0z m1155 0 c-8 -5 -19 -10
-25 -10 -5 0 -3 5 5 10 8 5 20 10 25 10 6 0 3 -5 -5 -10z m-490 -122 c0 -6 -3
-8 -6 -5 -4 3 -16 1 -28 -5 -19 -10 -20 -10 -7 5 16 19 41 23 41 5z m-75 -58
c-3 -5 -10 -10 -16 -10 -5 0 -9 5 -9 10 0 6 7 10 16 10 8 0 12 -4 9 -10z m100
-60 c-27 -12 -43 -12 -25 0 8 5 22 9 30 9 10 0 8 -3 -5 -9z"/>
<path d="M800 2330 c-22 -7 -20 -8 15 -9 22 0 47 4 55 9 11 7 8 9 -15 9 -16
-1 -41 -5 -55 -9z"/>
<path d="M1360 2282 c0 -4 21 -13 48 -19 26 -6 91 -36 144 -66 79 -44 110 -55
160 -60 71 -7 184 5 216 22 35 19 26 20 -29 4 -36 -11 -81 -14 -148 -11 -90 3
-101 6 -166 43 -39 21 -90 49 -115 61 -48 24 -110 38 -110 26z"/>
<path d="M1420 2229 c0 -6 7 -9 15 -6 9 4 24 -6 40 -26 13 -18 25 -27 25 -21
0 21 -41 64 -61 64 -10 0 -19 -5 -19 -11z"/>
<path d="M1330 2142 c0 -4 18 -20 40 -35 45 -29 56 -19 13 11 -43 29 -53 34
-53 24z"/>
<path d="M780 1995 c0 -5 5 -17 10 -25 5 -8 10 -10 10 -5 0 6 -5 17 -10 25 -5
8 -10 11 -10 5z"/>
<path d="M822 1909 c-7 -11 -11 -23 -9 -25 7 -7 29 24 25 36 -2 6 -9 1 -16
-11z"/>
<path d="M1890 1884 l-25 -15 25 7 c14 3 29 10 35 15 15 14 -7 10 -35 -7z"/>
<path d="M1670 1823 c-24 -26 -40 -42 -35 -34 5 9 4 12 -3 7 -7 -4 -12 -13
-12 -20 0 -14 -51 -66 -65 -66 -4 0 0 10 11 23 l19 22 -22 -19 c-13 -10 -20
-22 -17 -27 2 -4 -27 -41 -66 -81 -64 -66 -70 -76 -70 -114 0 -50 20 -73 38
-43 7 10 17 19 23 19 6 0 23 9 38 19 l27 19 1 -36 c1 -20 3 -63 4 -94 1 -32 4
-58 6 -58 3 0 14 11 24 25 12 14 26 22 34 18 22 -8 18 -22 -4 -16 -10 3 -22 0
-25 -6 -5 -7 1 -10 16 -8 17 1 23 -3 22 -15 -1 -10 2 -15 7 -13 9 6 6 41 -6
69 -6 13 10 92 48 244 31 124 55 227 53 229 -2 2 -23 -18 -46 -44z"/>
<path d="M786 1843 c-6 -14 -5 -15 5 -6 7 7 10 15 7 18 -3 3 -9 -2 -12 -12z"/>
<path d="M817 1828 c-17 -9 -16 -11 8 -34 14 -13 30 -24 34 -24 5 0 11 -8 14
-19 6 -25 98 -55 157 -52 24 1 41 -1 37 -6 -5 -4 -18 -8 -29 -8 -26 0 -35 -20
-11 -22 10 -1 34 -4 53 -7 91 -15 159 -15 174 -1 8 8 22 15 32 15 33 0 8 9
-70 25 -43 9 -84 14 -90 12 -9 -4 -12 8 -12 36 1 41 0 42 -29 39 -16 -2 -31
-8 -33 -13 -2 -5 -17 -9 -33 -9 -16 0 -29 -4 -29 -10 0 -5 -5 -10 -11 -10 -6
0 -8 7 -5 16 4 12 2 15 -9 10 -8 -3 -15 -2 -15 2 0 5 -22 14 -50 21 -29 7 -50
19 -50 26 0 20 -13 25 -33 13z"/>
<path d="M540 1816 c0 -2 8 -10 18 -17 15 -13 16 -12 3 4 -13 16 -21 21 -21
13z"/>
<path d="M1883 1679 c-12 -21 -17 -37 -12 -33 11 6 42 64 37 69 -2 2 -13 -14
-25 -36z"/>
<path d="M982 1625 c-22 -22 -22 -24 -4 -29 29 -10 52 4 52 30 0 30 -18 29
-48 -1z"/>
<path d="M1371 1576 c-26 -28 -10 -49 17 -22 16 16 16 17 -3 10 -20 -7 -20 -7
-1 14 26 30 15 28 -13 -2z"/>
<path d="M1329 1518 c-16 -31 -29 -89 -18 -82 5 3 9 13 9 23 0 10 9 30 20 44
12 15 16 28 11 32 -6 3 -15 -5 -22 -17z"/>
<path d="M1345 1450 c-7 -12 2 -30 16 -30 12 0 12 27 0 35 -5 3 -12 1 -16 -5z"/>
<path d="M1460 1416 c0 -8 4 -17 9 -20 11 -7 33 18 24 27 -12 12 -33 7 -33 -7z"/>
<path d="M530 1325 c0 -8 4 -15 10 -15 5 0 7 7 4 15 -4 8 -8 15 -10 15 -2 0
-4 -7 -4 -15z"/>
<path d="M526 1281 c-2 -3 -1 -14 3 -23 5 -15 7 -14 17 6 8 18 8 23 -3 23 -8
0 -15 -3 -17 -6z"/>
<path d="M1366 1265 c4 -11 -42 -40 -58 -37 -3 1 -12 -6 -20 -16 -12 -16 -11
-16 6 -2 16 13 18 13 15 1 -11 -31 -35 -35 -81 -13 -24 12 -53 22 -64 21 -10
-1 -3 -5 16 -11 20 -5 49 -20 65 -34 17 -14 24 -23 18 -19 -17 8 -16 0 3 -37
11 -21 14 -41 9 -67 -4 -20 -10 -30 -13 -22 -3 9 -9 2 -18 -17 -8 -21 -18 -30
-27 -26 -8 3 -18 1 -21 -4 -7 -12 -113 13 -135 31 -12 9 -13 9 -7 0 5 -9 0
-13 -13 -13 -12 0 -21 7 -21 15 0 8 -6 12 -14 9 -7 -3 -13 -13 -12 -22 1 -11
-6 -17 -18 -17 -11 0 -21 -6 -24 -13 -3 -9 3 -10 22 -2 14 5 26 6 26 2 0 -10
-70 -37 -88 -35 -9 1 -10 -3 -2 -12 12 -14 3 -45 -13 -45 -8 0 -7 -4 1 -12 8
-8 15 -8 27 2 13 11 15 8 15 -17 0 -58 81 -94 107 -49 30 52 0 113 -52 104
-33 -7 -32 -3 7 16 29 15 33 15 41 1 4 -8 18 -25 30 -37 12 -11 16 -18 10 -14
-9 5 -13 -3 -14 -26 -1 -18 -1 -36 0 -40 0 -5 -3 -8 -9 -8 -5 0 -10 -7 -10
-15 0 -8 -9 -15 -20 -15 -37 0 -15 -54 25 -63 11 -3 2 -5 -21 -4 -22 0 -46 -3
-53 -7 -7 -5 -27 8 -51 32 -41 41 -51 43 -25 5 14 -20 14 -22 -7 -25 -13 -2
-32 -18 -43 -35 -16 -27 -25 -32 -44 -27 -22 5 -23 4 -10 -12 13 -16 12 -17
-11 -12 -22 4 -25 1 -27 -26 l-2 -31 17 23 c10 13 21 20 25 16 10 -11 9 -52
-3 -74 -7 -13 -6 -21 2 -26 7 -4 10 -4 6 1 -4 4 0 21 8 37 9 16 13 36 10 44
-3 8 1 14 9 14 10 0 15 10 15 29 0 30 20 53 51 58 13 2 17 -2 12 -12 -4 -12
-9 -13 -19 -4 -9 8 -14 8 -14 1 0 -6 5 -14 12 -18 7 -5 4 -10 -11 -16 -36 -13
-19 -32 35 -39 27 -3 40 -7 29 -8 l-20 -2 20 -9 c12 -5 14 -9 6 -9 -11 -1 -10
-4 4 -14 12 -10 14 -16 7 -21 -7 -4 -12 -20 -12 -37 0 -16 -4 -29 -10 -29 -5
0 -7 13 -3 30 3 19 1 30 -6 30 -6 0 -11 -9 -11 -19 0 -20 -32 -37 -50 -26 -6
3 -7 17 -4 31 4 14 2 24 -5 24 -16 0 -13 -59 4 -77 8 -8 13 -18 11 -22 -3 -4
1 -8 9 -8 8 0 15 10 16 21 0 17 2 16 11 -6 11 -31 18 -33 69 -14 30 10 39 10
55 -1 10 -7 30 -13 45 -13 21 0 36 -11 64 -50 20 -27 41 -50 46 -50 15 0 49
39 49 55 0 17 -26 20 -35 4 -5 -6 -13 -3 -22 11 -11 16 -12 24 -3 35 8 10 8
15 0 20 -8 5 -3 11 12 19 29 14 39 82 14 92 -12 4 -13 11 -6 24 5 10 6 20 1
22 -4 2 -12 13 -15 26 -6 19 -4 22 18 22 26 0 32 -8 19 -26 -5 -5 -1 -1 9 8
10 11 32 18 55 19 21 0 47 4 58 8 16 6 11 9 -25 15 -114 18 -129 60 -21 58 46
-1 66 -6 82 -21 20 -18 21 -27 16 -113 -3 -51 -9 -105 -12 -120 -6 -24 -4 -28
31 -38 47 -14 119 -1 119 20 0 11 -15 16 -57 18 -47 2 -58 6 -58 20 0 10 4 22
9 28 5 5 11 56 13 113 2 87 6 105 20 109 22 5 33 95 33 277 0 110 -4 150 -18
186 -16 42 -20 46 -66 55 -36 7 -48 7 -45 -1z m14 -61 c0 -8 -5 -12 -10 -9 -6
4 -8 11 -5 16 9 14 15 11 15 -7z m70 -14 c0 -5 -4 -10 -10 -10 -5 0 -10 5 -10
10 0 6 5 10 10 10 6 0 10 -4 10 -10z m-90 -46 c0 -8 -5 -12 -10 -9 -6 4 -8 11
-5 16 9 14 15 11 15 -7z m80 -14 c0 -5 -5 -10 -11 -10 -5 0 -7 5 -4 10 3 6 8
10 11 10 2 0 4 -4 4 -10z m-90 -34 c0 -3 -4 -8 -10 -11 -5 -3 -10 -1 -10 4 0
6 5 11 10 11 6 0 10 -2 10 -4z m90 -20 c0 -3 -4 -8 -10 -11 -5 -3 -10 -1 -10
4 0 6 5 11 10 11 6 0 10 -2 10 -4z m-86 -59 c17 -27 -2 -32 -24 -6 -17 20 -21
22 -30 9 -8 -13 -10 -13 -10 3 0 9 5 17 11 17 5 0 7 6 3 13 -5 7 2 6 16 -4 13
-9 28 -23 34 -32z m-105 -41 c-7 -14 -16 -26 -20 -26 -5 0 0 13 9 29 20 36 27
34 11 -3z m-99 -81 c10 -12 10 -15 -4 -15 -9 0 -16 7 -16 15 0 8 2 15 4 15 2
0 9 -7 16 -15z m-120 -15 c24 -24 24 -29 4 -58 -19 -28 -44 -29 -44 -1 0 12
-8 23 -20 26 -26 7 -25 18 2 37 29 20 34 20 58 -4z m75 -18 c-11 -9 -15 -11
-8 -3 6 7 9 21 6 30 -5 13 -3 14 8 3 11 -10 10 -15 -6 -30z m93 -36 c4 -17
-14 -46 -28 -46 -4 0 -10 9 -13 21 -3 11 -15 23 -26 26 -27 7 -27 17 2 30 26
13 60 -4 65 -31z m-111 -8 c-3 -8 -6 -5 -6 6 -1 11 2 17 5 13 3 -3 4 -12 1
-19z m10 -54 c-3 -3 -12 -4 -19 -1 -8 3 -5 6 6 6 11 1 17 -2 13 -5z m183 -4
c0 -5 -8 -10 -17 -10 -15 0 -16 2 -3 10 19 12 20 12 20 0z m-113 -6 c-3 -3
-12 -4 -19 -1 -8 3 -5 6 6 6 11 1 17 -2 13 -5z m-132 -72 c-3 -3 -11 0 -18 7
-9 10 -8 11 6 5 10 -3 15 -9 12 -12z m240 -13 c14 -5 4 -8 -32 -8 -48 -1 -71
8 -57 22 7 7 57 -1 89 -14z m-112 -20 c-4 -15 -8 -17 -14 -8 -8 14 -3 29 11
29 4 0 6 -9 3 -21z m-63 -9 c0 -5 -5 -10 -11 -10 -5 0 -7 5 -4 10 3 6 8 10 11
10 2 0 4 -4 4 -10z m60 -241 c12 -16 20 -33 17 -36 -8 -7 -56 50 -50 59 7 12
10 10 33 -23z"/>
<path d="M555 1195 c-3 -8 -7 -22 -10 -31 -3 -8 -1 -13 4 -10 5 3 11 17 13 31
6 27 0 34 -7 10z"/>
<path d="M641 1144 c0 -11 3 -14 6 -6 3 7 2 16 -1 19 -3 4 -6 -2 -5 -13z"/>
<path d="M622 1050 c0 -14 2 -19 5 -12 2 6 2 18 0 25 -3 6 -5 1 -5 -13z"/>
<path d="M638 973 c-8 -10 -18 -25 -22 -33 -4 -8 0 -6 8 5 9 11 24 26 33 33 9
6 12 12 6 12 -5 0 -17 -8 -25 -17z"/>
<path d="M908 983 c7 -3 16 -2 19 1 4 3 -2 6 -13 5 -11 0 -14 -3 -6 -6z"/>
<path d="M918 953 c7 -3 16 -2 19 1 4 3 -2 6 -13 5 -11 0 -14 -3 -6 -6z"/>
<path d="M584 778 l-19 -23 23 19 c21 18 27 26 19 26 -2 0 -12 -10 -23 -22z"/>
<path d="M777 542 c-19 -20 -23 -37 -7 -27 10 6 33 45 27 45 -2 0 -11 -8 -20
-18z"/>
<path d="M820 514 c0 -10 5 -26 10 -34 8 -11 9 -7 4 15 -8 37 -14 45 -14 19z"/>
<path d="M840 443 c0 -6 -15 -9 -34 -7 -23 1 -36 -3 -40 -12 -3 -8 1 -14 9
-14 8 0 15 -9 15 -20 0 -33 29 -23 45 17 8 20 13 38 10 41 -3 3 -5 1 -5 -5z"/>
<path d="M892 398 c3 -7 13 -15 22 -16 12 -3 17 1 14 10 -3 7 -13 15 -22 16
-12 3 -17 -1 -14 -10z"/>
<path d="M860 380 c-9 -6 -10 -10 -3 -10 6 0 15 5 18 10 8 12 4 12 -15 0z"/>
<path d="M2109 2063 c-13 -16 -12 -17 4 -4 9 7 17 15 17 17 0 8 -8 3 -21 -13z"/>
<path d="M2079 2023 c-13 -16 -12 -17 4 -4 9 7 17 15 17 17 0 8 -8 3 -21 -13z"/>
<path d="M2079 1963 l-34 -38 38 34 c34 33 42 41 34 41 -2 0 -19 -17 -38 -37z"/>
</g>
</svg>
